<svg id="orchid" width="20" height="20" viewBox="0 0 20 20" fill="none" xmlns="http://www.w3.org/2000/svg">
    <g id="Link">
        <path id="Vector"
              d="M18.2812 4.22503C17.9329 3.87543 17.5189 3.59804 17.0631 3.40877C16.6073 3.2195 16.1186 3.12207 15.625 3.12207C15.1314 3.12207 14.6427 3.2195 14.1869 3.40877C13.7311 3.59804 13.3171 3.87543 12.9687 4.22503L13.8562 5.11253C14.0889 4.87984 14.3652 4.69526 14.6692 4.56934C14.9732 4.44341 15.2991 4.37859 15.6281 4.37859C15.9572 4.37859 16.283 4.44341 16.5871 4.56934C16.8911 4.69526 17.1673 4.87984 17.4 5.11253C17.6327 5.34521 17.8173 5.62145 17.9432 5.92547C18.0691 6.22949 18.1339 6.55534 18.1339 6.8844C18.1339 7.21347 18.0691 7.53932 17.9432 7.84333C17.8173 8.14735 17.6327 8.42359 17.4 8.65628L12.4 13.6563C11.9309 14.1262 11.2943 14.3905 10.6303 14.3911C9.96634 14.3917 9.3293 14.1285 8.85937 13.6594C8.38944 13.1903 8.12511 12.5537 8.12452 11.8897C8.12394 11.2257 8.38715 10.5887 8.85625 10.1188L9.7375 9.23128L8.85625 8.34378L7.96875 9.23128C7.61915 9.57967 7.34176 9.99364 7.15249 10.4495C6.96322 10.9053 6.86579 11.394 6.86579 11.8875C6.86579 12.3811 6.96322 12.8698 7.15249 13.3256C7.34176 13.7814 7.61915 14.1954 7.96875 14.5438C8.67593 15.2419 9.63129 15.6308 10.625 15.625C11.1204 15.6271 11.6114 15.5309 12.0695 15.3421C12.5275 15.1533 12.9436 14.8756 13.2937 14.525L18.2938 9.52503C18.9943 8.82025 19.3865 7.8662 19.3842 6.87244C19.3819 5.87869 18.9852 4.9265 18.2812 4.22503Z"
              fill="currentColor"/>
        <path id="Vector_2"
              d="M2.61875 15.5125C2.38537 15.2802 2.20018 15.0041 2.07381 14.7C1.94745 14.396 1.8824 14.0699 1.8824 13.7406C1.8824 13.4114 1.94745 13.0853 2.07381 12.7812C2.20018 12.4772 2.38537 12.2011 2.61875 11.9688L7.61875 6.96876C7.85104 6.73538 8.12715 6.55019 8.43123 6.42383C8.7353 6.29746 9.06134 6.23241 9.39062 6.23241C9.7199 6.23241 10.0459 6.29746 10.35 6.42383C10.6541 6.55019 10.9302 6.73538 11.1625 6.96876C11.3944 7.20289 11.577 7.48118 11.6993 7.78715C11.8217 8.09312 11.8815 8.42054 11.875 8.75001C11.8769 9.08051 11.8133 9.40811 11.6877 9.71386C11.5622 10.0196 11.3773 10.2974 11.1437 10.5313L9.81875 11.875L10.7062 12.7625L12.0312 11.4375C12.7366 10.7322 13.1328 9.7756 13.1328 8.77814C13.1328 7.78068 12.7366 6.82407 12.0312 6.11876C11.3259 5.41345 10.3693 5.01721 9.37187 5.01721C8.37441 5.01721 7.41781 5.41345 6.7125 6.11876L1.7125 11.1188C1.36196 11.4673 1.08377 11.8816 0.893948 12.338C0.704123 12.7944 0.6064 13.2838 0.6064 13.7781C0.6064 14.2724 0.704123 14.7619 0.893948 15.2183C1.08377 15.6746 1.36196 16.089 1.7125 16.4375C2.42426 17.1303 3.38181 17.5124 4.375 17.5C5.37694 17.501 6.33857 17.1055 7.05 16.4L6.1625 15.5125C5.9302 15.7459 5.65409 15.9311 5.35002 16.0574C5.04594 16.1838 4.7199 16.2489 4.39062 16.2489C4.06134 16.2489 3.7353 16.1838 3.43123 16.0574C3.12715 15.9311 2.85104 15.7459 2.61875 15.5125Z"
              fill="currentColor"/>
    </g>
</svg>
