<svg id="orchid" width="20" height="20" viewBox="0 0 20 20" fill="none" xmlns="http://www.w3.org/2000/svg">
    <g id="Media">
        <path id="Vector" d="M8.125 9.375V14.375L12.5 11.875L8.125 9.375Z" fill="currentColor"/>
        <path id="Vector_2"
              d="M16.25 17.5H3.75C3.41858 17.4997 3.10083 17.3679 2.86648 17.1335C2.63213 16.8992 2.50033 16.5814 2.5 16.25V7.5C2.50033 7.16858 2.63213 6.85083 2.86648 6.61648C3.10083 6.38213 3.41858 6.25033 3.75 6.25H16.25C16.5814 6.25033 16.8992 6.38213 17.1335 6.61648C17.3679 6.85083 17.4997 7.16858 17.5 7.5V16.25C17.4997 16.5814 17.3679 16.8992 17.1335 17.1335C16.8992 17.3679 16.5814 17.4997 16.25 17.5ZM3.75 7.5V16.25H16.25V7.5H3.75ZM3.75 3.75H16.25V5H3.75V3.75ZM5 1.25H15V2.5H5V1.25Z"
              fill="currentColor"/>
    </g>
</svg>
