<svg id="orchid" width="20" height="20" viewBox="0 0 20 20" fill="none" xmlns="http://www.w3.org/2000/svg">
    <g id="Quote">
        <path id="Vector"
              d="M7.5 9.375H3.81875C3.93491 8.60146 4.21112 7.86066 4.62974 7.1999C5.04837 6.53914 5.6002 5.97295 6.25 5.5375L7.36875 4.7875L6.68125 3.75L5.5625 4.5C4.6208 5.12755 3.84857 5.97785 3.31433 6.97545C2.7801 7.97305 2.50038 9.08711 2.5 10.2188V14.375C2.5 14.7065 2.6317 15.0245 2.86612 15.2589C3.10054 15.4933 3.41848 15.625 3.75 15.625H7.5C7.83152 15.625 8.14946 15.4933 8.38388 15.2589C8.6183 15.0245 8.75 14.7065 8.75 14.375V10.625C8.75 10.2935 8.6183 9.97554 8.38388 9.74112C8.14946 9.5067 7.83152 9.375 7.5 9.375ZM16.25 9.375H12.5688C12.6849 8.60146 12.9611 7.86066 13.3797 7.1999C13.7984 6.53914 14.3502 5.97295 15 5.5375L16.1188 4.7875L15.4375 3.75L14.3125 4.5C13.3708 5.12755 12.5986 5.97785 12.0643 6.97545C11.5301 7.97305 11.2504 9.08711 11.25 10.2188V14.375C11.25 14.7065 11.3817 15.0245 11.6161 15.2589C11.8505 15.4933 12.1685 15.625 12.5 15.625H16.25C16.5815 15.625 16.8995 15.4933 17.1339 15.2589C17.3683 15.0245 17.5 14.7065 17.5 14.375V10.625C17.5 10.2935 17.3683 9.97554 17.1339 9.74112C16.8995 9.5067 16.5815 9.375 16.25 9.375Z"
              fill="currentColor"/>
    </g>
</svg>
