<svg id="orchid" width="35" height="24" viewBox="0 0 35 24" fill="none" xmlns="http://www.w3.org/2000/svg">
    <g clip-path="url(#clip0_2054_14547)">
        <rect width="35" height="24" rx="4" fill="white"/>
        <g clip-path="url(#clip1_2054_14547)">
            <path d="M16.5787 15.418V9.12899C16.5787 9.06652 16.6035 9.0066 16.6477 8.96242C16.6919 8.91825 16.7518 8.89343 16.8143 8.89343H18.9365C19.4907 8.92461 20.012 9.16674 20.3933 9.57011C20.7746 9.97348 20.987 10.5075 20.987 11.0626C20.987 11.6176 20.7746 12.1517 20.3933 12.555C20.012 12.9584 19.4907 13.2005 18.9365 13.2317H17.4009V15.4146C17.4009 15.4771 17.376 15.537 17.3319 15.5811C17.2877 15.6253 17.2278 15.6501 17.1653 15.6501H16.8154C16.7529 15.6501 16.693 15.6253 16.6488 15.5811C16.6047 15.537 16.5798 15.4771 16.5798 15.4146L16.5787 15.418ZM17.4009 12.3798H18.9274C19.1031 12.3805 19.2772 12.3464 19.4397 12.2795C19.6022 12.2126 19.7499 12.1142 19.8742 11.9899C19.9987 11.867 20.0976 11.7204 20.1649 11.5588C20.2322 11.3973 20.2667 11.2239 20.2664 11.0489C20.2655 10.6955 20.1245 10.357 19.8743 10.1075C19.6242 9.85799 19.2853 9.71787 18.9319 9.71787H17.4009V12.3798Z"
                  fill="#EE4D2D"/>
            <path d="M26.5154 17.5381L28.1219 14.7778L26.1975 11.6252C26.1845 11.6038 26.1775 11.5792 26.1771 11.5541C26.1768 11.529 26.1831 11.5043 26.1954 11.4824C26.2077 11.4606 26.2256 11.4424 26.2473 11.4297C26.2689 11.417 26.2936 11.4103 26.3187 11.4103H27.0974L28.6445 13.9202L30.139 11.4103H30.8582C30.8831 11.4104 30.9076 11.4172 30.9291 11.4298C30.9506 11.4424 30.9683 11.4605 30.9806 11.4821C30.9929 11.5038 30.9993 11.5284 30.9991 11.5533C30.9989 11.5782 30.9921 11.6026 30.9794 11.6241L27.3581 17.7485H26.6366C26.6117 17.7484 26.5873 17.7418 26.5658 17.7293C26.5443 17.7168 26.5265 17.6989 26.5141 17.6774C26.5017 17.6558 26.4952 17.6314 26.4952 17.6066C26.4952 17.5817 26.5018 17.5573 26.5142 17.5358L26.5154 17.5381Z"
                  fill="#EE4D2D"/>
            <path d="M24.711 15.3861V15.0236L24.5966 15.1231C24.2037 15.4502 23.7083 15.6287 23.197 15.6274C22.6345 15.6313 22.0933 15.4119 21.6924 15.0172C21.2915 14.6225 21.0636 14.0848 21.0588 13.5223C21.0588 12.3617 22.0181 11.4503 23.197 11.4503C23.7051 11.4491 24.1975 11.6259 24.5886 11.95L24.703 12.0495V11.687C24.703 11.6245 24.7278 11.5646 24.772 11.5205C24.8161 11.4763 24.8761 11.4515 24.9385 11.4515H25.4279V15.6274H24.9397C24.8772 15.6274 24.8173 15.6026 24.7731 15.5584C24.7289 15.5142 24.7041 15.4543 24.7041 15.3918L24.711 15.3861ZM23.1902 12.229C22.842 12.2241 22.5059 12.3571 22.2553 12.5989C22.0047 12.8407 21.8598 13.1718 21.8523 13.52C21.8523 13.8763 21.9939 14.2181 22.2459 14.47C22.4978 14.722 22.8396 14.8635 23.1959 14.8635C23.5522 14.8635 23.894 14.722 24.1459 14.47C24.3979 14.2181 24.5395 13.8763 24.5395 13.52C24.5362 13.3465 24.4987 13.1753 24.429 13.0163C24.3593 12.8574 24.2588 12.7137 24.1334 12.5938C24.008 12.4738 23.8601 12.3798 23.6982 12.3172C23.5364 12.2546 23.3637 12.2246 23.1902 12.229Z"
                  fill="#EE4D2D"/>
            <path d="M13.4056 8.88088H6.29215C6.18813 8.88088 6.08837 8.83956 6.01482 8.766C5.94126 8.69245 5.89994 8.59269 5.89994 8.48867C5.89962 8.44214 5.91749 8.39733 5.94975 8.36379C5.98201 8.33025 6.02609 8.31064 6.0726 8.30915H12.4531C12.5004 8.30915 12.5458 8.29036 12.5792 8.25691C12.6127 8.22345 12.6315 8.17808 12.6315 8.13077V7.48815C12.6315 7.43372 12.6203 7.37988 12.5984 7.33005C12.5765 7.28022 12.5445 7.23549 12.5043 7.1987C12.4642 7.16192 12.4169 7.13389 12.3653 7.1164C12.3138 7.0989 12.2592 7.09232 12.205 7.09708L5.74443 7.66881C5.5214 7.68804 5.31376 7.79043 5.16273 7.95566C5.0117 8.12088 4.92832 8.33686 4.92914 8.56071V14.7697C4.92914 15.0062 5.02311 15.2331 5.19038 15.4004C5.35764 15.5676 5.58449 15.6616 5.82104 15.6616H13.4056C13.6421 15.6616 13.869 15.5676 14.0363 15.4004C14.2035 15.2331 14.2975 15.0062 14.2975 14.7697V9.77621C14.2975 9.53966 14.2035 9.31281 14.0363 9.14554C13.869 8.97828 13.6421 8.88431 13.4056 8.88431"
                  fill="#EE4D2D"/>
            <path d="M11.2079 13.5496C11.1825 13.7723 11.0973 13.9839 10.9615 14.162C10.8256 14.3402 10.644 14.4782 10.436 14.5616C10.175 14.6676 9.89413 14.7156 9.61275 14.7022C9.22224 14.6896 8.83929 14.5912 8.49102 14.4141C8.33155 14.3265 8.18104 14.2235 8.04164 14.1065C8.00962 14.0802 7.99361 14.0562 8.02449 14.0139L8.2063 13.7486C8.2121 13.7391 8.22002 13.7311 8.22945 13.7251C8.23887 13.7192 8.24955 13.7155 8.26063 13.7144C8.27171 13.7133 8.28289 13.7148 8.2933 13.7188C8.30372 13.7227 8.31308 13.729 8.32064 13.7372L8.37667 13.7806C8.73054 14.0644 9.16437 14.2304 9.61732 14.2552C10.2199 14.2472 10.6567 13.9784 10.7345 13.5691C10.8202 13.1117 10.4555 12.7183 9.75225 12.4999C9.44935 12.3989 9.15235 12.2809 8.86264 12.1466C8.37248 11.8608 8.14379 11.4868 8.17657 11.0249C8.22573 10.3857 8.82262 9.90658 9.57959 9.9043C9.92183 9.90504 10.2605 9.97425 10.5755 10.1078C10.7112 10.1669 10.8416 10.2373 10.9655 10.3182C10.9755 10.3232 10.9843 10.3303 10.9913 10.3391C10.9983 10.3479 11.0033 10.3581 11.0059 10.369C11.0085 10.3799 11.0087 10.3912 11.0065 10.4022C11.0042 10.4132 10.9996 10.4236 10.9929 10.4326C10.9632 10.4817 10.8786 10.6212 10.8385 10.6784C10.8122 10.7173 10.7802 10.723 10.7333 10.6933C10.3946 10.4669 9.99726 10.3442 9.58988 10.34C9.07304 10.3502 8.68312 10.6555 8.65796 11.0741C8.6511 11.4514 8.9404 11.7258 9.55444 11.9362C10.8214 12.341 11.3016 12.8155 11.2102 13.5611"
                  fill="white"/>
        </g>
    </g>
    <rect x="0.5" y="0.5" width="34" height="23" rx="3.5" stroke="#E5E6EA"/>
    <defs>
        <clipPath id="clip0_2054_14547">
            <rect width="35" height="24" rx="4" fill="white"/>
        </clipPath>
        <clipPath id="clip1_2054_14547">
            <rect width="26.0709" height="10.6513" fill="white" transform="translate(4.92914 7.09937)"/>
        </clipPath>
    </defs>
</svg>
