<svg id="orchid" width="35" height="24" viewBox="0 0 35 24" fill="none" xmlns="http://www.w3.org/2000/svg">
    <g clip-path="url(#clip0_2054_14548)">
        <rect width="35" height="24" rx="4" fill="white"/>
        <rect width="35" height="24" rx="4" fill="white"/>
        <g clip-path="url(#clip1_2054_14548)">
            <path d="M5.59517 13.0484C5.59517 13.6913 5.02262 14.0768 4.34553 14.0768C4.03967 14.0768 3.76434 14.004 3.51953 13.8625C3.31819 13.7403 3.17235 13.5791 3.0814 13.3787C3.07862 13.3729 3.03268 13.2755 3 13.1334L3.82631 12.9236L3.82724 12.9272C3.9185 13.1407 4.11861 13.271 4.35417 13.271C4.55951 13.271 4.66003 13.2111 4.66003 13.0868C4.66003 12.971 4.54656 12.9154 4.28418 12.8468L3.94348 12.7524C3.45848 12.6151 3.19178 12.3152 3.19178 11.8526C3.17852 11.2868 3.75108 10.914 4.35417 10.9227C4.58572 10.9227 4.80001 10.9784 5.00535 11.0857C5.14225 11.1571 5.2514 11.2538 5.33125 11.3736C5.39323 11.4612 5.44626 11.5922 5.47555 11.7131L4.71923 11.9039V11.903L4.71707 11.9039C4.65602 11.754 4.54225 11.6811 4.37637 11.6811C4.24101 11.6811 4.12724 11.7282 4.12724 11.8311C4.12724 11.9339 4.2407 11.9853 4.46794 12.0497L4.79569 12.1398C5.32879 12.2856 5.59548 12.5897 5.59548 13.0481L5.59517 13.0484ZM9.02993 12.4999C9.01666 13.3699 9.72458 14.0941 10.673 14.0768C11.6211 14.0941 12.329 13.3699 12.3161 12.4999C12.329 11.63 11.6214 10.9058 10.673 10.923C9.72489 10.9058 9.01697 11.63 9.02993 12.4999ZM11.3809 12.4999C11.3809 12.8985 11.1231 13.2284 10.673 13.2284C10.2228 13.2284 9.96507 12.8985 9.96507 12.4999C9.96507 12.1014 10.2228 11.7715 10.673 11.7715C11.1231 11.7715 11.3809 12.1014 11.3809 12.4999ZM12.6833 10.9926V13.9925H13.6008V13.1482H14.2126C14.8681 13.1482 15.2963 12.694 15.2963 12.0639C15.2963 11.4338 14.8681 10.9926 14.2126 10.9926H12.6833ZM14.3612 12.0757C14.3612 12.2299 14.265 12.3415 14.051 12.3415H13.6008V11.8144H14.051C14.265 11.8144 14.3612 11.9257 14.3612 12.076V12.0757ZM7.75992 10.9929V12.135L6.79672 12.3796V10.9929H5.87914V13.9928H6.79672V13.173L7.75992 12.9284V13.9928H8.67751V10.9929H7.75992ZM15.7126 13.9925H17.277C17.902 13.9925 18.2994 13.6281 18.2994 13.1268C18.2994 12.7025 18.0546 12.454 17.775 12.3512C17.9498 12.2139 18.0371 12.0213 18.0371 11.7769C18.0371 11.3228 17.6439 10.9929 17.0452 10.9929H15.7123V13.9928L15.7126 13.9925ZM16.6302 12.1368V11.7252H16.9141C17.0714 11.7252 17.15 11.8153 17.15 11.9308C17.15 12.0464 17.0714 12.1365 16.9141 12.1365H16.6302V12.1368ZM16.6302 13.2553V12.831H17.1022C17.2813 12.831 17.3819 12.9166 17.3819 13.0409C17.3819 13.1824 17.29 13.2553 17.1022 13.2553H16.6302ZM21.5199 12.4924C21.5066 13.3623 22.2146 14.0865 23.163 14.0693C23.8228 14.0693 24.3429 13.7651 24.6179 13.255L23.7833 12.8607C23.6566 13.1007 23.4469 13.2205 23.163 13.2205C22.7171 13.2205 22.4551 12.8776 22.4551 12.4921C22.4551 12.1065 22.7171 11.7636 23.163 11.7636C23.4469 11.7636 23.6566 11.8837 23.7833 12.1235L24.6179 11.7292C24.3426 11.2191 23.8228 10.9149 23.163 10.9149C22.2149 10.8976 21.507 11.6218 21.5199 12.4918V12.4924ZM24.9109 13.9922H25.8284V12.7494H26.1214L26.7898 13.9922H27.8646L26.9471 12.3766L27.7817 10.9923H26.7593L25.8284 12.565V10.9923H24.9109V13.9922ZM21.6291 13.9922H20.659L20.4821 13.5165L19.3767 13.7971L19.3043 13.9919H18.3343L19.6015 10.992H20.3618L21.6291 13.9919V13.9922ZM20.2101 12.7923L19.9817 12.2139L19.7026 12.9215L20.2101 12.7926V12.7923Z"
                  fill="black"/>
            <path d="M32.3624 12.9499H32.1995L32.4899 12.715C32.6913 12.552 32.7793 12.2838 32.6957 12.0413C32.6091 11.7897 32.3769 11.6264 32.1074 11.6264H29.5318C29.4834 11.6264 29.4596 11.569 29.4938 11.5357L31.2032 9.88715C31.2242 9.86689 31.2586 9.88987 31.247 9.91647L30.6519 11.2823H31.4151L32.845 8H32.1594L28.7665 11.2717C28.5793 11.4522 28.5275 11.7259 28.6385 11.9615C28.7418 12.1807 28.9729 12.3146 29.2191 12.3146H31.7314C31.7818 12.3146 31.8048 12.3769 31.7655 12.4084L31.1815 12.8807C31.0949 12.9509 31.0269 13.0401 30.9826 13.1414L30.7662 13.6381H32.0021C32.0526 13.6381 32.0753 13.7004 32.0363 13.7319L29.5158 15.7675C29.4938 15.785 29.4627 15.7621 29.4739 15.7367L30.3878 13.6381L30.4659 13.4589L30.8145 12.6587H30.0516L28.1603 17H29.0939L32.7728 14.0288C32.981 13.8607 33.0545 13.5898 32.9582 13.3418C32.8654 13.1023 32.6233 12.9499 32.3621 12.9499H32.3624Z"
                  fill="#FF3407"/>
        </g>
    </g>
    <rect x="0.5" y="0.5" width="34" height="23" rx="3.5" stroke="#E5E6EA"/>
    <defs>
        <clipPath id="clip0_2054_14548">
            <rect width="35" height="24" rx="4" fill="white"/>
        </clipPath>
        <clipPath id="clip1_2054_14548">
            <rect width="30" height="9" fill="white" transform="translate(3 8)"/>
        </clipPath>
    </defs>
</svg>
