<svg width="48" height="20" viewBox="0 0 48 20" id="orchid" fill="none" xmlns="http://www.w3.org/2000/svg">
<g clip-path="url(#clip0_733_46165)">
<path fill-rule="evenodd" clip-rule="evenodd" d="M2.34557 0C1.46994 0 0.760254 0.71 0.760254 1.58563V18.4109C0.760254 19.2869 1.46994 19.9966 2.34557 19.9966H16.6499C17.5253 19.9966 18.2356 19.2869 18.2356 18.4109V6.34688L12.3284 0L2.34557 0Z" fill="#45B058"/>
<path d="M7.09582 13.499C7.1352 13.544 7.1577 13.6003 7.1577 13.6622C7.1577 13.7803 7.06207 13.8872 6.93801 13.8872C6.88176 13.8872 6.81988 13.8647 6.78051 13.814C6.56113 13.5497 6.18957 13.3806 5.84082 13.3806C5.01926 13.3806 4.39488 14.0109 4.39488 14.9056C4.39488 15.7947 5.01957 16.4303 5.84082 16.4303C6.1952 16.4303 6.54395 16.2784 6.78051 16.0025C6.81957 15.9575 6.88176 15.9297 6.93801 15.9297C7.0677 15.9297 7.1577 16.0419 7.1577 16.1603C7.1577 16.2165 7.1352 16.2728 7.09582 16.3178C6.80301 16.6215 6.40363 16.8469 5.84113 16.8469C4.76082 16.8469 3.91113 16.059 3.91113 14.9056C3.91113 13.7522 4.76082 12.9644 5.84113 12.9644C6.40363 12.9647 6.80863 13.1897 7.09582 13.499ZM9.22145 16.8472C8.66457 16.8472 8.22551 16.6615 7.90488 16.38C7.85426 16.335 7.83176 16.2731 7.83176 16.2112C7.83176 16.0984 7.91613 15.9747 8.05113 15.9747C8.09613 15.9747 8.14676 15.9859 8.18613 16.0197C8.44488 16.2506 8.80488 16.4303 9.23832 16.4303C9.90801 16.4303 10.1218 16.0703 10.1218 15.7831C10.1218 14.8153 7.89926 15.35 7.89926 14.0106C7.89926 13.3919 8.45051 12.9697 9.1877 12.9697C9.67145 12.9697 10.088 13.1156 10.3918 13.369C10.4424 13.414 10.4705 13.4759 10.4705 13.5378C10.4705 13.6503 10.3749 13.7628 10.2508 13.7628C10.2058 13.7628 10.1552 13.7459 10.1158 13.7122C9.8402 13.4872 9.49707 13.3859 9.15363 13.3859C8.70363 13.3859 8.3827 13.6278 8.3827 13.9825C8.3827 14.8265 10.6052 14.3425 10.6052 15.7437C10.6055 16.29 10.2343 16.8472 9.22145 16.8472ZM14.5321 13.3303L13.2324 16.56C13.1705 16.7119 13.0183 16.8131 12.8611 16.8131H12.8499C12.6868 16.8131 12.5349 16.7119 12.4727 16.56L11.1783 13.3303C11.1671 13.3022 11.1614 13.274 11.1614 13.2403C11.1614 13.1278 11.2624 12.9925 11.4146 12.9925C11.5102 12.9925 11.6002 13.0487 11.6396 13.1444L12.8549 16.2669L14.0702 13.1444C14.1039 13.0544 14.1939 12.9925 14.2952 12.9925C14.4414 12.9925 14.5483 13.1106 14.5483 13.2403C14.5486 13.2684 14.543 13.3022 14.5321 13.3303Z" fill="white"/>
<path fill-rule="evenodd" clip-rule="evenodd" d="M18.2502 6.36181V6.67431H14.2502C14.2502 6.67431 12.2777 6.28056 12.3352 4.57837C12.3352 4.57837 12.4002 6.36181 14.2112 6.36181H18.2502Z" fill="#349C42"/>
<path opacity="0.5" fill-rule="evenodd" clip-rule="evenodd" d="M12.3428 0.00195312V4.55227C12.3428 5.06977 12.6878 6.36195 14.2503 6.36195H18.2503L12.3428 0.00195312Z" fill="white"/>
</g>
<path d="M30.4828 8.1108H29.1532C29.1021 7.8267 29.0069 7.5767 28.8677 7.3608C28.7285 7.14489 28.5581 6.96165 28.3564 6.81108C28.1547 6.66051 27.9288 6.54687 27.6788 6.47017C27.4316 6.39347 27.1689 6.35511 26.8904 6.35511C26.3876 6.35511 25.9373 6.48153 25.5396 6.73438C25.1447 6.98722 24.8322 7.35795 24.6021 7.84659C24.3748 8.33523 24.2612 8.93182 24.2612 9.63636C24.2612 10.3466 24.3748 10.946 24.6021 11.4347C24.8322 11.9233 25.1461 12.2926 25.5439 12.5426C25.9416 12.7926 26.389 12.9176 26.8862 12.9176C27.1618 12.9176 27.4231 12.8807 27.6703 12.8068C27.9203 12.7301 28.1461 12.6179 28.3478 12.4702C28.5495 12.3224 28.72 12.142 28.8592 11.929C29.0012 11.7131 29.0993 11.4659 29.1532 11.1875L30.4828 11.1918C30.4118 11.6207 30.274 12.0156 30.0694 12.3764C29.8677 12.7344 29.6078 13.044 29.2896 13.3054C28.9743 13.5639 28.6135 13.7642 28.2072 13.9062C27.801 14.0483 27.3578 14.1193 26.8777 14.1193C26.122 14.1193 25.4487 13.9403 24.8578 13.5824C24.2669 13.2216 23.801 12.706 23.46 12.0355C23.122 11.3651 22.9529 10.5653 22.9529 9.63636C22.9529 8.70455 23.1234 7.90483 23.4643 7.23722C23.8052 6.56676 24.2711 6.05256 24.862 5.6946C25.4529 5.33381 26.1248 5.15341 26.8777 5.15341C27.3407 5.15341 27.7725 5.22017 28.1731 5.35369C28.5765 5.48437 28.9387 5.67756 29.2598 5.93324C29.5808 6.18608 29.8464 6.49574 30.0566 6.86222C30.2669 7.22585 30.4089 7.64205 30.4828 8.1108ZM36.8184 7.56534C36.7729 7.16193 36.5854 6.84943 36.2559 6.62784C35.9263 6.40341 35.5115 6.29119 35.0115 6.29119C34.6536 6.29119 34.3439 6.34801 34.0826 6.46165C33.8212 6.57244 33.6181 6.72585 33.4732 6.92188C33.3311 7.11506 33.2601 7.33523 33.2601 7.58239C33.2601 7.78977 33.3084 7.96875 33.405 8.11932C33.5044 8.26989 33.6337 8.39631 33.7928 8.49858C33.9547 8.59801 34.128 8.68182 34.3127 8.75C34.4973 8.81534 34.6749 8.86932 34.8453 8.91193L35.6976 9.13352C35.976 9.2017 36.2615 9.29403 36.5542 9.41051C36.8468 9.52699 37.1181 9.6804 37.3681 9.87074C37.6181 10.0611 37.8198 10.2969 37.9732 10.5781C38.1294 10.8594 38.2076 11.196 38.2076 11.5881C38.2076 12.0824 38.0797 12.5213 37.824 12.9048C37.5712 13.2884 37.2033 13.5909 36.7203 13.8125C36.2402 14.0341 35.6593 14.1449 34.9775 14.1449C34.324 14.1449 33.7587 14.0412 33.2814 13.8338C32.8042 13.6264 32.4306 13.3324 32.1607 12.9517C31.8908 12.5682 31.7417 12.1136 31.7132 11.5881H33.0343C33.0598 11.9034 33.1621 12.1662 33.3411 12.3764C33.5229 12.5838 33.7544 12.7386 34.0357 12.8409C34.3198 12.9403 34.6309 12.9901 34.9689 12.9901C35.3411 12.9901 35.6721 12.9318 35.9618 12.8153C36.2544 12.696 36.4846 12.5312 36.6522 12.321C36.8198 12.108 36.9036 11.8594 36.9036 11.5753C36.9036 11.3168 36.8297 11.1051 36.682 10.9403C36.5371 10.7756 36.3397 10.6392 36.0897 10.5312C35.8425 10.4233 35.5627 10.3281 35.2502 10.2457L34.2189 9.96449C33.5201 9.77415 32.9661 9.49432 32.557 9.125C32.1507 8.75568 31.9476 8.26705 31.9476 7.65909C31.9476 7.15625 32.084 6.71733 32.3567 6.34233C32.6294 5.96733 32.9988 5.67614 33.4647 5.46875C33.9306 5.25852 34.4561 5.15341 35.0414 5.15341C35.6323 5.15341 36.1536 5.2571 36.6053 5.46449C37.0598 5.67188 37.4178 5.95739 37.6792 6.32102C37.9405 6.68182 38.0769 7.09659 38.0882 7.56534H36.8184ZM40.5439 5.27273L42.9728 12.3807H43.0708L45.4998 5.27273H46.9231L43.7825 14H42.2612L39.1206 5.27273H40.5439Z" fill="#03102F"/>
<defs>
<clipPath id="clip0_733_46165">
<rect width="17.5" height="20" fill="white" transform="translate(0.75)"/>
</clipPath>
</defs>
</svg>
