<svg width="155" height="48" viewBox="0 0 155 48" fill="none" xmlns="http://www.w3.org/2000/svg">
<g clip-path="url(#clip0_584_224)">
<path d="M63.2749 9.39087H66.7814V26.2658H72.8262V29.5976H63.2895L63.2749 9.39087Z" fill="#000083"/>
<path d="M80.9486 14.4529C81.8651 14.4417 82.7717 14.6427 83.5977 15.0401C84.4236 15.4375 85.1465 16.0205 85.7097 16.7437V14.7538H88.9832V29.6268H85.7097V27.6418C85.1465 28.3649 84.4236 28.9479 83.5977 29.3453C82.7717 29.7427 81.8651 29.9437 80.9486 29.9325C76.8694 29.9325 73.7729 26.4479 73.7729 22.1915C73.7729 17.9351 76.8694 14.4578 80.9486 14.4578M81.5358 17.4328C78.8883 17.4328 77.1339 19.5173 77.1339 22.1866C77.1339 24.856 78.9174 26.9477 81.5358 26.9477C84.1542 26.9477 85.9378 24.8657 85.9378 22.1866C85.9378 19.5076 84.1833 17.4328 81.5358 17.4328Z" fill="#000083"/>
<path d="M91.5288 27.045L99.3281 17.7266H91.6453V14.754H103.553V17.3748L95.7876 26.6543H103.735V29.6269H91.5288V27.045Z" fill="#000083"/>
<path d="M112.048 14.4529C112.965 14.4417 113.871 14.6427 114.697 15.0401C115.523 15.4375 116.246 16.0205 116.809 16.7437V14.7538H120.083V29.6268H116.809V27.6418C116.246 28.3649 115.523 28.9479 114.697 29.3453C113.871 29.7427 112.965 29.9437 112.048 29.9325C107.969 29.9325 104.88 26.4479 104.88 22.1915C104.88 17.9351 107.969 14.4578 112.048 14.4578M112.643 17.4377C109.993 17.4377 108.241 19.5222 108.241 22.1915C108.241 24.8608 110.024 26.9526 112.643 26.9526C115.261 26.9526 117.045 24.8705 117.045 22.1915C117.045 19.5125 115.29 17.4377 112.643 17.4377Z" fill="#000083"/>
<path d="M129.428 14.4529C130.345 14.4393 131.253 14.6391 132.081 15.0367C132.908 15.4342 133.631 16.0186 134.194 16.7436V8.19696H137.467V29.6267H134.194V27.6417C133.633 28.3656 132.911 28.9492 132.086 29.3468C131.261 29.7443 130.355 29.9448 129.44 29.9325C125.361 29.9325 122.267 26.4478 122.267 22.1915C122.267 17.9351 125.361 14.4577 129.44 14.4577M130.034 17.4377C127.387 17.4377 125.632 19.5222 125.632 22.1915C125.632 24.8608 127.423 26.9526 130.034 26.9526C132.645 26.9526 134.436 24.8656 134.436 22.1866C134.436 19.5076 132.684 17.4328 130.034 17.4328" fill="#000083"/>
<path d="M146.812 14.4529C147.728 14.4411 148.634 14.6419 149.459 15.0394C150.285 15.4368 151.007 16.0202 151.568 16.7436V14.7538H154.82V29.6267H151.542V27.6417C150.98 28.3651 150.259 28.9485 149.434 29.346C148.609 29.7435 147.703 29.9442 146.788 29.9325C142.709 29.9325 139.612 26.4478 139.612 22.1915C139.612 17.9351 142.723 14.4577 146.8 14.4577M147.395 17.4377C144.747 17.4377 142.993 19.5222 142.993 22.1915C142.993 24.8608 144.784 26.9526 147.395 26.9526C150.006 26.9526 151.797 24.8705 151.797 22.1915C151.797 19.5125 150.044 17.4377 147.395 17.4377Z" fill="#000083"/>
<path d="M24.9946 44.2862C24.6402 44.2889 24.2912 44.1985 23.9827 44.0241C21.3401 42.4929 1.76426 30.2188 1.02413 29.8451C0.747563 29.7162 0.509037 29.518 0.331725 29.2697C0.154414 29.0214 0.0443467 28.7314 0.0122165 28.428V11.2109C0.00490985 10.8949 0.0781516 10.5824 0.225045 10.3026C0.371938 10.0228 0.587643 9.78505 0.851836 9.61169L0.995011 9.52918C2.8878 8.35468 9.22864 4.4866 10.2308 3.93089C10.4605 3.7933 10.7227 3.71958 10.9904 3.71735C11.2442 3.71857 11.4939 3.781 11.7184 3.89935C11.7184 3.89935 20.5902 9.68206 21.9467 10.2086C22.899 10.6458 23.9372 10.8638 24.9849 10.8469C26.1702 10.8703 27.3412 10.5842 28.3822 10.0169C29.7096 9.31806 38.1859 3.9503 38.2757 3.9503C38.4899 3.8205 38.7362 3.75326 38.9867 3.75617C39.2544 3.7584 39.5166 3.83213 39.7462 3.96972C40.8989 4.60793 48.7588 9.41756 49.0912 9.6311C49.363 9.79504 49.5873 10.0269 49.7422 10.3039C49.8971 10.5809 49.9772 10.8935 49.9745 11.2109V28.4255C49.9435 28.7299 49.8336 29.021 49.6557 29.2699C49.4779 29.5189 49.2381 29.7172 48.9602 29.8451C48.2322 30.2504 28.7074 42.5244 26.0138 44.0217C25.7062 44.2031 25.3565 44.301 24.9994 44.3056" fill="url(#paint0_linear_584_224)"/>
<path d="M24.895 44.2861H24.9945C25.3497 44.2889 25.6994 44.1985 26.0089 44.0241C28.6515 42.4928 48.2176 30.2188 48.9553 29.8451C49.2332 29.7177 49.4729 29.52 49.6508 29.2714C49.8288 29.0228 49.9387 28.7321 49.9696 28.428V11.2108C49.9727 10.9195 49.9061 10.6316 49.7755 10.3712L24.895 24.0309V44.2861Z" fill="url(#paint1_linear_584_224)"/>
<path d="M24.8077 44.0435H24.7082C24.3572 44.0459 24.0117 43.9564 23.706 43.7839C21.0901 42.2696 1.73269 30.1267 1.00227 29.7554C0.726898 29.63 0.489343 29.4344 0.313437 29.1882C0.13753 28.942 0.0294564 28.6539 5.9471e-05 28.3528V11.3201C-0.00224696 11.0325 0.0625628 10.7483 0.189338 10.4902L24.8077 24.0018V44.0411" fill="url(#paint2_linear_584_224)"/>
</g>
<defs>
<linearGradient id="paint0_linear_584_224" x1="0.149395" y1="24.0806" x2="49.6466" y2="23.7022" gradientUnits="userSpaceOnUse">
<stop stop-color="#FFB900"/>
<stop offset="0.34" stop-color="#F38000"/>
<stop offset="0.57" stop-color="#F83C72"/>
<stop offset="0.78" stop-color="#FC1CBE"/>
<stop offset="0.93" stop-color="#FE08ED"/>
<stop offset="1" stop-color="#FF00FF"/>
</linearGradient>
<linearGradient id="paint1_linear_584_224" x1="14.0577" y1="40.2869" x2="64.5282" y2="12.3484" gradientUnits="userSpaceOnUse">
<stop stop-color="#EE0A3F"/>
<stop offset="1" stop-color="#EE0A3F" stop-opacity="0"/>
</linearGradient>
<linearGradient id="paint2_linear_584_224" x1="19.3488" y1="32.1669" x2="-5.03968" y2="12.5251" gradientUnits="userSpaceOnUse">
<stop stop-color="#ED6600"/>
<stop offset="1" stop-color="#F98200"/>
</linearGradient>
<clipPath id="clip0_584_224">
<rect width="155" height="48" fill="white"/>
</clipPath>
</defs>
</svg>
