<svg width="132" height="48" viewBox="0 0 132 48" fill="none" xmlns="http://www.w3.org/2000/svg">
<path d="M24.7118 32.9866C24.4844 34.9426 23.2987 36.5263 21.4622 37.3093C20.4331 37.7431 19.0589 37.9808 17.9566 37.9101C16.2607 37.8395 14.6709 37.4193 13.1871 36.6733C12.6737 36.3907 11.8827 35.861 11.2793 35.3664C11.1305 35.225 11.1055 35.1543 11.2135 35.0081C11.2609 34.9224 11.3668 34.7655 11.584 34.4478C11.9153 33.9795 11.9507 33.9177 11.9859 33.8576C12.0919 33.7056 12.2533 33.6918 12.422 33.8119C12.4451 33.8354 12.4451 33.8354 12.4579 33.8468C12.4804 33.8715 12.4804 33.8714 12.5409 33.9175C12.6034 33.9654 12.6487 33.9882 12.6598 34.0152C14.2499 35.26 16.1008 35.9666 17.9693 36.0373C20.5629 36.0024 22.4268 34.8362 22.7702 33.0341C23.1237 31.0728 21.578 29.3606 18.5553 28.4059C17.603 28.1234 15.2065 27.1662 14.7641 26.8999C12.6924 25.6865 11.7201 24.0938 11.8614 22.1187C12.0735 19.389 14.6093 17.3574 17.8143 17.3396C19.2369 17.3396 20.6709 17.6362 22.0313 18.2084C22.5219 18.4171 23.3976 18.8915 23.6888 19.1183C23.8636 19.2478 23.9009 19.389 23.7931 19.5473C23.7572 19.6438 23.6518 19.7876 23.4697 20.0958C23.2041 20.5008 23.1942 20.5176 23.146 20.6067C23.0515 20.7554 22.9164 20.7672 22.7364 20.6608C21.2824 19.6719 19.6423 19.177 17.8503 19.1417C15.6246 19.177 13.951 20.5037 13.8432 22.3215C13.8211 23.9544 15.0406 25.144 17.6816 26.0397C23.0532 27.7703 25.1022 29.792 24.7118 32.9866ZM18.0882 4.80782C21.5782 4.80782 24.4292 8.11918 24.5705 12.2703H11.6143C11.7389 8.11918 14.5984 4.80782 18.0882 4.80782ZM36.1765 13.0568C36.1765 12.6236 35.8412 12.2703 35.4133 12.2703H35.3854H27.0099C26.798 6.79342 22.8804 2.41577 18.0882 2.41577C13.2932 2.41577 9.38565 6.79342 9.17664 12.2703H0.766088C0.344284 12.2799 0.00957621 12.6254 0.00957621 13.0568C0.00957621 13.0817 0.00957621 13.0927 0.00957621 13.1176H0L1.19458 39.5352C1.19458 39.6066 1.20857 39.6787 1.20857 39.7646C1.20857 39.7813 1.21085 39.7864 1.21085 39.8179V39.8583L1.21966 39.8723C1.39948 41.7141 2.7301 43.1825 4.54865 43.2544V43.2683H31.2263C31.2403 43.2683 31.2485 43.2683 31.2623 43.2683C31.283 43.2683 31.283 43.2683 31.2982 43.2683H31.3535V43.2544C33.1979 43.2095 34.7081 41.7141 34.852 39.8521L34.8601 39.8179C34.8601 39.8004 34.8601 39.7814 34.8601 39.7646C34.8601 39.7107 34.874 39.6765 34.874 39.6206L36.1765 13.0927C36.1765 13.0829 36.1765 13.0679 36.1765 13.0568Z" fill="#EE4D2D"/>
<path d="M121.245 30.0936C121.784 28.3843 123.314 27.2929 125.113 27.2929C126.877 27.2929 128.531 28.4719 129.071 30.0936L129.159 30.1854H121.229L121.245 30.0936ZM130.872 32.5271C130.896 32.5271 130.896 32.5271 130.935 32.5271C130.961 32.5271 130.961 32.5271 130.961 32.5271C131.32 32.5196 131.634 32.1667 131.634 31.8056C131.634 31.7585 131.633 31.7177 131.629 31.7141C131.63 31.7141 131.63 31.7141 131.63 31.6726C131.63 27.9317 128.711 24.9616 125.113 24.9616C121.524 24.9616 118.636 27.9317 118.636 31.6726C118.636 31.9603 118.636 32.2451 118.688 32.526L118.692 32.5271L118.717 32.6087C118.894 33.926 119.446 35.1369 120.345 36.1293C121.335 37.2409 122.684 38.0187 124.213 38.2908H124.303C124.393 38.2908 124.407 38.2908 124.483 38.3096C126.462 38.5593 128.247 38.2908 129.701 37.5342C130.061 37.3427 130.421 37.1182 130.69 36.938C130.781 36.8497 130.87 36.7663 130.961 36.7436C130.961 36.6695 131.007 36.6695 131.044 36.6695C131.344 36.3091 131.396 36.1953 131.161 35.8572C130.961 35.4969 130.78 35.2287 130.601 34.9567C130.51 34.8684 130.496 34.7765 130.421 34.7396C130.421 34.6882 130.421 34.6882 130.42 34.6882C130.411 34.6882 130.411 34.6882 130.4 34.6882H130.396C130.208 34.4161 130.061 34.4161 129.881 34.5963C129.872 34.5963 129.79 34.6882 129.789 34.6882C128.351 35.9491 126.372 36.3754 124.43 35.9491C124.063 35.8572 123.754 35.7466 123.404 35.5887C122.213 34.9567 121.335 33.876 121.065 32.615V32.5267L130.872 32.5271ZM105.774 30.0936C106.314 28.3843 107.84 27.2929 109.652 27.2929C111.425 27.2929 113.058 28.4719 113.61 30.0936L113.689 30.1854H105.774V30.0936ZM115.417 32.5271C115.444 32.5271 115.444 32.5271 115.483 32.5271C115.489 32.5271 115.489 32.5271 115.489 32.5271C115.849 32.5196 116.182 32.1667 116.182 31.8056C116.182 31.7585 116.181 31.7177 116.177 31.7141C116.178 31.7141 116.178 31.7141 116.178 31.6726C116.178 27.9317 113.238 24.9616 109.647 24.9616C106.072 24.9616 103.163 27.9317 103.163 31.6726C103.163 31.9603 103.163 32.2451 103.236 32.526L103.241 32.5271L103.255 32.6087C103.435 33.926 103.975 35.1369 104.875 36.1293C105.861 37.2409 107.213 38.0187 108.74 38.2908H108.834C108.92 38.2908 108.954 38.2908 109.012 38.3096C110.991 38.5593 112.79 38.2908 114.229 37.5342C114.591 37.3427 114.949 37.1182 115.218 36.938C115.309 36.8497 115.398 36.7663 115.489 36.7436C115.489 36.6695 115.555 36.6695 115.578 36.6695C115.892 36.3091 115.937 36.1953 115.708 35.8572C115.489 35.4969 115.309 35.2287 115.129 34.9567C115.039 34.8684 115.037 34.7765 114.949 34.7396C114.949 34.6882 114.949 34.6882 114.949 34.6882C114.949 34.6882 114.949 34.6882 114.947 34.6882H114.944C114.756 34.4161 114.589 34.4161 114.409 34.5963L114.317 34.6882C112.878 35.9491 110.899 36.3754 108.978 35.9491C108.61 35.8572 108.292 35.7466 107.933 35.5887C106.759 34.9567 105.861 33.876 105.596 32.615L105.594 32.5267L115.417 32.5271ZM93.9871 36.2176C91.5603 36.2176 89.5813 34.3275 89.5108 31.8943V31.6698C89.5813 29.2849 91.5603 27.3554 93.9871 27.3554C96.4185 27.3554 98.4231 29.3462 98.4231 31.8067C98.4234 34.2363 96.4189 36.2176 93.9871 36.2176ZM93.9871 24.9868C92.3755 24.9868 90.8712 25.5277 89.666 26.5204L89.5108 26.6666V25.4099C89.5108 25.0495 89.4626 24.9868 89.1112 24.9868H87.57C87.2218 24.9868 87.1598 25.0499 87.1598 25.4099V45.1877C87.1598 45.4948 87.2218 45.5842 87.57 45.5842H89.1112C89.4552 45.5842 89.5108 45.4948 89.5108 45.1877V36.938L89.666 37.0298C90.8719 38.0187 92.3755 38.5593 93.9871 38.5593C97.7645 38.5593 100.823 35.5316 100.823 31.8067C100.823 28.024 97.7645 24.9868 93.9871 24.9868ZM77.9549 36.0445C75.4791 36.0445 73.5005 34.0966 73.5005 31.6733C73.5005 29.2508 75.4795 27.3022 77.9549 27.3022C80.4267 27.3022 82.4082 29.2508 82.4082 31.6733C82.4085 34.0962 80.4267 36.0445 77.9549 36.0445ZM77.9549 24.9616C74.1765 24.9616 71.1176 27.9317 71.1176 31.6819C71.1176 35.4089 74.1765 38.3798 77.9549 38.3798C81.7329 38.3798 84.7935 35.4089 84.7935 31.6819C84.7935 27.9317 81.7329 24.9616 77.9549 24.9616ZM62.707 25.0886C61.3501 25.0886 60.0077 25.5223 58.8932 26.3562L58.7596 26.4701V17.2833C58.7596 16.9453 58.659 16.8559 58.3571 16.8559H56.7253C56.4097 16.8559 56.32 16.9453 56.32 17.2833V38.2003C56.32 38.5593 56.41 38.6511 56.7253 38.6511H58.3571C58.659 38.6511 58.7596 38.5437 58.7596 38.2003V31.3545C58.794 29.2086 60.5476 27.4838 62.7073 27.4838C64.9067 27.4838 66.6643 29.2299 66.6643 31.3924V38.2003C66.6643 38.5593 66.7267 38.6511 67.07 38.6511H68.6894C69.049 38.6511 69.0932 38.5593 69.0932 38.2003V31.3538C69.0929 27.9317 66.2144 25.0886 62.707 25.0886ZM40.0362 34.8396L40.0323 34.8542C39.7904 35.1943 39.6827 35.3171 39.6345 35.4086C39.4538 35.6771 39.4825 35.8172 39.7666 36.0371C40.4001 36.5773 41.2525 37.1178 41.8154 37.3895C43.3895 38.1982 45.078 38.5593 46.8831 38.6486C48.0447 38.6618 49.5274 38.3791 50.6076 37.93C52.5863 37.0295 53.8432 35.3167 54.0572 33.2223C54.4083 29.7967 52.1817 27.6636 46.4586 25.9423L46.4547 25.9412C43.7718 25.0495 42.5148 23.8929 42.5144 22.3231C42.6016 20.5475 44.2394 19.1972 46.4583 19.1202C48.224 19.1312 49.7981 19.6388 51.3562 20.6386C51.6864 20.8192 51.8217 20.7777 52.047 20.4709C52.0793 20.4588 52.137 20.3673 52.4463 19.9179H52.4481C52.7205 19.5547 52.8105 19.3774 52.8116 19.3774C53.0004 19.017 52.9905 18.8698 52.6405 18.657C52.3167 18.386 51.3955 17.9366 50.8765 17.7121C49.3928 17.1255 47.8641 16.8559 46.363 16.8559C42.9158 16.9453 40.219 19.1975 40.0394 22.1365C39.9459 24.2416 41.0247 25.9504 43.2747 27.2114C43.905 27.5717 46.2 28.4453 47.2791 28.7447C50.3376 29.6452 51.9532 31.2867 51.6028 33.2474C51.3236 35.0461 49.4587 36.2176 46.8692 36.301C44.983 36.2176 43.0724 35.554 41.431 34.3278C41.4236 34.3268 41.3829 34.2494 41.2964 34.236C41.1926 34.1476 41.1926 34.1476 41.1628 34.142C40.8447 33.8756 40.6272 33.8806 40.4412 34.236C40.3994 34.2363 40.1556 34.6322 40.0362 34.8396Z" fill="#EE4D2D"/>
</svg>
