<svg width="127" height="48" viewBox="0 0 127 48" fill="none" xmlns="http://www.w3.org/2000/svg">
<path d="M27.1506 11.8838C27.1253 11.7068 26.9736 11.6057 26.8472 11.6057C26.7208 11.6057 24.2181 11.5551 24.2181 11.5551C24.2181 11.5551 22.1199 9.53273 21.9177 9.30521C21.7154 9.10297 21.3109 9.15353 21.1593 9.20409C21.1593 9.20409 20.7548 9.33049 20.0975 9.53273C19.9964 9.17881 19.8194 8.74905 19.5919 8.29401C18.8588 6.87834 17.7465 6.11994 16.4319 6.11994C16.3308 6.11994 16.255 6.11994 16.1538 6.14522C16.1033 6.09466 16.078 6.0441 16.0274 6.01882C15.446 5.41211 14.7129 5.10875 13.8281 5.13403C12.1343 5.18459 10.4406 6.4233 9.05019 8.59737C8.08956 10.1394 7.35644 12.0607 7.12892 13.5522C5.18237 14.1589 3.81726 14.5887 3.7667 14.5887C2.78079 14.8921 2.75551 14.9173 2.62911 15.8527C2.57855 16.5605 0 36.5064 0 36.5064L21.6396 40.2478L31.0184 37.922C30.9931 37.922 27.1759 12.0607 27.1506 11.8838ZM19.0105 9.88665C18.5049 10.0383 17.9487 10.2153 17.342 10.4175C17.342 9.55801 17.2156 8.34457 16.8364 7.33338C18.1257 7.53562 18.7577 9.00185 19.0105 9.88665ZM16.2044 10.7462C15.0668 11.1001 13.8281 11.4793 12.5894 11.8585C12.9433 10.5186 13.6006 9.20409 14.4095 8.31929C14.7129 7.99065 15.1426 7.63674 15.623 7.4345C16.1286 8.42041 16.2297 9.81081 16.2044 10.7462ZM13.8787 6.27162C14.2831 6.27162 14.6118 6.34746 14.8898 6.5497C14.4348 6.77722 13.9798 7.13114 13.5753 7.58618C12.4883 8.74905 11.654 10.5439 11.3254 12.2882C10.2889 12.6169 9.27771 12.9202 8.36764 13.1983C8.97435 10.4428 11.2748 6.34746 13.8787 6.27162Z" fill="#95BF47"/>
<path d="M26.8473 11.6058C26.7209 11.6058 24.2182 11.5553 24.2182 11.5553C24.2182 11.5553 22.12 9.53287 21.9177 9.30535C21.8419 9.22951 21.7408 9.17896 21.6396 9.17896V40.2479L31.0185 37.9222C31.0185 37.9222 27.2012 12.0609 27.1759 11.8839C27.1254 11.7069 26.9737 11.6058 26.8473 11.6058Z" fill="#5E8E3E"/>
<path d="M16.4323 16.4339L15.3452 20.504C15.3452 20.504 14.1318 19.9478 12.6908 20.049C10.5673 20.1754 10.5673 21.5152 10.5673 21.8438C10.6937 23.664 15.4716 24.0685 15.7497 28.3408C15.9519 31.703 13.9801 34.0035 11.0982 34.1804C7.66015 34.3574 5.76416 32.335 5.76416 32.335L6.49728 29.2256C6.49728 29.2256 8.41855 30.6665 9.93534 30.5654C10.9213 30.5148 11.3005 29.6806 11.2499 29.1244C11.0982 26.7481 7.20511 26.8998 6.95231 22.9814C6.75008 19.6951 8.89887 16.3834 13.6515 16.08C15.4969 15.9536 16.4323 16.4339 16.4323 16.4339Z" fill="white"/>
<path d="M43.7092 25.1053C42.6221 24.5239 42.066 24.0183 42.066 23.3357C42.066 22.4762 42.8496 21.9201 44.0631 21.9201C45.4788 21.9201 46.7427 22.5015 46.7427 22.5015L47.7287 19.4679C47.7287 19.4679 46.8186 18.7601 44.1389 18.7601C40.3975 18.7601 37.7937 20.9089 37.7937 23.9172C37.7937 25.6362 39.0071 26.9255 40.625 27.8608C41.9396 28.594 42.3946 29.1248 42.3946 29.9085C42.3946 30.7175 41.7373 31.3747 40.5239 31.3747C38.729 31.3747 37.01 30.4394 37.01 30.4394L35.9482 33.473C35.9482 33.473 37.5156 34.5347 40.17 34.5347C44.0125 34.5347 46.7933 32.6387 46.7933 29.226C46.768 27.3805 45.3776 26.066 43.7092 25.1053Z" fill="black"/>
<path d="M59.0288 18.7097C57.1329 18.7097 55.6413 19.6198 54.5038 20.9849L54.4532 20.9597L56.0964 12.3645H51.8241L47.6529 34.2569H51.9252L53.3409 26.774C53.897 23.9427 55.3633 22.1984 56.7284 22.1984C57.689 22.1984 58.0682 22.8556 58.0682 23.791C58.0682 24.3724 58.0177 25.1056 57.8913 25.687L56.2733 34.2569H60.5456L62.2141 25.4089C62.3911 24.4736 62.5175 23.3612 62.5175 22.6028C62.5428 20.176 61.2788 18.7097 59.0288 18.7097Z" fill="black"/>
<path d="M72.2246 18.7094C67.0675 18.7094 63.6547 23.3609 63.6547 28.5432C63.6547 31.8549 65.7024 34.5346 69.5449 34.5346C74.6009 34.5346 78.0137 30.0095 78.0137 24.7007C78.039 21.6418 76.2441 18.7094 72.2246 18.7094ZM70.1263 31.2735C68.6601 31.2735 68.0534 30.0348 68.0534 28.4674C68.0534 26.0153 69.3174 22.021 71.6431 22.021C73.1599 22.021 73.6655 23.3356 73.6655 24.5996C73.6655 27.2287 72.3763 31.2735 70.1263 31.2735Z" fill="black"/>
<path d="M88.9857 18.7094C86.1038 18.7094 84.4606 21.2626 84.4606 21.2626H84.4101L84.6629 18.9622H80.8709C80.6939 20.5042 80.34 22.8806 80.0114 24.6501L77.0283 40.3237H81.3006L82.4888 33.9784H82.5899C82.5899 33.9784 83.4747 34.5346 85.0926 34.5346C90.1233 34.5346 93.4097 29.3775 93.4097 24.1698C93.4097 21.2879 92.1204 18.7094 88.9857 18.7094ZM84.8904 31.324C83.7781 31.324 83.1208 30.692 83.1208 30.692L83.8286 26.6978C84.3342 24.0181 85.7246 22.2486 87.2161 22.2486C88.5307 22.2486 88.9352 23.462 88.9352 24.5996C88.9352 27.3804 87.292 31.324 84.8904 31.324Z" fill="black"/>
<path d="M99.5267 12.5666C98.1616 12.5666 97.0745 13.6537 97.0745 15.0441C97.0745 16.3081 97.8835 17.1929 99.0969 17.1929H99.1475C100.487 17.1929 101.625 16.2828 101.65 14.7154C101.65 13.4767 100.816 12.5666 99.5267 12.5666Z" fill="black"/>
<path d="M93.5356 34.2314H97.8079L100.715 19.0634H96.4175L93.5356 34.2314Z" fill="black"/>
<path d="M111.61 19.0384H108.627L108.779 18.3306C109.032 16.8643 109.891 15.5751 111.332 15.5751C112.091 15.5751 112.698 15.8026 112.698 15.8026L113.532 12.4404C113.532 12.4404 112.799 12.0612 111.206 12.0612C109.689 12.0612 108.172 12.4909 107.01 13.4768C105.543 14.7155 104.861 16.5104 104.532 18.3306L104.406 19.0384H102.409L101.777 22.2742H103.774L101.499 34.2569H105.771L108.046 22.2742H111.004L111.61 19.0384Z" fill="black"/>
<path d="M121.924 19.0634C121.924 19.0634 119.245 25.8132 118.057 29.504H118.006C117.93 28.3159 116.944 19.0634 116.944 19.0634H112.444L115.023 32.9926C115.074 33.296 115.048 33.4982 114.922 33.7005C114.416 34.6611 113.582 35.5965 112.596 36.279C111.787 36.8605 110.877 37.2397 110.169 37.4925L111.357 41.1328C112.217 40.9558 114.037 40.2227 115.554 38.807C117.5 36.9869 119.321 34.1555 121.166 30.313L126.399 19.0634H121.924Z" fill="black"/>
</svg>
