<svg xmlns="http://www.w3.org/2000/svg"  id="orchid"  fill="currentColor" viewBox="0 0 24 24">
  <g clip-path="url(#a)">
    <g >
      <path fill="currentColor" d="M12 2c5.523 0 10 4.477 10 10s-4.477 10-10 10S2 17.523 2 12 6.477 2 12 2Zm0 2a8 8 0 1 0 0 16 8 8 0 0 0 0-16Zm2.293 4.293a1 1 0 0 1 1.497 1.32l-.083.094-4.296 4.296h2.586a1 1 0 0 1 .116 1.993l-.116.007h-5a1 1 0 0 1-.994-.883l-.006-.117v-5a1 1 0 0 1 1.993-.117l.007.117v2.586l4.296-4.296Z" />
    </g>
  </g>
  <defs>
    <clipPath id="a" >
      <path fill="#fff" d="M0 0h24v24H0z"/>
    </clipPath>
  </defs>
</svg>
