<svg xmlns="http://www.w3.org/2000/svg"  id="orchid"  fill="currentColor" viewBox="0 0 24 24">
  <g  clip-path="url(#a)">
    <g >
      <path fill="currentColor" d="M19 4a3 3 0 0 1 3 3v10a3 3 0 0 1-3 3H5a3 3 0 0 1-3-3V7a3 3 0 0 1 3-3h14Zm1 6H4v7a1 1 0 0 0 .883.993L5 18h14a1 1 0 0 0 .993-.883L20 17v-7Zm-3 3a1 1 0 0 1 .117 1.993L17 15h-3a1 1 0 0 1-.117-1.993L14 13h3Zm2-7H5a1 1 0 0 0-1 1v1h16V7a1 1 0 0 0-1-1Z" />
    </g>
  </g>
  <defs>
    <clipPath id="a" >
      <path fill="#fff" d="M0 0h24v24H0z"/>
    </clipPath>
  </defs>
</svg>
