<svg xmlns="http://www.w3.org/2000/svg"  id="orchid"  fill="currentColor" viewBox="0 0 24 25">
  <g  clip-path="url(#a)">
    <g >
      <path fill="currentColor" fill-rule="evenodd" d="m12.616 2.856 5.877 4.408a1.1 1.1 0 0 1 0 1.76l-4.826 3.62 4.826 3.62a1.1 1.1 0 0 1 0 1.76l-5.877 4.408A1.01 1.01 0 0 1 11 21.624v-6.98l-4.4 3.3a1 1 0 1 1-1.2-1.6l4.933-3.7-4.933-3.7a1 1 0 1 1 1.2-1.6l4.4 3.3v-6.98c0-.832.95-1.308 1.616-.808ZM13 14.644v5l3.333-2.5-3.333-2.5Zm0-9v5l3.333-2.5L13 5.644Z"  clip-rule="evenodd"/>
    </g>
  </g>
  <defs>
    <clipPath id="a" >
      <path fill="#fff" d="M0 .644h24v24H0z"/>
    </clipPath>
  </defs>
</svg>
