<svg id="orchid" viewBox="0 0 24 24" fill="none" xmlns="http://www.w3.org/2000/svg">
<g clip-path="url(#clip0_113_530)">
<path fill-rule="evenodd" clip-rule="evenodd" d="M22.0168 3.87391L21.4274 5.45541L20.6945 7.15228C20.0164 8.60718 19.0833 10.3081 17.9673 11.4819C16.9018 12.6025 15.2939 13.6349 14.0061 14.3682C14.3371 15.9626 13.8838 17.6872 12.6464 18.9246C10.3761 21.195 7.84019 21.1954 5.9533 20.6345C4.94411 20.3344 3.93773 19.8492 3.08867 19.2046L2.22413 18.4868C2.02603 18.3191 2.03856 18.0117 2.25094 17.8625L2.58307 17.6258C3.31092 17.0952 4.06179 16.4437 4.24122 15.5465C4.35564 14.6209 4.42119 14.1164 4.43787 14.033C4.57567 13.344 4.86727 12.5616 5.57536 11.8535C6.81271 10.6162 8.53724 10.1629 10.1315 10.4938C10.8649 9.20599 11.8973 7.59803 13.018 6.53254C14.1917 5.41656 15.8926 4.48346 17.3475 3.8053L19.0444 3.07239L20.6259 2.48301C21.4894 2.18807 22.3117 3.01044 22.0168 3.87391ZM6.98957 13.2678C6.637 13.6203 6.48369 14.0019 6.39903 14.4252C6.2846 15.351 6.21905 15.8555 6.20239 15.9388C6.0216 16.8427 5.49324 17.5886 5.05284 18.087C5.45713 18.3137 5.96035 18.55 6.52324 18.7174C7.90672 19.1287 9.61347 19.1291 11.2322 17.5104C12.4038 16.3388 12.4038 14.4393 11.2322 13.2678C10.0606 12.0962 8.16115 12.0962 6.98957 13.2678ZM11.9792 11.2926C12.2136 11.4571 12.437 11.6441 12.6464 11.8535C12.8558 12.0629 13.0427 12.2863 13.2072 12.5206C13.5985 12.2938 14.0022 12.0477 14.397 11.7889L14.3665 11.7216C14.2506 11.4743 14.0477 11.1335 13.707 10.7928C13.4151 10.5009 13.123 10.3101 12.8897 10.1885L12.7109 10.1029C12.4521 10.4976 12.206 10.9013 11.9792 11.2926ZM19.4215 5.07827C19.0384 5.23698 18.6221 5.41779 18.1925 5.61805C16.7837 6.27471 15.3263 7.09752 14.3961 7.98198C14.239 8.13131 14.0817 8.29678 13.9254 8.47475C14.2882 8.67547 14.7079 8.96527 15.1213 9.37864C15.5346 9.79197 15.8244 10.2117 16.0251 10.5744C16.203 10.4181 16.3685 10.2608 16.5178 10.1038C17.4023 9.17352 18.2251 7.71612 18.8818 6.30732C19.082 5.87769 19.2628 5.46144 19.4215 5.07827Z" fill="currentColor"/>
</g>
<defs>
<clipPath id="clip0_113_530">
<rect width="24" height="24" fill="currentColor"/>
</clipPath>
</defs>
</svg>
