<svg xmlns="http://www.w3.org/2000/svg"  id="orchid"  fill="currentColor" viewBox="0 0 24 24">
  <g  clip-path="url(#a)">
    <g >
      <path fill="currentColor" d="M16 3a1 1 0 0 1 .993.883L17 4v1h2a2 2 0 0 1 1.994 1.85L21 7v12a2 2 0 0 1-1.85 1.994L19 21H5a2 2 0 0 1-1.995-1.85L3 19V7a2 2 0 0 1 1.85-1.995L5 5h2V4a1 1 0 0 1 1.993-.117L9 4v1h6V4a1 1 0 0 1 1-1Zm3 9H5v7h14v-7Zm0-5H5v3h14V7Z" />
    </g>
  </g>
  <defs>
    <clipPath id="a" >
      <path fill="#fff" d="M0 0h24v24H0z"/>
    </clipPath>
  </defs>
</svg>
