<svg id="orchid" viewBox="0 0 17 16" fill="none" xmlns="http://www.w3.org/2000/svg">
<path d="M16.9019 3.05165C16.8046 2.91217 16.648 2.82596 16.4779 2.8187L3.67451 2.44011C3.37195 2.42687 3.11911 2.66047 3.10618 2.96163C3.09332 3.26268 3.32652 3.51705 3.62764 3.52998L15.7171 3.87783L13.7841 9.90922H5.18177L3.62764 1.44688C3.59348 1.26141 3.46615 1.10668 3.29054 1.03778L0.745134 0.0377747C0.464598 -0.0720606 0.148035 0.0657377 0.0378603 0.345938C-0.0721246 0.62629 0.0656323 0.943051 0.346016 1.05323L2.60928 1.94237L4.19084 10.5532C4.23851 10.8121 4.46411 11.0001 4.72742 11.0001H4.98977L4.39069 12.6642C4.34055 12.8036 4.3612 12.9584 4.44654 13.0795C4.53175 13.2006 4.67035 13.2727 4.8183 13.2727H5.2385C4.97812 13.5625 4.8183 13.944 4.8183 14.3636C4.8183 15.266 5.55251 16 6.45464 16C7.35678 16 8.09099 15.266 8.09099 14.3636C8.09099 13.9441 7.93117 13.5625 7.67083 13.2727H11.2385C10.978 13.5625 10.8182 13.944 10.8182 14.3636C10.8182 15.266 11.5522 16 12.4545 16C13.3569 16 14.0909 15.266 14.0909 14.3636C14.0909 13.9441 13.9311 13.5625 13.6708 13.2727H14.1818C14.4329 13.2727 14.6364 13.0692 14.6364 12.8182C14.6364 12.5671 14.4329 12.3636 14.1818 12.3636H5.46505L5.95589 11H14.1818C14.419 11 14.6289 10.8467 14.7011 10.621L16.9738 3.52998C17.026 3.36814 16.9992 3.19119 16.9019 3.05165ZM6.45468 15.0911C6.05359 15.0911 5.7274 14.7649 5.7274 14.3638C5.7274 13.9627 6.05359 13.6365 6.45468 13.6365C6.85578 13.6365 7.18193 13.9627 7.18193 14.3638C7.18193 14.7649 6.85578 15.0911 6.45468 15.0911ZM12.4545 15.0911C12.0534 15.0911 11.7273 14.7649 11.7273 14.3638C11.7273 13.9627 12.0534 13.6365 12.4545 13.6365C12.8556 13.6365 13.1818 13.9627 13.1818 14.3638C13.1818 14.7649 12.8556 15.0911 12.4545 15.0911Z" fill="currentColor"/>
</svg>
