<svg xmlns="http://www.w3.org/2000/svg"  id="orchid"  fill="currentColor" viewBox="0 0 24 25">
  <g  clip-path="url(#a)">
    <g >
      <path fill="currentColor" d="M4 4.644a1 1 0 0 1 .993.883L5 5.644v13h15a1 1 0 0 1 .117 1.993l-.117.007H4a1 1 0 0 1-.993-.884L3 19.644v-14a1 1 0 0 1 1-1Zm16.194 2.818c.9 0 1.35 1.088.714 1.724l-5.57 5.57a1.1 1.1 0 0 1-1.555 0l-2.758-2.758-3.535 3.535a1 1 0 0 1-1.415-1.414l4.172-4.172a1.1 1.1 0 0 1 1.556 0l2.758 2.758 3.242-3.243h-.414a1 1 0 1 1 0-2h2.805Z" />
    </g>
  </g>
  <defs>
    <clipPath id="a" >
      <path fill="#fff" d="M0 .644h24v24H0z"/>
    </clipPath>
  </defs>
</svg>
