<svg xmlns="http://www.w3.org/2000/svg"  id="orchid"  fill="currentColor" viewBox="0 0 24 24">
  <g  clip-path="url(#a)">
    <g >
      <path fill="currentColor" fill-rule="evenodd" d="M20.995 5.824A3 3 0 0 0 18 3H6l-.176.005A3 3 0 0 0 3 6v12l.005.176A3 3 0 0 0 6 21h12l.176-.005A3 3 0 0 0 21 18V6l-.005-.176ZM6 5h12l.117.007A1 1 0 0 1 19 6v12l-.007.117A1 1 0 0 1 18 19H6l-.117-.007A1 1 0 0 1 5 18V6l.007-.117A1 1 0 0 1 6 5Zm2.707 6.086 2.121 2.121 4.5-4.914a1 1 0 0 1 1.415 1.414l-5.207 5.621a1 1 0 0 1-1.415 0L7.293 12.5a1 1 0 1 1 1.414-1.414Z"  clip-rule="evenodd"/>
    </g>
  </g>
  <defs>
    <clipPath id="a" >
      <path fill="#fff" d="M0 0h24v24H0z"/>
    </clipPath>
  </defs>
</svg>
