<svg xmlns="http://www.w3.org/2000/svg" id="orchid" fill="currentColor" viewBox="0 0 25 24">
  <g  clip-path="url(#a)">
    <g >
      <path fill="currentColor" fill-rule="evenodd" d="M9.76 2a2 2 0 0 0-2 2v2h2V4h11v11h-2v2h2a2 2 0 0 0 2-2V4a2 2 0 0 0-2-2h-11Zm-5 5a2 2 0 0 0-2 2v11a2 2 0 0 0 2 2h11a2 2 0 0 0 2-2V9a2 2 0 0 0-2-2h-11Zm0 2h11v11h-11V9Z"  clip-rule="evenodd"/>
    </g>
  </g>
  <defs>
    <clipPath id="a" >
      <path fill="#fff" d="M.76 0h24v24h-24z"/>
    </clipPath>
  </defs>
</svg>
