<svg xmlns="http://www.w3.org/2000/svg" id="orchid" fill="currentColor" viewBox="0 0 24 24">
  <g  clip-path="url(#a)">
    <g >
      <path fill="currentColor" d="M19 3a2 2 0 0 1 1.994 1.85L21 5v14a2 2 0 0 1-1.85 1.994L19 21H5a2 2 0 0 1-1.995-1.85L3 19V5a2 2 0 0 1 1.85-1.995L5 3h14Zm0 2H5v14h14V5ZM7.793 13.379l.707.707.707-.707a1 1 0 0 1 1.414 1.414l-.707.707.707.707a1 1 0 0 1-1.414 1.414l-.707-.707-.707.707a1 1 0 0 1-1.414-1.414l.707-.707-.707-.707a1 1 0 1 1 1.414-1.414ZM17 15.75a1 1 0 0 1 .117 1.993L17 17.75h-3a1 1 0 0 1-.117-1.993L14 15.75h3Zm0-2.5a1 1 0 1 1 0 2h-3a1 1 0 1 1 0-2h3ZM15.5 6.5a1 1 0 0 1 1 1V8h.5a1 1 0 1 1 0 2h-.5v.5a1 1 0 1 1-2 0V10H14a1 1 0 1 1 0-2h.5v-.5a1 1 0 0 1 1-1ZM10 8a1 1 0 1 1 0 2H7a1 1 0 0 1 0-2h3Z" />
    </g>
  </g>
  <defs>
    <clipPath id="a" >
      <path fill="currentColor" d="M0 0h24v24H0z"/>
    </clipPath>
  </defs>
</svg>
