<svg id="orchid" viewBox="0 0 24 24" fill="none" xmlns="http://www.w3.org/2000/svg">
<g clip-path="url(#clip0_129_600)">
<path fill-rule="evenodd" clip-rule="evenodd" d="M12 4.30735C11.28 4.93926 10.0447 6.0984 8.87638 7.5518C7.30461 9.50715 6 11.8171 6 14C6 17.3137 8.68629 20 12 20C15.3137 20 18 17.3137 18 14C18 11.8171 16.6954 9.50715 15.1236 7.5518C13.9553 6.0984 12.72 4.93926 12 4.30735ZM11.2488 2.32123C11.6885 1.96128 12.3115 1.96128 12.7512 2.32123C13.2351 2.71724 15.0149 4.2243 16.6824 6.29878C18.3223 8.33889 20 11.1058 20 14C20 18.4182 16.4183 22 12 22C7.58172 22 4 18.4182 4 14C4 11.1058 5.67766 8.33889 7.31756 6.29878C8.98509 4.2243 10.7649 2.71724 11.2488 2.32123Z" fill="currentColor"/>
</g>
<defs>
<clipPath id="clip0_129_600">
<rect width="24" height="24" fill="currentColor"/>
</clipPath>
</defs>
</svg>
