<svg xmlns="http://www.w3.org/2000/svg" id="orchid" fill="currentColor" viewBox="0 0 25 25">
  <g  clip-path="url(#a)">
    <g >
      <path fill="currentColor" d="M3.809 9.371a1 1 0 1 1 1.915-.578c2.085 6.986 11.981 6.988 14.07.005a1 1 0 1 1 1.918.569 9.491 9.491 0 0 1-1.814 3.418l1.276 1.275a1 1 0 0 1-1.414 1.415l-1.312-1.312a9.116 9.116 0 0 1-2.32 1.27l.358 1.335a1 1 0 1 1-1.932.517l-.363-1.356c-.948.14-1.915.14-2.862 0l-.364 1.356a1 1 0 1 1-1.932-.517l.358-1.336a9.118 9.118 0 0 1-2.32-1.269L5.76 15.475a1 1 0 0 1-1.414-1.415l1.275-1.275a9.524 9.524 0 0 1-1.812-3.414Z" />
    </g>
  </g>
  <defs>
    <clipPath id="a" >
      <path fill="#fff" d="M.76.06h24v24h-24z"/>
    </clipPath>
  </defs>
</svg>
