<svg xmlns="http://www.w3.org/2000/svg" id="orchid" fill="currentColor" viewBox="0 0 25 25">
  <g  clip-path="url(#a)">
    <g >
      <path fill="currentColor" fill-rule="evenodd" d="M4.76 12.5a8 8 0 1 1 9 7.938V14.5h2a1 1 0 1 0 0-2h-2v-2a1 1 0 0 1 1-1h.5a1 1 0 1 0 0-2h-.5a3 3 0 0 0-3 3v2h-2a1 1 0 1 0 0 2h2v5.938a8.001 8.001 0 0 1-7-7.938Zm8 10c5.523 0 10-4.477 10-10s-4.477-10-10-10-10 4.477-10 10 4.477 10 10 10Z"  clip-rule="evenodd"/>
    </g>
  </g>
  <defs>
    <clipPath id="a" >
      <path fill="#fff" d="M.76.5h24v24h-24z"/>
    </clipPath>
  </defs>
</svg>
