<svg xmlns="http://www.w3.org/2000/svg" id="orchid" fill="currentColor" viewBox="0 0 24 25">
  <g  clip-path="url(#a)">
    <g >
      <path fill="currentColor" d="M10.5 6.644a2.5 2.5 0 0 1 2.495 2.335l.005.165v4.605l4.455.606a4 4 0 0 1 3.54 3.772l.005.202v.315a7.974 7.974 0 0 1-.77 3.429 1 1 0 0 1-1.807-.858 5.963 5.963 0 0 0 .57-2.266l.007-.305v-.315a2 2 0 0 0-1.621-1.964l-.183-.027-4.431-.603a2 2 0 0 1-1.759-1.827l-.006-.16V9.145a.5.5 0 0 0-.992-.09l-.008.09v8.5a1 1 0 0 1-1.78.625l-.332-.407-.303-.354c-.579-.657-1.001-1.02-1.36-1.203a1.192 1.192 0 0 0-.694-.138l-.141.02 2.504 5.01a1 1 0 0 1-1.73.995l-.058-.101-2.777-5.553c-.36-.72-.093-1.683.747-2.028 1.043-.427 2.034-.507 3.055.012.222.113.44.252.654.414l.215.17V9.143a2.5 2.5 0 0 1 2.5-2.5Zm0-4a6.5 6.5 0 0 1 6.255 8.272 1 1 0 1 1-1.924-.544 4.5 4.5 0 1 0-8.34.817 1 1 0 0 1-1.782.91 6.5 6.5 0 0 1 5.79-9.455Z" />
    </g>
  </g>
  <defs>
    <clipPath id="a" >
      <path fill="#fff" d="M0 .644h24v24H0z"/>
    </clipPath>
  </defs>
</svg>
