 <svg id="orchid" width="38" height="22" viewBox="0 0 38 22" fill="none"
        xmlns="http://www.w3.org/2000/svg">
        <path
            d="M13.8009 16.35H4.68086L3.00086 21H0.120859L7.68086 0.209999H10.8309L18.3609 21H15.4809L13.8009 16.35ZM13.0209 14.13L9.24086 3.57L5.46086 14.13H13.0209ZM20.6357 12.72C20.6357 11.04 20.9757 9.57 21.6557 8.31C22.3357 7.03 23.2657 6.04 24.4457 5.34C25.6457 4.64 26.9757 4.29 28.4357 4.29C29.8757 4.29 31.1257 4.6 32.1857 5.22C33.2457 5.84 34.0357 6.62 34.5557 7.56V4.56H37.3157V21H34.5557V17.94C34.0157 18.9 33.2057 19.7 32.1257 20.34C31.0657 20.96 29.8257 21.27 28.4057 21.27C26.9457 21.27 25.6257 20.91 24.4457 20.19C23.2657 19.47 22.3357 18.46 21.6557 17.16C20.9757 15.86 20.6357 14.38 20.6357 12.72ZM34.5557 12.75C34.5557 11.51 34.3057 10.43 33.8057 9.51C33.3057 8.59 32.6257 7.89 31.7657 7.41C30.9257 6.91 29.9957 6.66 28.9757 6.66C27.9557 6.66 27.0257 6.9 26.1857 7.38C25.3457 7.86 24.6757 8.56 24.1757 9.48C23.6757 10.4 23.4257 11.48 23.4257 12.72C23.4257 13.98 23.6757 15.08 24.1757 16.02C24.6757 16.94 25.3457 17.65 26.1857 18.15C27.0257 18.63 27.9557 18.87 28.9757 18.87C29.9957 18.87 30.9257 18.63 31.7657 18.15C32.6257 17.65 33.3057 16.94 33.8057 16.02C34.3057 15.08 34.5557 13.99 34.5557 12.75Z"
            fill="currentColor" />
    </svg>