<svg id="orchid" width="35" height="27" viewBox="0 0 35 27" fill="none" xmlns="http://www.w3.org/2000/svg">
<path d="M15.2616 23V12.2C14.5016 11.84 13.6316 11.54 12.6516 11.3C11.6916 11.04 10.7116 10.85 9.71156 10.73C9.47156 11.61 9.25156 12.52 9.05156 13.46C8.85156 14.38 8.68156 15.3 8.54156 16.22C8.40156 17.12 8.29156 18.01 8.21156 18.89C8.13156 19.75 8.09156 20.57 8.09156 21.35C8.09156 22.23 8.15156 23.09 8.27156 23.93C8.41156 24.77 8.70156 25.6 9.14156 26.42C8.68156 26.42 8.20156 26.37 7.70156 26.27C7.20156 26.17 6.74156 25.94 6.32156 25.58C5.90156 25.24 5.55156 24.74 5.27156 24.08C5.01156 23.44 4.88156 22.57 4.88156 21.47C4.88156 20.77 4.93156 19.99 5.03156 19.13C5.13156 18.27 5.28156 17.37 5.48156 16.43C5.68156 15.49 5.92156 14.53 6.20156 13.55C6.50156 12.55 6.83156 11.57 7.19156 10.61C6.61156 10.63 6.06156 10.68 5.54156 10.76C5.04156 10.84 4.60156 10.96 4.22156 11.12C3.86156 11.26 3.57156 11.43 3.35156 11.63C3.13156 11.83 3.02156 12.05 3.02156 12.29C3.02156 12.37 3.03156 12.43 3.05156 12.47C3.57156 12.63 3.83156 12.96 3.83156 13.46C3.83156 13.82 3.70156 14.07 3.44156 14.21C3.18156 14.35 2.90156 14.42 2.60156 14.42C2.10156 14.42 1.64156 14.28 1.22156 14C0.781562 13.7 0.561562 13.19 0.561562 12.47C0.561562 11.99 0.711562 11.56 1.01156 11.18C1.29156 10.8 1.68156 10.48 2.18156 10.22C2.70156 9.94 3.30156 9.73 3.98156 9.59C4.68156 9.45 5.44156 9.38 6.26156 9.38C6.48156 9.38 6.71156 9.39 6.95156 9.41C7.19156 9.41 7.43156 9.42 7.67156 9.44C8.17156 8.24 8.73156 7.1 9.35156 6.02C9.97156 4.92 10.6416 3.97 11.3616 3.17C12.0816 2.35 12.8416 1.7 13.6416 1.22C14.4416 0.739999 15.2816 0.499998 16.1616 0.499998C16.4616 0.499998 16.8316 0.529998 17.2716 0.589999C17.7316 0.649999 18.1616 0.759999 18.5616 0.919998V23H15.2616ZM10.0116 9.74C11.0116 9.92 11.9716 10.15 12.8916 10.43C13.8116 10.69 14.6016 10.98 15.2616 11.3V1.94C14.7616 1.98 14.2716 2.21 13.7916 2.63C13.3116 3.03 12.8416 3.58 12.3816 4.28C11.9416 4.98 11.5216 5.8 11.1216 6.74C10.7216 7.66 10.3516 8.66 10.0116 9.74ZM32.3777 8V18.2C32.3777 18.44 32.3877 18.72 32.4077 19.04C32.4277 19.34 32.4777 19.63 32.5577 19.91C32.6577 20.19 32.7977 20.43 32.9777 20.63C33.1777 20.81 33.4577 20.9 33.8177 20.9C33.9777 20.9 34.1477 20.88 34.3277 20.84C34.5277 20.8 34.6877 20.76 34.8077 20.72C34.8277 20.82 34.8377 20.91 34.8377 20.99C34.8577 21.07 34.8677 21.16 34.8677 21.26C34.8677 21.86 34.6377 22.33 34.1777 22.67C33.7177 23.01 33.1977 23.18 32.6177 23.18C31.9977 23.18 31.4377 22.97 30.9377 22.55C30.4377 22.11 30.0977 21.38 29.9177 20.36C29.6177 21.14 29.1277 21.81 28.4477 22.37C27.7677 22.91 26.9477 23.18 25.9877 23.18C25.3877 23.18 24.7777 23.06 24.1577 22.82C23.5577 22.56 23.0177 22.16 22.5377 21.62C22.0577 21.08 21.6577 20.38 21.3377 19.52C21.0377 18.66 20.8877 17.62 20.8877 16.4C20.8877 15.46 20.9877 14.49 21.1877 13.49C21.4077 12.47 21.7377 11.55 22.1777 10.73C22.6377 9.89 23.2277 9.2 23.9477 8.66C24.6677 8.12 25.5277 7.85 26.5277 7.85C27.0477 7.85 27.5777 7.96 28.1177 8.18C28.6777 8.4 29.0977 8.82 29.3777 9.44V8H32.3777ZM26.6177 20.9C26.9977 20.9 27.3577 20.81 27.6977 20.63C28.0377 20.45 28.3277 20.21 28.5677 19.91C28.8277 19.61 29.0277 19.27 29.1677 18.89C29.3077 18.49 29.3777 18.07 29.3777 17.63V10.79C29.2377 10.45 29.0277 10.15 28.7477 9.89C28.4677 9.63 28.0677 9.5 27.5477 9.5C26.9077 9.5 26.3677 9.72 25.9277 10.16C25.4877 10.58 25.1277 11.12 24.8477 11.78C24.5677 12.44 24.3577 13.18 24.2177 14C24.0977 14.8 24.0377 15.57 24.0377 16.31C24.0377 17.93 24.2877 19.1 24.7877 19.82C25.2877 20.54 25.8977 20.9 26.6177 20.9Z" fill="currentColor"/>
</svg>
