<svg xmlns="http://www.w3.org/2000/svg" id="orchid" fill="currentColor" viewBox="0 0 24 24">
  <g >
    <g  clip-path="url(#a)">
      <g >
        <path fill="#4285F4" d="M12.163 10.516v3.161h4.394a3.764 3.764 0 0 1-1.64 2.457l2.649 2.055C19.11 16.765 20 14.672 20 12.186c0-.58-.052-1.136-.148-1.67h-7.689Z" />
        <path fill="#34A853" d="m7.588 13.554-.597.457-2.115 1.648c1.343 2.664 4.096 4.504 7.287 4.504 2.204 0 4.052-.727 5.403-1.974l-2.65-2.055c-.727.49-1.655.786-2.753.786-2.122 0-3.926-1.432-4.571-3.362l-.004-.004Z" />
        <path fill="#FBBC05" d="M4.876 8.341A8.063 8.063 0 0 0 4 12c0 1.32.32 2.56.876 3.659 0 .007 2.716-2.108 2.716-2.108A4.891 4.891 0 0 1 7.332 12c0-.542.097-1.061.26-1.551L4.876 8.34Z" />
        <path fill="#EA4335" d="M12.163 7.087c1.203 0 2.271.416 3.125 1.217l2.337-2.337c-1.417-1.321-3.258-2.13-5.462-2.13-3.19 0-5.944 1.833-7.287 4.504l2.716 2.108c.645-1.93 2.449-3.362 4.571-3.362Z" />
      </g>
    </g>
  </g>
  <defs>
    <clipPath id="a" >
      <path fill="#fff" d="M4 3.837h16v16.326H4z"/>
    </clipPath>
  </defs>
</svg>
