<svg id="orchid" viewBox="0 0 24 24" fill="none" xmlns="http://www.w3.org/2000/svg">
<g clip-path="url(#clip0_102_3629)">
<path fill-rule="evenodd" clip-rule="evenodd" d="M7 3C4.79086 3 3 4.79086 3 7C3 9.20914 4.79086 11 7 11C9.20914 11 11 9.20914 11 7C11 4.79086 9.20914 3 7 3ZM5 7C5 5.89543 5.89543 5 7 5C8.10457 5 9 5.89543 9 7C9 8.10457 8.10457 9 7 9C5.89543 9 5 8.10457 5 7ZM7 13C4.79086 13 3 14.7909 3 17C3 19.2091 4.79086 21 7 21C9.20914 21 11 19.2091 11 17C11 14.7909 9.20914 13 7 13ZM5 17C5 15.8954 5.89543 15 7 15C8.10457 15 9 15.8954 9 17C9 18.1046 8.10457 19 7 19C5.89543 19 5 18.1046 5 17ZM13 7C13 4.79086 14.7909 3 17 3C19.2091 3 21 4.79086 21 7C21 9.20914 19.2091 11 17 11C14.7909 11 13 9.20914 13 7ZM17 5C15.8954 5 15 5.89543 15 7C15 8.10457 15.8954 9 17 9C18.1046 9 19 8.10457 19 7C19 5.89543 18.1046 5 17 5ZM17 13C14.7909 13 13 14.7909 13 17C13 19.2091 14.7909 21 17 21C19.2091 21 21 19.2091 21 17C21 14.7909 19.2091 13 17 13ZM15 17C15 15.8954 15.8954 15 17 15C18.1046 15 19 15.8954 19 17C19 18.1046 18.1046 19 17 19C15.8954 19 15 18.1046 15 17Z" fill="currentColor"/>
</g>
<defs>
<clipPath id="clip0_102_3629">
<rect width="24" height="24" fill="currentColor"/>
</clipPath>
</defs>
</svg>
