<svg width="18" height="18" viewBox="0 0 18 18" fill="none" xmlns="http://www.w3.org/2000/svg">
<g clip-path="url(#clip0_9309_5675)">
<path d="M9 1.5C13.1421 1.5 16.5 4.85786 16.5 9C16.5 13.1421 13.1421 16.5 9 16.5C4.85786 16.5 1.5 13.1421 1.5 9C1.5 4.85786 4.85786 1.5 9 1.5ZM9 3C5.68629 3 3 5.68629 3 9C3 12.3137 5.68629 15 9 15C12.3137 15 15 12.3137 15 9C15 5.68629 12.3137 3 9 3ZM8.9925 7.5C9.41085 7.5 9.75 7.83915 9.75 8.2575V12.1004C9.97418 12.23 10.125 12.4724 10.125 12.75C10.125 13.1642 9.78922 13.5 9.375 13.5H9.0075C8.58908 13.5 8.25 13.1608 8.25 12.7425V9C7.83577 9 7.5 8.66423 7.5 8.25C7.5 7.83577 7.83577 7.5 8.25 7.5H8.9925ZM9 5.25C9.41423 5.25 9.75 5.58579 9.75 6C9.75 6.41421 9.41423 6.75 9 6.75C8.58577 6.75 8.25 6.41421 8.25 6C8.25 5.58579 8.58577 5.25 9 5.25Z" fill="#002771"/>
</g>
<defs>
<clipPath id="clip0_9309_5675">
<rect width="18" height="18" fill="white"/>
</clipPath>
</defs>
</svg>
