<svg xmlns="http://www.w3.org/2000/svg" id="orchid" fill="currentColor" viewBox="0 0 24 24">
  <g  clip-path="url(#a)">
    <g >
      <path fill="currentColor" fill-rule="evenodd" d="M17 3a3 3 0 0 1 2.995 2.824L20 6v4.35l.594-.264c.614-.273 1.322.15 1.4.798L22 11v8a2 2 0 0 1-1.85 1.994L20 21H4a2 2 0 0 1-1.995-1.85L2 19v-8c0-.672.675-1.147 1.297-.955l.11.041.593.264V6a3 3 0 0 1 2.824-2.995L7 3h10Zm3 9.539-7.188 3.194a2 2 0 0 1-1.624 0L4 12.54V19h16v-6.461ZM17 5H7a1 1 0 0 0-1 1v5.239l6 2.667 6-2.667V6a1 1 0 0 0-1-1Zm-5 3a1 1 0 0 1 .117 1.993L12 10h-2a1 1 0 0 1-.117-1.993L10 8h2Z"  clip-rule="evenodd"/>
    </g>
  </g>
  <defs>
    <clipPath id="a" >
      <path fill="#fff" d="M0 0h24v24H0z"/>
    </clipPath>
  </defs>
</svg>
