<svg xmlns="http://www.w3.org/2000/svg" id="orchid" fill="currentColor" viewBox="0 0 24 25">
  <g  clip-path="url(#a)">
    <g >
      <path fill="currentColor" d="M22 18.644a2 2 0 0 1-1.85 1.994l-.15.006H4a2 2 0 0 1-1.995-1.85L2 18.643v-12a2 2 0 0 1 1.85-1.995L4 4.644h16a2 2 0 0 1 1.994 1.85l.006.15v12Zm-2 0v-12H4v12h16Zm-12-5.5a.5.5 0 0 1-.41.492l-.09.008h-1a.5.5 0 0 1-.492-.41L6 13.144v-1a.5.5 0 0 1 .41-.492l.09-.008h1a.5.5 0 0 1 .492.41l.008.09v1Z" />
    </g>
  </g>
  <defs>
    <clipPath id="a" >
      <path fill="currentColor" d="M0 .644h24v24H0z"/>
    </clipPath>
  </defs>
</svg>
