<svg xmlns="http://www.w3.org/2000/svg" id="orchid" fill="currentColor" viewBox="0 0 24 24">
  <g  clip-path="url(#a)">
    <g >
      <path fill="currentColor" fill-rule="evenodd" d="m9.65 4-3.111 7h3.447c.69 0 1.176.675.958 1.33l-1.656 4.967L16.586 10h-2.57a1.01 1.01 0 0 1-.903-1.462L15.382 4H9.65ZM8.084 2.6c.162-.365.523-.6.923-.6h7.977c.75 0 1.239.79.903 1.462L15.618 8h3.358c.9 0 1.35 1.088.714 1.724L7.737 21.677c-.754.754-2.01-.022-1.672-1.033L8.613 13H5.015a1.01 1.01 0 0 1-.923-1.42L8.084 2.6Z"  clip-rule="evenodd"/>
    </g>
  </g>
  <defs>
    <clipPath id="a" >
      <path fill="#fff" d="M0 0h24v24H0z"/>
    </clipPath>
  </defs>
</svg>
