<svg id="orchid" viewBox="0 0 24 24" fill="none" xmlns="http://www.w3.org/2000/svg">
<g clip-path="url(#clip0_113_806)">
<path fill-rule="evenodd" clip-rule="evenodd" d="M18.9945 3.85074C18.9182 2.81588 18.0544 2 17 2H7L6.85074 2.00549C5.81588 2.08183 5 2.94564 5 4V20L5.00549 20.1493C5.08183 21.1841 5.94564 22 7 22H17L17.1493 21.9945C18.1841 21.9182 19 21.0544 19 20V4L18.9945 3.85074ZM7 4H17V20H7V4ZM14 8C14 9.10457 13.1046 10 12 10C10.8954 10 10 9.10457 10 8C10 6.89543 10.8954 6 12 6C13.1046 6 14 6.89543 14 8ZM14.4919 11.9101C14.4496 11.6769 14.2454 11.5 14 11.5H10L9.91014 11.5081C9.67691 11.5504 9.5 11.7546 9.5 12V12.5L9.50806 12.5899C9.5504 12.8231 9.75458 13 10 13H14L14.0899 12.9919C14.3231 12.9496 14.5 12.7454 14.5 12.5V12L14.4919 11.9101ZM14.4839 14.9101C14.4415 14.6769 14.2374 14.5 13.9919 14.5H9.99194L9.90208 14.5081C9.66885 14.5504 9.49194 14.7546 9.49194 15V15.5L9.5 15.5899C9.54234 15.8231 9.74652 16 9.99194 16H13.9919L14.0818 15.9919C14.315 15.9496 14.4919 15.7454 14.4919 15.5V15L14.4839 14.9101Z" fill="currentColor"/>
</g>
<defs>
<clipPath id="clip0_113_806">
<rect width="24" height="24" fill="currentColor"/>
</clipPath>
</defs>
</svg>
