<svg xmlns="http://www.w3.org/2000/svg" id="orchid" fill="currentColor" viewBox="0 0 25 25">
  <g  clip-path="url(#a)">
    <g >
      <path fill="currentColor" fill-rule="evenodd" d="M12.75 3.006a1 1 0 0 0-1.105-.884 10.001 10.001 0 0 0 1.115 19.939c5.523 0 10-4.478 10-10a9.99 9.99 0 0 0-4.286-8.208 1 1 0 1 0-1.144 1.64A8 8 0 1 1 4.76 12.06a8.001 8.001 0 0 1 7.106-7.95 1 1 0 0 0 .884-1.104Z"  clip-rule="evenodd"/>
    </g>
  </g>
  <defs>
    <clipPath id="a" >
      <path fill="currentColor" d="M.76.06h24v24h-24z"/>
    </clipPath>
  </defs>
</svg>
