<svg id="orchid" viewBox="0 0 51 48" fill="none" xmlns="http://www.w3.org/2000/svg">
<circle cx="24" cy="24" r="24" fill="#FFF9EC"/>
<rect x="32.5" width="18" height="18" rx="9" fill="white"/>
<path fill-rule="evenodd" clip-rule="evenodd" d="M41.5 0C36.5295 0 32.5 4.02948 32.5 9C32.5 13.9705 36.5295 18 41.5 18C46.4705 18 50.5 13.9705 50.5 9C50.5 4.02948 46.4705 0 41.5 0ZM40.15 6.075C40.15 5.32942 40.7544 4.725 41.5 4.725C42.2456 4.725 42.85 5.32942 42.85 6.075V8.71875C42.85 9.46433 42.2456 10.0688 41.5 10.0688C40.7544 10.0688 40.15 9.46433 40.15 8.71875V6.075ZM41.5 10.9125C40.7544 10.9125 40.15 11.5169 40.15 12.2625C40.15 13.0081 40.7544 13.6125 41.5 13.6125C42.2456 13.6125 42.85 13.0081 42.85 12.2625C42.85 11.5169 42.2456 10.9125 41.5 10.9125Z" fill="#F4B840"/>
<g clip-path="url(#clip0_1355_8777)">
<path fill-rule="evenodd" clip-rule="evenodd" d="M16 16C16 14.8954 16.8954 14 18 14H30C31.1046 14 32 14.8954 32 16V32C32 33.1046 31.1046 34 30 34H18C16.8954 34 16 33.1046 16 32V16ZM30 16H18V32H30V16ZM20 21C20 20.4477 20.4477 20 21 20H27C27.5523 20 28 20.4477 28 21C28 21.5523 27.5523 22 27 22H21C20.4477 22 20 21.5523 20 21ZM21 25C20.4477 25 20 25.4477 20 26C20 26.5523 20.4477 27 21 27H24C24.5523 27 25 26.5523 25 26C25 25.4477 24.5523 25 24 25H21Z" fill="#F4B840"/>
</g>
<defs>
<clipPath id="clip0_1355_8777">
<rect width="24" height="24" fill="white" transform="translate(12 12)"/>
</clipPath>
</defs>
</svg>
