<svg xmlns="http://www.w3.org/2000/svg" id="orchid" fill="currentColor" viewBox="0 0 24 24">
  <g  clip-path="url(#a)">
    <g >
      <path fill="currentColor" fill-rule="evenodd" d="M20.995 5.824A3 3 0 0 0 18 3H6l-.176.005A3 3 0 0 0 3 6v12l.005.176A3 3 0 0 0 6 21h12l.176-.005A3 3 0 0 0 21 18V6l-.005-.176ZM6 5h12l.117.007A1 1 0 0 1 19 6v12l-.007.117A1 1 0 0 1 18 19H6l-.117-.007A1 1 0 0 1 5 18V6l.007-.117A1 1 0 0 1 6 5Zm2 6a1 1 0 1 0 0 2h8a1 1 0 1 0 0-2H8Z"  clip-rule="evenodd"/>
    </g>
  </g>
  <defs>
    <clipPath id="a" >
      <path fill="#fff" d="M0 0h24v24H0z"/>
    </clipPath>
  </defs>
</svg>
