<svg id="orchid" fill="none" xmlns="http://www.w3.org/2000/svg">
<rect x="1" y="0.5" width="225" height="160" rx="11.5" fill="#E5EEFF"/>
<circle cx="15" cy="14.5" r="2.5" fill="#80ACFE"/>
<circle cx="22" cy="14.5" r="2.5" fill="#80ACFE"/>
<circle cx="29" cy="14.5" r="2.5" fill="#80ACFE"/>
<rect x="13" y="27.5" width="201" height="118.5" rx="3.5" fill="#2465DE" fill-opacity="0.1" stroke="#B3CDFE"/>
<g clip-path="url(#clip0_235_84839)">
<path d="M115.232 64.947L126.744 84.8863C127.514 86.2196 126.552 87.8863 125.012 87.8863H101.988C100.448 87.8863 99.4862 86.2196 100.256 84.8863L111.768 64.947C112.538 63.6136 114.462 63.6136 115.232 64.947ZM113.5 67.2803L103.143 85.2196H123.857L113.5 67.2803ZM113.5 80.75C114.236 80.75 114.833 81.347 114.833 82.0834C114.833 82.8198 114.236 83.4167 113.5 83.4167C112.764 83.4167 112.167 82.8198 112.167 82.0834C112.167 81.347 112.764 80.75 113.5 80.75ZM113.5 71.4167C114.236 71.4167 114.833 72.0136 114.833 72.75V78.0834C114.833 78.8198 114.236 79.4167 113.5 79.4167C112.764 79.4167 112.167 78.8198 112.167 78.0834V72.75C112.167 72.0136 112.764 71.4167 113.5 71.4167Z" fill="#2465DE"/>
</g>
<rect x="88.5" y="96.75" width="50" height="6" rx="3" fill="#E5EEFF"/>
<rect x="93.5" y="106.75" width="40" height="6" rx="3" fill="#E5EEFF"/>
<rect x="1" y="0.5" width="225" height="160" rx="11.5" stroke="#B3CDFE"/>
<defs>
<clipPath id="clip0_235_84839">
<rect width="32" height="32" fill="white" transform="translate(97.5 60.75)"/>
</clipPath>
</defs>
</svg>
