<svg id="orchid" viewBox="0 0 25 24" fill="none" xmlns="http://www.w3.org/2000/svg">
<g clip-path="url(#clip0_129_615)">
<path d="M11.3641 2.74881L11.5025 2.82175L19.2967 7.32175C20.2077 7.84773 20.5483 8.98225 20.1016 9.91543L20.0287 10.0538L14.0287 20.4461C13.5027 21.3571 12.3682 21.6978 11.435 21.2511L11.2967 21.1782L3.50241 16.6782C2.59138 16.1522 2.25072 15.0177 2.69742 14.0845L2.77036 13.9461L7.27031 6.15196L5.53824 5.15195C5.05995 4.8758 4.89606 4.26421 5.17221 3.78592C5.42863 3.34179 5.97429 3.16877 6.43388 3.36741L6.53824 3.41989L8.27031 4.41991L8.77035 3.5538C9.26865 2.69072 10.3131 2.33954 11.2152 2.68479L11.3641 2.74881ZM16.5957 12H6.20335L4.50241 14.9461L12.2967 19.4461L16.5957 12ZM20.4701 11.2295L20.6674 11L20.7434 11.0869L20.9412 11.322L21.1181 11.5422L21.3154 11.7999L21.5193 12.0839C21.8574 12.5726 22.1674 13.1234 22.1674 13.5C22.1674 14.3284 21.4958 15 20.6674 15C19.8389 15 19.1674 14.3284 19.1674 13.5C19.1674 13.0481 19.6136 12.3454 20.0193 11.7999L20.2166 11.5422L20.4701 11.2295ZM10.5025 4.5538L10.0024 5.41991L10.8684 5.91989C11.3467 6.19604 11.5106 6.80763 11.2344 7.28592C10.9583 7.76421 10.3467 7.92809 9.86836 7.65195L9.00236 7.15196L7.35806 9.99997H17.7504L18.2967 9.0538L10.5025 4.5538Z" fill="currentColor"/>
</g>
<defs>
<clipPath id="clip0_129_615">
<rect width="24" height="24" fill="currentColor" transform="translate(0.167358)"/>
</clipPath>
</defs>
</svg>
