<svg id="orchid" viewBox="0 0 24 24" fill="none" xmlns="http://www.w3.org/2000/svg">
<g clip-path="url(#clip0_113_759)">
<path d="M10 3C11.1046 3 12 3.89543 12 5V5.63575L13.6358 3.99997C14.4168 3.21892 15.6832 3.21892 16.4642 3.99997L19.9997 7.53551C20.7808 8.31655 20.7808 9.58288 19.9997 10.3639L18.3637 12H19C20.1046 12 21 12.8954 21 14V19C21 20.1045 20.1046 21 19 21H5C3.89543 21 3 20.1046 3 19V5C3 3.89543 3.89543 3 5 3H10ZM10 5H5V19H10V5ZM19 14H16.3637L12 18.3637V19H19V14ZM7.5 15C8.32843 15 9 15.6716 9 16.5C9 17.3284 8.32843 18 7.5 18C6.67157 18 6 17.3284 6 16.5C6 15.6716 6.67157 15 7.5 15ZM15.05 5.41418L12 8.46417V15.5352L18.5855 8.94972L15.05 5.41418Z" fill="currentColor"/>
</g>
<defs>
<clipPath id="clip0_113_759">
<rect width="24" height="24" fill="currentColor"/>
</clipPath>
</defs>
</svg>
