<svg id="orchid" viewBox="0 0 24 24" fill="none" xmlns="http://www.w3.org/2000/svg">
<g clip-path="url(#clip0_102_3611)">
<path d="M16 3C17.5977 3 18.9037 4.24892 18.9949 5.82373L19 6V16H19.75C20.3972 16 20.9295 16.4918 20.9935 17.1222L21 17.25V19C21 20.5977 19.7511 21.9037 18.1763 21.9949L18 22H8C6.40232 22 5.09634 20.7511 5.00509 19.1763L5 19V9H3.25C2.60279 9 2.07047 8.50813 2.00645 7.87781L2 7.75V6C2 4.40232 3.24892 3.09634 4.82373 3.00509L5 3H16ZM16 5H7V19C7 19.5523 7.44772 20 8 20C8.55228 20 9 19.5523 9 19V17.25C9 16.5596 9.55964 16 10.25 16H17V6C17 5.44772 16.5523 5 16 5ZM19 18H11V19C11 19.3506 10.9398 19.6872 10.8293 20H18C18.5523 20 19 19.5523 19 19V18ZM12 12C12.5523 12 13 12.4477 13 13C13 13.5523 12.5523 14 12 14H10C9.44772 14 9 13.5523 9 13C9 12.4477 9.44772 12 10 12H12ZM14 8C14.5523 8 15 8.44772 15 9C15 9.55228 14.5523 10 14 10H10C9.44772 10 9 9.55228 9 9C9 8.44772 9.44772 8 10 8H14ZM5 5C4.48717 5 4.06449 5.38604 4.00673 5.88338L4 6V7H5V5Z" fill="currentColor"/>
</g>
<defs>
<clipPath id="clip0_102_3611">
<rect width="24" height="24" fill="currentColor"/>
</clipPath>
</defs>
</svg>
