<svg xmlns="http://www.w3.org/2000/svg" id="orchid" fill="currentColor" viewBox="0 0 25 24">
  <g  clip-path="url(#a)">
    <g >
      <path fill="currentColor" fill-rule="evenodd" d="M8.931 15.829c3.846 3.845 7.409 4.266 8.455 4.305 1.264.046 2.554-.986 3.111-2.043-.89-1.044-2.048-1.854-3.318-2.732-.748.748-1.67 2.138-2.9 1.64-.699-.281-2.425-1.076-3.934-2.585-1.508-1.508-2.303-3.234-2.585-3.932-.498-1.231.895-2.156 1.644-2.905-.877-1.29-1.674-2.479-2.716-3.324-1.071.56-2.11 1.84-2.062 3.121.038 1.046.46 4.609 4.305 8.454Zm8.381 6.303c-1.44-.053-5.522-.616-9.795-4.89C3.244 12.97 2.68 8.89 2.627 7.449c-.08-2.196 1.601-4.329 3.545-5.162a1.47 1.47 0 0 1 1.445.159c1.608 1.173 2.717 2.95 3.67 4.342A1.504 1.504 0 0 1 11.11 8.7l-1.356 1.357c.314.695.957 1.894 2.006 2.943 1.049 1.05 2.248 1.691 2.943 2.006l1.356-1.356a1.503 1.503 0 0 1 1.918-.171c1.42.984 3.088 2.077 4.304 3.634a1.47 1.47 0 0 1 .188 1.485c-.836 1.953-2.954 3.616-5.157 3.535Z"  clip-rule="evenodd"/>
    </g>
  </g>
  <defs>
    <clipPath id="a" >
      <path fill="#fff" d="M.76 0h24v24h-24z"/>
    </clipPath>
  </defs>
</svg>
