<svg xmlns="http://www.w3.org/2000/svg" id="orchid" fill="currentColor" viewBox="0 0 24 24">
  <g  clip-path="url(#a)">
    <g >
      <path fill="currentColor" d="M6.72 16.64a1 1 0 0 1 .56 1.92c-.5.146-.86.3-1.091.44.238.143.614.303 1.136.452C8.48 19.782 10.133 20 12 20s3.52-.218 4.675-.548c.523-.149.898-.309 1.136-.452-.23-.14-.59-.294-1.09-.44a1 1 0 0 1 .559-1.92c.668.195 1.28.445 1.75.766.435.299.97.82.97 1.594 0 .783-.548 1.308-.99 1.607-.478.322-1.103.573-1.786.768C15.846 21.77 14 22 12 22s-3.846-.23-5.224-.625c-.683-.195-1.308-.446-1.786-.768-.442-.3-.99-.824-.99-1.607 0-.774.535-1.295.97-1.594.47-.321 1.082-.571 1.75-.766ZM12 2a7.5 7.5 0 0 1 7.5 7.5c0 2.568-1.4 4.656-2.85 6.14a16.402 16.402 0 0 1-1.853 1.615c-.594.446-1.952 1.282-1.952 1.282a1.71 1.71 0 0 1-1.69 0 20.737 20.737 0 0 1-1.952-1.282A16.291 16.291 0 0 1 7.35 15.64C5.9 14.156 4.5 12.068 4.5 9.5A7.5 7.5 0 0 1 12 2Zm0 2a5.5 5.5 0 0 0-5.5 5.5c0 1.816.996 3.428 2.28 4.74.966.988 2.03 1.74 2.768 2.202l.452.274.453-.274c.737-.463 1.801-1.214 2.767-2.201 1.284-1.313 2.28-2.925 2.28-4.741A5.5 5.5 0 0 0 12 4Zm0 2.5a3 3 0 1 1 0 6 3 3 0 0 1 0-6Zm0 2a1 1 0 1 0 0 2 1 1 0 0 0 0-2Z" />
    </g>
  </g>
  <defs>
    <clipPath id="a" >
      <path fill="#fff" d="M0 0h24v24H0z"/>
    </clipPath>
  </defs>
</svg>
