<svg xmlns="http://www.w3.org/2000/svg" id="orchid" fill="currentColor" viewBox="0 0 24 25">
  <g  clip-path="url(#a)">
    <g >
      <path fill="currentColor" fill-rule="evenodd" d="M9.5 2.644a2.5 2.5 0 0 0-2.5 2.5v5.961a4.735 4.735 0 0 0-.87-.583c-1.02-.519-2.011-.44-3.054-.012-.84.345-1.107 1.307-.747 2.028l2.842 5.683a8 8 0 0 0 7.155 4.423H13a8 8 0 0 0 7.984-7.487c.042-.669.016-1.343.016-2.013a2.5 2.5 0 0 0-3.388-2.338 2.498 2.498 0 0 0-3-1A2.498 2.498 0 0 0 12 8.694v-3.55a2.5 2.5 0 0 0-2.5-2.5Zm8.5 10.5v.5a1 1 0 1 1-2 0v-1.5a.5.5 0 0 0-1-.008v.508a1 1 0 0 1-2 0v-1.5a.5.5 0 0 0-1 0v1.5a1 1 0 0 1-2 0v-7.5a.5.5 0 1 0-1 0v8.5a1 1 0 0 1-1.78.624c-.925-1.155-1.517-1.72-1.995-1.963a1.214 1.214 0 0 0-.835-.117l2.57 5.14a6 6 0 0 0 5.366 3.316H13a6 6 0 0 0 6-5.98v-1.52a.5.5 0 0 0-1 0Z"  clip-rule="evenodd"/>
    </g>
  </g>
  <defs>
    <clipPath id="a" >
      <path fill="#fff" d="M0 .644h24v24H0z"/>
    </clipPath>
  </defs>
</svg>
