<svg id="orchid" viewBox="0 0 24 24" fill="none" xmlns="http://www.w3.org/2000/svg">
<g clip-path="url(#clip0_102_3616)">
<path d="M16.4338 3C17.0823 3 17.6868 3.31407 18.0603 3.8362L18.1488 3.97101L20.5725 8.01048C20.8122 8.41012 20.9551 8.85918 20.991 9.32173L21 9.55397V19C21 20.0544 20.1841 20.9182 19.1493 20.9945L19 21H5C3.94564 21 3.08183 20.1841 3.00549 19.1493L3 19V9.55397C3 9.08792 3.10857 8.62937 3.31575 8.21425L3.42752 8.01048L5.8512 3.97101C6.18485 3.41494 6.76522 3.05809 7.40509 3.00648L7.56619 3H16.4338ZM19 10H5V19H19V10ZM11 5H7.56619L5.76619 8H11V5ZM16.4338 5H13V8H18.2338L16.4338 5Z" fill="currentColor"/>
</g>
<defs>
<clipPath id="clip0_102_3616">
<rect width="24" height="24" fill="currentColor"/>
</clipPath>
</defs>
</svg>
