<svg xmlns="http://www.w3.org/2000/svg" id="orchid" fill="currentColor" viewBox="0 0 24 25">
  <g  clip-path="url(#a)">
    <g >
      <path fill="currentColor" fill-rule="evenodd" d="M10.5 4.644a1.472 1.472 0 0 0-1.317 2.13l.163.325a1.067 1.067 0 0 1-.955 1.545H5a1 1 0 0 0-1 1v1.194c1.82-.109 3.5 1.331 3.5 3.306S5.82 17.558 4 17.449v2.195a1 1 0 0 0 1 1h2.194c-.109-1.821 1.331-3.5 3.306-3.5s3.415 1.679 3.306 3.5H15a1 1 0 0 0 1-1v-3.391c0-.794.835-1.31 1.545-.955l.324.162a1.472 1.472 0 1 0 0-2.633l-.324.162A1.067 1.067 0 0 1 16 12.035V9.644a1 1 0 0 0-1-1h-2.39c-.794 0-1.31-.835-.956-1.545l.163-.325a1.472 1.472 0 0 0-1.317-2.13Zm-3.436 2c-.316-2.017 1.23-4 3.436-4 2.205 0 3.752 1.983 3.436 4H15a3 3 0 0 1 3 3v1.064c2.017-.316 4 1.23 4 3.436 0 2.205-1.983 3.752-4 3.435v2.065a3 3 0 0 1-3 3h-2.407a1.061 1.061 0 0 1-.976-1.48l.085-.197a1.308 1.308 0 1 0-2.404 0l.085.198c.3.7-.214 1.479-.976 1.479H5a3 3 0 0 1-3-3v-3.407c0-.762.779-1.276 1.48-.976l.197.085a1.308 1.308 0 1 0 0-2.404l-.198.084A1.06 1.06 0 0 1 2 12.051V9.644a3 3 0 0 1 3-3h2.064Z"  clip-rule="evenodd"/>
    </g>
  </g>
  <defs>
    <clipPath id="a" >
      <path fill="#fff" d="M0 .644h24v24H0z"/>
    </clipPath>
  </defs>
</svg>
