<svg xmlns="http://www.w3.org/2000/svg" id="orchid" fill="currentColor" viewBox="0 0 24 25">
  <g  clip-path="url(#a)">
    <g >
      <path fill="currentColor" d="M11 3.644a2 2 0 0 1 1.995 1.85l.005.15v6a2 2 0 0 1-1.85 1.994l-.15.006H5a2 2 0 0 1-1.995-1.85L3 11.643v-6a2 2 0 0 1 1.85-1.995L5 3.644h6Zm0 2H5v6h6v-6Zm-2.5 2a.5.5 0 0 1 .492.41l.008.09v1a.5.5 0 0 1-.41.492l-.09.008h-1a.5.5 0 0 1-.492-.41L7 9.144v-1a.5.5 0 0 1 .41-.492l.09-.008h1Zm12.5-2a2 2 0 0 0-2-2h-2a2 2 0 0 0-2 2v2a2 2 0 0 0 2 2h2a2 2 0 0 0 2-2v-2Zm-4 0h2v2h-2v-2Zm-10 10a2 2 0 0 1 2 2v2a2 2 0 0 1-2 2H5a2 2 0 0 1-2-2v-2a2 2 0 0 1 2-2h2Zm0 2H5v2h2v-2Zm14 0a2 2 0 0 0-2-2h-2a2 2 0 0 0-2 2v2a2 2 0 0 0 2 2h2a2 2 0 0 0 2-2v-2Zm-4 0h2v2h-2v-2Zm-2-5a1 1 0 0 1 1-1h4a1 1 0 1 1 0 2h-4a1 1 0 0 1-1-1Zm-2 4a1 1 0 1 0-2 0v4a1 1 0 1 0 2 0v-4Z" />
    </g>
  </g>
  <defs>
    <clipPath id="a" >
      <path fill="#fff" d="M0 .644h24v24H0z"/>
    </clipPath>
  </defs>
</svg>
