<svg xmlns="http://www.w3.org/2000/svg" id="orchid" fill="currentColor" viewBox="0 0 24 24">
  <g  clip-path="url(#a)">
    <g >
      <path fill="currentColor" d="m12.702 2.195 7 2.625A2 2 0 0 1 21 6.693v5.363a9 9 0 0 1-4.975 8.05l-3.354 1.677a1.5 1.5 0 0 1-1.342 0l-3.354-1.677A9 9 0 0 1 3 12.056V6.693A2 2 0 0 1 4.298 4.82l7-2.625a2 2 0 0 1 1.404 0ZM12 4.068 5 6.693v5.363a7 7 0 0 0 3.87 6.26L12 19.883l3.13-1.565A7 7 0 0 0 19 12.056V6.693l-7-2.625ZM12 8a2 2 0 0 1 1.134 3.648l-.134.085V15a1 1 0 0 1-1.993.117L11 15v-3.267A2 2 0 0 1 12 8Z" />
    </g>
  </g>
  <defs>
    <clipPath id="a" >
      <path fill="#fff" d="M0 0h24v24H0z"/>
    </clipPath>
  </defs>
</svg>
