<svg width="20" height="20" viewBox="0 0 20 20" fill="none" xmlns="http://www.w3.org/2000/svg">
<path fill-rule="evenodd" clip-rule="evenodd" d="M8.74999 1.66675C4.83797 1.66675 1.66666 4.83806 1.66666 8.75008C1.66666 12.6621 4.83797 15.8334 8.74999 15.8334C10.4057 15.8334 11.9288 15.2653 13.1349 14.3134L16.1785 17.357C16.5039 17.6824 17.0316 17.6824 17.357 17.357C17.6824 17.0316 17.6824 16.5039 17.357 16.1785L14.3134 13.1349C15.2652 11.9288 15.8333 10.4057 15.8333 8.75008C15.8333 4.83806 12.662 1.66675 8.74999 1.66675ZM3.33332 8.75008C3.33332 5.75854 5.75845 3.33341 8.74999 3.33341C11.7416 3.33341 14.1667 5.75854 14.1667 8.75008C14.1667 11.7417 11.7416 14.1667 8.74999 14.1667C5.75845 14.1667 3.33332 11.7417 3.33332 8.75008Z" fill="#61667C"/>
</svg>
