<svg id="orchid" viewBox="0 0 14 14" fill="none" xmlns="http://www.w3.org/2000/svg">
<path d="M5.05894 10.0372H8.02196C8.498 10.0372 8.75058 9.77525 8.75058 9.25783V7.00156C8.75058 6.48417 8.498 6.22546 8.02196 6.22546H5.05894C4.58291 6.22546 4.33032 6.48417 4.33032 7.00156V9.25783C4.33032 9.77525 4.58291 10.0372 5.05894 10.0372ZM4.89702 6.47762H5.41191V5.37076C5.41191 4.54554 5.93327 4.10673 6.53883 4.10673C7.14439 4.10673 7.67222 4.54554 7.67222 5.37076V6.47762H8.18388V5.44281C8.18388 4.21152 7.38726 3.61224 6.53883 3.61224C5.69364 3.61224 4.89702 4.21152 4.89702 5.44281V6.47762Z" fill="currentColor"/>
</svg>