<svg xmlns="http://www.w3.org/2000/svg" id="orchid" fill="currentColor" viewBox="0 0 24 24">
  <g  clip-path="url(#a)">
    <g >
      <path fill="currentColor" d="M9 3a1 1 0 0 1 .117 1.993L9 5H5v14h14v-9a1 1 0 0 1 1.993-.117L21 10v9a2 2 0 0 1-1.85 1.995L19 21H5a2 2 0 0 1-1.995-1.85L3 19V5a2 2 0 0 1 1.85-1.995L5 3h4Zm10.513 0c.622 0 .984.468 1.075.856.091.389-.025.971-.585 1.247l-.414.211-.164.088-.363.201-.405.236-.439.27c-.682.43-1.46.976-2.242 1.637-1.654 1.399-3.258 3.261-4.027 5.57a1 1 0 0 1-1.898-.632c.928-2.784 2.823-4.933 4.634-6.465.431-.365.862-.698 1.278-1l.31-.219H14a1 1 0 0 1-.117-1.993L14 3h5.513Z" />
    </g>
  </g>
  <defs>
    <clipPath id="a" >
      <path fill="currentColor" d="M0 0h24v24H0z"/>
    </clipPath>
  </defs>
</svg>
