<svg xmlns="http://www.w3.org/2000/svg" id="orchid" fill="currentColor" viewBox="0 0 24 24">
  <g  clip-path="url(#a)">
    <g >
      <path fill="currentColor" d="M10.114 4.491c.076-.795.906-1.45 1.743-.972 1.74 1.019 3.382 2.18 4.97 3.421 1.96 1.548 3.533 3.007 4.647 4.172.483.507.438 1.308-.024 1.792a42.072 42.072 0 0 1-3.495 3.228c-1.938 1.587-3.945 3.125-6.13 4.358-.741.418-1.544-.06-1.687-.801l-.017-.113-.227-3.574c-1.816.038-3.574.662-4.98 1.823l-.265.222-.128.104-.247.192c-.04.03-.08.06-.12.088l-.23.16a4.666 4.666 0 0 1-.218.135l-.206.111C2.534 19.314 2 18.892 2 17c0-4.404 3.245-8.323 7.632-8.917l.259-.031.223-3.56Zm1.909 1.474-.192 3.472a.5.5 0 0 1-.447.47l-1.361.142c-3.065.366-5.497 2.762-5.948 5.894a9.952 9.952 0 0 1 5.135-1.912l.397-.023 1.704-.036a.5.5 0 0 1 .51.472l.197 3.596c1.603-1.021 3.131-2.196 4.664-3.45a43.717 43.717 0 0 0 2.857-2.595l-.258-.256-.556-.533a48.143 48.143 0 0 0-3.134-2.693 46.172 46.172 0 0 0-3.568-2.548Z" />
    </g>
  </g>
  <defs>
    <clipPath id="a" >
      <path fill="currentColor" d="M0 0h24v24H0z"/>
    </clipPath>
  </defs>
</svg>
