<svg id="orchid" viewBox="0 0 24 24" fill="none" xmlns="http://www.w3.org/2000/svg">
<g clip-path="url(#clip0_113_744)">
<path fill-rule="evenodd" clip-rule="evenodd" d="M5.82704 13.0035C5.89365 12.8536 6.10635 12.8536 6.17296 13.0035L6.34297 13.375C7.07036 14.8798 8.21624 16.143 9.6428 17.0131L9.90768 17.1683C10.0308 17.2376 10.0308 17.4148 9.90768 17.484L9.6428 17.6393C8.21624 18.5094 7.07036 19.7725 6.34297 21.2773L6.17296 21.6489C6.10635 21.7987 5.89365 21.7987 5.82704 21.6489L5.65703 21.2773C4.92964 19.7725 3.78376 18.5094 2.3572 17.6393L2.09232 17.484C1.96923 17.4148 1.96923 17.2376 2.09232 17.1683L2.3572 17.0131C3.78376 16.143 4.92964 14.8798 5.65703 13.375C5.71623 13.2526 5.7717 13.128 5.82704 13.0035ZM5.99696 16.49L5.82182 16.696C5.69727 16.8362 5.56905 16.9731 5.43728 17.1066L5.237 17.3042L5.20996 17.328L5.4373 17.551L5.63227 17.7538L5.82183 17.9616L5.99696 18.167L6.17249 17.9616C6.29704 17.8214 6.42527 17.6845 6.55703 17.551L6.78396 17.328L6.75733 17.3042C6.62205 17.1742 6.49026 17.0407 6.36207 16.9038L6.17251 16.696L5.99696 16.49ZM14.4727 2.72991C14.5893 2.46764 14.9615 2.46764 15.0781 2.72991L15.2286 3.06587L15.3756 3.38009L15.5714 3.77069L15.7973 4.18954L15.9094 4.38643C16.9063 6.1068 18.2301 7.61382 19.8041 8.82305L20.2313 9.13951C20.5295 9.35247 20.836 9.55505 21.1503 9.74673C21.303 9.83987 21.4575 9.93043 21.6138 10.0184C21.8292 10.1395 21.8292 10.4497 21.6138 10.5708C21.4575 10.6588 21.303 10.7493 21.1503 10.8425C20.9408 10.9702 20.7347 11.1029 20.5322 11.2402L20.1718 11.4924C18.4357 12.7448 16.983 14.35 15.9094 16.2028L15.7779 16.4344C15.6367 16.6882 15.5025 16.9466 15.3756 17.2091L15.2286 17.5233L15.0781 17.8593C14.9615 18.1215 14.5893 18.1215 14.4727 17.8593L14.3222 17.5233L14.1752 17.2091L13.9794 16.8185L13.7535 16.3996L13.6414 16.2028C12.6445 14.4823 11.3206 12.9754 9.74662 11.7661L9.31946 11.4497C9.02124 11.2367 8.71476 11.0341 8.4005 10.8425C8.2478 10.7493 8.09326 10.6588 7.93694 10.5708C7.72154 10.4497 7.72154 10.1395 7.93694 10.0184C8.09326 9.93043 8.2478 9.83987 8.4005 9.74673C8.61 9.61894 8.81605 9.48631 9.0185 9.34899L9.37899 9.09679C11.115 7.84441 12.5678 6.23914 13.6414 4.38643L13.7729 4.1548C13.9141 3.90094 14.0483 3.64262 14.1752 3.38009L14.3222 3.06587L14.4727 2.72991ZM14.7754 6.34496C13.7697 7.84494 12.5335 9.1781 11.1124 10.2946C12.5335 11.4111 13.7697 12.7442 14.7754 14.2442C15.7811 12.7442 17.0172 11.4111 18.4384 10.2946C17.0172 9.1781 15.7811 7.84494 14.7754 6.34496Z" fill="currentColor"/>
</g>
<defs>
<clipPath id="clip0_113_744">
<rect width="24" height="24" fill="currentColor"/>
</clipPath>
</defs>
</svg>
