<svg id="orchid" viewBox="0 0 24 24" fill="none" xmlns="http://www.w3.org/2000/svg">
<g clip-path="url(#clip0_327_14151)">
<path d="M12 19C12.2652 19 12.5196 19.1054 12.7071 19.2929C12.8946 19.4804 13 19.7348 13 20V21C13 21.2652 12.8946 21.5196 12.7071 21.7071C12.5196 21.8946 12.2652 22 12 22C11.7348 22 11.4804 21.8946 11.2929 21.7071C11.1054 21.5196 11 21.2652 11 21V20C11 19.7348 11.1054 19.4804 11.2929 19.2929C11.4804 19.1054 11.7348 19 12 19ZM18.364 16.95L19.071 17.657C19.2532 17.8456 19.354 18.0982 19.3517 18.3604C19.3494 18.6226 19.2442 18.8734 19.0588 19.0588C18.8734 19.2442 18.6226 19.3494 18.3604 19.3517C18.0982 19.354 17.8456 19.2532 17.657 19.071L16.95 18.364C16.7678 18.1754 16.6671 17.9228 16.6693 17.6606C16.6716 17.3984 16.7768 17.1476 16.9622 16.9622C17.1476 16.7768 17.3984 16.6716 17.6606 16.6693C17.9228 16.667 18.1754 16.7678 18.364 16.95ZM5.63601 16.95C5.81596 16.7707 6.05744 16.6665 6.31139 16.6588C6.56534 16.651 6.81272 16.7402 7.00328 16.9082C7.19385 17.0763 7.31331 17.3106 7.33741 17.5635C7.3615 17.8164 7.28842 18.069 7.13301 18.27L7.05001 18.364L6.34301 19.071C6.16305 19.2503 5.92157 19.3545 5.66762 19.3622C5.41367 19.37 5.16629 19.2808 4.97573 19.1128C4.78516 18.9447 4.6657 18.7104 4.64161 18.4575C4.61751 18.2046 4.69059 17.952 4.84601 17.751L4.92901 17.657L5.63601 16.95ZM12 6C13.5913 6 15.1174 6.63214 16.2426 7.75736C17.3679 8.88258 18 10.4087 18 12C18 13.5913 17.3679 15.1174 16.2426 16.2426C15.1174 17.3679 13.5913 18 12 18C10.4087 18 8.88258 17.3679 7.75737 16.2426C6.63215 15.1174 6.00001 13.5913 6.00001 12C6.00001 10.4087 6.63215 8.88258 7.75737 7.75736C8.88258 6.63214 10.4087 6 12 6ZM12 8C10.9391 8 9.92172 8.42143 9.17158 9.17157C8.42143 9.92172 8.00001 10.9391 8.00001 12C8.00001 13.0609 8.42143 14.0783 9.17158 14.8284C9.92172 15.5786 10.9391 16 12 16C13.0609 16 14.0783 15.5786 14.8284 14.8284C15.5786 14.0783 16 13.0609 16 12C16 10.9391 15.5786 9.92172 14.8284 9.17157C14.0783 8.42143 13.0609 8 12 8ZM4.00001 11C4.25489 11.0003 4.50004 11.0979 4.68537 11.2728C4.87071 11.4478 4.98224 11.687 4.99718 11.9414C5.01212 12.1958 4.92933 12.4464 4.76574 12.6418C4.60215 12.8373 4.3701 12.9629 4.11701 12.993L4.00001 13H3.00001C2.74513 12.9997 2.49997 12.9021 2.31464 12.7272C2.1293 12.5522 2.01777 12.313 2.00283 12.0586C1.9879 11.8042 2.07068 11.5536 2.23427 11.3582C2.39786 11.1627 2.62991 11.0371 2.88301 11.007L3.00001 11H4.00001ZM21 11C21.2652 11 21.5196 11.1054 21.7071 11.2929C21.8946 11.4804 22 11.7348 22 12C22 12.2652 21.8946 12.5196 21.7071 12.7071C21.5196 12.8946 21.2652 13 21 13H20C19.7348 13 19.4804 12.8946 19.2929 12.7071C19.1054 12.5196 19 12.2652 19 12C19 11.7348 19.1054 11.4804 19.2929 11.2929C19.4804 11.1054 19.7348 11 20 11H21ZM4.92901 4.929C5.1012 4.75682 5.3303 4.65339 5.57332 4.63811C5.81635 4.62283 6.0566 4.69675 6.24901 4.846L6.34301 4.929L7.05001 5.636C7.22935 5.81596 7.33348 6.05743 7.34123 6.31138C7.34899 6.56533 7.25979 6.81271 7.09176 7.00328C6.92372 7.19384 6.68945 7.31331 6.43653 7.3374C6.18361 7.36149 5.931 7.28841 5.73001 7.133L5.63601 7.05L4.92901 6.343C4.74153 6.15547 4.63622 5.90116 4.63622 5.636C4.63622 5.37084 4.74153 5.11653 4.92901 4.929ZM19.071 4.929C19.2585 5.11653 19.3638 5.37084 19.3638 5.636C19.3638 5.90116 19.2585 6.15547 19.071 6.343L18.364 7.05C18.2718 7.14551 18.1614 7.22169 18.0394 7.2741C17.9174 7.32651 17.7862 7.3541 17.6534 7.35525C17.5206 7.3564 17.3889 7.3311 17.2661 7.28082C17.1432 7.23054 17.0315 7.15629 16.9376 7.0624C16.8437 6.9685 16.7695 6.85685 16.7192 6.73395C16.6689 6.61106 16.6436 6.47938 16.6448 6.3466C16.6459 6.21382 16.6735 6.0826 16.7259 5.9606C16.7783 5.83859 16.8545 5.72825 16.95 5.636L17.657 4.929C17.8445 4.74153 18.0988 4.63621 18.364 4.63621C18.6292 4.63621 18.8835 4.74153 19.071 4.929ZM12 2C12.2652 2 12.5196 2.10536 12.7071 2.29289C12.8946 2.48043 13 2.73478 13 3V4C13 4.26522 12.8946 4.51957 12.7071 4.70711C12.5196 4.89464 12.2652 5 12 5C11.7348 5 11.4804 4.89464 11.2929 4.70711C11.1054 4.51957 11 4.26522 11 4V3C11 2.73478 11.1054 2.48043 11.2929 2.29289C11.4804 2.10536 11.7348 2 12 2Z" fill="currentColor"/>
</g>
<defs>
<clipPath id="clip0_327_14151">
<rect width="24" height="24" fill="currentColor"/>
</clipPath>
</defs>
</svg>
