<svg xmlns="http://www.w3.org/2000/svg" id="orchid" fill="currentColor" viewBox="0 0 24 24">
  <g  clip-path="url(#a)">
    <g >
      <path fill="currentColor" fill-rule="evenodd" d="M12 2a1 1 0 0 1 1 1v.055A9.004 9.004 0 0 1 20.945 11H21a1 1 0 1 1 0 2h-.055A9.004 9.004 0 0 1 13 20.945V21a1 1 0 1 1-2 0v-.055A9.004 9.004 0 0 1 3.055 13H3a1 1 0 1 1 0-2h.055A9.004 9.004 0 0 1 11 3.055V3a1 1 0 0 1 1-1Zm0 3a7 7 0 1 0 0 14 7 7 0 0 0 0-14Zm0 3a4 4 0 1 1 0 8 4 4 0 0 1 0-8Z"  clip-rule="evenodd"/>
    </g>
  </g>
  <defs>
    <clipPath id="a" >
      <path fill="#fff" d="M0 0h24v24H0z"/>
    </clipPath>
  </defs>
</svg>
