<svg xmlns="http://www.w3.org/2000/svg" id="orchid" fill="currentColor" viewBox="0 0 24 25">
  <g  clip-path="url(#a)">
    <g >
      <g >
        <path fill="currentColor" fill-rule="evenodd" d="M4 5.644a3 3 0 0 1 3-3h10a3 3 0 0 1 3 3v16a1 1 0 0 1-1.625.78l-1.875-1.5-1.875 1.5a1 1 0 0 1-1.332-.073L12 21.058l-1.293 1.293a1 1 0 0 1-1.332.074l-1.875-1.5-1.875 1.5A1 1 0 0 1 4 21.644v-16Zm3-1a1 1 0 0 0-1 1v13.92l.875-.701a1 1 0 0 1 1.25 0l1.8 1.44 1.368-1.366a1 1 0 0 1 1.414 0l1.367 1.367 1.801-1.441a1 1 0 0 1 1.25 0l.875.7V5.643a1 1 0 0 0-1-1H7Z" clip-rule="evenodd"/>
        <path fill="currentColor" d="M15.707 7.937a1 1 0 0 1 0 1.414l-6 6a1 1 0 1 1-1.414-1.414l6-6a1 1 0 0 1 1.414 0ZM9.5 10.644a1.5 1.5 0 1 0 0-3 1.5 1.5 0 0 0 0 3Zm6.5 3.5a1.5 1.5 0 1 1-3 0 1.5 1.5 0 0 1 3 0Z"/>
      </g>
    </g>
  </g>
  <defs>
    <clipPath id="a" >
      <path fill="#fff" d="M0 .644h24v24H0z"/>
    </clipPath>
  </defs>
</svg>
