<svg xmlns="http://www.w3.org/2000/svg" id="orchid" fill="currentColor" viewBox="0 0 24 25">
  <g  clip-path="url(#a)">
    <g >
      <path fill="currentColor" fill-rule="evenodd" d="M21.84 6.7a1.5 1.5 0 0 0-2.063-1.626l-17.1 7.2c-1.192.502-1.253 2.226 0 2.746a56.46 56.46 0 0 0 3.774 1.418c1.168.385 2.442.743 3.463.844a7.5 7.5 0 0 0 .988.949c.547.45 1.205.914 1.885 1.358 1.362.89 2.873 1.741 3.891 2.294 1.217.661 2.674-.1 2.892-1.426L21.84 6.7ZM4.594 13.636l15.124-6.368-2.118 12.84c-.999-.542-2.438-1.355-3.72-2.193a19.982 19.982 0 0 1-1.709-1.229 7.962 7.962 0 0 1-.426-.374l3.961-3.961a1 1 0 0 0-1.414-1.414l-4.338 4.338c-.734-.094-1.756-.367-2.878-.736a48.89 48.89 0 0 1-2.482-.903Z"  clip-rule="evenodd"/>
    </g>
  </g>
  <defs>
    <clipPath id="a" >
      <path fill="#fff" d="M0 .644h24v24H0z"/>
    </clipPath>
  </defs>
</svg>
