<svg id="orchid" viewBox="0 0 157 44" fill="none" xmlns="http://www.w3.org/2000/svg">
<ellipse cx="22.25" cy="22" rx="22" ry="22" fill="#1BFF9F"/>
<ellipse cx="50.25" cy="22" rx="22" ry="22" fill="#3C16D3"/>
<ellipse cx="78.25" cy="22" rx="22" ry="22" fill="#F76096"/>
<ellipse cx="106.25" cy="22" rx="22" ry="22" fill="#D0FA28"/>
<ellipse cx="134.25" cy="22" rx="22" ry="22" fill="white"/>
<path d="M121.01 30V29.274C121.45 29.274 121.787 29.1567 122.022 28.922C122.256 28.6873 122.447 28.3647 122.594 27.954C122.755 27.5433 122.938 27.0667 123.144 26.524L127.676 14.182H128.204L133.11 26.7C133.227 27.008 133.359 27.404 133.506 27.888C133.652 28.372 133.711 28.7827 133.682 29.12C133.931 29.1053 134.18 29.0907 134.43 29.076C134.679 29.0613 134.928 29.0467 135.178 29.032V30H130.14V29.274C130.697 29.2593 131.064 29.1347 131.24 28.9C131.416 28.6653 131.482 28.3867 131.438 28.064C131.394 27.7413 131.32 27.448 131.218 27.184L130.448 25.116L124.728 25.248L123.958 27.602C123.855 27.954 123.76 28.2327 123.672 28.438C123.598 28.6433 123.51 28.8707 123.408 29.12C123.701 29.1053 123.987 29.0907 124.266 29.076C124.559 29.0613 124.845 29.0467 125.124 29.032V30H121.01ZM125.058 24.302H130.14L128.578 20.1C128.416 19.6453 128.248 19.198 128.072 18.758C127.91 18.3033 127.749 17.8487 127.588 17.394H127.544C127.397 17.8047 127.243 18.2153 127.082 18.626C126.935 19.0367 126.781 19.4547 126.62 19.88L125.058 24.302ZM143.171 30C143.127 29.7507 143.097 29.5307 143.083 29.34C143.068 29.1493 143.046 28.9513 143.017 28.746C142.518 29.2447 141.975 29.6407 141.389 29.934C140.817 30.2127 140.208 30.352 139.563 30.352C138.448 30.352 137.619 30.1027 137.077 29.604C136.534 29.0907 136.263 28.4673 136.263 27.734C136.263 27.0593 136.468 26.48 136.879 25.996C137.304 25.4973 137.847 25.094 138.507 24.786C139.181 24.4633 139.907 24.2287 140.685 24.082C141.477 23.9207 142.239 23.8473 142.973 23.862V22.498C142.973 21.9847 142.929 21.5007 142.841 21.046C142.753 20.5913 142.562 20.2173 142.269 19.924C141.975 19.6307 141.506 19.4767 140.861 19.462C140.435 19.4473 139.995 19.528 139.541 19.704C139.101 19.88 138.778 20.1807 138.573 20.606C138.69 20.7233 138.763 20.8627 138.793 21.024C138.837 21.1707 138.859 21.31 138.859 21.442C138.859 21.618 138.785 21.8233 138.639 22.058C138.492 22.278 138.235 22.3807 137.869 22.366C137.561 22.366 137.326 22.2633 137.165 22.058C137.003 21.838 136.923 21.5813 136.923 21.288C136.923 20.7893 137.106 20.342 137.473 19.946C137.854 19.55 138.375 19.2347 139.035 19C139.695 18.7653 140.443 18.648 141.279 18.648C142.511 18.648 143.42 18.978 144.007 19.638C144.593 20.2833 144.879 21.31 144.865 22.718C144.865 23.2607 144.865 23.8107 144.865 24.368C144.865 24.9107 144.857 25.4607 144.843 26.018C144.843 26.5607 144.843 27.1107 144.843 27.668C144.843 27.9027 144.835 28.1373 144.821 28.372C144.806 28.6067 144.784 28.8707 144.755 29.164C145.019 29.1493 145.275 29.1347 145.525 29.12C145.789 29.1053 146.053 29.0907 146.317 29.076V30H143.171ZM142.973 24.61C142.474 24.6247 141.946 24.6907 141.389 24.808C140.846 24.9107 140.34 25.072 139.871 25.292C139.416 25.512 139.042 25.8053 138.749 26.172C138.47 26.524 138.338 26.9567 138.353 27.47C138.382 28.0127 138.558 28.4233 138.881 28.702C139.218 28.966 139.614 29.098 140.069 29.098C140.67 29.098 141.191 28.988 141.631 28.768C142.085 28.5333 142.533 28.2107 142.973 27.8C142.958 27.6387 142.951 27.4627 142.951 27.272C142.951 27.0813 142.951 26.8833 142.951 26.678C142.951 26.6047 142.951 26.37 142.951 25.974C142.965 25.578 142.973 25.1233 142.973 24.61Z" fill="black"/>
</svg>