<svg id="orchid" viewBox="0 0 24 25" fill="none" xmlns="http://www.w3.org/2000/svg">
<g clip-path="url(#clip0_142_566)">
<path fill-rule="evenodd" clip-rule="evenodd" d="M1 12.6438C1 8.77781 4.13401 5.6438 8 5.6438H16C19.866 5.6438 23 8.77781 23 12.6438C23 16.5098 19.866 19.6438 16 19.6438H8C4.13401 19.6438 1 16.5098 1 12.6438ZM12 12.6438C12 10.4347 13.7909 8.6438 16 8.6438C18.2091 8.6438 20 10.4347 20 12.6438C20 14.8529 18.2091 16.6438 16 16.6438C13.7909 16.6438 12 14.8529 12 12.6438ZM16 10.6438C14.8954 10.6438 14 11.5392 14 12.6438C14 13.7484 14.8954 14.6438 16 14.6438C17.1046 14.6438 18 13.7484 18 12.6438C18 11.5392 17.1046 10.6438 16 10.6438Z" fill="currentColor"/>
</g>
<defs>
<clipPath id="clip0_142_566">
<rect width="24" height="24" fill="currentColor" transform="translate(0 0.643799)"/>
</clipPath>
</defs>
</svg>
