<svg xmlns="http://www.w3.org/2000/svg" id="orchid" fill="currentColor" viewBox="0 0 24 24">
  <g  clip-path="url(#a)">
    <g >
      <path fill="currentColor" d="M18 3a3 3 0 0 1 2.995 2.824L21 6v12a3 3 0 0 1-2.824 2.995L18 21H6a3 3 0 0 1-2.995-2.824L3 18V6a3 3 0 0 1 2.824-2.995L6 3h12Zm0 2H6a1 1 0 0 0-.993.883L5 6v12a1 1 0 0 0 .883.993L6 19h12a1 1 0 0 0 .993-.883L19 18V6a1 1 0 0 0-.883-.993L18 5Z" />
    </g>
  </g>
  <defs>
    <clipPath id="a" >
      <path fill="#fff" d="M0 0h24v24H0z"/>
    </clipPath>
  </defs>
</svg>
