<svg xmlns="http://www.w3.org/2000/svg" id="orchid" fill="currentColor" viewBox="0 0 24 25">
  <g  clip-path="url(#a)">
    <g >
      <path fill="currentColor" d="M4.222 3.722a1 1 0 0 1 1.32-.083l.094.083 2.395 2.395A12.99 12.99 0 0 1 12 5.5c3.59 0 6.84 1.456 9.192 3.808a1 1 0 0 1-1.414 1.414A10.962 10.962 0 0 0 12 7.5c-.642 0-1.27.055-1.882.16l-.455.089 1.769 1.769a8.975 8.975 0 0 1 6.932 2.618 1 1 0 0 1-1.414 1.414 6.991 6.991 0 0 0-3.057-1.791l-.296-.076 6.181 6.181a1 1 0 0 1-1.32 1.497l-.094-.083L4.222 5.136a1 1 0 0 1 0-1.414ZM12 17.5l.117.007a1 1 0 1 1-.234 0L12 17.5Zm-1.247-3.843 1.918 1.918a2.987 2.987 0 0 0-2.792.803 1 1 0 0 1-1.415-1.414 5 5 0 0 1 2.028-1.232l.26-.075Zm-3.06-3.06 1.492 1.492A7.01 7.01 0 0 0 7.05 13.55a1 1 0 0 1-1.414-1.414 9.028 9.028 0 0 1 2.056-1.54Zm-2.91-2.91 1.446 1.446a11.06 11.06 0 0 0-2.007 1.589 1 1 0 0 1-1.414-1.414 13.059 13.059 0 0 1 1.974-1.622Z" />
    </g>
  </g>
  <defs>
    <clipPath id="a" >
      <path fill="#fff" d="M0 .5h24v24H0z"/>
    </clipPath>
  </defs>
</svg>
