<svg xmlns="http://www.w3.org/2000/svg" id="orchid" fill="currentColor" viewBox="0 0 24 25">
  <g  clip-path="url(#a)">
    <g >
      <path fill="currentColor" d="M10.5 2.644a8.5 8.5 0 0 1 6.873 13.502l-.197.26 3.652 3.652a1 1 0 0 1-1.32 1.497l-.094-.083-3.652-3.652A8.5 8.5 0 1 1 10.5 2.644Zm0 2a6.5 6.5 0 1 0 0 13 6.5 6.5 0 0 0 0-13Zm0 2a1 1 0 0 1 .993.883l.007.117v2.5H14a1 1 0 0 1 .117 1.993l-.117.007h-2.5v2.5a1 1 0 0 1-1.993.116l-.007-.116v-2.5H7a1 1 0 0 1-.117-1.994L7 10.144h2.5v-2.5a1 1 0 0 1 1-1Z" />
    </g>
  </g>
  <defs>
    <clipPath id="a" >
      <path fill="#fff" d="M0 .644h24v24H0z"/>
    </clipPath>
  </defs>
</svg>
