<svg id="orchid" width="32" height="33" viewBox="0 0 32 33" fill="none" xmlns="http://www.w3.org/2000/svg">
    <g clip-path="url(#clip0_1196_386)">
        <path
            d="M22.5731 17.6264C21.9221 17.6264 21.395 17.0952 21.395 16.4443C21.395 15.7934 21.9261 15.2663 22.5771 15.2663C23.0523 15.2663 23.4835 15.5538 23.6632 15.9931H24.4499C24.434 15.9292 24.418 15.8693 24.398 15.8094L24.8533 15.3981L24.6296 15.0027L24.0226 15.1704C23.9707 15.1105 23.9148 15.0546 23.8509 14.9987L24.0346 14.4237L23.6433 14.1881L23.18 14.6074C23.1002 14.5794 23.0203 14.5595 22.9404 14.5435L22.7967 13.9565L22.3414 13.9485L22.1857 14.5475C22.1018 14.5635 22.018 14.5874 21.9341 14.6154L21.5068 14.1721L21.1075 14.3917L21.2752 15.0067C21.2193 15.0586 21.1634 15.1105 21.1115 15.1704L20.5045 15.0027L20.2649 15.3901L20.7241 15.8373C20.7002 15.9132 20.6762 15.9891 20.6642 16.069L20.0692 16.2367L20.0573 16.6919L20.6682 16.8556C20.6842 16.9395 20.7082 17.0194 20.7361 17.0992L20.2689 17.5026L20.4845 17.9019L21.1155 17.7302C21.1634 17.7861 21.2153 17.838 21.2712 17.8859L21.1235 18.5169L21.5108 18.7365L21.9701 18.2893C22.0379 18.3132 22.1098 18.3292 22.1817 18.3452L22.3295 18.9641H22.7847L22.9365 18.3452C23.0203 18.3292 23.1002 18.3052 23.18 18.2813L23.5993 18.7325L24.0027 18.5089L23.835 17.9099C23.8988 17.854 23.9587 17.7981 24.0147 17.7342L24.6017 17.9099L24.8333 17.5185L24.4659 17.1591H23.5275C23.3038 17.4546 22.9484 17.6304 22.5731 17.6264Z"
            fill="#7ABF42"/>
        <path
            d="M4.02393 14.2001H4.88649L5.96868 17.5944L7.06685 14.1841H7.76968L8.87185 17.5944L9.95404 14.2001H10.7887L9.31511 18.8124H8.48449L7.40629 15.5219L6.38399 18.8124H5.52942L4.02393 14.2001Z"
            fill="#043855"/>
        <path
            d="M11.1801 14.2001H11.9627V16.1049H13.9594V14.2001H14.7421V18.7804H13.9594V16.8477H11.9627V18.7804H11.1801V14.2001Z"
            fill="#043855"/>
        <path
            d="M15.2772 14.2001H16.1797L17.5135 16.1089L18.8513 14.2001H19.7897V18.7804H18.9391V15.3861L17.5255 17.4347L16.0759 15.3981V18.7804H15.2772V14.2001Z"
            fill="#043855"/>
        <path
            d="M24.8572 17.6104V18.469C25.3124 18.7046 25.8156 18.8364 26.3267 18.8483C27.1054 18.8483 27.988 18.465 27.988 17.5585C27.988 16.652 27.4329 16.2766 26.6063 16.057C25.7796 15.8374 25.6359 15.6856 25.6359 15.434C25.6359 15.2144 25.8076 14.875 26.5783 14.875C26.9816 14.871 27.377 15.0107 27.6885 15.2663V14.4397C27.6885 14.4397 27.0455 14.1322 26.4625 14.1322C25.8795 14.1322 24.8572 14.268 24.8572 15.5059C24.8572 17.1312 27.1374 16.4843 27.1374 17.5226C27.1374 17.9419 26.738 18.0816 26.167 18.0736C25.536 18.0656 24.8572 17.6104 24.8572 17.6104Z"
            fill="#043855"/>
        <path
            d="M23.9268 14.4276C23.5035 14.4276 23.1601 14.7711 23.1641 15.1983C23.1641 15.6216 23.5075 15.9651 23.9348 15.9611C24.3581 15.9611 24.6975 15.6176 24.6975 15.1943C24.6975 14.7711 24.3501 14.4276 23.9268 14.4276ZM25.1607 15.4499C25.1488 15.5018 25.1368 15.5577 25.1168 15.6057L25.4003 15.8852L25.2486 16.1408L24.8692 16.025C24.8333 16.0649 24.7933 16.1048 24.7534 16.1408L24.8572 16.5281L24.6017 16.6759L24.3301 16.3844C24.2782 16.4003 24.2263 16.4163 24.1704 16.4283L24.0705 16.8316H23.775L23.6832 16.4283C23.6353 16.4203 23.5913 16.4083 23.5434 16.3924L23.2479 16.6839L22.9963 16.5441L23.0922 16.1368C23.0562 16.1048 23.0203 16.0689 22.9884 16.033L22.581 16.1448L22.4493 15.8932L22.7527 15.6296C22.7328 15.5777 22.7208 15.5258 22.7088 15.4699L22.3135 15.3661L22.3215 15.0706L22.7048 14.9667C22.7128 14.9148 22.7288 14.8669 22.7448 14.815L22.4453 14.5275L22.601 14.2759L22.9923 14.3797C23.0243 14.3438 23.0602 14.3078 23.0962 14.2759L22.9923 13.8765L23.2519 13.7368L23.5314 14.0243C23.5834 14.0043 23.6393 13.9924 23.6952 13.9804L23.799 13.593L24.0945 13.601L24.1864 13.9844C24.2383 13.9963 24.2902 14.0083 24.3421 14.0243L24.6416 13.7488L24.8972 13.9005L24.7774 14.2759C24.8173 14.3118 24.8532 14.3478 24.8892 14.3877L25.2805 14.2759L25.4243 14.5354L25.1288 14.803C25.1487 14.8629 25.1647 14.9228 25.1767 14.9827L25.58 15.0865V15.382L25.1767 15.4699L25.1607 15.4499Z"
            fill="#D8DADB"/>
    </g>
    <defs>
        <clipPath id="clip0_1196_386">
            <rect width="24" height="5.43095" fill="white" transform="translate(4 13.5691)"/>
        </clipPath>
    </defs>
</svg>
