<svg id="orchid" width="32" height="33" viewBox="0 0 32 33" fill="none" xmlns="http://www.w3.org/2000/svg">
    <g clip-path="url(#clip0_1196_443)">
        <path
            d="M25.1014 19.9999C24.5282 19.9999 23.9678 19.8299 23.4911 19.5114C23.0144 19.1929 22.6429 18.7402 22.4235 18.2106C22.2041 17.681 22.1467 17.0982 22.2586 16.5359C22.3704 15.9736 22.6465 15.4572 23.0519 15.0518C23.4572 14.6464 23.9737 14.3704 24.536 14.2585C25.0982 14.1467 25.681 14.2041 26.2107 14.4235C26.7403 14.6428 27.193 15.0144 27.5115 15.491C27.83 15.9677 28 16.5281 28 17.1014C28 17.8701 27.6946 18.6074 27.151 19.151C26.6074 19.6945 25.8702 19.9999 25.1014 19.9999ZM25.1014 18.8019C25.4378 18.8019 25.7665 18.7021 26.0462 18.5153C26.3258 18.3284 26.5438 18.0628 26.6725 17.7521C26.8012 17.4414 26.8349 17.0995 26.7693 16.7696C26.7036 16.4398 26.5417 16.1368 26.3039 15.899C26.066 15.6611 25.7631 15.4992 25.4332 15.4336C25.1033 15.368 24.7614 15.4016 24.4507 15.5303C24.14 15.659 23.8744 15.877 23.6875 16.1566C23.5007 16.4363 23.401 16.7651 23.401 17.1014C23.401 17.5524 23.5801 17.9849 23.899 18.3038C24.2179 18.6227 24.6504 18.8019 25.1014 18.8019ZM19.0338 19.9999C18.4605 19.9999 17.9001 19.8299 17.4235 19.5114C16.9468 19.1929 16.5753 18.7402 16.3559 18.2106C16.1365 17.681 16.0791 17.0982 16.191 16.5359C16.3028 15.9736 16.5789 15.4572 16.9842 15.0518C17.3896 14.6464 17.9061 14.3704 18.4683 14.2585C19.0306 14.1467 19.6134 14.2041 20.143 14.4235C20.6727 14.6428 21.1254 15.0144 21.4439 15.491C21.7624 15.9677 21.9324 16.5281 21.9324 17.1014C21.9324 17.8701 21.627 18.6074 21.0834 19.151C20.5398 19.6945 19.8026 19.9999 19.0338 19.9999ZM19.0338 18.8019C19.3701 18.8019 19.6989 18.7021 19.9785 18.5153C20.2582 18.3284 20.4761 18.0628 20.6049 17.7521C20.7336 17.4414 20.7672 17.0995 20.7016 16.7696C20.636 16.4398 20.474 16.1368 20.2362 15.899C19.9984 15.6611 19.6954 15.4992 19.3656 15.4336C19.0357 15.368 18.6938 15.4016 18.3831 15.5303C18.0723 15.659 17.8068 15.877 17.6199 16.1566C17.4331 16.4363 17.3333 16.7651 17.3333 17.1014C17.3333 17.5524 17.5125 17.9849 17.8314 18.3038C18.1503 18.6227 18.5828 18.8019 19.0338 18.8019ZM15.8647 17.0627C15.8647 18.6821 14.5662 19.9999 12.9662 19.9999C11.3662 19.9999 10.0676 18.6859 10.0676 17.0666C10.0676 15.4473 11.2464 14.2028 12.9662 14.2028C13.6 14.2028 14.1874 14.3381 14.6667 14.6898V13.0086C14.6667 12.6879 14.9488 12.425 15.2657 12.425C15.5826 12.425 15.8647 12.6879 15.8647 13.0086V17.0627ZM12.9662 18.8019C13.3025 18.8019 13.6313 18.7021 13.9109 18.5153C14.1906 18.3284 14.4085 18.0628 14.5372 17.7521C14.6659 17.4414 14.6996 17.0995 14.634 16.7696C14.5684 16.4398 14.4064 16.1368 14.1686 15.899C13.9308 15.6611 13.6278 15.4992 13.2979 15.4336C12.9681 15.368 12.6262 15.4016 12.3154 15.5303C12.0047 15.659 11.7391 15.877 11.5523 16.1566C11.3654 16.4363 11.2657 16.7651 11.2657 17.1014C11.2657 17.5524 11.4449 17.9849 11.7638 18.3038C12.0827 18.6227 12.5152 18.8019 12.9662 18.8019Z"
            fill="#8F8F8F"/>
        <path
            d="M6.89855 20C6.32527 20 5.76487 19.83 5.2882 19.5115C4.81154 19.193 4.44002 18.7403 4.22064 18.2107C4.00126 17.681 3.94385 17.0982 4.0557 16.536C4.16754 15.9737 4.4436 15.4572 4.84897 15.0518C5.25434 14.6465 5.77081 14.3704 6.33307 14.2586C6.89534 14.1467 7.47814 14.2041 8.00778 14.4235C8.53742 14.6429 8.99011 15.0144 9.30861 15.4911C9.62711 15.9677 9.7971 16.5282 9.7971 17.1014C9.7971 17.8702 9.49172 18.6074 8.94814 19.151C8.40455 19.6946 7.6673 20 6.89855 20ZM6.89855 18.8019C7.23488 18.8019 7.56365 18.7022 7.84329 18.5153C8.12293 18.3285 8.34089 18.0629 8.46959 17.7522C8.5983 17.4415 8.63197 17.0995 8.56636 16.7697C8.50075 16.4398 8.33879 16.1368 8.10098 15.899C7.86316 15.6612 7.56016 15.4992 7.2303 15.4336C6.90044 15.368 6.55853 15.4017 6.24781 15.5304C5.93708 15.6591 5.6715 15.8771 5.48465 16.1567C5.2978 16.4363 5.19807 16.7651 5.19807 17.1014C5.19807 17.5524 5.37723 17.985 5.69613 18.3039C6.01503 18.6228 6.44756 18.8019 6.89855 18.8019Z"
            fill="#714B67"/>
    </g>
    <defs>
        <clipPath id="clip0_1196_443">
            <rect width="24" height="7.57488" fill="white" transform="translate(4 12.425)"/>
        </clipPath>
    </defs>
</svg>
