<svg id="orchid" width="32" height="32" viewBox="0 0 32 32" fill="none" xmlns="http://www.w3.org/2000/svg">
    <path fill-rule="evenodd" clip-rule="evenodd"
          d="M13.1887 11.6393C13.1739 11.6393 13.1452 11.6393 13.1303 11.6393C12.884 11.6093 12.6813 11.3836 12.6813 11.1279C12.6665 10.8871 12.5359 5.26072 15.7098 3.98204C16.507 3.66609 17.2469 3.72623 17.87 4.19268C18.6375 4.74929 19.1884 5.8625 19.5217 7.48725C19.7532 8.63058 19.7967 9.62342 19.7967 9.6686C19.8115 9.90926 19.6236 10.0899 19.3763 10.0447C19.1301 10.0146 18.9273 9.78898 18.9273 9.54823C18.8838 8.52527 18.5505 5.71211 17.4496 4.89969C17.1015 4.64397 16.6662 4.61385 16.145 4.82449C13.4201 5.92264 13.5507 11.2031 13.5507 11.2632C13.5507 11.4739 13.4063 11.6393 13.1887 11.6393Z"
          fill="#595961"/>
    <path opacity="0.46" fill-rule="evenodd" clip-rule="evenodd"
          d="M17.7097 4.22271C17.1301 3.80144 16.4496 3.7413 15.7097 4.02713C14.42 4.55362 13.5071 5.93771 13.058 8.04387C12.7247 9.59331 12.7682 10.9925 12.7682 11.0526C12.7682 11.1278 12.7969 11.2031 12.8553 11.2632C12.9126 11.3234 12.971 11.3686 13.0432 11.3686C13.058 11.3686 13.0729 11.3686 13.0867 11.3686C13.2173 11.3686 13.3191 11.2632 13.3191 11.1278C13.3191 11.0677 13.1886 5.69696 15.9857 4.56868C16.5505 4.34309 17.043 4.3731 17.4495 4.674C18.6226 5.5315 18.9707 8.43502 19.0142 9.47304C19.0142 9.62343 19.1448 9.77393 19.3041 9.78889C19.4495 9.80395 19.5652 9.69863 19.5652 9.54823C19.5503 9.36772 19.3911 5.4563 17.7097 4.22271Z"
          fill="#B2B2C2"/>
    <path opacity="0.46" fill-rule="evenodd" clip-rule="evenodd"
          d="M13.0579 11.188C13.0431 11.188 13.0431 11.188 13.0292 11.188C12.9422 11.173 12.869 11.0827 12.8551 10.9924C12.8551 10.9322 12.8116 9.56327 13.145 8.01372C13.5792 5.95275 14.493 4.58371 15.7531 4.07219C16.4633 3.78635 17.1013 3.84659 17.6522 4.23774C19.2753 5.42616 19.4345 9.27743 19.4345 9.44289C19.4345 9.53315 19.3623 9.59329 19.2753 9.57833C19.1882 9.56327 19.116 9.48807 19.1012 9.38275C19.1012 9.33757 18.9419 5.56159 17.4781 4.4784C17.0429 4.16254 16.5068 4.11737 15.8985 4.35802C13.0579 5.54653 13.1885 10.9924 13.1885 11.0526C13.2023 11.1278 13.145 11.188 13.0579 11.188Z"
          fill="#B2B2C2"/>
    <path opacity="0.62" fill-rule="evenodd" clip-rule="evenodd"
          d="M14.232 6.88555C14.3477 6.65995 14.4634 6.43426 14.5653 6.1936C14.5218 6.2688 14.2319 7.05111 13.3477 6.93073C13.3329 6.93073 13.869 7.09618 14.232 6.88555Z"
          fill="#595961"/>
    <path opacity="0.62" fill-rule="evenodd" clip-rule="evenodd"
          d="M13.9126 7.84821C13.9997 7.60746 14.0867 7.35174 14.1451 7.11108C14.1164 7.20134 13.971 8.01367 13.0432 8.01367C13.0432 8.01367 13.5793 8.11898 13.9126 7.84821Z"
          fill="#595961"/>
    <path opacity="0.62" fill-rule="evenodd" clip-rule="evenodd"
          d="M18.9993 5.90771C18.8836 5.63684 18.753 5.38113 18.6225 5.11035C18.666 5.20061 19.1012 6.05811 18.6086 6.67486C18.6086 6.67486 18.9855 6.37406 18.9993 5.90771Z"
          fill="#595961"/>
    <path opacity="0.62" fill-rule="evenodd" clip-rule="evenodd"
          d="M18.2032 4.55376C17.9708 4.35818 17.7393 4.17766 17.5068 4.01221C17.5939 4.08741 18.3624 4.64402 18.3189 5.48656C18.304 5.48656 18.4346 4.99009 18.2032 4.55376Z"
          fill="#595961"/>
    <path opacity="0.62" fill-rule="evenodd" clip-rule="evenodd"
          d="M14.6524 6.05792C14.8265 5.8774 14.9708 5.68183 15.1301 5.47119C15.0727 5.53133 14.5941 6.14818 13.7395 5.92248C13.7395 5.92248 14.232 6.19335 14.6524 6.05792Z"
          fill="#595961"/>
    <path opacity="0.62" fill-rule="evenodd" clip-rule="evenodd"
          d="M15.1883 5.36601C15.391 5.21561 15.579 5.06512 15.7679 4.89966C15.6957 4.94484 15.1013 5.44121 14.2754 5.08017C14.2754 5.08017 14.7531 5.42615 15.1883 5.36601Z"
          fill="#595961"/>
    <path opacity="0.62" fill-rule="evenodd" clip-rule="evenodd"
          d="M15.9709 4.86936C16.2172 4.79416 16.4496 4.7039 16.6811 4.61365C16.594 4.64367 15.8551 4.91444 15.1301 4.34277C15.145 4.34277 15.5218 4.79416 15.9709 4.86936Z"
          fill="#595961"/>
    <path opacity="0.62" fill-rule="evenodd" clip-rule="evenodd"
          d="M16.681 4.59885C16.8837 4.62897 17.0865 4.64403 17.2892 4.65909C17.217 4.64403 16.579 4.59886 16.217 3.99707C16.217 3.99707 16.3625 4.40328 16.681 4.59885Z"
          fill="#595961"/>
    <path opacity="0.62" fill-rule="evenodd" clip-rule="evenodd"
          d="M17.5218 4.92949C17.6662 5.09505 17.8264 5.26051 17.9995 5.41091C17.9421 5.35077 17.4496 4.8543 17.5653 4.23755C17.5505 4.23755 17.3912 4.58352 17.5218 4.92949Z"
          fill="#595961"/>
    <path opacity="0.74" fill-rule="evenodd" clip-rule="evenodd"
          d="M19.2753 9.3677C19.2753 9.20214 19.116 5.39605 17.5365 4.23775C17.2318 4.01206 16.8985 3.90674 16.5503 3.90674C16.2892 3.90674 16.0142 3.96688 15.7244 4.08725C14.4634 4.58372 13.5792 5.92264 13.145 7.96855C12.8116 9.50304 12.8551 10.8721 12.8551 10.9322C12.8551 10.9774 12.8987 11.0225 12.9422 11.0225H12.956C12.9995 11.0225 13.0292 10.9924 13.0292 10.9473C13.0292 10.8871 12.8838 5.39605 15.7966 4.22269C16.4346 3.96688 16.9855 4.01206 17.4494 4.35803C18.9558 5.45628 19.116 9.2925 19.116 9.33758C19.116 9.38276 19.1595 9.42784 19.2031 9.42784C19.2031 9.42784 19.203 9.42784 19.2169 9.42784C19.2466 9.4429 19.2753 9.41278 19.2753 9.3677Z"
          fill="url(#paint0_linear_275_8156)"/>
    <path fill-rule="evenodd" clip-rule="evenodd"
          d="M19.5215 7.48736C19.1882 5.86262 18.6373 4.76436 17.8698 4.19269C17.4494 3.8919 16.9994 3.75646 16.5068 3.78658C16.8985 3.8166 17.2605 3.95204 17.5938 4.19269C18.3623 4.7494 18.9133 5.86262 19.2466 7.48736C19.478 8.6307 19.5215 9.62354 19.5215 9.66871C19.5215 9.84923 19.4345 9.98467 19.2891 10.0297C19.3188 10.0448 19.3475 10.0448 19.3623 10.0448C19.6086 10.0749 19.7965 9.90937 19.7827 9.66871C19.7965 9.62354 19.753 8.64575 19.5215 7.48736Z"
          fill="url(#paint1_linear_275_8156)"/>
    <path fill-rule="evenodd" clip-rule="evenodd"
          d="M15.87 4.82453C13.1451 5.92269 13.2756 11.2031 13.2756 11.2633C13.2756 11.4438 13.1886 11.5792 13.0432 11.6243C13.0729 11.6394 13.0868 11.6394 13.1164 11.6394C13.1303 11.6394 13.1599 11.6394 13.1738 11.6394C13.3914 11.6394 13.5358 11.4739 13.5358 11.2633C13.5358 11.2031 13.4062 5.93775 16.1302 4.83959C16.3191 4.76439 16.4931 4.71922 16.6523 4.70416C16.4199 4.65908 16.1598 4.70416 15.87 4.82453Z"
          fill="url(#paint2_linear_275_8156)"/>
    <path fill-rule="evenodd" clip-rule="evenodd"
          d="M19.9994 6.13317L7.71012 10.0746C7.71012 10.0746 7.18888 10.2251 7.05832 10.3906C6.92776 10.556 6.89907 11.0224 6.89907 11.0224L5 26.2167L19.2605 28.9848L20.3624 6.11811C20.2031 6.08799 20.0429 6.11811 19.9994 6.13317Z"
          fill="url(#paint3_linear_275_8156)"/>
    <path fill-rule="evenodd" clip-rule="evenodd"
          d="M24.2464 8.08888C24.2464 8.08888 24.2315 7.9685 24.1593 7.92342C24.1009 7.87825 24.0287 7.87825 24.0287 7.87825L22.014 7.72785L20.5363 6.20842C20.4779 6.16325 20.4196 6.13322 20.3474 6.11816L19.2466 28.9849L26.9702 27.2548L24.2464 8.08888Z"
          fill="url(#paint4_linear_275_8156)"/>
    <path fill-rule="evenodd" clip-rule="evenodd"
          d="M14.9274 18.8301C14.7098 18.5293 14.4497 18.2585 14.1886 18.0177C13.9274 17.7771 13.6525 17.5815 13.3765 17.401C13.1886 17.2806 13.0145 17.1602 12.8691 17.0398C12.7247 16.9196 12.609 16.7992 12.522 16.6939C12.4349 16.5735 12.3627 16.4682 12.3192 16.3479C12.2757 16.2275 12.2608 16.1071 12.2608 15.9868C12.2608 15.8213 12.3044 15.6559 12.3627 15.5204C12.4201 15.3851 12.522 15.2647 12.6228 15.1594C12.7396 15.0541 12.8691 14.9789 13.0294 14.9187C13.1886 14.8585 13.3765 14.8285 13.5793 14.8134C13.7969 14.7984 14.0145 14.8134 14.2172 14.8285C14.42 14.8434 14.6089 14.8886 14.7968 14.9337C14.9709 14.9789 15.145 15.039 15.2894 15.0993C15.4348 15.1594 15.5792 15.2195 15.681 15.2798L16.6375 12.3312C16.4931 12.256 16.319 12.1807 16.1301 12.1356C15.9274 12.0754 15.7098 12.0303 15.4635 12.0002C15.2172 11.9701 14.9561 11.9551 14.6811 11.9551C14.4061 11.9551 14.1164 11.9701 13.8117 12.0152C13.1599 12.1055 12.5793 12.286 12.0581 12.5568C11.5655 12.8126 11.1303 13.1435 10.7683 13.5497C10.4202 13.9409 10.1452 14.3921 9.94242 14.9037C9.75351 15.4001 9.63781 15.9568 9.60913 16.5584C9.59429 16.9196 9.62297 17.2505 9.71001 17.5514C9.78221 17.8523 9.89891 18.1381 10.0582 18.4089C10.2026 18.6797 10.3915 18.9204 10.5942 19.146C10.797 19.3717 11.0433 19.5823 11.2895 19.7779C11.4923 19.9283 11.6664 20.0787 11.8118 20.2141C11.9562 20.3496 12.0729 20.4849 12.159 20.6354C12.246 20.7707 12.3043 20.9062 12.3479 21.0566C12.3914 21.192 12.4062 21.3424 12.3914 21.4929C12.3914 21.6433 12.3479 21.7937 12.2895 21.9141C12.2322 22.0345 12.159 22.1548 12.0432 22.2451C11.9424 22.3354 11.8118 22.3955 11.6664 22.4256C11.522 22.4556 11.3479 22.4707 11.159 22.4407C10.9424 22.4106 10.7248 22.3504 10.522 22.2601C10.3193 22.1849 10.1156 22.0795 9.92763 21.9742C9.73971 21.869 9.56563 21.7486 9.42024 21.6433C9.261 21.538 9.13042 21.4176 9.02953 21.3274L8.37671 23.5689C8.47858 23.7193 8.62302 23.8548 8.78226 23.9901C8.94249 24.1256 9.13044 24.2609 9.34804 24.3963C9.56563 24.5167 9.79708 24.637 10.0434 24.7423C10.2896 24.8476 10.5656 24.9379 10.8405 25.0132H10.8554H10.8692H10.8841H10.8989C11.4923 25.1485 12.0581 25.1786 12.5942 25.1034C13.1451 25.0281 13.6525 24.8326 14.0867 24.5318C14.5357 24.2158 14.8987 23.7945 15.1736 23.2379C15.4496 22.6813 15.6088 22.0043 15.6375 21.2371C15.6524 20.7557 15.594 20.3345 15.4635 19.9434C15.3329 19.4921 15.145 19.146 14.9274 18.8301Z"
          fill="url(#paint5_linear_275_8156)"/>
    <path opacity="0.226763" fill-rule="evenodd" clip-rule="evenodd"
          d="M8.47057 23.6915C8.43694 23.6516 8.40526 23.6109 8.37658 23.5691L9.0294 21.3275C9.0383 21.3358 9.04819 21.3445 9.05808 21.3533C9.15501 21.44 9.2757 21.5478 9.42011 21.6434C9.5655 21.7487 9.73958 21.8691 9.9275 21.9744C10.1154 22.0796 10.3191 22.185 10.5219 22.2603C10.7247 22.3505 10.9423 22.4107 11.1589 22.4408C11.3478 22.4708 11.5219 22.4558 11.6663 22.4257C11.8117 22.3956 11.9422 22.3355 12.0431 22.2452C12.1588 22.1549 12.2321 22.0346 12.2894 21.9142C12.3478 21.7938 12.3913 21.6434 12.3913 21.493C12.4061 21.3425 12.3913 21.1921 12.3477 21.0567C12.3042 20.9063 12.2459 20.7709 12.1588 20.6355C12.0767 20.4925 11.9679 20.3632 11.8324 20.2344C11.9036 20.3148 11.964 20.3974 12.0144 20.485C12.1015 20.6205 12.1588 20.7558 12.2024 20.9063C12.2459 21.0416 12.2607 21.1921 12.2459 21.3425C12.2459 21.493 12.2024 21.6434 12.145 21.7638C12.0867 21.8842 12.0144 22.0044 11.8987 22.0947C11.7968 22.185 11.6663 22.2452 11.5219 22.2752C11.3765 22.3053 11.2024 22.3204 11.0145 22.2903C10.7969 22.2603 10.5793 22.2 10.3765 22.1098C10.1738 22.0346 9.97099 21.9292 9.78208 21.8239C9.59415 21.7186 9.42011 21.5983 9.27571 21.493C9.13031 21.3974 9.00964 21.2896 8.91271 21.203C8.90282 21.1941 8.89387 21.1854 8.88398 21.1771L8.23218 23.4186C8.29647 23.5143 8.37859 23.604 8.47057 23.6915ZM10.606 19.1598C10.5516 19.1059 10.4992 19.0513 10.4487 18.9957C10.246 18.77 10.058 18.5294 9.91265 18.2586C9.75341 17.9877 9.63768 17.7019 9.56547 17.4011C9.47844 17.1002 9.44874 16.7692 9.46357 16.4081C9.49226 15.8064 9.609 15.2498 9.79693 14.7533C9.99969 14.2419 10.2757 13.7906 10.6228 13.3994C10.9858 12.9932 11.42 12.6622 11.9125 12.4065C12.4348 12.1357 13.0144 11.9552 13.6662 11.8649C13.9708 11.8197 14.2606 11.8047 14.5356 11.8047C14.8116 11.8047 15.0727 11.8197 15.3189 11.8499C15.5652 11.88 15.7828 11.9251 15.9856 11.9853C16.1735 12.0304 16.3476 12.1056 16.493 12.1808L16.4702 12.2512C16.3654 12.2056 16.2507 12.1645 16.13 12.1357C15.9272 12.0756 15.7096 12.0304 15.4633 12.0003C15.2171 11.9702 14.9559 11.9552 14.681 11.9552C14.406 11.9552 14.1162 11.9702 13.8116 12.0153C13.1598 12.1056 12.5792 12.2861 12.058 12.557C11.5654 12.8127 11.1302 13.1436 10.7682 13.5498C10.42 13.941 10.1451 14.3922 9.94229 14.9038C9.75338 15.4002 9.63768 15.9569 9.609 16.5585C9.59416 16.9197 9.62284 17.2506 9.70988 17.5515C9.78208 17.8524 9.89878 18.1382 10.058 18.409C10.2024 18.6798 10.3913 18.9205 10.5941 19.1461C10.598 19.1506 10.602 19.1553 10.606 19.1598ZM12.5742 16.7556C12.6534 16.8451 12.7523 16.9425 12.869 17.04C13.0144 17.1603 13.1885 17.2807 13.3764 17.4011C13.6524 17.5816 13.9273 17.7772 14.1884 18.0178C14.2646 18.0879 14.3398 18.1605 14.4149 18.2357C14.2943 18.1059 14.1686 17.9832 14.043 17.8674C13.7829 17.6267 13.507 17.4311 13.232 17.2506C13.0431 17.1302 12.869 17.0099 12.7246 16.8896C12.6702 16.8447 12.6207 16.7998 12.5742 16.7556Z"
          fill="black"/>
    <path opacity="0.41" fill-rule="evenodd" clip-rule="evenodd"
          d="M22.5066 24.7276L22.0141 7.72792L21.927 7.63767L22.1595 24.4868C22.1595 24.4868 20.1161 27.7062 19.8114 27.6159C19.3624 27.4806 20.6956 6.37396 20.6956 6.37396L20.5503 6.22356C20.4929 6.17838 20.4197 6.14836 20.3623 6.1333L19.2753 28.6841L19.2605 29L19.6373 28.5035L22.5066 24.7276Z"
          fill="url(#paint6_linear_275_8156)"/>
    <path fill-rule="evenodd" clip-rule="evenodd"
          d="M16.956 7.11119C16.7829 7.8182 16.5653 8.48013 16.4061 8.88634C16.3042 9.12709 16.4199 9.35269 16.6375 9.38281C16.87 9.41292 17.1301 9.24737 17.2171 9.00671C17.232 8.96154 17.6226 7.98375 17.8699 6.82536V6.8103L16.956 7.11119Z"
          fill="url(#paint7_linear_275_8156)"/>
    <path fill-rule="evenodd" clip-rule="evenodd"
          d="M10.4203 9.21717C10.2175 9.66846 10.0147 10.0596 9.86934 10.3304C9.73977 10.5561 9.81196 10.7967 10.0296 10.8569C10.2462 10.9322 10.5359 10.7967 10.6665 10.571C10.6813 10.541 11.1017 9.80389 11.4786 8.87109L10.4203 9.21717Z"
          fill="url(#paint8_linear_275_8156)"/>
    <path opacity="0.32" fill-rule="evenodd" clip-rule="evenodd"
          d="M19.2605 28.9848L22.5066 24.7273L27 27.2547L19.2605 28.9848Z" fill="url(#paint9_linear_275_8156)"/>
    <path opacity="0.19" fill-rule="evenodd" clip-rule="evenodd"
          d="M19.2605 28.9848L22.478 24.7273L27 27.2547L19.2605 28.9848Z" fill="url(#paint10_linear_275_8156)"/>
    <path opacity="0.19" fill-rule="evenodd" clip-rule="evenodd"
          d="M19.2605 28.9848L22.478 24.7273L27 27.2547L19.2605 28.9848Z" fill="url(#paint11_linear_275_8156)"/>
    <path opacity="0.6" fill-rule="evenodd" clip-rule="evenodd"
          d="M16.1015 17.0702C17.7829 19.432 18.9133 21.9895 19.4781 24.4717L20.3624 6.10318C20.2031 6.07316 20.0429 6.10318 19.9994 6.11824L7.71013 10.0748C7.71013 10.0748 7.59437 10.1048 7.44897 10.1651C10.5656 11.2783 13.6812 13.6703 16.1015 17.0702Z"
          fill="url(#paint12_linear_275_8156)"/>
    <path fill-rule="evenodd" clip-rule="evenodd"
          d="M24.1731 7.93849C24.2462 7.99872 24.2463 8.08898 24.2463 8.08898L26.9415 27.2397L22.5065 24.7124L22.0139 7.71289L24 7.86329C24.0138 7.87835 24.1009 7.87835 24.1731 7.93849Z"
          fill="url(#paint13_linear_275_8156)"/>
    <path fill-rule="evenodd" clip-rule="evenodd"
          d="M23.8549 7.98382C23.8549 7.98382 23.9419 7.98382 24.0141 8.05902C24.0863 8.11926 24.1011 8.20951 24.1011 8.20951L26.7538 27.1497L26.9566 27.2701L24.2604 8.1042C24.2604 8.1042 24.2465 8.01394 24.1882 7.9538C24.116 7.89356 24.0141 7.89356 24.0141 7.89356L22.0291 7.74316L23.8549 7.98382Z"
          fill="url(#paint14_linear_275_8156)"/>
    <path fill-rule="evenodd" clip-rule="evenodd"
          d="M5 26.2165L19.2605 28.9846L19.9568 13.3088L6.77338 13.6836L5 26.2165Z"
          fill="url(#paint15_linear_275_8156)"/>
    <path opacity="0.3" fill-rule="evenodd" clip-rule="evenodd"
          d="M9.68123 10.2938C9.55167 10.6595 9.67923 11.0436 9.96804 11.1521C10.2559 11.2605 10.5941 11.052 10.7247 10.6865C10.8543 10.3209 10.7257 9.93663 10.4379 9.82826C10.1501 9.71979 9.8108 9.92826 9.68123 10.2938Z"
          fill="white"/>
    <path opacity="0.89" fill-rule="evenodd" clip-rule="evenodd"
          d="M9.66546 10.1203C9.53589 10.4859 9.66445 10.8702 9.95227 10.9785C10.2401 11.087 10.5794 10.8785 10.7089 10.513C10.8385 10.1473 10.7109 9.76304 10.4221 9.65467C10.1343 9.54621 9.79601 9.75468 9.66546 10.1203Z"
          fill="black"/>
    <path fill-rule="evenodd" clip-rule="evenodd"
          d="M22.0289 7.72785L20.5503 6.20842C20.4929 6.16325 20.4197 6.13322 20.3623 6.11816L19.2605 28.9849L22.5215 24.7123L22.0289 7.72785Z"
          fill="url(#paint16_linear_275_8156)"/>
    <path fill-rule="evenodd" clip-rule="evenodd"
          d="M19.9993 6.13348L7.71007 10.0749C7.71007 10.0749 7.18883 10.2254 7.05828 10.3909C7.04344 10.4059 7.04339 10.421 7.02954 10.436L19.4197 6.88566C19.5216 6.85554 19.7679 6.76529 19.7392 7.50241L18.9855 28.955L19.2467 29.0002L20.3475 6.13348C20.2031 6.0883 20.0429 6.11842 19.9993 6.13348Z"
          fill="url(#paint17_linear_275_8156)"/>
    <path fill-rule="evenodd" clip-rule="evenodd"
          d="M19.9993 6.13348L7.71007 10.0749C7.71007 10.0749 7.18883 10.2254 7.05828 10.3909C7.04344 10.4059 7.04339 10.421 7.02954 10.436L9.89885 9.60857L19.7679 6.43437C19.8114 6.41931 19.9707 6.3892 20.1299 6.41932L19.0429 28.955L19.2467 29.0002L20.3475 6.13348C20.2031 6.0883 20.0429 6.11842 19.9993 6.13348Z"
          fill="url(#paint18_linear_275_8156)"/>
    <path opacity="0.32" fill-rule="evenodd" clip-rule="evenodd"
          d="M23.1594 25.0885L22.5065 24.7124L19.2466 28.9849L19.4197 28.9397C19.4197 28.9397 22.2899 25.1036 22.5501 24.9832C22.739 24.908 23.1594 25.0885 23.1594 25.0885Z"
          fill="url(#paint19_linear_275_8156)"/>
    <path opacity="0.57" fill-rule="evenodd" clip-rule="evenodd"
          d="M19.2605 28.9849L22.5215 24.7124C22.5066 24.7275 20.4494 27.0592 19.2605 28.9849Z"
          fill="url(#paint20_linear_275_8156)"/>
    <path opacity="0.46" fill-rule="evenodd" clip-rule="evenodd"
          d="M26.9998 27.2547L22.5213 24.7273C22.5065 24.7273 23.0287 24.8176 26.9998 27.2547Z"
          fill="url(#paint21_linear_275_8156)"/>
    <path opacity="0.3" fill-rule="evenodd" clip-rule="evenodd"
          d="M16.3072 8.79379C16.1766 9.15944 16.3052 9.54371 16.593 9.65217C16.8818 9.76064 17.2201 9.55217 17.3497 9.18661C17.4802 8.82095 17.3516 8.43669 17.0638 8.32822C16.776 8.21985 16.4367 8.42823 16.3072 8.79379Z"
          fill="white"/>
    <path opacity="0.89" fill-rule="evenodd" clip-rule="evenodd"
          d="M16.2912 8.62097C16.1616 8.98663 16.2902 9.37089 16.578 9.47935C16.8659 9.58772 17.2051 9.37935 17.3346 9.01369C17.4642 8.64813 17.3366 8.26388 17.0488 8.15541C16.76 8.04694 16.4217 8.25541 16.2912 8.62097Z"
          fill="black"/>
    <path fill-rule="evenodd" clip-rule="evenodd"
          d="M10.1886 10.8571C10.1737 10.8571 10.145 10.8571 10.1302 10.8571C9.89876 10.8271 9.73955 10.6014 9.76823 10.3457C9.79691 10.1049 10.6228 4.47849 14.0143 3.19982C14.8689 2.88386 15.5938 2.944 16.1448 3.41045C16.8114 3.96706 17.1734 5.08028 17.2318 6.70502C17.2753 7.84836 17.1448 8.8412 17.1448 8.88638C17.1161 9.12703 16.8985 9.30764 16.666 9.26247C16.4346 9.23235 16.2605 9.00675 16.304 8.766C16.4346 7.74304 16.579 4.92988 15.6087 4.11746C15.3041 3.86174 14.8837 3.83162 14.319 4.04226C11.4062 5.14042 10.6376 10.4209 10.6376 10.4659C10.5792 10.6916 10.4062 10.8571 10.1886 10.8571Z"
          fill="#595961"/>
    <path opacity="0.46" fill-rule="evenodd" clip-rule="evenodd"
          d="M15.9708 3.44039C15.4635 3.01922 14.7968 2.95908 13.9996 3.24491C12.6228 3.7714 11.4636 5.15539 10.6664 7.24649C10.073 8.79603 9.86923 10.1951 9.86923 10.2553C9.85539 10.3305 9.88409 10.4057 9.92761 10.466C9.97113 10.5261 10.0294 10.5713 10.1017 10.5713C10.1155 10.5713 10.1303 10.5713 10.1452 10.5713C10.2757 10.5713 10.3914 10.466 10.4063 10.3305C10.4201 10.2704 11.1887 4.89968 14.1885 3.7714C14.7968 3.54571 15.2893 3.57583 15.6375 3.87672C16.6661 4.73422 16.5218 7.63764 16.3912 8.67566C16.3764 8.82615 16.4782 8.97655 16.6226 8.99161C16.768 9.00667 16.9124 8.90135 16.9273 8.75095C16.9421 8.5854 17.4495 4.67408 15.9708 3.44039Z"
          fill="#B2B2C2"/>
    <path opacity="0.81" fill-rule="evenodd" clip-rule="evenodd"
          d="M10.1303 10.4058C10.1155 10.4058 10.1155 10.4058 10.1016 10.4058C10.0146 10.3907 9.95622 10.3005 9.97105 10.2102C9.98589 10.15 10.1738 8.78104 10.7683 7.23149C11.5655 5.17052 12.696 3.80149 14.0431 3.28996C14.8116 3.00413 15.4347 3.06436 15.9125 3.45552C17.3328 4.64393 16.8402 8.49521 16.8115 8.66066C16.7967 8.75092 16.7245 8.81106 16.6226 8.7961C16.5366 8.78104 16.4782 8.70584 16.4782 8.60052C16.4782 8.55535 16.9708 4.77937 15.6959 3.69617C15.319 3.41034 14.7968 3.38032 14.1598 3.62097C11.1016 4.77937 10.3044 10.2102 10.3044 10.2703C10.2896 10.3455 10.2173 10.4058 10.1303 10.4058Z"
          fill="#B2B2C2"/>
    <path opacity="0.42" fill-rule="evenodd" clip-rule="evenodd"
          d="M12.0432 6.10308C12.2024 5.87748 12.3478 5.65179 12.4922 5.41113C12.4348 5.48633 12.0145 6.26864 11.1451 6.14826C11.1303 6.14826 11.6377 6.31371 12.0432 6.10308Z"
          fill="#595961"/>
    <path opacity="0.42" fill-rule="evenodd" clip-rule="evenodd"
          d="M11.5508 7.06574C11.6813 6.82499 11.8119 6.56927 11.9127 6.32861C11.8692 6.41887 11.5794 7.23119 10.6665 7.23119C10.6665 7.23119 11.1739 7.33651 11.5508 7.06574Z"
          fill="#595961"/>
    <path opacity="0.42" fill-rule="evenodd" clip-rule="evenodd"
          d="M11.1738 8.05899C11.2895 7.80318 11.3766 7.54746 11.4636 7.29175C11.4201 7.38201 11.2609 8.20939 10.3044 8.31471C10.3044 8.29965 10.8257 8.35988 11.1738 8.05899Z"
          fill="#595961"/>
    <path opacity="0.62" fill-rule="evenodd" clip-rule="evenodd"
          d="M16.9707 5.12524C16.8985 4.85437 16.8263 4.59866 16.7244 4.32788C16.7531 4.41814 17.0429 5.27564 16.4495 5.89239C16.4495 5.89239 16.8836 5.59159 16.9707 5.12524Z"
          fill="#595961"/>
    <path opacity="0.62" fill-rule="evenodd" clip-rule="evenodd"
          d="M16.4062 3.77128C16.2034 3.57571 15.9996 3.39519 15.7969 3.22974C15.8701 3.30494 16.5506 3.86154 16.3626 4.70398C16.3478 4.70398 16.5654 4.20751 16.4062 3.77128Z"
          fill="#595961"/>
    <path opacity="0.62" fill-rule="evenodd" clip-rule="evenodd"
          d="M17.1161 6.50936C17.1013 6.23859 17.0578 5.95276 17.0143 5.68188C17.0143 5.7872 17.1597 6.67482 16.4634 7.15623C16.4634 7.15623 16.9421 6.9456 17.1161 6.50936Z"
          fill="#595961"/>
    <path opacity="0.62" fill-rule="evenodd" clip-rule="evenodd"
          d="M17.1884 7.92357C17.2032 7.6528 17.2032 7.36697 17.1884 7.09619C17.1884 7.20151 17.2032 8.08913 16.4634 8.49524C16.4634 8.48028 16.9708 8.32978 17.1884 7.92357Z"
          fill="#595961"/>
    <path opacity="0.42" fill-rule="evenodd" clip-rule="evenodd"
          d="M10.8404 9.15698C10.9275 8.88621 10.9859 8.61543 11.0432 8.35962C11.0145 8.44988 10.884 9.30738 9.99976 9.51801C10.0146 9.51801 10.5358 9.50296 10.8404 9.15698Z"
          fill="#595961"/>
    <path opacity="0.42" fill-rule="evenodd" clip-rule="evenodd"
          d="M12.5941 5.27545C12.7969 5.09493 12.9858 4.89936 13.1599 4.68872C13.0867 4.74886 12.5071 5.36571 11.696 5.14001C11.7099 5.14001 12.159 5.41088 12.5941 5.27545Z"
          fill="#595961"/>
    <path opacity="0.42" fill-rule="evenodd" clip-rule="evenodd"
          d="M13.2459 4.58378C13.4784 4.43338 13.696 4.28289 13.9126 4.11743C13.8265 4.16261 13.1599 4.65898 12.3914 4.29795C12.3914 4.29795 12.7969 4.64392 13.2459 4.58378Z"
          fill="#595961"/>
    <path opacity="0.62" fill-rule="evenodd" clip-rule="evenodd"
          d="M14.1301 4.08738C14.3912 4.01208 14.6375 3.92182 14.8838 3.83157C14.7968 3.86168 14.0144 4.13246 13.3765 3.56079C13.3765 3.56079 13.6811 4.01208 14.1301 4.08738Z"
          fill="#595961"/>
    <path opacity="0.62" fill-rule="evenodd" clip-rule="evenodd"
          d="M14.8689 3.81663C15.0726 3.84675 15.2754 3.86181 15.4782 3.87687C15.406 3.86181 14.7828 3.81663 14.5068 3.21484C14.5217 3.21484 14.5939 3.62105 14.8689 3.81663Z"
          fill="#595961"/>
    <path opacity="0.62" fill-rule="evenodd" clip-rule="evenodd"
          d="M15.6523 4.14737C15.7829 4.31282 15.9124 4.47828 16.043 4.62878C15.9995 4.56854 15.5939 4.07217 15.7967 3.45532C15.8115 3.45532 15.5939 3.80139 15.6523 4.14737Z"
          fill="#595961"/>
    <path fill-rule="evenodd" clip-rule="evenodd"
          d="M16.6522 8.58537C16.666 8.41992 17.1596 4.61382 15.7828 3.45543C15.5217 3.22983 15.2032 3.12451 14.8551 3.12451C14.5939 3.12451 14.3041 3.18465 13.9995 3.30503C12.6662 3.8015 11.5505 5.14041 10.7682 7.18633C10.1737 8.72081 9.98578 10.0898 9.97095 10.15C9.97095 10.1951 9.99969 10.2402 10.0432 10.2402H10.058C10.1015 10.2402 10.1302 10.2101 10.1302 10.165C10.145 10.1048 10.9274 4.61382 14.043 3.44037C14.7096 3.18465 15.2754 3.22983 15.6809 3.5758C16.9993 4.67396 16.5068 8.51018 16.493 8.55536C16.493 8.60044 16.5217 8.64562 16.5652 8.64562C16.5652 8.64562 16.5651 8.64562 16.579 8.64562C16.6225 8.66067 16.6522 8.63055 16.6522 8.58537Z"
          fill="url(#paint22_linear_275_8156)"/>
    <path fill-rule="evenodd" clip-rule="evenodd"
          d="M17.2319 6.70489C17.1736 5.08014 16.8116 3.98189 16.1449 3.41022C15.7829 3.10943 15.3478 2.97399 14.8552 3.00411C15.2321 3.03413 15.5792 3.16957 15.87 3.41022C16.5367 3.96693 16.8986 5.08014 16.956 6.70489C16.9995 7.84822 16.87 8.84107 16.87 8.88624C16.8403 9.06676 16.7246 9.2022 16.5792 9.24727C16.6088 9.26233 16.6227 9.26234 16.6523 9.26234C16.8838 9.29245 17.1014 9.1269 17.1301 8.88624C17.1449 8.84107 17.2754 7.86328 17.2319 6.70489Z"
          fill="url(#paint23_linear_275_8156)"/>
    <path fill-rule="evenodd" clip-rule="evenodd"
          d="M14.0293 4.04213C11.1164 5.14029 10.3479 10.4207 10.3479 10.4809C10.3193 10.6614 10.2025 10.7968 10.0581 10.8419C10.0868 10.857 10.1016 10.857 10.1303 10.857C10.1451 10.857 10.1738 10.857 10.1887 10.857C10.4063 10.857 10.5794 10.6915 10.609 10.4809C10.6229 10.4207 11.3766 5.15535 14.2894 4.0571C14.4931 3.9819 14.6663 3.93682 14.8265 3.92176C14.6089 3.89164 14.3329 3.93682 14.0293 4.04213Z"
          fill="url(#paint24_linear_275_8156)"/>
    <defs>
        <linearGradient id="paint0_linear_275_8156" x1="13.6108" y1="3.9407" x2="13.1563" y2="10.1289"
                        gradientUnits="userSpaceOnUse">
            <stop stop-color="white" stop-opacity="0.65"/>
            <stop offset="1" stop-color="white" stop-opacity="0.01"/>
        </linearGradient>
        <linearGradient id="paint1_linear_275_8156" x1="16.9321" y1="7.48283" x2="20.1321" y2="10.2856"
                        gradientUnits="userSpaceOnUse">
            <stop stop-opacity="0.01"/>
            <stop offset="1" stop-opacity="0.4"/>
        </linearGradient>
        <linearGradient id="paint2_linear_275_8156" x1="15.6494" y1="10.7252" x2="19.0365" y2="7.57029"
                        gradientUnits="userSpaceOnUse">
            <stop stop-opacity="0.01"/>
            <stop offset="1" stop-opacity="0.4"/>
        </linearGradient>
        <linearGradient id="paint3_linear_275_8156" x1="11.338" y1="1.51839" x2="-1.81782" y2="16.6768"
                        gradientUnits="userSpaceOnUse">
            <stop stop-color="#B8D26E"/>
            <stop offset="1" stop-color="#7FB525"/>
        </linearGradient>
        <linearGradient id="paint4_linear_275_8156" x1="29.3341" y1="5.31342" x2="22.1139" y2="5.44749"
                        gradientUnits="userSpaceOnUse">
            <stop stop-color="#B4E034"/>
            <stop offset="1" stop-color="#60A927"/>
        </linearGradient>
        <linearGradient id="paint5_linear_275_8156" x1="7.85843" y1="15.421" x2="1.93884" y2="29.8364"
                        gradientUnits="userSpaceOnUse">
            <stop stop-color="white"/>
            <stop offset="1" stop-color="#CECEEB"/>
        </linearGradient>
        <linearGradient id="paint6_linear_275_8156" x1="16.3457" y1="50.9217" x2="25.7211" y2="50.9027"
                        gradientUnits="userSpaceOnUse">
            <stop stop-color="#1D1D1B" stop-opacity="0.5"/>
            <stop offset="0.038033" stop-color="#1D1D1B" stop-opacity="0.4837"/>
            <stop offset="0.4243" stop-color="#1D1D1B" stop-opacity="0.3185"/>
            <stop offset="1" stop-color="#1D1D1B" stop-opacity="0.01"/>
        </linearGradient>
        <linearGradient id="paint7_linear_275_8156" x1="17.4347" y1="5.80063" x2="15.8793" y2="6.63774"
                        gradientUnits="userSpaceOnUse">
            <stop stop-opacity="0.01"/>
            <stop offset="1" stop-opacity="0.4"/>
        </linearGradient>
        <linearGradient id="paint8_linear_275_8156" x1="10.9138" y1="8.28338" x2="9.82045" y2="9.22302"
                        gradientUnits="userSpaceOnUse">
            <stop stop-opacity="0.01"/>
            <stop offset="1" stop-opacity="0.4"/>
        </linearGradient>
        <linearGradient id="paint9_linear_275_8156" x1="21.5789" y1="27.2659" x2="21.6896" y2="28.7251"
                        gradientUnits="userSpaceOnUse">
            <stop stop-opacity="0.01"/>
            <stop offset="1" stop-opacity="0.4"/>
        </linearGradient>
        <linearGradient id="paint10_linear_275_8156" x1="18.9944" y1="25.1298" x2="19.2511" y2="28.9235"
                        gradientUnits="userSpaceOnUse">
            <stop stop-color="white" stop-opacity="0.5"/>
            <stop offset="0.0896271" stop-color="white" stop-opacity="0.4552"/>
            <stop offset="1" stop-color="white" stop-opacity="0.01"/>
        </linearGradient>
        <linearGradient id="paint11_linear_275_8156" x1="18.5009" y1="25.7198" x2="18.9574" y2="29.7724"
                        gradientUnits="userSpaceOnUse">
            <stop stop-opacity="0.01"/>
            <stop offset="1" stop-opacity="0.4"/>
        </linearGradient>
        <linearGradient id="paint12_linear_275_8156" x1="16.7097" y1="2.40387" x2="5.00181" y2="9.17526"
                        gradientUnits="userSpaceOnUse">
            <stop stop-color="white" stop-opacity="0.5"/>
            <stop offset="1" stop-color="white" stop-opacity="0.01"/>
        </linearGradient>
        <linearGradient id="paint13_linear_275_8156" x1="18.9686" y1="37.7935" x2="29.3024" y2="37.8143"
                        gradientUnits="userSpaceOnUse">
            <stop stop-color="#1D1D1B" stop-opacity="0.5"/>
            <stop offset="0.0896271" stop-color="#1D1D1B" stop-opacity="0.4552"/>
            <stop offset="1" stop-color="#1D1D1B" stop-opacity="0.01"/>
        </linearGradient>
        <linearGradient id="paint14_linear_275_8156" x1="26.3691" y1="7.17307" x2="24.9011" y2="7.53276"
                        gradientUnits="userSpaceOnUse">
            <stop stop-color="white" stop-opacity="0.4"/>
            <stop offset="1" stop-color="white" stop-opacity="0.01"/>
        </linearGradient>
        <linearGradient id="paint15_linear_275_8156" x1="13.1985" y1="29.152" x2="13.9618" y2="25.4719"
                        gradientUnits="userSpaceOnUse">
            <stop stop-color="#1D1D1B" stop-opacity="0.5"/>
            <stop offset="0.0896271" stop-color="#1D1D1B" stop-opacity="0.4552"/>
            <stop offset="1" stop-color="#1D1D1B" stop-opacity="0.01"/>
        </linearGradient>
        <linearGradient id="paint16_linear_275_8156" x1="17.6117" y1="50.4532" x2="27.0208" y2="50.4614"
                        gradientUnits="userSpaceOnUse">
            <stop stop-color="#1D1D1B" stop-opacity="0.5"/>
            <stop offset="1" stop-color="#1D1D1B" stop-opacity="0.01"/>
        </linearGradient>
        <linearGradient id="paint17_linear_275_8156" x1="9.01363" y1="4.80776" x2="4.45026" y2="22.3401"
                        gradientUnits="userSpaceOnUse">
            <stop stop-color="white" stop-opacity="0.5"/>
            <stop offset="1" stop-color="white" stop-opacity="0.01"/>
        </linearGradient>
        <linearGradient id="paint18_linear_275_8156" x1="9.01363" y1="4.80776" x2="4.45026" y2="22.3401"
                        gradientUnits="userSpaceOnUse">
            <stop stop-color="white" stop-opacity="0.5"/>
            <stop offset="1" stop-color="white" stop-opacity="0.01"/>
        </linearGradient>
        <linearGradient id="paint19_linear_275_8156" x1="20.0883" y1="23.1862" x2="16.4814" y2="28.1507"
                        gradientUnits="userSpaceOnUse">
            <stop stop-color="white" stop-opacity="0.5"/>
            <stop offset="0.0896271" stop-color="white" stop-opacity="0.4552"/>
            <stop offset="1" stop-color="white" stop-opacity="0.01"/>
        </linearGradient>
        <linearGradient id="paint20_linear_275_8156" x1="21.1763" y1="24.3276" x2="20.8192" y2="25.1281"
                        gradientUnits="userSpaceOnUse">
            <stop stop-opacity="0.01"/>
            <stop offset="1" stop-opacity="0.4"/>
        </linearGradient>
        <linearGradient id="paint21_linear_275_8156" x1="24.718" y1="25.386" x2="24.7004" y2="25.6011"
                        gradientUnits="userSpaceOnUse">
            <stop stop-opacity="0.01"/>
            <stop offset="1" stop-opacity="0.4"/>
        </linearGradient>
        <linearGradient id="paint22_linear_275_8156" x1="11.7295" y1="2.6181" x2="10.1702" y2="8.77808"
                        gradientUnits="userSpaceOnUse">
            <stop stop-color="white" stop-opacity="0.65"/>
            <stop offset="1" stop-color="white" stop-opacity="0.01"/>
        </linearGradient>
        <linearGradient id="paint23_linear_275_8156" x1="15.2192" y1="6.17151" x2="17.9317" y2="8.92921"
                        gradientUnits="userSpaceOnUse">
            <stop stop-opacity="0.01"/>
            <stop offset="1" stop-opacity="0.4"/>
        </linearGradient>
        <linearGradient id="paint24_linear_275_8156" x1="13.4853" y1="10.2325" x2="17.233" y2="6.38367"
                        gradientUnits="userSpaceOnUse">
            <stop stop-opacity="0.01"/>
            <stop offset="1" stop-opacity="0.4"/>
        </linearGradient>
    </defs>
</svg>
