<svg id="orchid" width="32" height="32" viewBox="0 0 32 32" fill="none" xmlns="http://www.w3.org/2000/svg">
<g clip-path="url(#clip0_901_984)">
<path d="M25.0909 15.0909C24.6089 15.0904 24.1467 14.8986 23.8059 14.5578C23.465 14.2169 23.2733 13.7548 23.2727 13.2727V10.5455C23.2717 9.58134 22.8883 8.65702 22.2065 7.97529C21.5248 7.29356 20.6005 6.91012 19.6364 6.90909C19.3953 6.90909 19.164 7.00487 18.9935 7.17535C18.8231 7.34584 18.7273 7.57707 18.7273 7.81818C18.7273 8.05928 18.8231 8.29052 18.9935 8.461C19.164 8.63149 19.3953 8.72727 19.6364 8.72727C20.1184 8.72782 20.5805 8.91956 20.9214 9.26041C21.2623 9.60127 21.454 10.0634 21.4545 10.5455V13.2727C21.4562 13.7908 21.5693 14.3025 21.7861 14.7731C22.0029 15.2436 22.3184 15.6621 22.7111 16C22.3184 16.3379 22.0029 16.7564 21.7861 17.2269C21.5693 17.6975 21.4562 18.2092 21.4545 18.7273V21.4545C21.454 21.9366 21.2623 22.3987 20.9214 22.7396C20.5805 23.0804 20.1184 23.2722 19.6364 23.2727C19.3953 23.2727 19.164 23.3685 18.9935 23.539C18.8231 23.7095 18.7273 23.9407 18.7273 24.1818C18.7273 24.4229 18.8231 24.6542 18.9935 24.8246C19.164 24.9951 19.3953 25.0909 19.6364 25.0909C20.6005 25.0899 21.5248 24.7064 22.2065 24.0247C22.8883 23.343 23.2717 22.4187 23.2727 21.4545V18.7273C23.2733 18.2452 23.465 17.7831 23.8059 17.4422C24.1467 17.1014 24.6089 16.9096 25.0909 16.9091C25.332 16.9091 25.5632 16.8133 25.7337 16.6428C25.9042 16.4723 26 16.2411 26 16C26 15.7589 25.9042 15.5277 25.7337 15.3572C25.5632 15.1867 25.332 15.0909 25.0909 15.0909ZM10.5455 13.2727V10.5455C10.546 10.0634 10.7377 9.60127 11.0786 9.26041C11.4195 8.91956 11.8816 8.72782 12.3636 8.72727C12.6047 8.72727 12.836 8.63149 13.0065 8.461C13.1769 8.29052 13.2727 8.05928 13.2727 7.81818C13.2727 7.57707 13.1769 7.34584 13.0065 7.17535C12.836 7.00487 12.6047 6.90909 12.3636 6.90909C11.3995 6.91012 10.4752 7.29356 9.79347 7.97529C9.11175 8.65702 8.7283 9.58134 8.72727 10.5455V13.2727C8.72672 13.7548 8.53499 14.2169 8.19413 14.5578C7.85328 14.8986 7.39113 15.0904 6.90909 15.0909C6.66799 15.0909 6.43675 15.1867 6.26627 15.3572C6.09578 15.5277 6 15.7589 6 16C6 16.2411 6.09578 16.4723 6.26627 16.6428C6.43675 16.8133 6.66799 16.9091 6.90909 16.9091C7.39113 16.9096 7.85328 17.1014 8.19413 17.4422C8.53499 17.7831 8.72672 18.2452 8.72727 18.7273V21.4545C8.7283 22.4187 9.11175 23.343 9.79347 24.0247C10.4752 24.7064 11.3995 25.0899 12.3636 25.0909C12.6047 25.0909 12.836 24.9951 13.0065 24.8246C13.1769 24.6542 13.2727 24.4229 13.2727 24.1818C13.2727 23.9407 13.1769 23.7095 13.0065 23.539C12.836 23.3685 12.6047 23.2727 12.3636 23.2727C11.8816 23.2722 11.4195 23.0804 11.0786 22.7396C10.7377 22.3987 10.546 21.9366 10.5455 21.4545V18.7273C10.5438 18.2092 10.4307 17.6975 10.2139 17.2269C9.9971 16.7564 9.68163 16.3379 9.28891 16C9.68163 15.6621 9.9971 15.2436 10.2139 14.7731C10.4307 14.3025 10.5438 13.7908 10.5455 13.2727Z" fill="#C880F2"/>
</g>
<defs>
<clipPath id="clip0_901_984">
<rect width="20" height="18.1818" fill="white" transform="translate(6 6.90909)"/>
</clipPath>
</defs>
</svg>
