<svg id="orchid" width="32" height="32" viewBox="0 0 32 32" fill="none" xmlns="http://www.w3.org/2000/svg">
    <path fill-rule="evenodd" clip-rule="evenodd"
          d="M26 20.9878C26 23.7616 23.7616 26 20.9878 26H11.0122C8.23844 26 6 23.7616 6 20.9878V11.0122C6 8.23844 8.23844 6 11.0122 6H20.9878C23.7616 6 26 8.23844 26 11.0122V20.9878Z"
          fill="#0087CD"/>
    <path fill-rule="evenodd" clip-rule="evenodd"
          d="M21.5231 17.4842C22.0097 15.9757 22.8856 12.6667 23.1776 11.4501C23.4209 10.4282 23.5182 10.039 23.0316 10.039C22.6423 10.039 21.5718 10.4769 21.3285 11.3042C20.9878 12.6667 20.2579 15.5377 19.9659 16.5596C19.6253 17.6789 18.944 17.9222 18.0195 17.9222C17.3382 17.9222 16.9489 17.8735 16.8516 17.4842C16.8029 17.3382 16.7056 17.2896 16.6083 17.2896H15.489C15.3431 17.2896 15.2457 17.3869 15.2457 17.4842C15.1484 17.9222 14.7591 17.9222 14.0778 17.9222C13.4939 17.9222 12.618 17.8248 12.326 16.7543C12.0827 16.0244 11.5474 14.1265 11.2555 13.1046C10.9635 12.0827 10.0876 12.0341 9.64962 12.0341C9.16301 12.0341 9.11434 12.1314 9.40631 13.1046C9.69829 14.0779 10.3796 16.3163 10.8175 17.7762C11.2555 19.236 12.6667 19.7227 13.5912 19.7227H15.1484C15.5864 19.7227 15.8297 19.6253 15.9757 19.528C16.073 19.4307 16.219 19.4307 16.3163 19.528C16.4623 19.6253 16.7542 19.7713 17.1922 19.7713H18.7007C19.8686 19.7227 21.0365 18.9441 21.5231 17.4842Z"
          fill="white"/>
    <path
        d="M13.6886 13.8346C14.0917 13.8346 14.4185 13.5078 14.4185 13.1046C14.4185 12.7015 14.0917 12.3747 13.6886 12.3747C13.2854 12.3747 12.9586 12.7015 12.9586 13.1046C12.9586 13.5078 13.2854 13.8346 13.6886 13.8346Z"
        fill="white"/>
    <path
        d="M16.073 13.8346C16.4761 13.8346 16.8029 13.5078 16.8029 13.1046C16.8029 12.7015 16.4761 12.3747 16.073 12.3747C15.6699 12.3747 15.3431 12.7015 15.3431 13.1046C15.3431 13.5078 15.6699 13.8346 16.073 13.8346Z"
        fill="white"/>
    <path
        d="M18.5061 13.8346C18.9092 13.8346 19.236 13.5078 19.236 13.1046C19.236 12.7015 18.9092 12.3747 18.5061 12.3747C18.1029 12.3747 17.7761 12.7015 17.7761 13.1046C17.7761 13.5078 18.1029 13.8346 18.5061 13.8346Z"
        fill="white"/>
    <path
        d="M13.6886 16.4623C14.0917 16.4623 14.4185 16.1355 14.4185 15.7324C14.4185 15.3293 14.0917 15.0025 13.6886 15.0025C13.2854 15.0025 12.9586 15.3293 12.9586 15.7324C12.9586 16.1355 13.2854 16.4623 13.6886 16.4623Z"
        fill="white"/>
    <path
        d="M16.073 16.4623C16.4761 16.4623 16.8029 16.1355 16.8029 15.7324C16.8029 15.3293 16.4761 15.0025 16.073 15.0025C15.6699 15.0025 15.3431 15.3293 15.3431 15.7324C15.3431 16.1355 15.6699 16.4623 16.073 16.4623Z"
        fill="white"/>
    <path
        d="M18.5061 16.4623C18.9092 16.4623 19.236 16.1355 19.236 15.7324C19.236 15.3293 18.9092 15.0025 18.5061 15.0025C18.1029 15.0025 17.7761 15.3293 17.7761 15.7324C17.7761 16.1355 18.1029 16.4623 18.5061 16.4623Z"
        fill="white"/>
    <path fill-rule="evenodd" clip-rule="evenodd"
          d="M9.94159 20.1606C9.11434 20.1606 8.48174 20.8419 8.48174 21.6205C8.48174 22.399 9.16301 23.0803 9.94159 23.0803C10.7202 23.0803 11.4014 22.399 11.4014 21.6205C11.4014 20.8419 10.7202 20.1606 9.94159 20.1606ZM9.94159 22.2044C9.64962 22.2044 9.40631 21.9611 9.40631 21.6691C9.40631 21.3772 9.64962 21.1338 9.94159 21.1338C10.2336 21.1338 10.4769 21.3772 10.4769 21.6691C10.4282 21.9611 10.2336 22.2044 9.94159 22.2044ZM22.107 20.1606C21.2798 20.1606 20.6472 20.8419 20.6472 21.6205C20.6472 22.399 21.3285 23.0803 22.107 23.0803C22.8856 23.0803 23.5669 22.399 23.5669 21.6205C23.5669 20.8419 22.9343 20.1606 22.107 20.1606ZM22.107 22.2044C21.8151 22.2044 21.5718 21.9611 21.5718 21.6691C21.5718 21.3772 21.8151 21.1338 22.107 21.1338C22.399 21.1338 22.6423 21.3772 22.6423 21.6691C22.6423 21.9611 22.399 22.2044 22.107 22.2044Z"
          fill="white"/>
</svg>
