<svg id="orchid" width="32" height="32" viewBox="0 0 32 32" fill="none" xmlns="http://www.w3.org/2000/svg">
    <g clip-path="url(#clip0_1194_1794)">
        <mask id="mask0_1194_1794" style="mask-type:luminance" maskUnits="userSpaceOnUse" x="8" y="6" width="16"
              height="20">
            <path
                d="M17.6919 6H10.072C9.33241 6 8.72729 6.60511 8.72729 7.3447V24.3775C8.72729 25.1171 9.33241 25.7222 10.072 25.7222H21.726C22.4656 25.7222 23.0707 25.1171 23.0707 24.3775V11.3788L17.6919 6Z"
                fill="white"/>
        </mask>
        <g mask="url(#mask0_1194_1794)">
            <path
                d="M17.6919 6H10.072C9.33241 6 8.72729 6.60511 8.72729 7.3447V24.3775C8.72729 25.1171 9.33241 25.7222 10.072 25.7222H21.726C22.4656 25.7222 23.0707 25.1171 23.0707 24.3775V11.3788L19.9331 9.13763L17.6919 6Z"
                fill="#673AB7"/>
        </g>
        <mask id="mask1_1194_1794" style="mask-type:luminance" maskUnits="userSpaceOnUse" x="8" y="6" width="16"
              height="20">
            <path
                d="M17.6919 6H10.072C9.33241 6 8.72729 6.60511 8.72729 7.3447V24.3775C8.72729 25.1171 9.33241 25.7222 10.072 25.7222H21.726C22.4656 25.7222 23.0707 25.1171 23.0707 24.3775V11.3788L17.6919 6Z"
                fill="white"/>
        </mask>
        <g mask="url(#mask1_1194_1794)">
            <path
                d="M14.5543 21.2399H19.4848V20.3434H14.5543V21.2399ZM14.5543 15.8611V16.7575H19.4848V15.8611H14.5543ZM13.4337 16.3093C13.4337 16.6802 13.1322 16.9817 12.7613 16.9817C12.3904 16.9817 12.089 16.6802 12.089 16.3093C12.089 15.9384 12.3904 15.637 12.7613 15.637C13.1322 15.637 13.4337 15.9384 13.4337 16.3093ZM13.4337 18.5505C13.4337 18.9214 13.1322 19.2228 12.7613 19.2228C12.3904 19.2228 12.089 18.9214 12.089 18.5505C12.089 18.1796 12.3904 17.8781 12.7613 17.8781C13.1322 17.8781 13.4337 18.1796 13.4337 18.5505ZM13.4337 20.7916C13.4337 21.1625 13.1322 21.464 12.7613 21.464C12.3904 21.464 12.089 21.1625 12.089 20.7916C12.089 20.4207 12.3904 20.1193 12.7613 20.1193C13.1322 20.1193 13.4337 20.4207 13.4337 20.7916ZM14.5543 18.9987H19.4848V18.1022H14.5543V18.9987Z"
                fill="#F1F1F1"/>
        </g>
        <mask id="mask2_1194_1794" style="mask-type:luminance" maskUnits="userSpaceOnUse" x="8" y="6" width="16"
              height="20">
            <path
                d="M17.6919 6H10.072C9.33241 6 8.72729 6.60511 8.72729 7.3447V24.3775C8.72729 25.1171 9.33241 25.7222 10.072 25.7222H21.726C22.4656 25.7222 23.0707 25.1171 23.0707 24.3775V11.3788L17.6919 6Z"
                fill="white"/>
        </mask>
        <g mask="url(#mask2_1194_1794)">
            <path d="M18.0852 10.9855L23.0707 15.9698V11.3788L18.0852 10.9855Z" fill="url(#paint0_linear_1194_1794)"/>
        </g>
        <mask id="mask3_1194_1794" style="mask-type:luminance" maskUnits="userSpaceOnUse" x="8" y="6" width="16"
              height="20">
            <path
                d="M17.6919 6H10.072C9.33241 6 8.72729 6.60511 8.72729 7.3447V24.3775C8.72729 25.1171 9.33241 25.7222 10.072 25.7222H21.726C22.4656 25.7222 23.0707 25.1171 23.0707 24.3775V11.3788L17.6919 6Z"
                fill="white"/>
        </mask>
        <g mask="url(#mask3_1194_1794)">
            <path d="M17.6919 6V10.0341C17.6919 10.777 18.2936 11.3788 19.0366 11.3788H23.0707L17.6919 6Z"
                  fill="#B39DDB"/>
        </g>
        <mask id="mask4_1194_1794" style="mask-type:luminance" maskUnits="userSpaceOnUse" x="8" y="6" width="16"
              height="20">
            <path
                d="M17.6919 6H10.072C9.33241 6 8.72729 6.60511 8.72729 7.3447V24.3775C8.72729 25.1171 9.33241 25.7222 10.072 25.7222H21.726C22.4656 25.7222 23.0707 25.1171 23.0707 24.3775V11.3788L17.6919 6Z"
                fill="white"/>
        </mask>
        <g mask="url(#mask4_1194_1794)">
            <path
                d="M10.072 6C9.33241 6 8.72729 6.60511 8.72729 7.3447V7.45676C8.72729 6.71717 9.33241 6.11206 10.072 6.11206H17.6919V6H10.072Z"
                fill="white" fill-opacity="0.2"/>
        </g>
        <mask id="mask5_1194_1794" style="mask-type:luminance" maskUnits="userSpaceOnUse" x="8" y="6" width="16"
              height="20">
            <path
                d="M17.6919 6H10.072C9.33241 6 8.72729 6.60511 8.72729 7.3447V24.3775C8.72729 25.1171 9.33241 25.7222 10.072 25.7222H21.726C22.4656 25.7222 23.0707 25.1171 23.0707 24.3775V11.3788L17.6919 6Z"
                fill="white"/>
        </mask>
        <g mask="url(#mask5_1194_1794)">
            <path
                d="M21.726 25.6102H10.072C9.33241 25.6102 8.72729 25.0051 8.72729 24.2655V24.3776C8.72729 25.1171 9.33241 25.7223 10.072 25.7223H21.726C22.4656 25.7223 23.0707 25.1171 23.0707 24.3776V24.2655C23.0707 25.0051 22.4656 25.6102 21.726 25.6102Z"
                fill="#311B92" fill-opacity="0.2"/>
        </g>
        <mask id="mask6_1194_1794" style="mask-type:luminance" maskUnits="userSpaceOnUse" x="8" y="6" width="16"
              height="20">
            <path
                d="M17.6919 6H10.072C9.33241 6 8.72729 6.60511 8.72729 7.3447V24.3775C8.72729 25.1171 9.33241 25.7222 10.072 25.7222H21.726C22.4656 25.7222 23.0707 25.1171 23.0707 24.3775V11.3788L17.6919 6Z"
                fill="white"/>
        </mask>
        <g mask="url(#mask6_1194_1794)">
            <path
                d="M19.0366 11.3788C18.2936 11.3788 17.6919 10.777 17.6919 10.0341V10.1461C17.6919 10.8891 18.2936 11.4908 19.0366 11.4908H23.0707V11.3788H19.0366Z"
                fill="#311B92" fill-opacity="0.1"/>
        </g>
        <path
            d="M17.6919 6H10.072C9.33241 6 8.72729 6.60511 8.72729 7.3447V24.3775C8.72729 25.1171 9.33241 25.7222 10.072 25.7222H21.726C22.4656 25.7222 23.0707 25.1171 23.0707 24.3775V11.3788L17.6919 6Z"
            fill="url(#paint1_radial_1194_1794)"/>
    </g>
    <defs>
        <linearGradient id="paint0_linear_1194_1794" x1="267.385" y1="53.7827" x2="267.385" y2="509.489"
                        gradientUnits="userSpaceOnUse">
            <stop stop-color="#311B92" stop-opacity="0.2"/>
            <stop offset="1" stop-color="#311B92" stop-opacity="0.02"/>
        </linearGradient>
        <radialGradient id="paint1_radial_1194_1794" cx="0" cy="0" r="1" gradientUnits="userSpaceOnUse"
                        gradientTransform="translate(54.168 44.9798) scale(2312.86 2312.86)">
            <stop stop-color="white" stop-opacity="0.1"/>
            <stop offset="1" stop-color="white" stop-opacity="0"/>
        </radialGradient>
        <clipPath id="clip0_1194_1794">
            <rect width="14.5455" height="20" fill="white" transform="translate(8.72729 6)"/>
        </clipPath>
    </defs>
</svg>
