<svg id="orchid" width="32" height="32" viewBox="0 0 32 32" fill="none" xmlns="http://www.w3.org/2000/svg">
    <g clip-path="url(#clip0_901_788)">
        <path
            d="M21.4 23.2001V7.90009C21.3999 7.74243 21.3583 7.58756 21.2796 7.451C21.2008 7.31444 21.0875 7.20097 20.9511 7.12195C20.8146 7.04293 20.6598 7.00115 20.5022 7.00077C20.3445 7.00039 20.1895 7.04143 20.0527 7.11979L17.35 8.66779L14.6473 7.11979C14.5111 7.04179 14.3569 7.00076 14.2 7.00076C14.0431 7.00076 13.8889 7.04179 13.7527 7.11979L11.05 8.66779L8.3473 7.11979C8.21049 7.04143 8.05549 7.00039 7.89783 7.00077C7.74017 7.00115 7.58538 7.04293 7.44894 7.12195C7.31251 7.20097 7.19923 7.31444 7.12044 7.451C7.04165 7.58756 7.00012 7.74243 7 7.90009V23.2001C7 23.6775 7.18964 24.1353 7.52721 24.4729C7.86477 24.8104 8.32261 25.0001 8.8 25.0001H23.2C22.7226 25.0001 22.2648 24.8104 21.9272 24.4729C21.5896 24.1353 21.4 23.6775 21.4 23.2001Z"
            fill="#E8C9FA"/>
        <path
            d="M24.9991 17.8V23.2C24.9991 23.6774 24.8095 24.1352 24.4719 24.4728C24.1343 24.8104 23.6765 25 23.1991 25C22.7217 25 22.2639 24.8104 21.9263 24.4728C21.5887 24.1352 21.3991 23.6774 21.3991 23.2V16H23.1991C23.6765 16 24.1343 16.1896 24.4719 16.5272C24.8095 16.8648 24.9991 17.3226 24.9991 17.8ZM16 14.2H12.4C12.1613 14.2 11.9324 14.1052 11.7636 13.9364C11.5948 13.7676 11.5 13.5387 11.5 13.3C11.5 13.0613 11.5948 12.8324 11.7636 12.6636C11.9324 12.4948 12.1613 12.4 12.4 12.4H16C16.2387 12.4 16.4676 12.4948 16.6364 12.6636C16.8052 12.8324 16.9 13.0613 16.9 13.3C16.9 13.5387 16.8052 13.7676 16.6364 13.9364C16.4676 14.1052 16.2387 14.2 16 14.2ZM13.3 17.8H11.5C11.2613 17.8 11.0324 17.7052 10.8636 17.5364C10.6948 17.3676 10.6 17.1387 10.6 16.9C10.6 16.6613 10.6948 16.4324 10.8636 16.2636C11.0324 16.0948 11.2613 16 11.5 16H13.3C13.5387 16 13.7676 16.0948 13.9364 16.2636C14.1052 16.4324 14.2 16.6613 14.2 16.9C14.2 17.1387 14.1052 17.3676 13.9364 17.5364C13.7676 17.7052 13.5387 17.8 13.3 17.8ZM13.3 21.4H11.5C11.2613 21.4 11.0324 21.3052 10.8636 21.1364C10.6948 20.9676 10.6 20.7387 10.6 20.5C10.6 20.2613 10.6948 20.0324 10.8636 19.8636C11.0324 19.6948 11.2613 19.6 11.5 19.6H13.3C13.5387 19.6 13.7676 19.6948 13.9364 19.8636C14.1052 20.0324 14.2 20.2613 14.2 20.5C14.2 20.7387 14.1052 20.9676 13.9364 21.1364C13.7676 21.3052 13.5387 21.4 13.3 21.4ZM16.9 17.8C16.7518 17.8015 16.6055 17.766 16.4745 17.6967C16.3435 17.6275 16.2318 17.5266 16.1496 17.4033C16.0674 17.28 16.0172 17.1381 16.0037 16.9905C15.9901 16.8429 16.0136 16.6942 16.072 16.558C16.1251 16.4195 16.2123 16.2966 16.3255 16.2007C16.4386 16.1048 16.5742 16.0391 16.7195 16.0095C16.8649 15.9798 17.0153 15.9874 17.157 16.0313C17.2987 16.0753 17.427 16.1543 17.53 16.261C17.617 16.3442 17.6846 16.4456 17.728 16.558C17.7741 16.6662 17.7986 16.7824 17.8 16.9C17.7964 17.395 17.395 17.7964 16.9 17.8ZM16.9 21.4C16.7824 21.3986 16.6662 21.3741 16.558 21.328C16.4489 21.2825 16.3485 21.2185 16.261 21.139C16.1792 21.0515 16.1124 20.9511 16.063 20.842C16.0197 20.7332 15.9983 20.617 16 20.5C16.0027 20.2615 16.0963 20.0338 16.261 19.861C16.3874 19.7359 16.5482 19.6512 16.7228 19.6175C16.8974 19.5839 17.0781 19.6028 17.242 19.672C17.2995 19.6914 17.354 19.7187 17.404 19.753C17.4508 19.7863 17.4958 19.8223 17.539 19.861C17.7037 20.0338 17.7964 20.2615 17.8 20.5C17.801 20.6185 17.7784 20.736 17.7336 20.8457C17.6888 20.9554 17.6227 21.0551 17.539 21.139C17.4514 21.2184 17.351 21.2823 17.242 21.328C17.1338 21.3741 17.0176 21.3986 16.9 21.4Z"
            fill="#C880F2"/>
    </g>
    <defs>
        <clipPath id="clip0_901_788">
            <rect width="18" height="18" fill="white" transform="translate(7 7)"/>
        </clipPath>
    </defs>
</svg>
