<svg id="orchid" width="32" height="32" viewBox="0 0 32 32" fill="none" xmlns="http://www.w3.org/2000/svg">
    <path
        d="M13.9102 18.9416C13.7423 18.9416 13.5781 18.8918 13.4384 18.7985C13.2987 18.7052 13.1898 18.5726 13.1254 18.4174C13.061 18.2623 13.044 18.0916 13.0766 17.9268C13.1092 17.762 13.1899 17.6106 13.3085 17.4916L17.4919 13.3082C17.5703 13.2271 17.664 13.1623 17.7677 13.1178C17.8714 13.0732 17.983 13.0498 18.0958 13.0488C18.2087 13.0478 18.3206 13.0693 18.425 13.1121C18.5295 13.1548 18.6244 13.2179 18.7042 13.2977C18.784 13.3775 18.8471 13.4724 18.8898 13.5769C18.9326 13.6813 18.9541 13.7932 18.9531 13.9061C18.9521 14.0189 18.9287 14.1305 18.8841 14.2342C18.8396 14.3379 18.7748 14.4316 18.6937 14.51L14.5103 18.6934C14.4315 18.7725 14.3378 18.8351 14.2347 18.8779C14.1316 18.9206 14.021 18.9426 13.9094 18.9424L13.9102 18.9416Z"
        fill="#E8C9FA"/>
    <path
        d="M19.4857 17.5458C19.3177 17.5458 19.1534 17.4959 19.0136 17.4026C18.8739 17.3092 18.765 17.1764 18.7007 17.0211C18.6364 16.8659 18.6195 16.695 18.6523 16.5302C18.6851 16.3653 18.766 16.2139 18.8848 16.095L22.1834 12.7973C22.5777 12.4018 22.7991 11.8662 22.7991 11.3078C22.7991 10.7493 22.5777 10.2137 22.1834 9.81826C21.782 9.43582 21.2488 9.2225 20.6943 9.2225C20.1399 9.2225 19.6067 9.43582 19.2053 9.81826L15.9058 13.1169C15.8274 13.198 15.7336 13.2628 15.6299 13.3073C15.5262 13.3519 15.4147 13.3753 15.3019 13.3763C15.189 13.3773 15.0771 13.3558 14.9726 13.313C14.8682 13.2703 14.7733 13.2072 14.6935 13.1274C14.6137 13.0476 14.5506 12.9527 14.5078 12.8482C14.4651 12.7438 14.4436 12.6319 14.4446 12.519C14.4456 12.4062 14.469 12.2946 14.5135 12.1909C14.5581 12.0872 14.6228 11.9934 14.704 11.915L18.0026 8.61646C18.7164 7.90268 19.6845 7.50168 20.6939 7.50168C21.7033 7.50168 22.6714 7.90268 23.3852 8.61646C24.099 9.33024 24.5 10.2983 24.5 11.3078C24.5 12.3172 24.099 13.2853 23.3852 13.9991L20.0875 17.2968C20.0086 17.376 19.9148 17.4387 19.8115 17.4815C19.7082 17.5242 19.5975 17.5461 19.4857 17.5458ZM11.3077 24.4983C10.5548 24.499 9.81859 24.2762 9.19236 23.8582C8.56612 23.4403 8.07799 22.8459 7.78978 22.1503C7.50156 21.4547 7.42622 20.6893 7.57329 19.9509C7.72036 19.2125 8.08322 18.5343 8.61595 18.0023L11.9154 14.7045C11.9938 14.6233 12.0876 14.5586 12.1913 14.5141C12.295 14.4695 12.4065 14.4461 12.5193 14.4451C12.6322 14.4441 12.7441 14.4656 12.8486 14.5083C12.953 14.5511 13.0479 14.6142 13.1277 14.694C13.2075 14.7738 13.2706 14.8687 13.3134 14.9731C13.3561 15.0776 13.3776 15.1895 13.3766 15.3024C13.3757 15.4152 13.3522 15.5268 13.3077 15.6304C13.2631 15.7341 13.1984 15.8279 13.1172 15.9063L9.8186 19.2041C9.42431 19.5995 9.20289 20.1351 9.20289 20.6936C9.20289 21.252 9.42431 21.7876 9.8186 22.1831C10.22 22.5655 10.7532 22.7788 11.3077 22.7788C11.8621 22.7788 12.3953 22.5655 12.7968 22.1831L16.0962 18.8845C16.2565 18.7297 16.4712 18.644 16.694 18.6459C16.9169 18.6479 17.1301 18.7373 17.2877 18.8948C17.4452 19.0524 17.5346 19.2656 17.5366 19.4885C17.5385 19.7113 17.4528 19.926 17.298 20.0863L13.9994 23.3849C13.6462 23.7387 13.2266 24.0191 12.7647 24.2102C12.3027 24.4013 11.8076 24.4992 11.3077 24.4983Z"
        fill="#C880F2"/>
</svg>
