<svg id="orchid" width="32" height="33" viewBox="0 0 32 33" fill="none" xmlns="http://www.w3.org/2000/svg">
    <path
        d="M26 13.9398C25.9925 13.0988 24.437 12.7171 20.4102 12.7171C10.9621 12.7171 8.56505 12.3139 6 9.61743C7.07914 11.2365 7.66956 14.2734 17.656 14.1222C28.0752 13.9619 21.7188 16.806 19.8694 20.0194C23.2047 17.0456 25.9899 15.0854 26 13.9519V13.9398ZM12.7233 22.5751C12.7229 23.3568 12.0792 23.9999 11.2966 24.0001C10.5062 24.0001 9.86694 23.3616 9.86694 22.5751V22.574C9.86694 21.791 10.5117 21.1467 11.2959 21.1467H11.2966C12.0845 21.1467 12.7233 21.7854 12.7233 22.5751ZM19.2298 22.5751C19.2294 23.3568 18.5857 23.9999 17.8031 24.0001C17.0134 24.0001 16.3738 23.3616 16.3738 22.5751V22.574C16.3738 21.791 17.0186 21.1467 17.8023 21.1467H17.8031C18.5909 21.1467 19.2298 21.7854 19.2298 22.5751Z"
        fill="url(#paint0_linear_1194_1787)"/>
    <defs>
        <linearGradient id="paint0_linear_1194_1787" x1="-20.5359" y1="23.9157" x2="-20.5359" y2="9.61747"
                        gradientUnits="userSpaceOnUse">
            <stop stop-color="#04B6F0"/>
            <stop offset="1" stop-color="#3ECAF0"/>
        </linearGradient>
    </defs>
</svg>
