<svg id="orchid" width="32" height="32" viewBox="0 0 32 32" fill="none" xmlns="http://www.w3.org/2000/svg">
    <path
        d="M11.7765 22.3787C11.9678 22.291 12.1592 22.2193 12.3585 22.1395C12.5818 22.0598 12.805 21.9801 13.0283 21.9083C13.3073 21.8206 13.5944 21.7488 13.8814 21.6851C14.2721 21.6053 14.6628 21.5415 15.0535 21.5017C14.8303 22.1953 14.5911 22.889 14.32 23.5748C14.3279 23.7103 14.3359 23.8379 14.3439 23.9734C14.8781 23.8698 15.4283 23.814 15.9944 23.814C16.5605 23.814 17.1107 23.8698 17.6449 23.9734C17.6449 23.8379 17.6529 23.7023 17.6688 23.5748C17.4057 22.889 17.1585 22.1953 16.9353 21.5017C17.326 21.5415 17.7246 21.5973 18.1073 21.6851C18.3944 21.7488 18.6735 21.8206 18.9605 21.9083C19.1838 21.9801 19.407 22.0518 19.6303 22.1395C19.8296 22.2113 20.021 22.291 20.2123 22.3787C21.5678 22.9847 22.8037 23.8777 23.8163 25.0419C26.3598 22.8492 27.9705 19.604 27.9705 15.9761C27.9705 9.36611 22.6123 4 15.9944 4C9.38442 4 4.01831 9.35814 4.01831 15.9761C4.01831 19.596 5.62894 22.8412 8.17246 25.0419C9.18509 23.8777 10.421 22.9847 11.7765 22.3787Z"
        fill="#A0DBE8"/>
    <path
        d="M12.5657 24.5475C13.1239 24.3003 13.7219 24.1089 14.3358 23.9893C14.3358 23.8538 14.3279 23.7182 14.3119 23.5907C14.575 22.905 14.8222 22.2113 15.0455 21.5176C14.6548 21.5574 14.2561 21.6133 13.8734 21.701C13.5863 21.7648 13.3073 21.8365 13.0202 21.9242C12.797 21.996 12.5737 22.0677 12.3505 22.1555L13.2196 22.3707L12.5657 24.5475Z"
        fill="#525353"/>
    <path
        d="M10.5086 25.8312C10.5325 25.6079 10.5405 25.3847 10.5405 25.1535C10.5405 25.0179 10.6521 24.9063 10.7877 24.9063H11.003L11.7684 22.3707C10.4129 22.9767 9.17705 23.8697 8.16443 25.0338C8.72257 25.5202 9.32855 25.9508 9.96642 26.3255C10.1498 26.1581 10.3252 25.9907 10.5086 25.8312Z"
        fill="#525353"/>
    <path
        d="M20.2043 22.3788L20.9698 24.9143H21.1851C21.3206 24.9143 21.4323 25.026 21.4323 25.1615C21.4323 25.3927 21.4482 25.616 21.4641 25.8393C21.6475 25.9987 21.8309 26.1582 21.9984 26.3336C22.6442 25.9588 23.2422 25.5283 23.8004 25.0419C22.7957 23.8778 21.5598 22.9848 20.2043 22.3788Z"
        fill="#525353"/>
    <path
        d="M18.7451 22.3549L19.6142 22.1396C19.3909 22.0598 19.1677 21.9801 18.9444 21.9084C18.6654 21.8206 18.3783 21.7489 18.0913 21.6851C17.7006 21.6054 17.3099 21.5416 16.9192 21.5017C17.1424 22.1954 17.3816 22.8891 17.6527 23.5748C17.6448 23.7103 17.6368 23.8379 17.6288 23.9735C18.2508 24.0931 18.8408 24.2844 19.3989 24.5316L18.7451 22.3549Z"
        fill="#525353"/>
    <path
        d="M15.9864 24.9143H17.6768C17.6449 24.6034 17.6289 24.2924 17.6369 23.9894C17.1027 23.8858 16.5525 23.83 15.9864 23.83C15.4203 23.83 14.8701 23.8858 14.3359 23.9894C14.3439 24.3004 14.3279 24.6034 14.296 24.9143H15.9864Z"
        fill="black"/>
    <path
        d="M9.97437 26.3255C10.1099 26.4053 10.2534 26.485 10.397 26.5647C10.4448 26.3255 10.4847 26.0784 10.5086 25.8312C10.3252 25.9906 10.1498 26.1581 9.97437 26.3255Z"
        fill="black"/>
    <path
        d="M12.4541 24.9143H14.3039C14.3358 24.6033 14.3518 24.2924 14.3438 23.9894C13.7219 24.109 13.1318 24.3003 12.5737 24.5475L12.4541 24.9143Z"
        fill="black"/>
    <path
        d="M21.472 25.8312C21.496 26.0784 21.5358 26.3255 21.5837 26.5647C21.7272 26.493 21.8627 26.4132 22.0063 26.3255C21.8308 26.1581 21.6554 25.9906 21.472 25.8312Z"
        fill="black"/>
    <path
        d="M19.5266 24.9143L19.415 24.5475C18.8568 24.3003 18.2588 24.109 17.6449 23.9894C17.6369 24.3003 17.6528 24.6033 17.6847 24.9143H19.5266Z"
        fill="black"/>
    <path
        d="M12.4542 24.9143L12.5658 24.5475L13.2276 22.3548L12.3585 22.1395C12.1592 22.2113 11.9678 22.291 11.7764 22.3787L11.011 24.9143H11.8322H12.4542Z"
        fill="#AA9678"/>
    <path
        d="M19.415 24.5475L19.5266 24.9143H20.1485H20.9698L20.2043 22.3787C20.013 22.291 19.8216 22.2193 19.6223 22.1395L18.7532 22.3548L19.415 24.5475Z"
        fill="#AA9678"/>
    <path
        d="M11.0349 25.4246C11.0429 25.4167 11.0509 25.4167 11.0588 25.4087H11.0349C11.0349 25.4087 11.0349 25.4167 11.0349 25.4246Z"
        fill="#C0B098"/>
    <path
        d="M15.9863 25.4087H14.2242H12.3026H11.0587C11.0508 25.4167 11.0428 25.4167 11.0348 25.4246C11.0189 25.8951 10.9551 26.3496 10.8514 26.7961C12.4063 27.5376 14.1445 27.9522 15.9863 27.9522V25.4087Z"
        fill="#C0B098"/>
    <path
        d="M20.9458 25.4087H20.9219C20.9298 25.4167 20.9378 25.4167 20.9458 25.4246C20.9458 25.4167 20.9458 25.4087 20.9458 25.4087Z"
        fill="#AA9678"/>
    <path
        d="M20.9219 25.4087H19.678H17.7485H15.9863V27.9522C17.8202 27.9522 19.5664 27.5376 21.1212 26.7961C21.0176 26.3496 20.9538 25.8871 20.9378 25.4246C20.9378 25.4167 20.9298 25.4087 20.9219 25.4087Z"
        fill="#AA9678"/>
    <path
        d="M21.4721 25.8312C21.4482 25.6079 21.4402 25.3847 21.4402 25.1534C21.4402 25.0179 21.3286 24.9062 21.193 24.9062H20.9777H20.1405H19.5186H17.6688H15.9784H14.288H12.4382H11.8163H10.995H10.7797C10.6442 24.9062 10.5326 25.0179 10.5326 25.1534C10.5326 25.3847 10.5166 25.6079 10.5007 25.8312C10.4767 26.0783 10.4369 26.3255 10.389 26.5647C10.5405 26.6445 10.692 26.7242 10.8435 26.796C10.9472 26.3494 11.011 25.887 11.0269 25.4245C11.0269 25.4165 11.0269 25.4166 11.0269 25.4086H11.0508H12.2947H14.2163H15.9784H17.7485H19.6701H20.914H20.9379C20.9379 25.4166 20.9379 25.4165 20.9379 25.4245C20.9538 25.895 21.0176 26.3494 21.1213 26.796C21.2728 26.7242 21.4243 26.6445 21.5757 26.5647C21.5279 26.3255 21.496 26.0783 21.4721 25.8312Z"
        fill="#8B7460"/>
    <path d="M19.415 23.2C19.3751 23.1601 19.3432 23.1123 19.3033 23.0645C19.3432 23.1203 19.3831 23.1601 19.415 23.2Z"
          fill="#525353"/>
    <path
        d="M23.9597 13.3129C23.8561 13.1694 23.7524 13.0418 23.6488 12.9302C23.6009 12.8744 23.5531 12.8265 23.5053 12.7787C23.4893 12.7628 23.4654 12.7468 23.4494 12.7309C23.4175 12.699 23.3857 12.675 23.3538 12.6511V13.7674L23.7764 15.7209C23.7843 15.7368 23.7843 15.7528 23.7923 15.7687L24.0873 16.1036H24.3983C24.3983 16.0717 24.3983 16.0478 24.3983 16.0159C24.3983 15.091 24.2468 14.2059 23.9757 13.3767C23.9677 13.3448 23.9677 13.3289 23.9597 13.3129Z"
        fill="#BBBCBD"/>
    <path
        d="M23.8242 15.9043V15.9123C23.8242 15.9123 23.8242 15.9123 23.8242 15.9203C23.8322 15.9681 23.8322 16.016 23.8322 16.0638C23.8322 16.0718 23.8322 16.0798 23.8322 16.0877C23.8322 16.0957 23.8322 16.1037 23.8322 16.1117C23.8322 16.1595 23.8322 16.2073 23.8242 16.2472V16.2552V16.2631C23.8162 16.311 23.8083 16.3588 23.8003 16.4067L24.0953 16.0798L23.8003 15.7449C23.8083 15.8007 23.8162 15.8485 23.8242 15.9043Z"
        fill="#676A6A"/>
    <path
        d="M23.8162 16.2791C23.8162 16.2711 23.8162 16.2711 23.8162 16.2632C23.8242 16.2153 23.8242 16.1675 23.8242 16.1276C23.8242 16.1196 23.8242 16.1037 23.8242 16.0957C23.8242 16.0877 23.8242 16.0798 23.8242 16.0638C23.8242 16.016 23.8242 15.9681 23.8162 15.9203C23.8162 15.9123 23.8162 15.9123 23.8162 15.9044C23.8083 15.8565 23.8003 15.8087 23.7923 15.7608C23.7843 15.7449 23.7843 15.7289 23.7764 15.713C23.7445 15.6173 23.7126 15.5376 23.6647 15.4658C23.6568 15.4578 23.6488 15.4499 23.6488 15.4419C23.6328 15.4259 23.6249 15.41 23.6089 15.3941C23.593 15.3701 23.5691 15.3542 23.5451 15.3382C23.5372 15.3303 23.5292 15.3303 23.5212 15.3223C23.5053 15.3063 23.4813 15.2984 23.4654 15.2904C23.4574 15.2904 23.4495 15.2824 23.4415 15.2824C23.4176 15.2745 23.3857 15.2665 23.3538 15.2665C23.3219 15.2665 23.298 15.2745 23.2661 15.2824C23.2581 15.2824 23.2501 15.2904 23.2421 15.2904C23.2262 15.2984 23.2023 15.3063 23.1863 15.3223C23.1784 15.3303 23.1704 15.3303 23.1624 15.3382C23.1385 15.3542 23.1225 15.3781 23.0986 15.3941C23.0827 15.41 23.0747 15.4259 23.0588 15.4419C23.0508 15.4499 23.0428 15.4578 23.0428 15.4658C22.995 15.5376 22.9551 15.6173 22.9312 15.713V15.721C22.9152 15.7608 22.9073 15.8087 22.8993 15.8565C22.8993 15.8725 22.8913 15.8804 22.8913 15.8964C22.8833 15.9522 22.8833 16 22.8754 16.0558C22.8754 16.0638 22.8754 16.0718 22.8754 16.0798C22.8754 16.5343 23.0906 16.909 23.3538 16.909C23.4016 16.909 23.4415 16.8931 23.4893 16.8771C23.4973 16.8771 23.5053 16.8691 23.5132 16.8691C23.5292 16.8612 23.5451 16.8452 23.5611 16.8372C23.5691 16.8293 23.577 16.8213 23.585 16.8133C23.6089 16.7974 23.6249 16.7735 23.6488 16.7495C23.6647 16.7336 23.6727 16.7176 23.6887 16.6937C23.6966 16.6778 23.7046 16.6698 23.7126 16.6539C23.7285 16.6299 23.7365 16.606 23.7524 16.5741C23.7604 16.5661 23.7604 16.5582 23.7684 16.5422C23.7843 16.5024 23.7923 16.4625 23.8083 16.4226C23.8083 16.3748 23.8162 16.3269 23.8162 16.2791ZM23.3697 15.9761C23.2661 15.9761 23.1863 15.8406 23.1863 15.6652C23.1863 15.4977 23.2661 15.3542 23.3697 15.3542C23.4734 15.3542 23.5531 15.4897 23.5531 15.6652C23.5531 15.8406 23.4654 15.9761 23.3697 15.9761Z"
        fill="black"/>
    <path
        d="M23.3698 15.9761C23.4711 15.9761 23.5532 15.8368 23.5532 15.6651C23.5532 15.4933 23.4711 15.3541 23.3698 15.3541C23.2685 15.3541 23.1864 15.4933 23.1864 15.6651C23.1864 15.8368 23.2685 15.9761 23.3698 15.9761Z"
        fill="white"/>
    <path
        d="M22.9232 15.713C22.9551 15.6173 22.987 15.5376 23.0348 15.4658C23.0428 15.4579 23.0508 15.4499 23.0508 15.4419C23.0667 15.426 23.0747 15.41 23.0907 15.3941C23.1066 15.3702 23.1305 15.3542 23.1544 15.3383C23.1624 15.3303 23.1704 15.3303 23.1784 15.3223C23.1943 15.3064 23.2182 15.2984 23.2342 15.2904C23.2422 15.2904 23.2501 15.2824 23.2581 15.2824C23.282 15.2745 23.3139 15.2665 23.3458 15.2665C23.3777 15.2665 23.4016 15.2745 23.4335 15.2824C23.4415 15.2824 23.4495 15.2904 23.4574 15.2904C23.4734 15.2984 23.4973 15.3064 23.5133 15.3223C23.5212 15.3303 23.5292 15.3303 23.5372 15.3383C23.5611 15.3542 23.577 15.3781 23.601 15.3941C23.6169 15.41 23.6249 15.426 23.6408 15.4419C23.6488 15.4499 23.6568 15.4579 23.6568 15.4658C23.7046 15.5376 23.7445 15.6173 23.7684 15.713L23.3458 13.7595L22.9232 15.713Z"
        fill="#909393"/>
    <path
        d="M17.7006 16.0718C17.7006 16.0319 17.7006 15.9921 17.6926 15.9522C17.6847 15.9123 17.6847 15.8804 17.6767 15.8406C17.6687 15.8007 17.6607 15.7688 17.6448 15.7369C17.6368 15.705 17.6209 15.6652 17.6049 15.6333C17.589 15.6014 17.573 15.5695 17.5571 15.5376C17.5013 15.4419 17.4375 15.3542 17.3578 15.2824C17.2541 15.1868 17.1345 15.107 17.0069 15.0512C16.9431 15.0273 16.8714 15.0034 16.8076 14.9874C16.8076 14.9874 16.8076 14.9874 16.7996 14.9874C16.7279 14.9715 16.6561 14.9635 16.5843 14.9635C16.5126 14.9635 16.4408 14.9715 16.369 14.9874H16.3611C16.2893 15.0034 16.2255 15.0193 16.1617 15.0432C16.1617 15.0432 16.1617 15.0432 16.1538 15.0432C16.09 15.0672 16.0262 15.099 15.9704 15.1389C15.9146 15.1788 15.8587 15.2187 15.8109 15.2665H15.8029C15.7232 15.3462 15.6514 15.4339 15.5956 15.5296C15.5797 15.5615 15.5637 15.5934 15.5478 15.6253C15.5478 15.6253 15.5478 15.6333 15.5398 15.6333C15.5239 15.6652 15.5159 15.6891 15.5079 15.721C15.5079 15.7289 15.4999 15.7289 15.4999 15.7369C15.492 15.7688 15.484 15.7927 15.476 15.8246C15.476 15.8326 15.4681 15.8406 15.4681 15.8486C15.4601 15.8804 15.4601 15.9044 15.4521 15.9363C15.4521 15.9442 15.4521 15.9522 15.4441 15.9602C15.4441 16 15.4362 16.0399 15.4362 16.0798C15.4362 16.1515 15.4441 16.2233 15.4601 16.2951C15.4601 16.2951 15.4601 16.2951 15.4601 16.303C15.476 16.3748 15.492 16.4386 15.5239 16.5103C15.5797 16.6379 15.6594 16.7575 15.7551 16.8612C15.8348 16.9409 15.9225 17.0127 16.0182 17.0685C16.0501 17.0844 16.082 17.1004 16.1139 17.1163H16.1219C16.1538 17.1323 16.1857 17.1402 16.2096 17.1482C16.2176 17.1482 16.2176 17.1482 16.2255 17.1562C16.2574 17.1642 16.2813 17.1721 16.3132 17.1801C16.3212 17.1801 16.3292 17.1881 16.3372 17.1881C16.369 17.1961 16.393 17.1961 16.4249 17.204C16.4328 17.204 16.4408 17.204 16.4488 17.212C16.4886 17.212 16.5285 17.22 16.5684 17.22C16.7279 17.22 16.8714 17.1881 17.0069 17.1323C17.0707 17.1004 17.1345 17.0685 17.1983 17.0286C17.3179 16.9489 17.4215 16.8452 17.5013 16.7256C17.5411 16.6618 17.573 16.5981 17.6049 16.5343C17.6607 16.3987 17.6926 16.2472 17.6926 16.0957V16.0878C17.7006 16.0718 17.7006 16.0718 17.7006 16.0718ZM16.5764 15.9363C16.3451 15.9363 16.1538 15.7449 16.1538 15.5137C16.1538 15.2824 16.3451 15.0911 16.5764 15.0911C16.8076 15.0911 16.9989 15.2824 16.9989 15.5137C16.9989 15.7449 16.8076 15.9363 16.5764 15.9363Z"
        fill="black"/>
    <path
        d="M16.5764 15.9362C16.8098 15.9362 16.999 15.747 16.999 15.5137C16.999 15.2803 16.8098 15.0911 16.5764 15.0911C16.343 15.0911 16.1538 15.2803 16.1538 15.5137C16.1538 15.747 16.343 15.9362 16.5764 15.9362Z"
        fill="white"/>
    <path
        d="M15.795 15.2665L16.5764 12.8824C16.5764 12.8824 16.5764 12.7389 16.5764 12.6033C16.5764 12.5635 16.5764 12.5236 16.5764 12.4917C16.5764 12.4758 16.5764 12.4678 16.5764 12.4598C16.5764 12.4439 16.5764 12.4279 16.5764 12.412C16.5764 12.404 16.5764 12.3881 16.5764 12.3801C16.5764 12.3721 16.5764 12.3562 16.5764 12.3482C16.5764 12.3402 16.5764 12.3322 16.5764 12.3322C16.5764 12.3243 16.5764 12.3243 16.5764 12.3243C16.1458 12.2366 15.6993 12.1887 15.2448 12.1887C15.0933 12.1887 14.9418 12.1967 14.7903 12.2047C14.7664 12.2047 14.7505 12.2047 14.7265 12.2126C13.9451 12.2685 13.1797 12.4758 12.4701 12.8027C11.8641 13.0817 11.29 13.4485 10.7877 13.8791C10.6521 13.9987 10.5166 14.1183 10.389 14.2459C10.3651 14.2698 10.3412 14.2937 10.3172 14.3176C10.1976 14.4372 10.078 14.5648 9.96641 14.6924C9.94249 14.7243 9.91857 14.7482 9.89465 14.7801C9.78302 14.9156 9.67139 15.0512 9.56774 15.1867C9.55977 15.1947 9.55179 15.2106 9.54382 15.2186C9.44814 15.3542 9.35246 15.4897 9.25678 15.6332C9.24083 15.6572 9.21691 15.6891 9.20096 15.713C9.1292 15.8326 9.05744 15.9522 8.99365 16.0718H12.5259H12.5339L15.795 15.2665Z"
        fill="#BBBCBD"/>
    <path
        d="M18.785 15.0033C18.7929 14.9076 18.8009 14.8199 18.8009 14.7243C18.8089 14.5967 18.8089 14.4771 18.8169 14.3495C18.8169 14.2538 18.8169 14.1581 18.8169 14.0545C18.8169 14.0226 18.8169 13.9987 18.8169 13.9668C18.8169 13.7116 18.8009 13.4645 18.793 13.2093C18.793 13.2093 18.785 13.2093 18.785 13.2013C18.785 13.2013 18.777 13.2013 18.777 13.1934C18.7292 13.1694 18.6175 13.1057 18.5139 13.0419H18.5059C18.482 13.0259 18.4581 13.01 18.4341 13.002C18.4182 12.994 18.4023 12.9781 18.3863 12.9701L18.3783 12.9621C18.3624 12.9542 18.3464 12.9462 18.3385 12.9382C18.179 12.8505 18.0116 12.7787 17.8441 12.707C17.4454 12.5395 16.9032 12.388 16.5923 12.3163V12.5316V12.5794V12.5954C16.5923 12.7389 16.5923 12.8744 16.5923 12.8744L17.3657 15.2505C17.4454 15.3223 17.5172 15.41 17.565 15.5057C17.581 15.5375 17.5969 15.5694 17.6129 15.6013C17.6288 15.6332 17.6448 15.6651 17.6527 15.705C17.6607 15.7369 17.6767 15.7767 17.6846 15.8086C17.6926 15.8485 17.7006 15.8804 17.7006 15.9203C17.7086 15.9601 17.7086 16 17.7086 16.0399V16.0478H18.6494C18.7132 15.705 18.7611 15.3542 18.785 15.0033C18.785 15.0193 18.785 15.0113 18.785 15.0033Z"
        fill="#E2DDDB"/>
    <path
        d="M17.7086 19.4684C17.9239 19.2532 18.1233 19.0538 18.3146 18.8545C18.4263 18.7349 18.5379 18.6153 18.6495 18.5037C19.4389 17.6505 20.013 16.8452 20.3638 15.8166C20.3718 15.7927 20.3797 15.7608 20.3877 15.7209C20.3877 15.713 20.3877 15.713 20.3877 15.705C20.3957 15.6651 20.4037 15.6253 20.4116 15.5774C20.4116 15.5455 20.4196 15.5136 20.4196 15.4817C20.3319 15.0352 20.1645 14.5967 20.013 14.1661C20.013 14.1661 20.013 14.1661 20.013 14.1741C20.013 14.1741 20.013 14.1741 20.005 14.1661C19.9731 14.1422 19.9492 14.1103 19.9173 14.0864C19.8296 14.0067 19.7419 13.9269 19.6462 13.8472C19.3671 13.616 19.0801 13.4007 18.7771 13.2173C18.793 13.4724 18.801 13.7196 18.801 13.9748C18.801 14.0067 18.801 14.0306 18.801 14.0625C18.801 14.1581 18.801 14.2538 18.801 14.3575C18.801 14.4851 18.793 14.6126 18.7851 14.7322C18.7771 14.8279 18.7771 14.9156 18.7691 15.0113C18.7691 15.0193 18.7691 15.0273 18.7691 15.0432C18.7372 15.394 18.6974 15.7449 18.6336 16.0877L18.5219 16.614C18.2907 17.5548 17.8203 18.4 17.4375 19.2771C17.3339 19.5083 17.2382 19.7475 17.1505 19.9867C17.1425 20.0106 17.1346 20.0346 17.1266 20.0585C17.2462 19.9309 17.3578 19.8193 17.4375 19.7395C17.5412 19.6359 17.6209 19.5482 17.7086 19.4684Z"
        fill="#FBB040"/>
    <path
        d="M15.803 15.2665C15.8508 15.2187 15.9066 15.1788 15.9624 15.1389C16.0183 15.0991 16.082 15.0672 16.1458 15.0432C16.1458 15.0432 16.1458 15.0432 16.1538 15.0432C16.2176 15.0193 16.2814 14.9954 16.3531 14.9874H16.3611C16.4329 14.9715 16.5046 14.9635 16.5764 14.9635C16.6482 14.9635 16.7199 14.9715 16.7917 14.9874C16.7917 14.9874 16.7917 14.9874 16.7997 14.9874C16.8714 15.0034 16.9352 15.0193 16.999 15.0512C17.1266 15.107 17.2462 15.1788 17.3498 15.2825L16.5764 12.9064L15.803 15.2665Z"
        fill="#909393"/>
    <path
        d="M15.5318 16.5103C15.5079 16.4465 15.484 16.3748 15.468 16.303C15.468 16.303 15.468 16.303 15.468 16.2951C15.4521 16.2233 15.4441 16.1515 15.4441 16.0798C15.4441 16.0399 15.4441 16 15.4521 15.9602C15.4521 15.9522 15.4521 15.9442 15.4601 15.9362C15.4601 15.9044 15.468 15.8804 15.476 15.8485C15.476 15.8406 15.484 15.8326 15.484 15.8246C15.492 15.7927 15.4999 15.7688 15.5079 15.7369C15.5079 15.7289 15.5159 15.7289 15.5159 15.721C15.5238 15.6891 15.5398 15.6572 15.5478 15.6333C15.5478 15.6333 15.5478 15.6253 15.5557 15.6253C15.5717 15.5934 15.5876 15.5615 15.6036 15.5296C15.6594 15.4339 15.7312 15.3462 15.8109 15.2665L12.5418 16.0718H12.5338L15.771 16.8612C15.6674 16.7655 15.5876 16.6459 15.5318 16.5103Z"
        fill="#676A6A"/>
    <path
        d="M22.8834 15.8964C22.8834 15.8804 22.8913 15.8645 22.8913 15.8565C22.8993 15.8087 22.9073 15.7608 22.9232 15.7209C22.9232 15.713 22.9232 15.713 22.9232 15.705L23.3458 13.7515V12.6352C22.995 12.3482 22.6282 12.1887 22.2375 12.1887C21.7432 12.1887 21.2887 12.4598 20.9458 12.7947C20.5711 13.1615 20.284 13.6239 20.0448 14.0864C20.0369 14.1103 20.0209 14.1263 20.0129 14.1502C20.0847 14.214 20.1565 14.2778 20.2282 14.3415C20.3877 14.4851 20.5472 14.6366 20.6987 14.7881C20.7704 14.8598 20.8422 14.9316 20.9139 15.0033C20.9857 15.0831 21.0654 15.1548 21.1372 15.2346C21.2329 15.3382 21.3286 15.4339 21.4163 15.5376C21.4561 15.5774 21.496 15.6253 21.5359 15.6651C21.6475 15.7927 21.7591 15.9123 21.8707 16.0399C21.8867 16.0558 21.9026 16.0718 21.9106 16.0798H22.8754C22.8754 16.0718 22.8754 16.0638 22.8754 16.0558C22.8754 16.008 22.8754 15.9522 22.8834 15.8964Z"
        fill="#E2DDDB"/>
    <path
        d="M8.41164 17.3077C8.41164 17.2997 8.41961 17.2918 8.41961 17.2838C8.4834 17.1243 8.54719 16.9648 8.61895 16.8054C8.63489 16.7575 8.65881 16.7177 8.68274 16.6778C8.73855 16.5502 8.80234 16.4306 8.86612 16.311C8.89004 16.2632 8.91396 16.2153 8.94586 16.1595C8.96181 16.1356 8.97775 16.1037 8.9937 16.0798C9.06546 15.9602 9.12925 15.8406 9.20101 15.721C9.21695 15.6971 9.24087 15.6652 9.25682 15.6413C9.34453 15.4977 9.44021 15.3622 9.54387 15.2266C9.55184 15.2187 9.55981 15.2027 9.56778 15.1947C9.67144 15.0512 9.78307 14.9157 9.8947 14.7881C9.91862 14.7562 9.94254 14.7323 9.96646 14.7004C10.0781 14.5728 10.1977 14.4452 10.3173 14.3256C10.3412 14.3017 10.3651 14.2778 10.389 14.2539C10.5166 14.1263 10.6442 14.0067 10.7877 13.8871C11.3219 12.0851 12.9724 10.7695 14.918 10.7695C15.6993 10.7695 16.4807 10.9927 17.1505 11.4074C17.8362 11.83 18.3944 12.4439 18.7532 13.1535C18.7532 13.1535 18.7532 13.1615 18.7611 13.1615C18.7691 13.1775 18.7771 13.1934 18.793 13.2173C19.096 13.4007 19.3831 13.616 19.6621 13.8472C19.7578 13.927 19.8455 14.0067 19.9332 14.0864C19.9651 14.1104 19.989 14.1422 20.0209 14.1662C20.0289 14.1422 20.0369 14.1263 20.0528 14.1024C20.3239 12.3721 21.0894 11.1203 21.9904 11.1203C22.6681 11.1203 23.2741 11.83 23.6409 12.9223V12.9303C23.7445 13.0419 23.8482 13.1695 23.9518 13.305C23.9518 13.305 23.9518 13.313 23.9598 13.313C23.9678 13.329 23.9678 13.3449 23.9758 13.3609L23.9598 13.305C22.8356 9.9881 19.702 7.59607 16.0023 7.59607C11.3618 7.59607 7.60632 11.3516 7.60632 15.9921C7.60632 16.909 7.74984 17.7861 8.02094 18.6074C8.02094 18.6074 8.02094 18.6074 8.02094 18.5994C8.07675 18.3522 8.14054 18.105 8.2123 17.8658C8.27609 17.6745 8.33988 17.4911 8.41164 17.3077Z"
        fill="#525353"/>
    <path
        d="M24.0873 16.0878L23.7923 16.4147C23.7844 16.4545 23.7684 16.4944 23.7525 16.5343C23.7525 16.5422 23.7445 16.5502 23.7365 16.5662C23.7285 16.5901 23.7126 16.622 23.6966 16.6459C23.6887 16.6618 23.6807 16.6698 23.6727 16.6858C23.6568 16.7017 23.6488 16.7256 23.6329 16.7416C23.6169 16.7655 23.593 16.7894 23.5691 16.8054C23.5611 16.8133 23.5531 16.8213 23.5452 16.8293C23.5292 16.8452 23.5133 16.8532 23.4973 16.8612C23.4893 16.8612 23.4814 16.8692 23.4734 16.8692C23.4335 16.8931 23.3857 16.9011 23.3378 16.9011C23.0747 16.9011 22.8594 16.5343 22.8594 16.0718H21.8947C22.078 16.2791 22.2535 16.4864 22.4209 16.7017L22.4289 16.7097C22.5963 16.917 22.7638 17.1243 22.9312 17.3316C22.9392 17.3396 22.9471 17.3555 22.9551 17.3635C23.1146 17.5628 23.2661 17.7622 23.4176 17.9615C23.4335 17.9775 23.4495 18.0014 23.4654 18.0173C23.6249 18.2326 23.7844 18.4479 23.9438 18.6552C23.9438 18.6552 23.9438 18.6552 23.9438 18.6632C24.2229 17.8419 24.3744 16.9728 24.3824 16.0638L24.0873 16.0878Z"
        fill="white"/>
    <path
        d="M14.7265 12.2047C14.7505 12.2047 14.7664 12.2047 14.7903 12.1967C14.9418 12.1887 15.0933 12.1807 15.2448 12.1807C15.6993 12.1807 16.1458 12.2286 16.5764 12.3163C16.5764 12.3163 16.5764 12.3163 16.5764 12.3243C16.5764 12.3243 16.5764 12.3322 16.5764 12.3402C16.5764 12.3482 16.5764 12.3562 16.5764 12.3721C16.5764 12.3801 16.5764 12.3881 16.5764 12.404C16.5764 12.4199 16.5764 12.4359 16.5764 12.4518C16.5764 12.4598 16.5764 12.4758 16.5764 12.4837C16.5764 12.4997 16.5764 12.5156 16.5764 12.5316V12.3163C16.8794 12.3881 17.4216 12.5395 17.8282 12.707C17.9956 12.7788 18.1631 12.8585 18.3226 12.9382C18.3305 12.9382 18.3465 12.9462 18.3624 12.9621C18.3624 12.9621 18.3704 12.9621 18.3704 12.9701C18.3863 12.9781 18.4023 12.9861 18.4182 13.002C18.4422 13.018 18.4661 13.0259 18.49 13.0419H18.498C18.6016 13.0977 18.7133 13.1694 18.7611 13.1934C18.7691 13.1934 18.7691 13.2013 18.7691 13.2013L18.777 13.2093C18.7691 13.1934 18.7611 13.1774 18.7452 13.1535C18.7452 13.1535 18.7451 13.1455 18.7372 13.1455C18.3784 12.4279 17.8123 11.814 17.1345 11.3993C16.4648 10.9927 15.6834 10.7615 14.902 10.7615C12.9564 10.7615 11.3059 12.0771 10.7717 13.8791C11.282 13.4405 11.8481 13.0738 12.4541 12.8027C13.1797 12.4678 13.9531 12.2685 14.7265 12.2047Z"
        fill="black"/>
    <path
        d="M20.9538 12.8027C21.2967 12.4678 21.7512 12.1967 22.2455 12.1967C22.6362 12.1967 23.011 12.3562 23.3538 12.6432C23.3857 12.6671 23.4176 12.699 23.4495 12.7229C23.4654 12.7389 23.4894 12.7548 23.5053 12.7708C23.5532 12.8186 23.601 12.8665 23.6488 12.9223V12.9143C23.2741 11.8219 22.6761 11.1123 21.9983 11.1123C21.0973 11.1123 20.3319 12.3562 20.0608 14.0944C20.284 13.6319 20.5791 13.1694 20.9538 12.8027Z"
        fill="black"/>
    <path
        d="M12.9964 23.8299C13.0761 23.8618 13.1479 23.8857 13.2276 23.9096C14.0967 24.2126 15.0296 24.38 16.0024 24.38C17.1107 24.38 18.1711 24.1648 19.1359 23.7741C19.1837 23.7501 19.2396 23.7342 19.2874 23.7103C19.3671 23.6784 19.4548 23.6385 19.5346 23.5986C19.6063 23.5668 19.6781 23.5349 19.7499 23.495C19.7339 23.495 19.718 23.503 19.702 23.503C19.399 23.5349 19.104 23.5428 18.809 23.495C17.0788 23.2478 16.696 22.4106 16.7519 21.5495C16.6243 21.4777 16.5047 21.398 16.3691 21.3023C15.0376 20.3375 14.2482 19.3089 14.2482 19.3089C14.2482 19.3089 15.2768 20.0983 16.8077 20.6963C16.8396 20.7123 16.8715 20.7202 16.9033 20.7362C16.9751 20.489 17.0628 20.2498 17.1346 20.0425C17.1426 20.0186 17.1505 19.9947 17.1585 19.9707C17.2462 19.7315 17.3419 19.4923 17.4455 19.2611C17.8283 18.384 18.2987 17.5309 18.5299 16.598L18.6416 16.0717H17.7007V16.0797C17.7007 16.2392 17.6688 16.3827 17.613 16.5182C17.5811 16.582 17.5492 16.6538 17.5093 16.7096C17.4296 16.8292 17.3259 16.9329 17.2063 17.0126C17.1426 17.0525 17.0788 17.0844 17.015 17.1163C16.8794 17.1721 16.7279 17.204 16.5764 17.204C16.5366 17.204 16.4967 17.204 16.4568 17.196C16.4489 17.196 16.4409 17.196 16.4329 17.188C16.401 17.188 16.3771 17.18 16.3452 17.1721C16.3372 17.1721 16.3293 17.1641 16.3213 17.1641C16.2894 17.1561 16.2655 17.1481 16.2336 17.1402C16.2256 17.1402 16.2256 17.1402 16.2176 17.1322C16.1857 17.1242 16.1538 17.1083 16.1299 17.1003H16.122C16.0901 17.0844 16.0582 17.0684 16.0263 17.0525C15.9306 16.9966 15.8429 16.9329 15.7632 16.8452L12.5259 16.0558H8.99371C8.97777 16.0797 8.96182 16.1116 8.94587 16.1355C8.92195 16.1834 8.89006 16.2312 8.86614 16.287C8.80235 16.4066 8.73856 16.5342 8.68275 16.6538C8.65883 16.6937 8.64288 16.7415 8.61896 16.7814C8.5472 16.9408 8.48342 17.1003 8.41963 17.2598C8.41963 17.2677 8.41165 17.2757 8.41165 17.2837C8.33989 17.4671 8.27611 17.6584 8.22029 17.8498C8.14853 18.089 8.08474 18.3362 8.02893 18.5834C8.58707 20.2817 9.66348 21.7408 11.0828 22.7614C11.1226 22.7933 11.1705 22.8172 11.2103 22.8491C11.4495 23.0166 11.6967 23.1761 11.9519 23.3116C12.2867 23.5189 12.6376 23.6864 12.9964 23.8299Z"
        fill="white"/>
    <path
        d="M18.793 21.2146C18.777 21.3023 18.769 21.3901 18.769 21.4778C18.7611 21.6293 18.777 21.7808 18.8009 21.9163C18.8169 22.012 18.8328 22.0997 18.8567 22.1874C18.8966 22.315 18.9365 22.4346 18.9923 22.5462C19.0481 22.6578 19.1039 22.7615 19.1597 22.8492C19.1757 22.8811 19.1996 22.913 19.2156 22.9369C19.2474 22.9768 19.2714 23.0166 19.3033 23.0565C19.3431 23.1043 19.383 23.1522 19.4149 23.192C19.5664 23.3675 19.694 23.4631 19.694 23.4631C19.694 23.4631 19.694 23.4631 19.694 23.4711C19.694 23.4791 19.694 23.4871 19.7019 23.495C19.7179 23.495 19.7338 23.4871 19.7498 23.4871C20.1245 23.4392 20.4993 23.3356 20.874 23.208C21.0654 23.1362 21.2567 23.0645 21.4401 22.9847C21.496 22.9608 21.5518 22.9289 21.6076 22.905C23.5292 21.9721 25.1398 20.3296 25.1398 20.3296C22.7318 21.5176 20.3637 21.4698 18.793 21.2146Z"
        fill="#9F2255"/>
    <path
        d="M23.4336 17.9773C23.2821 17.778 23.1226 17.5787 22.9711 17.3793C22.9632 17.3714 22.9552 17.3554 22.9472 17.3474C22.7798 17.1401 22.6123 16.9328 22.4449 16.7255L22.4369 16.7175C22.2615 16.5023 22.0861 16.295 21.9107 16.0876C21.9027 16.0717 21.8867 16.0637 21.8788 16.0478C21.7671 15.9202 21.6555 15.8006 21.5439 15.673C21.504 15.6332 21.4641 15.5853 21.4243 15.5455C21.3286 15.4418 21.2409 15.3461 21.1452 15.2425C21.0735 15.1627 20.9937 15.091 20.922 15.0112C20.8502 14.9395 20.7784 14.8677 20.7067 14.796C20.5552 14.6445 20.3957 14.493 20.2362 14.3494C20.1645 14.2857 20.0927 14.2219 20.021 14.1581C20.1725 14.5966 20.3479 15.0352 20.4356 15.4896C20.4595 15.6092 20.4754 15.7209 20.4914 15.8325C20.7067 17.4033 20.1964 18.4318 19.399 19.7873C19.3432 19.883 19.2794 19.9867 19.2236 20.0823C19.0402 20.3853 18.9206 20.6803 18.8568 20.9514C18.8329 21.0391 18.817 21.1269 18.801 21.2146C20.3718 21.4697 22.7319 21.5175 25.1479 20.3295C25.1479 20.3295 24.6774 19.6358 23.9598 18.679C23.8004 18.4637 23.6409 18.2484 23.4814 18.0411C23.4655 18.0172 23.4495 17.9933 23.4336 17.9773Z"
        fill="#E2066F"/>
    <path
        d="M19.694 23.479C19.694 23.479 19.5744 23.3834 19.4149 23.2079C19.3751 23.1681 19.3432 23.1202 19.3033 23.0724C19.2714 23.0325 19.2475 22.9927 19.2156 22.9528C19.1997 22.9209 19.1757 22.897 19.1598 22.8651C19.104 22.7694 19.0482 22.6737 18.9924 22.5621C18.9445 22.4505 18.8967 22.3309 18.8568 22.2033C18.8329 22.1156 18.809 22.0279 18.801 21.9322C18.7771 21.7966 18.7691 21.6452 18.7691 21.4937C18.7691 21.4059 18.7771 21.3182 18.793 21.2305C18.809 21.1428 18.8249 21.0551 18.8488 20.9674C18.9206 20.6963 19.0322 20.4093 19.2156 20.0983C19.2714 19.9947 19.3352 19.899 19.391 19.8033C20.1884 18.4478 20.6987 17.4272 20.4834 15.8485C20.4674 15.7368 20.4515 15.6172 20.4276 15.5056C20.4196 15.5853 20.4037 15.6571 20.3877 15.7129C20.3877 15.7209 20.3877 15.7209 20.3877 15.7289C20.3797 15.7687 20.3718 15.8006 20.3638 15.8246C20.013 16.8531 19.4389 17.6584 18.6495 18.5116C18.5458 18.6312 18.4342 18.7428 18.3146 18.8624C18.1233 19.0618 17.9159 19.2691 17.7086 19.4764C17.6209 19.5641 17.5332 19.6438 17.4455 19.7315C17.3658 19.8113 17.2541 19.9229 17.1345 20.0505C17.0628 20.2578 16.9751 20.497 16.9033 20.7442C16.8714 20.7282 16.8395 20.7202 16.8076 20.7043C15.2767 20.1143 14.2482 19.3169 14.2482 19.3169C14.2482 19.3169 15.0375 20.3455 16.3691 21.3103C16.4967 21.4059 16.6242 21.4857 16.7518 21.5574C16.696 22.4265 17.0787 23.2558 18.809 23.503C19.104 23.5428 19.399 23.5428 19.702 23.5109C19.702 23.495 19.694 23.487 19.694 23.479Z"
        fill="black"/>
</svg>
