<svg id="orchid" width="32" height="32" viewBox="0 0 32 32" fill="none" xmlns="http://www.w3.org/2000/svg">
<path d="M23 13L16 6H10C9.20435 6 8.44129 6.31607 7.87868 6.87868C7.31607 7.44129 7 8.20435 7 9V23C7 23.7956 7.31607 24.5587 7.87868 25.1213C8.44129 25.6839 9.20435 26 10 26H20C20.7956 26 21.5587 25.6839 22.1213 25.1213C22.6839 24.5587 23 23.7956 23 23V13Z" fill="#E8C9FA"/>
<path d="M23 13H18C17.4696 13 16.9609 12.7893 16.5858 12.4142C16.2107 12.0391 16 11.5304 16 11V6L23 13ZM24 22.254H21.75C21.4848 22.254 21.2304 22.1486 21.0429 21.9611C20.8554 21.7736 20.75 21.5192 20.75 21.254C20.75 20.9888 20.8554 20.7344 21.0429 20.5469C21.2304 20.3594 21.4848 20.254 21.75 20.254H23V19.004C23 18.7388 23.1054 18.4844 23.2929 18.2969C23.4804 18.1094 23.7348 18.004 24 18.004C24.2652 18.004 24.5196 18.1094 24.7071 18.2969C24.8946 18.4844 25 18.7388 25 19.004V21.254C25 21.5192 24.8946 21.7736 24.7071 21.9611C24.5196 22.1486 24.2652 22.254 24 22.254Z" fill="#C880F2"/>
<path d="M21 26.0041C20.2516 26.0047 19.518 25.7952 18.8826 25.3996C18.2473 25.004 17.7357 24.4381 17.406 23.7662C17.0763 23.0943 16.9417 22.3433 17.0176 21.5987C17.0934 20.8542 17.3766 20.1458 17.8351 19.5542C18.2935 18.9625 18.9087 18.5114 19.6107 18.252C20.3128 17.9926 21.0735 17.9354 21.8065 18.0869C22.5394 18.2383 23.2152 18.5924 23.7569 19.1088C24.2986 19.6252 24.6846 20.2832 24.871 21.0081C24.9091 21.1371 24.9208 21.2726 24.9054 21.4063C24.89 21.5399 24.8477 21.6691 24.7811 21.7861C24.7146 21.9031 24.6251 22.0054 24.5181 22.0869C24.411 22.1685 24.2886 22.2276 24.1582 22.2608C24.0278 22.2939 23.892 22.3003 23.759 22.2798C23.626 22.2592 23.4985 22.2119 23.3842 22.1409C23.2699 22.0699 23.1711 21.9765 23.0938 21.8664C23.0164 21.7563 22.9621 21.6317 22.934 21.5001C22.8246 21.0777 22.5803 20.7027 22.2381 20.432C21.896 20.1613 21.4748 20.0098 21.0386 20.0005C20.6024 19.9912 20.1751 20.1246 19.8218 20.3805C19.4684 20.6364 19.2083 21.0007 19.081 21.418C18.9537 21.8353 18.9663 22.2827 19.1167 22.6922C19.2671 23.1018 19.5472 23.451 19.9143 23.6867C20.2814 23.9224 20.7155 24.0317 21.1505 23.998C21.5855 23.9644 21.9975 23.7895 22.324 23.5001C22.423 23.4138 22.5381 23.3479 22.6626 23.3061C22.7871 23.2642 22.9186 23.2474 23.0496 23.2564C23.1806 23.2654 23.3086 23.3001 23.4262 23.3586C23.5438 23.417 23.6487 23.4981 23.735 23.5971C23.8213 23.6961 23.8872 23.8112 23.929 23.9356C23.9708 24.0601 23.9877 24.1917 23.9787 24.3227C23.9697 24.4537 23.935 24.5817 23.8765 24.6993C23.8181 24.8169 23.737 24.9218 23.638 25.0081C22.9079 25.6479 21.9708 26.0017 21 26.0041ZM14 21.9961H12C11.7348 21.9961 11.4804 21.8907 11.2929 21.7032C11.1054 21.5157 11 21.2613 11 20.9961C11 20.7309 11.1054 20.4765 11.2929 20.289C11.4804 20.1014 11.7348 19.9961 12 19.9961H14C14.2652 19.9961 14.5196 20.1014 14.7071 20.289C14.8946 20.4765 15 20.7309 15 20.9961C15 21.2613 14.8946 21.5157 14.7071 21.7032C14.5196 21.8907 14.2652 21.9961 14 21.9961ZM17 17.9961H12C11.7348 17.9961 11.4804 17.8907 11.2929 17.7032C11.1054 17.5157 11 17.2613 11 16.9961C11 16.7309 11.1054 16.4765 11.2929 16.289C11.4804 16.1015 11.7348 15.9961 12 15.9961H17C17.2652 15.9961 17.5196 16.1015 17.7071 16.289C17.8946 16.4765 18 16.7309 18 16.9961C18 17.2613 17.8946 17.5157 17.7071 17.7032C17.5196 17.8907 17.2652 17.9961 17 17.9961ZM13 13.9961H12C11.7348 13.9961 11.4804 13.8907 11.2929 13.7032C11.1054 13.5157 11 13.2613 11 12.9961C11 12.7309 11.1054 12.4765 11.2929 12.289C11.4804 12.1015 11.7348 11.9961 12 11.9961H13C13.2652 11.9961 13.5196 12.1015 13.7071 12.289C13.8946 12.4765 14 12.7309 14 12.9961C14 13.2613 13.8946 13.5157 13.7071 13.7032C13.5196 13.8907 13.2652 13.9961 13 13.9961Z" fill="#C880F2"/>
</svg>
