<svg id="orchid" width="32" height="32" viewBox="0 0 32 32" fill="none" xmlns="http://www.w3.org/2000/svg">
    <g clip-path="url(#clip0_901_535)">
        <path
            d="M21 26H11C10.2044 26 9.44132 25.6839 8.87871 25.1213C8.3161 24.5587 8.00003 23.7956 8.00003 23V13C8.00003 12.4695 8.21074 11.9608 8.58582 11.5858C8.96089 11.2107 9.4696 11 10 11H22C22.5305 11 23.0392 11.2107 23.4142 11.5858C23.7893 11.9608 24 12.4695 24 13V23C24 23.7956 23.684 24.5587 23.1214 25.1213C22.5587 25.6839 21.7957 26 21 26Z"
            fill="#E8C9FA"/>
        <path
            d="M19 15C18.7348 15 18.4804 14.8946 18.2929 14.7071C18.1054 14.5196 18 14.2652 18 14V10C18 9.46957 17.7893 8.96086 17.4142 8.58579C17.0391 8.21071 16.5304 8 16 8C15.4696 8 14.9609 8.21071 14.5858 8.58579C14.2107 8.96086 14 9.46957 14 10V14C14 14.2652 13.8946 14.5196 13.7071 14.7071C13.5196 14.8946 13.2652 15 13 15C12.7348 15 12.4804 14.8946 12.2929 14.7071C12.1054 14.5196 12 14.2652 12 14V10C12 8.93913 12.4214 7.92172 13.1716 7.17157C13.9217 6.42143 14.9391 6 16 6C17.0609 6 18.0783 6.42143 18.8284 7.17157C19.5786 7.92172 20 8.93913 20 10V14C20 14.2652 19.8946 14.5196 19.7071 14.7071C19.5196 14.8946 19.2652 15 19 15Z"
            fill="#C880F2"/>
    </g>
    <defs>
        <clipPath id="clip0_901_535">
            <rect width="16" height="20" fill="white" transform="translate(8 6)"/>
        </clipPath>
    </defs>
</svg>
