<svg id="orchid" width="32" height="33" viewBox="0 0 32 33" fill="none" xmlns="http://www.w3.org/2000/svg">
    <g clip-path="url(#clip0_1194_985)">
        <path
            d="M17.8086 11.458C17.3263 11.6992 17.1173 12.1494 17.1173 13.3712C17.1173 13.3712 17.3585 13.1301 17.7443 12.9854C18.0257 12.8809 18.2266 12.7442 18.3713 12.6397C18.7893 12.3262 18.8536 11.9484 18.8536 11.2892C18.8456 11.2892 18.1864 11.249 17.8086 11.458Z"
            fill="#FBBD71"/>
        <path
            d="M14.8585 11.7395C14.4405 12.0851 14.336 12.68 14.336 12.68L12.9855 17.8568L11.8762 13.6205C11.7717 13.1703 11.5627 12.6157 11.2492 12.2298C10.8633 11.7395 10.0595 11.7073 9.96302 11.7073C9.89068 11.7073 9.09486 11.7395 8.67685 12.2298C8.36334 12.6157 8.15434 13.1703 8.04984 13.6205L7.00482 17.8568L5.65434 12.68C5.65434 12.68 5.54984 12.1253 5.13183 11.7395C4.47267 11.1446 3.5 11.2893 3.5 11.2893L6.07235 20.9758C6.07235 20.9758 6.90836 21.0481 7.32637 20.8391C7.88103 20.5578 8.16238 20.3568 8.47588 19.0305C8.78939 17.8488 9.6254 14.4083 9.68971 14.1671C9.72187 14.0626 9.79421 13.7491 10.0032 13.7491C10.2122 13.7491 10.2846 14.0305 10.3167 14.1671C10.3891 14.4083 11.217 17.8488 11.5305 19.0305C11.8762 20.3488 12.1174 20.5578 12.6801 20.8391C13.0981 21.0481 13.9341 20.9758 13.9341 20.9758L16.4904 11.2893C16.4904 11.2893 15.5177 11.1526 14.8585 11.7395Z"
            fill="black"/>
        <path
            d="M18.8457 12.8488C18.8457 12.8488 18.6689 13.0899 18.3232 13.2989C18.082 13.4356 17.873 13.5079 17.6319 13.6446C17.2139 13.8536 17.1094 14.0626 17.1094 14.3761V14.4806V15.0031V15.1076V20.9436C17.1094 20.9436 17.7685 21.016 18.1865 20.807C18.7412 20.5256 18.8457 20.2523 18.8457 19.0706V13.2346V12.8488Z"
            fill="black"/>
        <path
            d="M25.2363 16.1527L28.5 11.3215C28.5 11.3215 27.1495 11.0803 26.4501 11.7073C26 12.0932 25.5498 12.8166 25.5498 12.8166L24.3681 14.553C24.2958 14.6575 24.2315 14.7298 24.127 14.7298C24.0225 14.7298 23.918 14.6253 23.8858 14.553L22.7041 12.8166C22.7041 12.8166 22.2218 12.1253 21.8038 11.7073C21.1125 11.0803 19.754 11.3215 19.754 11.3215L22.9132 16.1446L19.6816 20.9678C19.6816 20.9678 21.1045 21.1446 21.8038 20.5176C22.254 20.1318 22.672 19.4726 22.672 19.4726L23.8537 17.7363C23.926 17.6318 23.9903 17.5594 24.0948 17.5594C24.1993 17.5594 24.3038 17.6639 24.336 17.7363L25.5177 19.4726C25.5177 19.4726 25.9678 20.1318 26.3858 20.5176C27.0771 21.1446 28.4678 20.9678 28.4678 20.9678L25.2363 16.1527Z"
            fill="black"/>
    </g>
    <defs>
        <clipPath id="clip0_1194_985">
            <rect width="25" height="9.72669" fill="white" transform="translate(3.5 11.2732)"/>
        </clipPath>
    </defs>
</svg>
