<svg id="orchid" width="32" height="32" viewBox="0 0 32 32" fill="none" xmlns="http://www.w3.org/2000/svg">
    <path
        d="M16 28C22.6275 28 28 22.6275 28 16C28 9.37258 22.6275 4 16 4C9.37258 4 4 9.37258 4 16C4 22.6275 9.37258 28 16 28Z"
        fill="#1AB4D7"/>
    <path
        d="M21.9187 15.9648C21.9187 16.3325 22.2176 16.6316 22.5858 16.6316C22.953 16.6316 23.2521 16.3325 23.2521 15.9648C23.2521 15.5971 22.953 15.298 22.5858 15.298C22.2176 15.298 21.9187 15.5971 21.9187 15.9648Z"
        fill="white"/>
    <path fill-rule="evenodd" clip-rule="evenodd"
          d="M22.5851 18.6553C21.1015 18.6553 19.8945 17.4484 19.8945 15.9651C19.8945 14.4815 21.1015 13.2743 22.5851 13.2743C24.0687 13.2743 25.2763 14.4815 25.2763 15.9651C25.2763 17.4484 24.0687 18.6553 22.5851 18.6553ZM22.5851 14.034C21.5202 14.034 20.6541 14.9003 20.6541 15.9651C20.6541 17.0296 21.5202 17.8955 22.5851 17.8955C23.6494 17.8955 24.5158 17.0296 24.5158 15.9651C24.5158 14.9003 23.6494 14.034 22.5851 14.034Z"
          fill="white"/>
    <path
        d="M9.74426 15.9655L11.7922 13.9125C11.86 13.8433 11.8979 13.7517 11.8979 13.6546C11.8979 13.4521 11.7333 13.2876 11.5308 13.2876C11.4322 13.2876 11.3397 13.3263 11.27 13.3969L9.22393 15.4419L7.16873 13.3938C7.09928 13.3253 7.00726 13.2876 6.90969 13.2876C6.70744 13.2876 6.54279 13.452 6.54279 13.6543C6.54279 13.7529 6.58218 13.8455 6.65289 13.9153L8.70051 15.9626L6.65395 18.013C6.58202 18.0839 6.54279 18.1767 6.54279 18.2758C6.54279 18.4782 6.70744 18.6425 6.90969 18.6425C7.00742 18.6425 7.09953 18.6046 7.16873 18.5353L9.22075 16.4861L11.265 18.5278C11.3375 18.6028 11.431 18.6427 11.5308 18.6427C11.7331 18.6427 11.8977 18.4782 11.8977 18.2758C11.8977 18.1781 11.8599 18.0863 11.791 18.0171L9.74426 15.9655Z"
        fill="white"/>
    <path
        d="M19.7034 13.3203L19.5906 13.32C19.2517 13.32 18.9248 13.4269 18.6518 13.6373C18.6158 13.4727 18.4687 13.3488 18.2934 13.3488C18.0917 13.3488 17.9301 13.5104 17.9296 13.7126L17.9308 18.2442C17.9314 18.446 18.0959 18.61 18.2978 18.61C18.4996 18.61 18.6641 18.446 18.6646 18.2438L18.6648 15.4574C18.6648 14.5287 18.7497 14.1536 19.5452 14.0542C19.6172 14.0452 19.6953 14.0464 19.6989 14.0465C19.9166 14.039 20.0714 13.8894 20.0714 13.6872C20.0714 13.485 19.9063 13.3203 19.7034 13.3203Z"
        fill="white"/>
    <path fill-rule="evenodd" clip-rule="evenodd"
          d="M15.9936 13.6944C16.6177 14.0893 17.0275 14.7042 17.1857 15.4528C17.2637 15.8767 16.9811 16.2473 16.4561 16.2583L12.6261 16.2589C12.6269 16.2765 12.6287 16.2957 12.6312 16.3155C12.6503 16.4216 12.6776 16.5246 12.7131 16.6239C12.9162 17.1556 13.4873 17.9006 14.5546 17.9125C14.8807 17.9107 15.1874 17.8285 15.4566 17.6847C15.6681 17.5666 15.8446 17.4142 15.9869 17.257C16.0341 17.2006 16.077 17.1443 16.1155 17.0895C16.2944 16.8603 16.5218 16.9024 16.6573 17.0062C16.8179 17.1293 16.845 17.387 16.6989 17.5683C16.6964 17.5713 16.6939 17.574 16.6914 17.5767C16.6896 17.5786 16.6879 17.5805 16.6861 17.5826C16.4755 17.8467 16.2581 18.0673 15.9978 18.2346C15.747 18.3953 15.4749 18.5093 15.1937 18.5778C14.8664 18.6625 14.5503 18.6813 14.2256 18.642C13.1313 18.5081 12.2134 17.6999 11.942 16.6322C11.8878 16.4175 11.8617 16.1994 11.8617 15.9834C11.8617 15.1217 12.2767 14.2852 12.9954 13.7739C13.8766 13.1473 15.0813 13.1152 15.9936 13.6944ZM12.6588 15.4997C12.6584 15.5073 12.658 15.5148 12.658 15.5221H16.4343C16.2321 14.6645 15.4625 14.026 14.5432 14.026C13.6349 14.026 12.8723 14.6492 12.6592 15.4913C12.6591 15.4941 12.659 15.4969 12.6588 15.4997Z"
          fill="white"/>
</svg>
