<svg width="32" height="32" viewBox="0 0 32 32" fill="none" xmlns="http://www.w3.org/2000/svg">
<path d="M14.2761 17.724L16 19.4479L17.7239 17.724C18.2445 17.2034 19.0888 17.2034 19.6095 17.724C20.1301 18.2447 20.1301 19.089 19.6095 19.6096L16.9428 22.2763C16.4221 22.797 15.5779 22.797 15.0572 22.2763L12.3905 19.6096C11.8698 19.089 11.8698 18.2447 12.3905 17.724C12.9112 17.2034 13.7555 17.2034 14.2761 17.724ZM14.2761 14.2763L16 12.5524L17.7239 14.2763C18.2445 14.797 19.0888 14.797 19.6095 14.2763C20.1301 13.7556 20.1301 12.9114 19.6095 12.3907L16.9428 9.72402C16.4221 9.20332 15.5779 9.20332 15.0572 9.72402L12.3905 12.3907C11.8698 12.9114 11.8698 13.7556 12.3905 14.2763C12.9112 14.797 13.7555 14.797 14.2761 14.2763Z" fill="#8093B8"/>
</svg>
