<svg xmlns="http://www.w3.org/2000/svg"  id="orchid"  fill="currentColor" viewBox="0 0 24 25">
  <g  clip-path="url(#a)">
    <g >
      <path fill="currentColor" d="m12.67 2.717 8.5 4.75A1.5 1.5 0 0 1 22 8.81v1.441c0 .69-.56 1.25-1.25 1.25H20v8h1a1 1 0 1 1 0 2H3a1 1 0 1 1 0-2h1v-8h-.75c-.69 0-1.25-.56-1.25-1.25V8.81c0-.522.27-1.002.706-1.274l8.623-4.819a1.5 1.5 0 0 1 1.342 0ZM18 11.5H6v8h3v-6h2v6h2v-6h2v6h3v-8Zm-6-6.882-8 4.5V9.5h16v-.382l-8-4.5ZM12 6.5a1 1 0 1 1 0 2 1 1 0 0 1 0-2Z" />
    </g>
  </g>
  <defs>
    <clipPath id="a" >
      <path fill="#fff" d="M0 .5h24v24H0z"/>
    </clipPath>
  </defs>
</svg>
