<svg xmlns="http://www.w3.org/2000/svg"  id="orchid"  fill="currentColor" viewBox="0 0 24 25">
  <g  clip-path="url(#a)">
    <g >
      <path fill="currentColor" fill-rule="evenodd" d="m11 15.048 2 2v2.596l1.483-1.113 1.429 1.429-3.296 2.472a1.01 1.01 0 0 1-1.61-.697L11 21.624v-6.576Zm1.524-12.254.092.062 5.877 4.408a1.1 1.1 0 0 1 .104 1.672l-.104.088-4.97 3.728 6.962 6.963a1 1 0 0 1-1.32 1.497l-.094-.083L3.515 5.573a1 1 0 0 1 1.32-1.498l.094.083L11 10.23V3.664a1.01 1.01 0 0 1 1.524-.87ZM9.34 13.388l1.428 1.429L6.6 17.944a1 1 0 0 1-1.296-1.519l.096-.081 3.94-2.956ZM13 5.644v5l3.332-2.5L13 5.644Z"  clip-rule="evenodd"/>
    </g>
  </g>
  <defs>
    <clipPath id="a" >
      <path fill="#fff" d="M0 .644h24v24H0z"/>
    </clipPath>
  </defs>
</svg>
