<svg xmlns="http://www.w3.org/2000/svg"  id="orchid"  fill="currentColor" viewBox="0 0 24 25">
  <g  clip-path="url(#a)">
    <g >
      <path fill="currentColor" d="M17 2.5a2 2 0 0 1 1.994 1.85L19 4.5v16a2 2 0 0 1-1.85 1.994L17 22.5H7a2 2 0 0 1-1.995-1.85L5 20.5v-16a2 2 0 0 1 1.85-1.995L7 2.5h10Zm0 2H7v16h10v-16Zm-4.5 12a.5.5 0 0 1 .492.41L13 17v1a.5.5 0 0 1-.41.492l-.09.008h-1a.5.5 0 0 1-.492-.41L11 18v-1a.5.5 0 0 1 .41-.492l.09-.008h1Z" />
    </g>
  </g>
  <defs>
    <clipPath id="a" >
      <path fill="#fff" d="M0 .5h24v24H0z"/>
    </clipPath>
  </defs>
</svg>
