<svg id="orchid" viewBox="0 0 24 24" fill="none" xmlns="http://www.w3.org/2000/svg">
<g clip-path="url(#clip0_102_3647)">
<path fill-rule="evenodd" clip-rule="evenodd" d="M12 2C8.13401 2 5 5.13401 5 9V10.0354C3.30385 10.2781 2 11.7368 2 13.5V13.75C2 15.5449 3.45507 17 5.25 17C6.2165 17 7 16.2165 7 15.25V9C7 6.23858 9.23858 4 12 4C14.7614 4 17 6.23858 17 9V15C17 16.6885 16.0035 17.9919 14.7065 18.6086C14.4333 18.2394 13.9946 18 13.5 18H12.5C11.6716 18 11 18.6716 11 19.5C11 20.3284 11.6716 21 12.5 21C12.6169 21 12.7376 21.0046 12.8601 21.0093C13.2501 21.0242 13.6578 21.0398 14.0149 20.9093C16.0464 20.5467 17.9274 19.118 18.6678 16.9981C18.695 16.9994 18.7224 17 18.75 17C20.5449 17 22 15.5449 22 13.75V13.5C22 11.7368 20.6961 10.2781 19 10.0354V9C19 5.13401 15.866 2 12 2ZM4 13.5C4 12.8469 4.4174 12.2913 5 12.0854V14.975C4.42944 14.8592 4 14.3547 4 13.75V13.5ZM19 14.975V12.0854C19.5826 12.2913 20 12.8469 20 13.5V13.75C20 14.3547 19.5706 14.8592 19 14.975ZM9.70826 14.5467C10.4144 14.8388 11.1884 14.9999 12 14.9999C12.8117 14.9999 13.5857 14.8388 14.2918 14.5467C14.8025 14.3355 15.4181 14.4689 15.711 14.9375C16.0035 15.4055 15.8637 16.0286 15.363 16.2609C14.3406 16.7352 13.2012 16.9999 12 16.9999C10.7988 16.9999 9.65942 16.7352 8.63705 16.2609C8.13639 16.0286 7.99651 15.4056 8.28903 14.9375C8.58194 14.4689 9.19756 14.3355 9.70826 14.5467Z" fill="currentColor"/>
</g>
<defs>
<clipPath id="clip0_102_3647">
<rect width="24" height="24" fill="currentColor"/>
</clipPath>
</defs>
</svg>
