<svg xmlns="http://www.w3.org/2000/svg" id="orchid" fill="currentColor" viewBox="0 0 24 25">
  <g  clip-path="url(#a)">
    <g >
      <path fill="currentColor" d="M13.586 2.644A2 2 0 0 1 15 3.23l4.414 4.414A2 2 0 0 1 20 9.058v11.586a2 2 0 0 1-2 2H6a2 2 0 0 1-2-2v-16a2 2 0 0 1 2-2h7.586Zm-1.586 2H6v16h12v-10h-4.5a1.5 1.5 0 0 1-1.5-1.5v-4.5Zm3 10a1 1 0 1 1 0 2H9a1 1 0 1 1 0-2h6Zm-5-4a1 1 0 1 1 0 2H9a1 1 0 1 1 0-2h1Zm4-5.586v3.586h3.586L14 5.058Z" />
    </g>
  </g>
  <defs>
    <clipPath id="a" >
      <path fill="#fff" d="M0 .644h24v24H0z"/>
    </clipPath>
  </defs>
</svg>
