<svg xmlns="http://www.w3.org/2000/svg" id="orchid" fill="currentColor" viewBox="0 0 24 24">
  <g  clip-path="url(#a)">
    <g >
      <path fill="currentColor" d="M2.222 11.121a1 1 0 0 1 1.32-.083l.094.083 4.242 4.243a1 1 0 0 1-1.32 1.497l-.094-.083-4.242-4.242a1 1 0 0 1 0-1.415Zm20.556-5.656a1 1 0 0 1 .083 1.32l-.083.094-9.829 9.828a1.1 1.1 0 0 1-1.46.086l-.096-.085-4.171-4.172a1 1 0 0 1 1.32-1.498l.094.083 3.535 3.536 9.193-9.192a1 1 0 0 1 1.414 0Zm-5 0a1 1 0 0 1 .083 1.32l-.083.094-4.95 4.95a1 1 0 0 1-1.497-1.32l.083-.095 4.95-4.95a1 1 0 0 1 1.414 0Z" />
    </g>
  </g>
  <defs>
    <clipPath id="a" >
      <path fill="#fff" d="M0 0h24v24H0z"/>
    </clipPath>
  </defs>
</svg>
