<svg xmlns="http://www.w3.org/2000/svg" id="orchid" fill="currentColor" viewBox="0 0 25 25">
  <g  clip-path="url(#a)">
    <g >
      <path fill="currentColor" fill-rule="evenodd" d="M12.76 2.5c5.523 0 10 4.477 10 10s-4.477 10-10 10-10-4.477-10-10 4.477-10 10-10Zm1.482 14.94a18.214 18.214 0 0 1-2.964 0c.093.397.197.765.309 1.102.252.755.53 1.293.79 1.622.127.162.231.248.3.29l.052.027.03.009.032-.008.051-.027a1.21 1.21 0 0 0 .3-.29c.26-.33.539-.868.79-1.623.113-.337.217-.705.31-1.102Zm-8.676-1.435a8.026 8.026 0 0 0 4.442 4.01 10.528 10.528 0 0 1-.318-.84 15.818 15.818 0 0 1-.52-2.033 17.87 17.87 0 0 1-3.604-1.137Zm14.387 0c-1.144.5-2.35.883-3.604 1.137-.141.74-.316 1.423-.52 2.034-.097.29-.203.572-.318.838a8.027 8.027 0 0 0 4.442-4.01Zm-5.217-4.634a15.119 15.119 0 0 1-3.952 0 26.02 26.02 0 0 0 .141 4.025 16.195 16.195 0 0 0 3.67 0c.106-.898.165-1.872.165-2.896 0-.384-.008-.76-.024-1.13ZM5.328 9.532a7.979 7.979 0 0 0-.52 3.856 15.893 15.893 0 0 0 4.067 1.637 27.889 27.889 0 0 1-.074-4.053 14.915 14.915 0 0 1-3.473-1.44Zm14.863 0a14.915 14.915 0 0 1-3.473 1.44 27.879 27.879 0 0 1-.073 4.053 15.892 15.892 0 0 0 4.066-1.637 7.978 7.978 0 0 0-.52-3.855Zm-7.415-5.02-.012-.002-.02.003-.037.015a1.233 1.233 0 0 0-.33.307c-.26.33-.538.868-.79 1.622-.27.808-.489 1.8-.633 2.919a13.123 13.123 0 0 0 3.612 0c-.145-1.12-.364-2.111-.633-2.919-.252-.754-.53-1.293-.79-1.622a1.233 1.233 0 0 0-.3-.29l-.067-.032Zm-2.768.474a8.022 8.022 0 0 0-3.71 2.797c.843.484 1.746.876 2.695 1.163.16-1.164.397-2.223.697-3.122.097-.291.203-.572.318-.838Zm5.504 0c.114.266.22.547.318.838.3.9.537 1.958.696 3.122.95-.287 1.852-.679 2.696-1.163a8.021 8.021 0 0 0-3.71-2.797Z"  clip-rule="evenodd"/>
    </g>
  </g>
  <defs>
    <clipPath id="a" >
      <path fill="#fff" d="M.76.5h24v24h-24z"/>
    </clipPath>
  </defs>
</svg>
