<svg width="83" height="80" viewBox="0 0 83 80" fill="none" xmlns="http://www.w3.org/2000/svg">
<rect x="0.5" width="80" height="80" rx="40" fill="#002771" fill-opacity="0.04"/>
<g clip-path="url(#clip0_9182_11675)">
<path fill-rule="evenodd" clip-rule="evenodd" d="M27.1667 26.6666C27.1667 24.8256 28.6591 23.3333 30.5 23.3333H50.5C52.341 23.3333 53.8333 24.8256 53.8333 26.6666V53.3333C53.8333 55.1743 52.341 56.6666 50.5 56.6666H30.5C28.6591 56.6666 27.1667 55.1743 27.1667 53.3333V26.6666ZM50.5 26.6666H30.5V53.3333H50.5V26.6666ZM33.8333 34.9999C33.8333 34.0795 34.5795 33.3333 35.5 33.3333H45.5C46.4205 33.3333 47.1667 34.0795 47.1667 34.9999C47.1667 35.9204 46.4205 36.6666 45.5 36.6666H35.5C34.5795 36.6666 33.8333 35.9204 33.8333 34.9999ZM35.5 41.6666C34.5795 41.6666 33.8333 42.4128 33.8333 43.3333C33.8333 44.2538 34.5795 44.9999 35.5 44.9999H40.5C41.4205 44.9999 42.1667 44.2538 42.1667 43.3333C42.1667 42.4128 41.4205 41.6666 40.5 41.6666H35.5Z" fill="#002771"/>
</g>
<rect x="58.5" width="24" height="24" rx="12" fill="white"/>
<path fill-rule="evenodd" clip-rule="evenodd" d="M70.5 0C63.8726 0 58.5 5.37264 58.5 12C58.5 18.6274 63.8726 24 70.5 24C77.1274 24 82.5 18.6274 82.5 12C82.5 5.37264 77.1274 0 70.5 0ZM68.7 8.1C68.7 7.10589 69.5059 6.3 70.5 6.3C71.4941 6.3 72.3 7.10589 72.3 8.1V11.625C72.3 12.6191 71.4941 13.425 70.5 13.425C69.5059 13.425 68.7 12.6191 68.7 11.625V8.1ZM70.5 14.55C69.5059 14.55 68.7 15.3559 68.7 16.35C68.7 17.3441 69.5059 18.15 70.5 18.15C71.4941 18.15 72.3 17.3441 72.3 16.35C72.3 15.3559 71.4941 14.55 70.5 14.55Z" fill="#8093B8"/>
<defs>
<clipPath id="clip0_9182_11675">
<rect width="40" height="40" fill="white" transform="translate(20.5 20)"/>
</clipPath>
</defs>
</svg>
