<svg xmlns="http://www.w3.org/2000/svg" id="orchid" fill="currentColor" viewBox="0 0 24 25">
  <g  clip-path="url(#a)">
    <g >
      <path fill="currentColor" fill-rule="evenodd" d="M5.497 4.497A1.225 1.225 0 0 0 4 5.994l1.264 4.79L2.58 14.95c-.508.79.024 1.834.962 1.887l4.946.278 3.132 3.838a1.225 1.225 0 0 0 2.091-.331l1.397-3.6 4.608 4.608a1 1 0 0 0 1.415-1.414l-4.608-4.608 3.599-1.397a1.225 1.225 0 0 0 .331-2.091l-3.838-3.133-.278-4.946a1.225 1.225 0 0 0-1.886-.96L10.287 5.76l-4.79-1.264Zm1.788 6.107L6.273 6.771l3.834 1.011c.332.088.686.032.976-.154l3.333-2.147.223 3.959c.019.343.182.662.448.88l3.072 2.507-3.696 1.435c-.32.124-.574.378-.699.698l-1.435 3.697-2.507-3.072a1.225 1.225 0 0 0-.88-.449l-3.959-.222L7.13 11.58a1.23 1.23 0 0 0 .155-.976Z"  clip-rule="evenodd"/>
    </g>
  </g>
  <defs>
    <clipPath id="a" >
      <path fill="#fff" d="M0 .5h24v24H0z"/>
    </clipPath>
  </defs>
</svg>
