<svg id="orchid" width="35" height="23" viewBox="0 0 35 23" fill="none" xmlns="http://www.w3.org/2000/svg">
<path d="M0.16082 22V21.01C0.76082 21.01 1.22082 20.85 1.54082 20.53C1.86082 20.21 2.12082 19.77 2.32082 19.21C2.54082 18.65 2.79082 18 3.07082 17.26L9.25082 0.429999H9.97082L16.6608 17.5C16.8208 17.92 17.0008 18.46 17.2008 19.12C17.4008 19.78 17.4808 20.34 17.4408 20.8C17.7808 20.78 18.1208 20.76 18.4608 20.74C18.8008 20.72 19.1408 20.7 19.4808 20.68V22H12.6108V21.01C13.3708 20.99 13.8708 20.82 14.1108 20.5C14.3508 20.18 14.4408 19.8 14.3808 19.36C14.3208 18.92 14.2208 18.52 14.0808 18.16L13.0308 15.34L5.23082 15.52L4.18082 18.73C4.04082 19.21 3.91082 19.59 3.79082 19.87C3.69082 20.15 3.57082 20.46 3.43082 20.8C3.83082 20.78 4.22082 20.76 4.60082 20.74C5.00082 20.72 5.39082 20.7 5.77082 20.68V22H0.16082ZM5.68082 14.23H12.6108L10.4808 8.5C10.2608 7.88 10.0308 7.27 9.79082 6.67C9.57082 6.05 9.35082 5.43 9.13082 4.81H9.07082C8.87082 5.37 8.66082 5.93 8.44082 6.49C8.24082 7.05 8.03082 7.62 7.81082 8.2L5.68082 14.23ZM30.3804 22C30.3204 21.66 30.2804 21.36 30.2604 21.1C30.2404 20.84 30.2104 20.57 30.1704 20.29C29.4904 20.97 28.7504 21.51 27.9504 21.91C27.1704 22.29 26.3404 22.48 25.4604 22.48C23.9404 22.48 22.8104 22.14 22.0704 21.46C21.3304 20.76 20.9604 19.91 20.9604 18.91C20.9604 17.99 21.2404 17.2 21.8004 16.54C22.3804 15.86 23.1204 15.31 24.0204 14.89C24.9404 14.45 25.9304 14.13 26.9904 13.93C28.0704 13.71 29.1104 13.61 30.1104 13.63V11.77C30.1104 11.07 30.0504 10.41 29.9304 9.79C29.8104 9.17 29.5504 8.66 29.1504 8.26C28.7504 7.86 28.1104 7.65 27.2304 7.63C26.6504 7.61 26.0504 7.72 25.4304 7.96C24.8304 8.2 24.3904 8.61 24.1104 9.19C24.2704 9.35 24.3704 9.54 24.4104 9.76C24.4704 9.96 24.5004 10.15 24.5004 10.33C24.5004 10.57 24.4004 10.85 24.2004 11.17C24.0004 11.47 23.6504 11.61 23.1504 11.59C22.7304 11.59 22.4104 11.45 22.1904 11.17C21.9704 10.87 21.8604 10.52 21.8604 10.12C21.8604 9.44 22.1104 8.83 22.6104 8.29C23.1304 7.75 23.8404 7.32 24.7404 7C25.6404 6.68 26.6604 6.52 27.8004 6.52C29.4804 6.52 30.7204 6.97 31.5204 7.87C32.3204 8.75 32.7104 10.15 32.6904 12.07C32.6904 12.81 32.6904 13.56 32.6904 14.32C32.6904 15.06 32.6804 15.81 32.6604 16.57C32.6604 17.31 32.6604 18.06 32.6604 18.82C32.6604 19.14 32.6504 19.46 32.6304 19.78C32.6104 20.1 32.5804 20.46 32.5404 20.86C32.9004 20.84 33.2504 20.82 33.5904 20.8C33.9504 20.78 34.3104 20.76 34.6704 20.74V22H30.3804ZM30.1104 14.65C29.4304 14.67 28.7104 14.76 27.9504 14.92C27.2104 15.06 26.5204 15.28 25.8804 15.58C25.2604 15.88 24.7504 16.28 24.3504 16.78C23.9704 17.26 23.7904 17.85 23.8104 18.55C23.8504 19.29 24.0904 19.85 24.5304 20.23C24.9904 20.59 25.5304 20.77 26.1504 20.77C26.9704 20.77 27.6804 20.62 28.2804 20.32C28.9004 20 29.5104 19.56 30.1104 19C30.0904 18.78 30.0804 18.54 30.0804 18.28C30.0804 18.02 30.0804 17.75 30.0804 17.47C30.0804 17.37 30.0804 17.05 30.0804 16.51C30.1004 15.97 30.1104 15.35 30.1104 14.65Z" fill="currentColor"/>
</svg>
