<svg xmlns="http://www.w3.org/2000/svg" id="orchid" fill="currentColor" viewBox="0 0 24 25">
  <g  clip-path="url(#a)">
    <g >
      <path fill="currentColor" d="M19 3.5a2 2 0 0 1 2 2v10a2 2 0 0 1-2 2h-3.968c.038.545.105.962.18 1.28l.065.247.066.202c.01.03.022.058.032.085l.062.141.055.105.045.072.042.056c.446.344.424.86.34 1.116-.087.262-.382.696-.961.696H9.042c-.579 0-.874-.434-.96-.696-.085-.256-.107-.772.339-1.116l.043-.056.045-.072.054-.105.062-.14c.128-.321.278-.881.343-1.815H5a2 2 0 0 1-2-2v-10a2 2 0 0 1 2-2h14Zm-5.971 14H10.97a10.206 10.206 0 0 1-.252 1.798l-.052.202h2.666a9.228 9.228 0 0 1-.283-1.699l-.021-.301Zm5.971-3H5v1h14v-1Zm0-9H5v7h14v-7Z" />
    </g>
  </g>
  <defs>
    <clipPath id="a" >
      <path fill="#fff" d="M0 .5h24v24H0z"/>
    </clipPath>
  </defs>
</svg>
