<svg id="orchid" viewBox="0 0 74 79" fill="none" xmlns="http://www.w3.org/2000/svg">
<path d="M39.6084 28.666L39.5918 28.1662L39.6084 28.666ZM51.9566 44.0564L51.7016 43.6264L51.9566 44.0564ZM68.9497 0.0994392C68.6902 0.00506949 68.4033 0.138948 68.3089 0.398464L66.7711 4.62753C66.6767 4.88705 66.8106 5.17393 67.0701 5.2683C67.3296 5.36267 67.6165 5.22879 67.7109 4.96928L69.0778 1.2101L72.837 2.57708C73.0965 2.67145 73.3834 2.53757 73.4778 2.27805C73.5721 2.01853 73.4383 1.73165 73.1787 1.63728L68.9497 0.0994392ZM0.542123 78.4982C0.871276 78.4704 1.20063 78.436 1.5301 78.3951L1.40708 77.4027C1.09028 77.442 0.773852 77.4751 0.457877 77.5018L0.542123 78.4982ZM3.50039 78.0759C4.14705 77.9469 4.79352 77.7945 5.43913 77.6201L5.17826 76.6547C4.55337 76.8235 3.92868 76.9707 3.30478 77.0952L3.50039 78.0759ZM7.33692 77.0438C7.95933 76.8343 8.58042 76.6052 9.19964 76.3578L8.82863 75.4292C8.22587 75.67 7.6221 75.8926 7.01787 76.0961L7.33692 77.0438ZM11.0259 75.5733C11.6206 75.3001 12.2131 75.0108 12.8028 74.7064L12.3442 73.8178C11.7675 74.1155 11.1888 74.398 10.6085 74.6646L11.0259 75.5733ZM14.5396 73.7625C15.1096 73.4372 15.6766 73.0985 16.24 72.7472L15.711 71.8986C15.1582 72.2433 14.6023 72.5753 14.044 72.894L14.5396 73.7625ZM17.8967 71.6722C18.4395 71.3062 18.9785 70.9291 19.5133 70.5418L18.9269 69.7319C18.4008 70.1128 17.8709 70.4835 17.3376 70.8431L17.8967 71.6722ZM21.095 69.3579C21.6136 68.9571 22.1278 68.5471 22.6371 68.1289L22.0025 67.356C21.5006 67.7682 20.9941 68.172 20.4835 68.5667L21.095 69.3579ZM24.1428 66.8564C24.6384 66.4257 25.1289 65.9875 25.6138 65.5428L24.9379 64.8058C24.4594 65.2446 23.9756 65.6769 23.4868 66.1017L24.1428 66.8564ZM27.0485 64.1925C27.5215 63.7357 27.9886 63.2732 28.4493 62.8057L27.737 62.1038C27.2821 62.5655 26.8209 63.0222 26.3539 63.4731L27.0485 64.1925ZM29.814 61.3867C30.265 60.9064 30.709 60.4218 31.1457 59.9338L30.4005 59.267C29.9691 59.7491 29.5304 60.2278 29.085 60.7023L29.814 61.3867ZM32.4429 58.4493C32.8704 57.9482 33.2899 57.4445 33.7011 56.9388L32.9252 56.3079C32.519 56.8075 32.1045 57.3052 31.6821 57.8003L32.4429 58.4493ZM34.9273 55.3936C35.333 54.8695 35.7294 54.3443 36.116 53.8189L35.3105 53.2263C34.9288 53.745 34.5373 54.2637 34.1365 54.7815L34.9273 55.3936ZM37.2612 52.2208C37.6413 51.676 38.0102 51.1321 38.3674 50.59L37.5324 50.0398C37.1801 50.5744 36.8161 51.111 36.4411 51.6486L37.2612 52.2208ZM39.4328 48.9229C39.7845 48.3549 40.1226 47.7901 40.4463 47.2297L39.5804 46.7295C39.2619 47.2808 38.9291 47.8369 38.5826 48.3965L39.4328 48.9229ZM41.4025 45.5096C41.7188 44.9169 42.0177 44.3308 42.2984 43.7527L41.3989 43.3159C41.124 43.882 40.8309 44.4568 40.5203 45.0388L41.4025 45.5096ZM43.1276 41.9462C43.3985 41.3181 43.6454 40.702 43.8671 40.1L42.9288 39.7544C42.7138 40.3382 42.4736 40.9375 42.2093 41.5502L43.1276 41.9462ZM44.4938 38.2078C44.6895 37.5368 44.8486 36.8875 44.9685 36.2638L43.9865 36.075C43.8731 36.6644 43.7218 37.2831 43.5338 37.9279L44.4938 38.2078ZM45.221 34.2682C45.2598 33.5238 45.2254 32.8252 45.1085 32.1839L44.1247 32.3633C44.2251 32.9139 44.2579 33.5332 44.2224 34.2162L45.221 34.2682ZM44.347 30.1929C43.9412 29.5758 43.394 29.084 42.704 28.7393L42.2572 29.634C42.7894 29.8998 43.2025 30.2724 43.5114 30.7423L44.347 30.1929ZM40.6603 28.1935C40.3219 28.1629 39.9658 28.1538 39.5918 28.1662L39.6251 29.1657C39.9619 29.1545 40.2767 29.1629 40.5703 29.1894L40.6603 28.1935ZM39.5918 28.1662C39.2348 28.1781 38.8842 28.1987 38.54 28.2277L38.6239 29.2242C38.951 29.1967 39.2848 29.177 39.6251 29.1657L39.5918 28.1662ZM36.484 28.5121C35.7809 28.6496 35.1095 28.8246 34.4701 29.0333L34.7804 29.984C35.3802 29.7882 36.012 29.6234 36.6759 29.4935L36.484 28.5121ZM32.5373 29.8099C31.8882 30.1239 31.2814 30.4762 30.7173 30.8609L31.2808 31.6871C31.8038 31.3304 32.3678 31.0028 32.9728 30.7101L32.5373 29.8099ZM29.0791 32.1765C28.5579 32.668 28.0892 33.1913 27.6736 33.7384L28.4699 34.3433C28.8522 33.84 29.284 33.3578 29.7651 32.9041L29.0791 32.1765ZM26.5454 35.5224C26.2167 36.1584 25.9505 36.8127 25.7474 37.4756L26.7035 37.7685C26.8889 37.1634 27.1323 36.5647 27.4337 35.9816L26.5454 35.5224ZM25.3206 39.5496C25.2442 40.2632 25.2402 40.9752 25.3095 41.6737L26.3046 41.5748C26.2422 40.9467 26.2456 40.3034 26.3149 39.6561L25.3206 39.5496ZM25.7531 43.7583C25.9801 44.4354 26.2861 45.0845 26.672 45.6917L27.516 45.1554C27.1749 44.6187 26.9034 44.0433 26.7013 43.4404L25.7531 43.7583ZM28.0359 47.3415C28.5423 47.8185 29.1172 48.2454 29.76 48.6117L30.2551 47.7428C29.6802 47.4152 29.1695 47.0354 28.7216 46.6136L28.0359 47.3415ZM31.6987 49.4583C32.3403 49.6645 33.0282 49.8213 33.7618 49.9233L33.8995 48.9328C33.22 48.8384 32.5886 48.6939 32.0046 48.5062L31.6987 49.4583ZM35.8506 50.0615C36.5105 50.0607 37.2003 50.0209 37.92 49.9392L37.8072 48.9456C37.1225 49.0233 36.47 49.0608 35.8495 49.0615L35.8506 50.0615ZM39.9626 49.609C40.6108 49.4746 41.2801 49.3089 41.9706 49.1103L41.6941 48.1493C41.0266 48.3413 40.3818 48.5008 39.7596 48.6299L39.9626 49.609ZM43.9209 48.4801C44.5377 48.2597 45.1697 48.0146 45.8171 47.7436L45.4309 46.8212C44.7993 47.0856 44.1838 47.3243 43.5845 47.5384L43.9209 48.4801ZM47.6837 46.9098C48.288 46.6233 48.9046 46.3153 49.5335 45.9851L49.0687 45.0997C48.4513 45.4238 47.8469 45.7257 47.2553 46.0062L47.6837 46.9098ZM51.3032 45.0152C51.6034 44.8439 51.9062 44.6677 52.2117 44.4865L51.7016 43.6264C51.4008 43.8047 51.1028 43.9781 50.8075 44.1466L51.3032 45.0152ZM52.2117 44.4865C52.4993 44.3159 52.7828 44.1437 53.0622 43.97L52.5342 43.1208C52.2608 43.2908 51.9833 43.4593 51.7016 43.6264L52.2117 44.4865ZM54.7001 42.9025C55.2496 42.5271 55.7816 42.1455 56.2966 41.7582L55.6955 40.959C55.1928 41.3371 54.6731 41.7099 54.136 42.0768L54.7001 42.9025ZM57.843 40.5367C58.3556 40.1112 58.8495 39.6799 59.3252 39.2432L58.6489 38.5065C58.1856 38.9319 57.7042 39.3523 57.2044 39.7671L57.843 40.5367ZM60.7386 37.8769C61.2046 37.4023 61.6509 36.9224 62.078 36.438L61.328 35.7766C60.9126 36.2476 60.4786 36.7144 60.0251 37.1763L60.7386 37.8769ZM63.3379 34.928C63.7497 34.4057 64.141 33.8792 64.5126 33.3494L63.6938 32.7752C63.3329 33.2898 62.9528 33.8013 62.5526 34.3088L63.3379 34.928ZM65.5969 31.7062C65.9473 31.1409 66.2768 30.5729 66.5865 30.0033L65.7079 29.5257C65.4072 30.0789 65.0872 30.6304 64.747 31.1794L65.5969 31.7062ZM67.4778 28.2464C67.7617 27.645 68.0248 27.043 68.2684 26.4416L67.3415 26.0662C67.1048 26.6505 66.8492 27.2353 66.5735 27.8194L67.4778 28.2464ZM68.957 24.5956C69.1722 23.9662 69.3672 23.3389 69.5434 22.715L68.581 22.4432C68.4096 23.0501 68.22 23.6602 68.0108 24.2721L68.957 24.5956ZM70.0282 20.8063C70.1751 20.1569 70.3027 19.5129 70.4128 18.8759L69.4274 18.7056C69.3202 19.3262 69.1959 19.9535 69.0528 20.5857L70.0282 20.8063ZM70.6992 16.9302C70.7799 16.2682 70.8427 15.616 70.8895 14.9756L69.8921 14.9027C69.8465 15.5276 69.7852 16.1637 69.7065 16.8092L70.6992 16.9302ZM70.9863 13.0144C71.0037 12.3403 71.0045 11.6827 70.9913 11.0443L69.9915 11.0649C70.0044 11.6884 70.0036 12.3304 69.9866 12.9886L70.9863 13.0144ZM70.9058 9.08459C70.8602 8.40071 70.8 7.74557 70.7291 7.12306L69.7355 7.23615C69.8047 7.84365 69.8635 8.48326 69.908 9.15112L70.9058 9.08459ZM70.4605 5.1818C70.3443 4.472 70.2177 3.82427 70.0896 3.24716L69.1134 3.46388C69.2374 4.02266 69.3605 4.652 69.4737 5.34337L70.4605 5.1818ZM69.5855 1.32088C69.4552 0.903904 69.3335 0.575549 69.2319 0.357893L68.3257 0.780779C68.4 0.939968 68.5063 1.22017 68.631 1.61919L69.5855 1.32088Z" fill="#2465DE"/>
</svg>
