<svg xmlns="http://www.w3.org/2000/svg" id="orchid" fill="currentColor" viewBox="0 0 24 25">
  <g  clip-path="url(#a)">
    <g >
      <path fill="currentColor" d="M16.243 10.379a1 1 0 0 1 1.32-.084l.094.084 2.121 2.12a5.5 5.5 0 0 1-7.596 7.953L12 20.278l-2.121-2.121a1 1 0 0 1 1.32-1.498l.094.083 2.121 2.122a3.5 3.5 0 0 0 5.091-4.8l-.141-.15-2.121-2.121a1 1 0 0 1 0-1.414ZM9.17 9.67a1 1 0 0 1 1.32-.083l.095.083 4.242 4.243a1 1 0 0 1-1.32 1.497l-.094-.083-4.243-4.242a1 1 0 0 1 0-1.415ZM4.22 4.72a5.5 5.5 0 0 1 7.597-.173l.182.174 2.121 2.12a1 1 0 0 1-1.32 1.498l-.094-.083-2.121-2.121a3.5 3.5 0 0 0-5.091 4.8l.141.15 2.121 2.12a1 1 0 0 1-1.32 1.498l-.094-.083-2.12-2.12a5.5 5.5 0 0 1 0-7.778Z" />
    </g>
  </g>
  <defs>
    <clipPath id="a" >
      <path fill="#fff" d="M0 .5h24v24H0z"/>
    </clipPath>
  </defs>
</svg>
