<svg id="orchid" viewBox="0 0 36 36" fill="currentColor" xmlns="http://www.w3.org/2000/svg">
    <g >
        <path id="Vector"
            d="M19.0351 0C19.5028 0.0535044 19.972 0.0898874 20.4365 0.160513C21.8374 0.36918 23.2201 0.669342 24.5179 1.24558C25.5061 1.68432 26.4996 2.13537 27.4189 2.6977C29.1575 3.76176 30.694 5.12659 31.9567 6.72871C33.1395 8.20971 34.0818 9.86839 34.7489 11.6436C35.5609 13.8111 35.9132 16.0599 35.8481 18.3691C35.7957 20.5446 35.3359 22.6908 34.4926 24.696C33.8329 26.2618 32.9574 27.7271 31.8916 29.0492C30.8737 30.3186 29.6848 31.4403 28.359 32.3819C26.9603 33.3768 25.4278 34.1676 23.8073 34.7308C20.0631 36.0279 15.9941 36.0366 12.2444 34.7554C11.0675 34.354 9.93532 33.8313 8.86608 33.1957C7.73856 32.5178 6.65962 31.7592 5.74084 30.8078C5.03881 30.0807 4.33464 29.3461 3.7207 28.5457C3.15641 27.8094 2.68447 26.9967 2.22054 26.1915C1.57137 25.0615 1.11865 23.8426 0.774841 22.5885C0.476537 21.5352 0.283222 20.4548 0.197735 19.3632C0.187057 19.2134 0.161966 19.0652 0.144348 18.9159V16.779C0.158229 16.6918 0.179583 16.6051 0.185455 16.5174C0.305041 14.7747 0.699566 13.0931 1.31885 11.4644C2.43833 8.55458 4.29707 5.98846 6.71087 4.02033C9.23552 1.95528 12.2752 0.620802 15.5015 0.161049C15.9483 0.0947033 16.3994 0.0540426 16.8489 0.0032134L19.0351 0ZM17.9866 1.27876C8.81483 1.27876 1.41921 8.7116 1.42295 17.9475C1.42669 26.9978 8.82444 34.306 17.756 34.4119C27.1979 34.5237 34.4397 27.0122 34.5652 18.0026C34.6944 8.70732 27.0489 1.27181 17.9866 1.27876Z"
            fill="white" />
        <path id="Vector_2"
            d="M2.69996 17.5291C2.65779 15.696 3.01281 13.9143 3.69882 12.207C4.17301 11.0363 4.80143 9.9345 5.56734 8.93093C6.46851 7.73832 7.50847 6.68963 8.6472 5.73083C9.05614 5.38626 9.50139 5.4098 9.75497 5.79342C9.91513 6.03794 9.90232 6.28995 9.6893 6.48898C9.12074 7.02403 8.52708 7.53607 7.97454 8.0877C6.50855 9.55265 5.40131 11.2445 4.71423 13.215C4.09762 14.9807 3.89795 16.7929 4.02021 18.6527C4.11091 20.1644 4.42745 21.654 4.95927 23.0716C5.33844 24.0689 5.83908 25.0154 6.44982 25.8897C7.11475 26.8338 7.90056 27.6863 8.78708 28.4253C9.64044 29.136 10.5665 29.7543 11.5498 30.2696C12.5508 30.8046 13.5929 31.2257 14.6969 31.4814C16.9974 32.0165 19.2978 31.9983 21.5838 31.4038C24.6052 30.5997 27.2741 28.8116 29.1705 26.3209C30.2636 24.8703 31.0678 23.2223 31.5393 21.467C31.8409 20.3563 31.906 19.2236 32 18.0898C32.008 17.9924 32.0144 17.894 32.032 17.7982C32.1078 17.3889 32.3572 17.1776 32.7234 17.2097C33.0741 17.2391 33.2994 17.4836 33.2861 17.8935C33.2674 18.4531 33.2236 19.0128 33.1654 19.5697C32.9855 21.3517 32.5004 23.0893 31.7315 24.7062C31.2116 25.789 30.5516 26.7984 29.7684 27.7083C28.6249 29.0491 27.2646 30.123 25.7554 31.0085C23.6472 32.2449 21.3713 32.9801 18.9283 33.1459C17.2387 33.261 15.5768 33.0646 13.9415 32.6173C12.9085 32.3348 11.9038 31.971 10.9695 31.4595C10.1634 31.0181 9.39995 30.4916 8.644 29.9656C7.74978 29.3439 6.99223 28.5654 6.28859 27.7372C5.54009 26.8577 4.89951 25.8915 4.38057 24.8592C3.85292 23.8206 3.44921 22.7233 3.17777 21.5901C2.86493 20.2621 2.67167 18.9202 2.69996 17.5291Z"
            fill="white" />
        <path id="Vector_3"
            d="M6.53412 17.9154C6.49942 19.467 6.85443 21.009 7.50682 22.4809C8.1424 23.9153 9.06468 25.2039 10.2167 26.2671C11.3687 27.3303 12.726 28.1455 14.2047 28.6623C14.3475 28.7118 14.4837 28.779 14.6099 28.8624C14.8501 29.0229 14.919 29.2963 14.8165 29.598C14.7316 29.8468 14.5191 30.0154 14.2394 29.9694C13.9249 29.9179 13.6175 29.8299 13.3233 29.7072C12.0318 29.1631 10.8226 28.4718 9.73516 27.5842C8.79367 26.826 7.97905 25.922 7.3221 24.9062C5.78404 22.5044 5.15194 19.864 5.27366 17.0342C5.34307 15.4263 5.75895 13.9004 6.43802 12.4381C7.1643 10.8672 8.20793 9.4643 9.50293 8.31829C10.3737 7.54513 11.3464 6.89573 12.3938 6.38838C13.9842 5.61311 15.6584 5.21717 17.4185 5.11337C18.8498 5.02937 20.2341 5.25783 21.6024 5.63343C23.4354 6.13384 25.1221 7.06737 26.5209 8.35574C27.7272 9.46479 28.7242 10.7826 29.4641 12.246C29.715 12.7361 29.533 13.0433 29.171 13.2311C28.8507 13.3969 28.5069 13.2262 28.3243 12.8506C27.6105 11.3809 26.609 10.138 25.3726 9.07752C23.9194 7.81986 22.16 6.96998 20.2731 6.61417C18.1713 6.21075 16.0935 6.33702 14.0744 7.07217C12.5404 7.62212 11.1425 8.49664 9.97583 9.63628C8.80913 10.7759 7.90095 12.154 7.31302 13.6768C6.77923 15.025 6.51459 16.465 6.53412 17.9154Z"
            fill="white" />
        <path id="Vector_4"
        d="M23.007 24.2316H21.4962V19.0417H15.6851V24.2279H14.1844V12.7036H15.676V17.8073H21.4903V12.6886C21.9708 12.6886 22.4299 12.6848 22.8896 12.6945C22.9339 12.6945 22.9964 12.7731 23.0145 12.8272C23.028 12.906 23.0306 12.9863 23.022 13.0658C23.022 16.6702 23.022 20.275 23.022 23.8801C23.0215 23.993 23.0124 24.1059 23.007 24.2316Z"
        fill="white" />
</g>
</svg>