<svg  id="orchid" viewBox="0 0 25 24" fill="none" xmlns="http://www.w3.org/2000/svg">
<path d="M3.56055 5C3.56055 4.44772 4.00826 4 4.56055 4H20.5605C21.1128 4 21.5605 4.44772 21.5605 5C21.5605 5.55228 21.1128 6 20.5605 6H4.56055C4.00826 6 3.56055 5.55228 3.56055 5Z" fill="currentColor"/>
<path d="M3.56055 12C3.56055 11.4477 4.00826 11 4.56055 11H20.5605C21.1128 11 21.5605 11.4477 21.5605 12C21.5605 12.5523 21.1128 13 20.5605 13H4.56055C4.00826 13 3.56055 12.5523 3.56055 12Z" fill="currentColor"/>
<path d="M4.56055 18C4.00826 18 3.56055 18.4477 3.56055 19C3.56055 19.5523 4.00826 20 4.56055 20H20.5605C21.1128 20 21.5605 19.5523 21.5605 19C21.5605 18.4477 21.1128 18 20.5605 18H4.56055Z" fill="currentColor"/>
</svg>
