<svg xmlns="http://www.w3.org/2000/svg" id="orchid" fill="currentColor" viewBox="0 0 24 25">
  <g  clip-path="url(#a)">
    <g >
      <path fill="currentColor" fill-rule="evenodd" d="M21 7.644a1 1 0 1 0-2 0v10a1 1 0 1 0 2 0v-10Zm-5 1a1 1 0 0 1 1 1v8a1 1 0 1 1-2 0v-8a1 1 0 0 1 1-1Zm-3 3a1 1 0 1 0-2 0v6a1 1 0 1 0 2 0v-6Zm-5 1a1 1 0 0 1 1 1v4a1 1 0 1 1-2 0v-4a1 1 0 0 1 1-1Zm-4 2a1 1 0 0 1 1 1v2a1 1 0 1 1-2 0v-2a1 1 0 0 1 1-1Z"  clip-rule="evenodd"/>
    </g>
  </g>
  <defs>
    <clipPath id="a" >
      <path fill="currentColor" d="M0 .644h24v24H0z"/>
    </clipPath>
  </defs>
</svg>
