<svg xmlns="http://www.w3.org/2000/svg" id="orchid" fill="currentColor" viewBox="0 0 24 25">
  <g  clip-path="url(#a)">
    <g >
      <path fill="currentColor" d="M19.509 10.758c.795.076 1.45.906.972 1.743-1.019 1.74-2.18 3.382-3.422 4.97-1.547 1.96-3.006 3.533-4.171 4.647-.507.484-1.308.438-1.792-.024a42.072 42.072 0 0 1-3.228-3.495c-1.587-1.938-3.125-3.945-4.358-6.13-.418-.741.06-1.544.801-1.687l.113-.017 3.574-.227c-.038-1.816-.662-3.574-1.823-4.98l-.222-.265-.104-.128-.192-.247c-.03-.04-.06-.08-.088-.12l-.16-.23a4.724 4.724 0 0 1-.135-.218l-.111-.206c-.477-.966-.055-1.5 1.837-1.5 4.404 0 8.323 3.245 8.917 7.632l.031.259 3.56.223Zm-1.474 1.909-3.472-.192a.5.5 0 0 1-.47-.447l-.142-1.361c-.366-3.065-2.762-5.497-5.894-5.948a9.952 9.952 0 0 1 1.912 5.135l.023.397.036 1.704a.5.5 0 0 1-.472.51l-3.596.197c1.021 1.603 2.196 3.131 3.45 4.664.825.99 1.686 1.944 2.595 2.857l.256-.258.533-.556a48.122 48.122 0 0 0 2.693-3.134 46.168 46.168 0 0 0 2.548-3.568Z" />
    </g>
  </g>
  <defs>
    <clipPath id="a" >
      <path fill="#fff" d="M0 .644h24v24H0z"/>
    </clipPath>
  </defs>
</svg>
