<svg id="orchid" width="25" height="24" viewBox="0 0 25 24" fill="none" xmlns="http://www.w3.org/2000/svg">
<path fill-rule="evenodd" clip-rule="evenodd" d="M12.0981 2C10.4413 2 9.09811 3.34315 9.09811 5C9.09811 5.81383 9.42217 6.55197 9.94828 7.09242L7.18615 9.06538C6.96288 9.22486 6.77481 9.42857 6.63364 9.66385L5.24065 11.9855C4.9565 12.4591 5.11007 13.0733 5.58365 13.3575C6.05723 13.6416 6.67149 13.4881 6.95564 13.0145L8.34863 10.6928L8.67093 10.4626L8.15786 12.5149C7.92723 13.4374 8.37799 14.3705 9.19154 14.7832L12.2011 17.5348L13.1091 21.1668C13.2315 21.6565 13.6715 22 14.1762 22H15.0981C15.6504 22 16.0981 21.5523 16.0981 21C16.0981 20.4477 15.6504 20 15.0981 20H14.8789L14.1413 17.0497C14.046 16.6685 13.8406 16.3238 13.5506 16.0587L11.6223 14.2957C11.8158 14.0684 11.9611 13.7942 12.0384 13.4851L12.698 10.847L13.7161 12.0105C13.8871 12.206 14.0945 12.3662 14.3268 12.4824L16.1509 13.3944C16.6449 13.6414 17.2456 13.4412 17.4926 12.9472C17.7396 12.4532 17.5393 11.8526 17.0454 11.6056L15.2212 10.6935L12.7935 7.91899C14.1151 7.60533 15.0981 6.41747 15.0981 5C15.0981 3.34315 13.755 2 12.0981 2ZM11.0981 5C11.0981 4.44772 11.5458 4 12.0981 4C12.6504 4 13.0981 4.44772 13.0981 5C13.0981 5.55228 12.6504 6 12.0981 6C11.5458 6 11.0981 5.55228 11.0981 5Z" fill="currentColor"/>
<path d="M10.0468 16.8162C10.2215 16.2923 9.93831 15.726 9.41437 15.5513C8.89043 15.3767 8.32411 15.6598 8.14946 16.1838L7.72411 17.4598L5.39811 19.7858C5.00368 20.1803 5.00368 20.8198 5.39811 21.2142L5.89104 21.7071C6.28156 22.0976 6.91473 22.0976 7.30525 21.7071C7.62371 21.3886 7.68248 20.9088 7.48154 20.5308L9.13832 18.874C9.35787 18.6545 9.52329 18.3868 9.62148 18.0923L10.0468 16.8162Z" fill="#09244B"/>
</svg>
