<svg xmlns="http://www.w3.org/2000/svg" id="orchid" fill="currentColor" viewBox="0 0 24 24">
  <g  clip-path="url(#a)">
    <g >
      <path fill="currentColor" d="M16.9 3a1.1 1.1 0 0 1 1.094.98L18 4.1V7h1a3 3 0 0 1 2.995 2.824L22 10v7a2 2 0 0 1-1.85 1.994L20 19h-2v1.9a1.1 1.1 0 0 1-.98 1.094L16.9 22H7.1a1.1 1.1 0 0 1-1.094-.98L6 20.9V19H4a2 2 0 0 1-1.995-1.85L2 17v-7a3 3 0 0 1 2.824-2.995L5 7h1V4.1a1.1 1.1 0 0 1 .98-1.094L7.1 3h9.8ZM16 16H8v4h8v-4Zm3-7H5a1 1 0 0 0-.993.883L4 10v7h2v-1.9a1.1 1.1 0 0 1 .98-1.093L7.1 14h9.8a1.1 1.1 0 0 1 1.094.98l.006.12V17h2v-7a1 1 0 0 0-1-1Zm-2 1a1 1 0 0 1 .117 1.993L17 12h-2a1 1 0 0 1-.117-1.993L15 10h2Zm-1-5H8v2h8V5Z" />
    </g>
  </g>
  <defs>
    <clipPath id="a" >
      <path fill="#fff" d="M0 0h24v24H0z"/>
    </clipPath>
  </defs>
</svg>
