<svg xmlns="http://www.w3.org/2000/svg" id="orchid" fill="currentColor" viewBox="0 0 24 25">
  <g  clip-path="url(#a)">
    <g >
      <path fill="currentColor" d="M12 2.5c5.523 0 10 4.477 10 10s-4.477 10-10 10-10-4.477-10-10 4.477-10 10-10Zm0 2a8 8 0 1 0 0 16 8 8 0 0 0 0-16Zm0 12a1 1 0 1 1 0 2 1 1 0 0 1 0-2ZM12 7a3.625 3.625 0 0 1 1.348 6.99.837.837 0 0 0-.305.201c-.044.05-.051.114-.05.18L13 14.5a1 1 0 0 1-1.993.117L11 14.5v-.25c0-1.153.93-1.845 1.604-2.116a1.626 1.626 0 1 0-2.229-1.509 1 1 0 1 1-2 0A3.625 3.625 0 0 1 12 7Z" />
    </g>
  </g>
  <defs>
    <clipPath id="a" >
      <path fill="#fff" d="M0 .5h24v24H0z"/>
    </clipPath>
  </defs>
</svg>
