<svg xmlns="http://www.w3.org/2000/svg" id="orchid" fill="currentColor" viewBox="0 0 24 24">
  <g  clip-path="url(#a)">
    <g >
      <path fill="currentColor" d="M2 12.08c-.006-.862.91-1.356 1.618-.975l.095.058 2.678 1.804c.972.655.377 2.143-.734 2.007l-.117-.02-1.063-.234a8.002 8.002 0 0 0 14.804.605 1 1 0 0 1 1.82.828c-1.987 4.37-6.896 6.793-11.687 5.509A10.003 10.003 0 0 1 2 12.08Zm.903-4.228C4.89 3.482 9.799 1.06 14.59 2.343a10.002 10.002 0 0 1 7.414 9.581c.006.864-.91 1.357-1.617.976l-.096-.058-2.678-1.804c-.972-.655-.377-2.143.734-2.007l.117.02 1.063.234A8.002 8.002 0 0 0 4.723 8.68a1 1 0 1 1-1.82-.828Z" />
    </g>
  </g>
  <defs>
    <clipPath id="a" >
      <path fill="#fff" d="M0 0h24v24H0z"/>
    </clipPath>
  </defs>
</svg>
