<svg id="orchid" width="24" height="24" viewBox="0 0 24 24" fill="none" xmlns="http://www.w3.org/2000/svg">
<path fill-rule="evenodd" clip-rule="evenodd" d="M2 6C2 4.89543 2.89543 4 4 4H15C16.1046 4 17 4.89543 17 6V7H18.5194C19.1269 7 19.7016 7.27618 20.0811 7.75061L21.5617 9.60139C21.8454 9.95602 22 10.3966 22 10.8508V15C22 16.1046 21.1046 17 20 17C20 18.6569 18.6569 20 17 20C15.3431 20 14 18.6569 14 17H10C10 18.6569 8.65685 20 7 20C5.34315 20 4 18.6569 4 17C2.89543 17 2 16.1046 2 15V6ZM15 14.7639C14.917 14.8382 14.8382 14.917 14.7639 15H9.23611C8.68679 14.3863 7.8885 14 7 14C6.1115 14 5.31321 14.3863 4.76389 15H4V6L15 6V14.7639ZM19.2361 15C18.6868 14.3863 17.8885 14 17 14V9H18.5194L20 10.8508V15H19.2361ZM8 17C8 17.5523 7.55228 18 7 18C6.44772 18 6 17.5523 6 17C6 16.4477 6.44772 16 7 16C7.55228 16 8 16.4477 8 17ZM17 18C17.5523 18 18 17.5523 18 17C18 16.4477 17.5523 16 17 16C16.4477 16 16 16.4477 16 17C16 17.5523 16.4477 18 17 18Z" fill="currentColor"/>
</svg>
