<svg xmlns="http://www.w3.org/2000/svg" id="orchid" fill="currentColor" viewBox="0 0 24 24">
  <g  clip-path="url(#a)">
    <g >
      <path fill="currentColor" fill-rule="evenodd" d="M18 3a2 2 0 0 1 1.994 1.85L20 5v15a2 2 0 0 1-1.85 1.994L18 22H6a2 2 0 0 1-1.995-1.85L4 20V5a2 2 0 0 1 1.85-1.995L6 3h12Zm0 2H6v15h12V5ZM9.5 16a1.5 1.5 0 1 1 0 3 1.5 1.5 0 0 1 0-3Zm5 0a1.5 1.5 0 1 1 0 3 1.5 1.5 0 0 1 0-3Zm-5-4a1.5 1.5 0 1 1 0 3 1.5 1.5 0 0 1 0-3Zm5 0a1.5 1.5 0 1 1 0 3 1.5 1.5 0 0 1 0-3Zm1-6a1.5 1.5 0 0 1 1.493 1.356L17 7.5v2a1.5 1.5 0 0 1-1.355 1.493L15.5 11h-7a1.5 1.5 0 0 1-1.493-1.356L7 9.5v-2a1.5 1.5 0 0 1 1.356-1.493L8.5 6h7ZM15 8H9v1h6V8Z"  clip-rule="evenodd"/>
    </g>
  </g>
  <defs>
    <clipPath id="a" >
      <path fill="#fff" d="M0 0h24v24H0z"/>
    </clipPath>
  </defs>
</svg>
