<svg xmlns="http://www.w3.org/2000/svg" id="orchid" fill="currentColor" viewBox="0 0 24 24">
  <g  clip-path="url(#a)">
    <g >
      <path fill="currentColor" fill-rule="evenodd" d="M11.5 4C8.851 4 6.739 6.38 7.027 9a1.01 1.01 0 0 1-.758 1.09A3.002 3.002 0 0 0 7 16h1a1 1 0 1 1 0 2H7a5 5 0 0 1-2-9.584 6.5 6.5 0 0 1 12.586-2.204A6.002 6.002 0 0 1 16 18a1 1 0 1 1 0-2 4 4 0 0 0 .655-7.947 1.01 1.01 0 0 1-.81-.732A4.502 4.502 0 0 0 11.5 4Zm1.5 8.416 1.293 1.292a1 1 0 0 0 1.414-1.416l-2.824-2.819a1.25 1.25 0 0 0-1.766 0l-2.824 2.82a1 1 0 0 0 1.414 1.415L11 12.416V21a1 1 0 1 0 2 0v-8.584Z"  clip-rule="evenodd"/>
    </g>
  </g>
  <defs>
    <clipPath id="a" >
      <path fill="#fff" d="M0 0h24v24H0z"/>
    </clipPath>
  </defs>
</svg>
