<svg xmlns="http://www.w3.org/2000/svg" id="orchid" fill="currentColor" viewBox="0 0 24 25">
  <g  clip-path="url(#a)">
    <g >
      <path fill="currentColor" fill-rule="evenodd" d="M13 13.644a4 4 0 0 1 4 4v2a1 1 0 1 1-2 0v-2a2 2 0 0 0-2-2H6a2 2 0 0 0-2 2v2a1 1 0 1 1-2 0v-2a4 4 0 0 1 4-4h7Zm6 0a3 3 0 0 1 3 3v2a1 1 0 1 1-2 0v-2a1 1 0 0 0-1-1h-1.416a5.02 5.02 0 0 0-1.583-2H19Zm-9.5-10a4.5 4.5 0 1 1 0 9 4.5 4.5 0 0 1 0-9Zm8.5 3a3 3 0 1 1 0 6 3 3 0 0 1 0-6Zm-8.5-1a2.5 2.5 0 1 0 0 5 2.5 2.5 0 0 0 0-5Zm8.5 3a1 1 0 1 0 0 2 1 1 0 0 0 0-2Z"  clip-rule="evenodd"/>
    </g>
  </g>
  <defs>
    <clipPath id="a" >
      <path fill="#fff" d="M0 .644h24v24H0z"/>
    </clipPath>
  </defs>
</svg>
