<svg xmlns="http://www.w3.org/2000/svg" id="orchid" fill="currentColor" viewBox="0 0 24 25">
  <g  clip-path="url(#a)">
    <g >
      <path fill="currentColor" d="M12 17.5a1 1 0 1 1 0 2 1 1 0 0 1 0-2Zm0-4c1.38 0 2.632.56 3.536 1.464a1 1 0 0 1-1.415 1.415A2.988 2.988 0 0 0 12 15.5c-.829 0-1.577.335-2.121.879a1 1 0 0 1-1.415-1.415A4.987 4.987 0 0 1 12 13.5Zm0-4a8.975 8.975 0 0 1 6.364 2.636 1 1 0 0 1-1.414 1.414A6.975 6.975 0 0 0 12 11.5a6.975 6.975 0 0 0-4.95 2.05 1 1 0 0 1-1.414-1.414A8.975 8.975 0 0 1 12 9.5Zm0-4c3.59 0 6.84 1.456 9.192 3.808a1 1 0 0 1-1.414 1.414A10.962 10.962 0 0 0 12 7.5a10.96 10.96 0 0 0-7.778 3.222 1 1 0 0 1-1.414-1.414A12.962 12.962 0 0 1 12 5.5Z" />
    </g>
  </g>
  <defs>
    <clipPath id="a" >
      <path fill="#fff" d="M0 .5h24v24H0z"/>
    </clipPath>
  </defs>
</svg>
