<svg xmlns="http://www.w3.org/2000/svg" id="orchid"  viewBox="0 0 74 24" fill="none">
<path d="M3.99674 11.1207V17.5218H0.99203C0.988879 17.4492 0.982578 17.3798 0.982578 17.3105C0.982578 12.4762 0.981263 7.64164 0.978638 2.80684C0.978638 2.62076 1.02393 2.56045 1.21731 2.56281C2.07014 2.5728 2.92349 2.5728 3.77736 2.56281C3.9479 2.56281 3.99989 2.60499 3.9991 2.78161C3.9928 4.70347 3.99516 6.62572 3.99516 8.54758V8.80067C4.08733 8.80501 4.16413 8.81132 4.24053 8.81132C6.22831 8.81132 8.21846 8.81131 10.2043 8.81604C10.3953 8.81604 10.4449 8.76243 10.4445 8.57399C10.4378 6.65883 10.4402 4.74328 10.4406 2.82773C10.4406 2.56754 10.4406 2.56675 10.6974 2.56675C11.5501 2.56675 12.4032 2.57148 13.2574 2.56281C13.4335 2.56281 13.4764 2.61524 13.4764 2.78633C13.4722 7.63402 13.471 12.4817 13.4729 17.3294V17.5178H10.4402V11.3888C10.4402 11.1207 10.4402 11.1207 10.1751 11.1207H3.99674Z" fill="currentColor"/>
<path d="M55.7613 7.44142C55.7664 7.3334 55.7719 7.27111 55.7719 7.20882C55.7719 6.74324 55.775 6.27726 55.7719 5.81168C55.7719 5.69617 55.8034 5.64847 55.9271 5.64887C56.8327 5.65281 57.7385 5.65281 58.6447 5.64887C58.7628 5.64887 58.8164 5.68553 58.8061 5.80656C58.8014 5.8586 58.8061 5.91142 58.8061 5.96425V17.5218H55.7782V15.6567C55.4911 15.9792 55.2311 16.3052 54.9357 16.5954C54.1799 17.3381 53.2477 17.6748 52.2016 17.715C51.4326 17.7485 50.6652 17.618 49.9503 17.3322C49.0622 16.9774 48.3355 16.4002 47.7393 15.652C46.6656 14.3053 46.3584 12.7446 46.447 11.0734C46.484 10.3701 46.6046 9.6826 46.8669 9.02345C47.1334 8.34574 47.524 7.72378 48.0185 7.1895C48.6412 6.51419 49.3832 6.02378 50.2572 5.75728C51.3863 5.41312 52.5332 5.37094 53.6624 5.74782C54.5155 6.03245 55.1744 6.5958 55.6872 7.33103L55.7613 7.44142ZM55.788 11.6202C55.7676 11.366 55.7546 11.1105 55.7254 10.857C55.5777 9.55605 54.5411 8.42146 53.2595 8.17625C52.4277 8.0162 51.6392 8.1396 50.9299 8.62568C50.2044 9.12241 49.7412 9.79693 49.5908 10.6717C49.3513 12.072 49.5344 13.3485 50.6691 14.3479C51.1427 14.7702 51.7399 15.0279 52.3718 15.0827C53.0964 15.1517 53.7644 14.9672 54.3631 14.5553C54.7791 14.2768 55.122 13.9021 55.3627 13.4628C55.6726 12.8896 55.7884 12.2691 55.788 11.6206V11.6202Z" fill="currentColor"/>
<path d="M36.6637 11.5839V17.5162H33.6014V17.3077C33.6014 12.4744 33.6003 7.64093 33.5979 2.80717C33.5979 2.62149 33.6428 2.56196 33.8342 2.56275C35.6066 2.56985 37.3761 2.55881 39.1473 2.57024C40.1367 2.57655 41.1083 2.70743 42.0224 3.12216C42.5226 3.35326 42.9745 3.67726 43.354 4.07698C43.783 4.5193 44.1323 5.01918 44.3229 5.60658C44.6774 6.6982 44.5986 7.77483 44.1548 8.83018C43.9184 9.39471 43.5919 9.90287 43.1398 10.3058C42.8264 10.5825 42.4767 10.8151 42.1004 10.9972C41.2316 11.4191 40.2922 11.5665 39.3336 11.5807C38.5203 11.5929 37.7066 11.5831 36.8917 11.5835L36.6637 11.5839ZM36.6637 9.22638C36.6967 9.24136 36.7086 9.25121 36.72 9.25121C37.683 9.24333 38.6499 9.27763 39.6077 9.21416C40.6337 9.14596 41.308 8.46867 41.4435 7.45787C41.6219 6.12893 40.9177 4.97976 39.4683 4.92417C38.5589 4.88948 37.6471 4.91077 36.7361 4.90801C36.7107 4.91278 36.6862 4.9217 36.6637 4.93442V9.22638Z" fill="currentColor"/>
<path d="M63.4183 23.1395C63.9776 21.8307 64.5294 20.5439 65.0773 19.2556C65.3333 18.6532 65.584 18.0487 65.8295 17.4421C65.8597 17.3583 65.8597 17.2666 65.8295 17.1827C65.4475 16.2149 65.056 15.251 64.67 14.2848C64.3908 13.5858 64.1186 12.8841 63.8382 12.1855C63.3809 11.0422 62.9174 9.90293 62.4597 8.76046C62.1903 8.08594 61.9308 7.40747 61.6633 6.73216C61.5267 6.38603 61.3829 6.04266 61.2301 5.66775C61.3089 5.65986 61.364 5.64961 61.4184 5.64961C62.4286 5.64961 63.4388 5.64961 64.451 5.64685C64.5692 5.64685 64.6322 5.67208 64.6767 5.79981C64.9717 6.64661 65.2785 7.48947 65.5826 8.33272C65.9343 9.30528 66.2915 10.2763 66.6393 11.25C66.9292 12.057 67.2123 12.8663 67.5003 13.6737C67.5396 13.7892 67.5932 13.9012 67.6578 14.0561C67.7582 13.8062 67.8453 13.6 67.924 13.3907C68.2049 12.6416 68.4802 11.8926 68.7629 11.1463C69.1387 10.1548 69.5199 9.16572 69.8976 8.17503C70.2029 7.37396 70.5046 6.57131 70.8141 5.77024C70.8342 5.7186 70.9083 5.65197 70.9575 5.65197C71.948 5.64566 72.9386 5.64804 73.9291 5.64961C73.9538 5.65513 73.9776 5.66387 74 5.67563C73.9709 5.75684 73.9472 5.83647 73.9153 5.91216C73.6071 6.64201 73.2979 7.37133 72.9878 8.10013C72.6152 8.97216 72.2359 9.84222 71.8653 10.7154C71.2875 12.0771 70.7157 13.4411 70.1391 14.8032C69.611 16.0508 69.0814 17.2977 68.5503 18.544C68.0776 19.6518 67.605 20.759 67.1324 21.8658C66.9748 22.2391 66.8173 22.6148 66.6645 22.9897C66.6251 23.0855 66.5857 23.1557 66.4581 23.1553C65.4735 23.1498 64.4888 23.1521 63.5042 23.1513C63.4754 23.1492 63.4467 23.1453 63.4183 23.1395Z" fill="currentColor"/>
<path d="M30.3038 5.64922V5.90783C30.3038 6.56356 30.3038 7.2193 30.3038 7.87503C30.3038 8.13443 30.3038 8.13482 30.0521 8.13482C29.3372 8.13482 28.6222 8.13482 27.9072 8.13482H27.6536C27.6492 8.22037 27.6426 8.28936 27.6426 8.35835C27.6426 10.2144 27.637 12.0704 27.6481 13.9264C27.6497 14.1533 27.6986 14.3774 27.7914 14.5844C27.9297 14.8852 28.2361 14.9601 28.5374 14.9739C29.0545 14.9975 29.5724 15.0054 30.09 15.0019C30.2802 15.0019 30.3361 15.0582 30.3334 15.2471C30.3235 15.9354 30.3298 16.6241 30.329 17.3128C30.329 17.3771 30.3227 17.441 30.3196 17.4965C30.2959 17.5115 30.2853 17.5241 30.2747 17.5241C29.2857 17.521 28.2932 17.5998 27.3093 17.4473C26.5323 17.3266 25.8367 17.0274 25.3098 16.4171C24.9616 16.0139 24.7753 15.5313 24.7048 15.0109C24.6429 14.5901 24.608 14.1657 24.6004 13.7403C24.5894 11.9632 24.5957 10.186 24.5957 8.40881V8.13285C24.2314 8.13285 23.8911 8.12339 23.552 8.13679C23.3712 8.14389 23.3196 8.0887 23.3224 7.90657C23.333 7.16581 23.3267 6.42506 23.3267 5.65947H24.5894V2.74219H27.6359V5.64883L30.3038 5.64922Z" fill="currentColor"/>
<path d="M20.4244 17.5245H17.4312V5.6665H20.4244V17.5245Z" fill="currentColor"/>
<path d="M18.9108 4.47241C17.856 4.47241 17.0991 3.68671 17.0904 2.61954C17.0825 1.60637 17.947 0.766664 18.949 0.793471C19.9659 0.819885 20.7544 1.61583 20.7607 2.64634C20.7686 3.65044 19.9246 4.52641 18.9108 4.47241Z" fill="currentColor"/>
</svg>