<svg id="orchid" viewBox="0 0 27 28" fill="none" xmlns="http://www.w3.org/2000/svg">
<path d="M13.9365 0.845243C14.2815 0.884666 14.6277 0.911473 14.9704 0.963511C16.0038 1.11726 17.0239 1.33882 17.9814 1.7634C18.7104 2.08627 19.4434 2.4186 20.1216 2.83294C21.4042 3.61721 22.5377 4.62295 23.4693 5.80344C24.3415 6.89455 25.0363 8.11657 25.528 9.42443C26.1271 11.021 26.387 12.678 26.339 14.3795C26.3006 15.9819 25.9618 17.5628 25.3401 19.04C24.8536 20.1939 24.2077 21.2737 23.4213 22.2479C22.6702 23.183 21.7931 24.0093 20.8152 24.7031C19.7834 25.4363 18.6527 26.019 17.4572 26.4338C14.6949 27.3894 11.6931 27.3959 8.92669 26.4523C8.05838 26.1566 7.22312 25.7713 6.43439 25.3027C5.60257 24.8036 4.80659 24.2446 4.12877 23.5437C3.61085 23.0079 3.09136 22.4663 2.63842 21.8769C2.22212 21.3344 1.87396 20.7356 1.5317 20.1423C1.05277 19.3101 0.718783 18.412 0.465141 17.4879C0.24507 16.7119 0.102453 15.9158 0.0393854 15.1116C0.0315083 15.0012 0.0129972 14.8916 0 14.782V13.2055C0.0102402 13.1412 0.0259942 13.0773 0.0303266 13.0127C0.11855 11.7287 0.409608 10.4916 0.866478 9.2892C1.69264 7.14536 3.06386 5.25468 4.8444 3.80432C6.70718 2.28316 8.94954 1.29995 11.3296 0.960749C11.6592 0.911865 11.9921 0.881906 12.3237 0.844849L13.9365 0.845243ZM13.163 1.78745C6.39658 1.78745 0.940522 7.26405 0.943279 14.0688C0.946036 20.7376 6.40367 26.1219 12.9928 26.2C19.9585 26.2824 25.3012 20.7478 25.3937 14.1094C25.489 7.26051 19.8486 1.78233 13.163 1.78745Z" fill="currentColor"/>
<path d="M1.88542 13.7621C1.85431 12.4118 2.11622 11.099 2.62232 9.84067C2.97232 8.97817 3.43592 8.16636 4.00081 7.42682C4.66563 6.54848 5.43286 5.77541 6.27295 5.06895C6.57464 4.81546 6.90312 4.83241 7.0902 5.11507C7.20835 5.29523 7.1989 5.48131 7.04175 5.62757C6.6223 6.02179 6.18433 6.39867 5.77669 6.80551C4.69517 7.88452 3.87832 9.13146 3.37143 10.583C2.91653 11.884 2.76923 13.2192 2.85942 14.5895C2.92625 15.7034 3.15978 16.801 3.55221 17.8455C3.83193 18.5803 4.20128 19.2777 4.65185 19.9219C5.1424 20.6175 5.72212 21.2456 6.37614 21.7901C7.0058 22.3138 7.68899 22.7694 8.41433 23.1494C9.15281 23.5436 9.92161 23.8535 10.7361 24.0423C12.4332 24.4366 14.1303 24.4232 15.8168 23.9852C18.0457 23.3924 20.0146 22.075 21.4139 20.24C22.2204 19.1712 22.8137 17.957 23.1614 16.6636C23.3839 15.8455 23.432 15.0106 23.5013 14.1756C23.5072 14.1035 23.5119 14.0313 23.5249 13.9604C23.5808 13.6592 23.7648 13.5034 24.035 13.5267C24.2937 13.548 24.4599 13.7282 24.4501 14.0301C24.4363 14.4425 24.404 14.8549 24.3611 15.2656C24.2283 16.5786 23.8705 17.8589 23.3032 19.0502C22.9198 19.8481 22.4328 20.5919 21.855 21.2622C21.0113 22.2502 20.0078 23.0418 18.8944 23.6938C17.3391 24.6053 15.6601 25.1466 13.8578 25.2707C12.6112 25.3555 11.3852 25.2104 10.1788 24.8808C9.41669 24.6727 8.67546 24.405 7.98621 24.0277C7.39149 23.7025 6.82828 23.315 6.27059 22.9275C5.61088 22.469 5.052 21.8954 4.5329 21.2851C3.98074 20.6367 3.50828 19.9244 3.12567 19.1634C2.73614 18.3978 2.43817 17.5889 2.23792 16.7535C2.00712 15.7746 1.86455 14.7823 1.88542 13.7621Z" fill="currentColor"/>
<path d="M4.71402 14.0456C4.68842 15.1889 4.95033 16.3246 5.43162 17.4095C5.90068 18.4663 6.58114 19.4157 7.431 20.199C8.28086 20.9824 9.2821 21.5831 10.3729 21.964C10.4783 22.0004 10.5787 22.0498 10.6718 22.1111C10.8491 22.2294 10.8999 22.4312 10.8243 22.6535C10.7616 22.8369 10.6049 22.9607 10.3985 22.9267C10.1665 22.889 9.93964 22.8241 9.72266 22.7336C8.76993 22.333 7.87785 21.8237 7.07557 21.1697C6.3811 20.6114 5.78013 19.9457 5.29535 19.1977C4.16066 17.4281 3.69433 15.4825 3.78413 13.3979C3.83533 12.2128 4.14214 11.0885 4.64313 10.0115C5.17896 8.85396 5.94889 7.82033 6.90424 6.97591C7.5465 6.40566 8.26415 5.92665 9.03696 5.55236C10.2102 4.98073 11.4454 4.689 12.7439 4.61291C13.7998 4.55062 14.8211 4.71896 15.8305 4.9961C17.1829 5.36465 18.4272 6.05249 19.4591 7.00192C20.3492 7.81896 21.0847 8.78998 21.6304 9.86836C21.8155 10.2295 21.6812 10.4554 21.4142 10.5941C21.1779 10.7163 20.9242 10.5906 20.7896 10.3134C20.263 9.23088 19.5241 8.3147 18.6119 7.53374C17.5402 6.60581 16.2422 5.97838 14.8498 5.71517C13.2992 5.41792 11.7664 5.51096 10.2768 6.05263C9.14485 6.45805 8.11342 7.10276 7.25267 7.94289C6.39192 8.78303 5.72206 9.79888 5.28865 10.9213C4.89466 11.9151 4.69942 12.9766 4.71402 14.0456Z" fill="currentColor"/>
<path d="M16.8669 18.699H15.7523V14.875H11.4652V18.6967H10.358V10.205H11.4585V13.9656H15.7479V10.1944C16.1024 10.1944 16.4411 10.1916 16.7802 10.1987C16.8129 10.1987 16.859 10.2567 16.8724 10.2961C16.8823 10.3542 16.8842 10.4133 16.8779 10.4719C16.8779 13.1282 16.8779 15.7844 16.8779 18.4404C16.8775 18.5236 16.8708 18.6064 16.8669 18.699Z" fill="currentColor"/>
</svg>
