<svg width="212" height="180" viewBox="0 0 212 180" fill="none" xmlns="http://www.w3.org/2000/svg">
    <g clip-path="url(#clip0_2861_17159)">
        <path d="M0 24C0 10.7452 10.7452 0 24 0H188C201.255 0 212 10.7452 212 24V156C212 169.255 201.255 180 188 180H24C10.7452 180 0 169.255 0 156V24Z" fill="url(#paint0_linear_2861_17159)"/>
        <g filter="url(#filter0_dddd_2861_17159)">
            <g clip-path="url(#clip1_2861_17159)">
                <path d="M8 20C8 13.3726 13.3726 8 20 8H192C198.627 8 204 13.3726 204 20V148C204 154.627 198.627 160 192 160H20C13.3726 160 8 154.627 8 148V20Z" fill="#F0F3F8" fill-opacity="0.7"/>
                <rect x="46" y="21" width="121" height="127" rx="8" fill="url(#paint1_linear_2861_17159)"/>
                <rect x="54" y="29" width="32" height="27" rx="5" fill="#1A3F7C" fill-opacity="0.07"/>
                <rect x="97" y="29" width="50" height="6" rx="3" fill="#1A3F7C" fill-opacity="0.07"/>
                <rect x="97" y="38" width="36" height="6" rx="3" fill="#1A3F7C" fill-opacity="0.07"/>
                <rect x="97" y="47" width="17" height="6" rx="3" fill="#1A3F7C" fill-opacity="0.07"/>
                <rect x="116" y="47" width="17" height="6" rx="3" fill="#1A3F7C" fill-opacity="0.07"/>
                <g filter="url(#filter1_dddd_2861_17159)">
                    <rect x="46" y="21" width="121" height="127" rx="8" fill="url(#paint2_linear_2861_17159)"/>
                    <rect x="54" y="29" width="32" height="27" rx="5" fill="#1A3F7C" fill-opacity="0.07"/>
                    <rect x="96" y="34" width="63" height="6" rx="3" fill="#1A3F7C" fill-opacity="0.07"/>
                    <rect x="96" y="44" width="21.42" height="6" rx="3" fill="#1A3F7C" fill-opacity="0.07"/>
                    <rect x="120.42" y="44" width="21.42" height="6" rx="3" fill="#1A3F7C" fill-opacity="0.07"/>
                    <rect x="54" y="72" width="25" height="6" rx="3" fill="#1A3F7C" fill-opacity="0.07"/>
                    <rect x="82" y="72" width="36" height="6" rx="3" fill="#1A3F7C" fill-opacity="0.07"/>
                    <rect x="121" y="72" width="38" height="6" rx="3" fill="#1A3F7C" fill-opacity="0.07"/>
                    <rect x="54" y="85" width="25" height="6" rx="3" fill="#1A3F7C" fill-opacity="0.07"/>
                    <rect x="82" y="85" width="36" height="6" rx="3" fill="#1A3F7C" fill-opacity="0.07"/>
                    <rect x="121" y="85" width="38" height="6" rx="3" fill="#1A3F7C" fill-opacity="0.07"/>
                    <rect x="54" y="98" width="25" height="6" rx="3" fill="#1A3F7C" fill-opacity="0.07"/>
                    <rect x="82" y="98" width="36" height="6" rx="3" fill="#1A3F7C" fill-opacity="0.07"/>
                    <rect x="121" y="98" width="38" height="6" rx="3" fill="#1A3F7C" fill-opacity="0.07"/>
                    <rect x="54" y="111" width="25" height="6" rx="3" fill="#1A3F7C" fill-opacity="0.07"/>
                    <rect x="82" y="111" width="36" height="6" rx="3" fill="#1A3F7C" fill-opacity="0.07"/>
                    <rect x="121" y="111" width="38" height="6" rx="3" fill="#1A3F7C" fill-opacity="0.07"/>
                    <rect x="108" y="125" width="24" height="6" rx="3" fill="#4C8AFD"/>
                    <rect x="135" y="125" width="24" height="6" rx="3" fill="#4C8AFD"/>
                </g>
            </g>
            <path d="M20 8.5H192C198.351 8.5 203.5 13.6487 203.5 20V148C203.5 154.351 198.351 159.5 192 159.5H20C13.6487 159.5 8.5 154.351 8.5 148V20C8.5 13.6487 13.6487 8.5 20 8.5Z" stroke="url(#paint3_linear_2861_17159)"/>
        </g>
    </g>
    <defs>
        <filter id="filter0_dddd_2861_17159" x="-33" y="0" width="278" height="304" filterUnits="userSpaceOnUse" color-interpolation-filters="sRGB">
            <feFlood flood-opacity="0" result="BackgroundImageFix"/>
            <feColorMatrix in="SourceAlpha" type="matrix" values="0 0 0 0 0 0 0 0 0 0 0 0 0 0 0 0 0 0 127 0" result="hardAlpha"/>
            <feOffset dy="6"/>
            <feGaussianBlur stdDeviation="7"/>
            <feColorMatrix type="matrix" values="0 0 0 0 0.27451 0 0 0 0 0.568627 0 0 0 0 0.886275 0 0 0 0.1 0"/>
            <feBlend mode="normal" in2="BackgroundImageFix" result="effect1_dropShadow_2861_17159"/>
            <feColorMatrix in="SourceAlpha" type="matrix" values="0 0 0 0 0 0 0 0 0 0 0 0 0 0 0 0 0 0 127 0" result="hardAlpha"/>
            <feOffset dy="26"/>
            <feGaussianBlur stdDeviation="13"/>
            <feColorMatrix type="matrix" values="0 0 0 0 0.27451 0 0 0 0 0.568627 0 0 0 0 0.886275 0 0 0 0.09 0"/>
            <feBlend mode="normal" in2="effect1_dropShadow_2861_17159" result="effect2_dropShadow_2861_17159"/>
            <feColorMatrix in="SourceAlpha" type="matrix" values="0 0 0 0 0 0 0 0 0 0 0 0 0 0 0 0 0 0 127 0" result="hardAlpha"/>
            <feOffset dy="58"/>
            <feGaussianBlur stdDeviation="17.5"/>
            <feColorMatrix type="matrix" values="0 0 0 0 0.27451 0 0 0 0 0.568627 0 0 0 0 0.886275 0 0 0 0.05 0"/>
            <feBlend mode="normal" in2="effect2_dropShadow_2861_17159" result="effect3_dropShadow_2861_17159"/>
            <feColorMatrix in="SourceAlpha" type="matrix" values="0 0 0 0 0 0 0 0 0 0 0 0 0 0 0 0 0 0 127 0" result="hardAlpha"/>
            <feOffset dy="103"/>
            <feGaussianBlur stdDeviation="20.5"/>
            <feColorMatrix type="matrix" values="0 0 0 0 0.27451 0 0 0 0 0.568627 0 0 0 0 0.886275 0 0 0 0.01 0"/>
            <feBlend mode="normal" in2="effect3_dropShadow_2861_17159" result="effect4_dropShadow_2861_17159"/>
            <feBlend mode="normal" in="SourceGraphic" in2="effect4_dropShadow_2861_17159" result="shape"/>
        </filter>
        <filter id="filter1_dddd_2861_17159" x="28" y="16" width="165" height="209" filterUnits="userSpaceOnUse" color-interpolation-filters="sRGB">
            <feFlood flood-opacity="0" result="BackgroundImageFix"/>
            <feColorMatrix in="SourceAlpha" type="matrix" values="0 0 0 0 0 0 0 0 0 0 0 0 0 0 0 0 0 0 127 0" result="hardAlpha"/>
            <feOffset dy="3"/>
            <feGaussianBlur stdDeviation="4"/>
            <feColorMatrix type="matrix" values="0 0 0 0 0.592157 0 0 0 0 0.627451 0 0 0 0 0.705882 0 0 0 0.06 0"/>
            <feBlend mode="normal" in2="BackgroundImageFix" result="effect1_dropShadow_2861_17159"/>
            <feColorMatrix in="SourceAlpha" type="matrix" values="0 0 0 0 0 0 0 0 0 0 0 0 0 0 0 0 0 0 127 0" result="hardAlpha"/>
            <feOffset dx="1" dy="14"/>
            <feGaussianBlur stdDeviation="7"/>
            <feColorMatrix type="matrix" values="0 0 0 0 0.592157 0 0 0 0 0.627451 0 0 0 0 0.705882 0 0 0 0.06 0"/>
            <feBlend mode="normal" in2="effect1_dropShadow_2861_17159" result="effect2_dropShadow_2861_17159"/>
            <feColorMatrix in="SourceAlpha" type="matrix" values="0 0 0 0 0 0 0 0 0 0 0 0 0 0 0 0 0 0 127 0" result="hardAlpha"/>
            <feOffset dx="2" dy="31"/>
            <feGaussianBlur stdDeviation="9"/>
            <feColorMatrix type="matrix" values="0 0 0 0 0.592157 0 0 0 0 0.627451 0 0 0 0 0.705882 0 0 0 0.03 0"/>
            <feBlend mode="normal" in2="effect2_dropShadow_2861_17159" result="effect3_dropShadow_2861_17159"/>
            <feColorMatrix in="SourceAlpha" type="matrix" values="0 0 0 0 0 0 0 0 0 0 0 0 0 0 0 0 0 0 127 0" result="hardAlpha"/>
            <feOffset dx="4" dy="55"/>
            <feGaussianBlur stdDeviation="11"/>
            <feColorMatrix type="matrix" values="0 0 0 0 0.592157 0 0 0 0 0.627451 0 0 0 0 0.705882 0 0 0 0.01 0"/>
            <feBlend mode="normal" in2="effect3_dropShadow_2861_17159" result="effect4_dropShadow_2861_17159"/>
            <feBlend mode="normal" in="SourceGraphic" in2="effect4_dropShadow_2861_17159" result="shape"/>
        </filter>
        <linearGradient id="paint0_linear_2861_17159" x1="106" y1="0" x2="106" y2="180" gradientUnits="userSpaceOnUse">
            <stop stop-color="#E5EEFF"/>
            <stop offset="1" stop-color="#C2D7FF"/>
        </linearGradient>
        <linearGradient id="paint1_linear_2861_17159" x1="130.49" y1="99.0815" x2="173.185" y2="127.16" gradientUnits="userSpaceOnUse">
            <stop stop-color="white"/>
            <stop offset="1" stop-color="white" stop-opacity="0.55"/>
        </linearGradient>
        <linearGradient id="paint2_linear_2861_17159" x1="130.49" y1="99.0815" x2="173.185" y2="127.16" gradientUnits="userSpaceOnUse">
            <stop stop-color="white"/>
            <stop offset="1" stop-color="white" stop-opacity="0.25"/>
        </linearGradient>
        <linearGradient id="paint3_linear_2861_17159" x1="201.068" y1="160" x2="92.6733" y2="63.0976" gradientUnits="userSpaceOnUse">
            <stop stop-color="white"/>
            <stop offset="1" stop-color="white" stop-opacity="0"/>
        </linearGradient>
        <clipPath id="clip0_2861_17159">
            <path d="M0 24C0 10.7452 10.7452 0 24 0H188C201.255 0 212 10.7452 212 24V156C212 169.255 201.255 180 188 180H24C10.7452 180 0 169.255 0 156V24Z" fill="white"/>
        </clipPath>
        <clipPath id="clip1_2861_17159">
            <path d="M8 20C8 13.3726 13.3726 8 20 8H192C198.627 8 204 13.3726 204 20V148C204 154.627 198.627 160 192 160H20C13.3726 160 8 154.627 8 148V20Z" fill="white"/>
        </clipPath>
    </defs>
</svg>
