<svg width="144" height="144" viewBox="0 0 144 144" fill="none" xmlns="http://www.w3.org/2000/svg">
    <g style="mix-blend-mode:plus-darker" clip-path="url(#clip0_18_27017)">
        <path d="M79.3546 74.3213C82.3584 71.3173 87.0856 71.0862 90.3546 73.628L91.1396 74.3213L108.817 91.9992C126.716 109.898 126.716 138.918 108.817 156.817C91.4151 174.219 63.5016 174.702 45.5156 158.267L43.9988 156.817L26.3213 139.139C23.0669 135.885 23.0669 130.608 26.3213 127.354C29.3251 124.35 34.0523 124.119 37.3212 126.661L38.1063 127.354L55.7838 145.032C67.1746 156.423 85.6421 156.423 97.0321 145.032C108.015 134.048 108.408 116.484 98.2089 105.031L97.0321 103.784L79.3546 86.1067C76.0996 82.8517 76.0996 77.5759 79.3546 74.3213ZM20.4276 68.4287C23.4317 65.4247 28.1589 65.1936 31.4279 67.7355L32.2129 68.4287L67.5679 103.784C70.8221 107.038 70.8221 112.315 67.5679 115.569C64.5641 118.573 59.8369 118.804 56.568 116.262L55.7829 115.569L20.4276 80.2142C17.1733 76.9592 17.1733 71.6831 20.4276 68.4287ZM-20.8192 27.1808C-3.41727 9.77903 24.4963 9.29565 42.4819 25.7307L43.9988 27.1808L61.6763 44.8585C64.9313 48.1128 64.9313 53.3893 61.6763 56.6436C58.6724 59.6477 53.946 59.8788 50.6765 57.3368L49.8913 56.6436L32.2138 38.9659C20.8236 27.5757 2.35626 27.5757 -9.03399 38.9659C-20.0175 49.9495 -20.4098 67.5135 -10.2108 78.9673L-9.03399 80.2142L8.64368 97.8917C11.898 101.146 11.898 106.423 8.64368 109.677C5.6396 112.681 0.912707 112.912 -2.35642 110.37L-3.14149 109.677L-20.8192 91.9992C-38.7182 74.0999 -38.7182 45.0798 -20.8192 27.1808Z"
              fill="url(#paint0_linear_18_27017)"/>
    </g>
    <defs>
        <linearGradient id="paint0_linear_18_27017" x1="43.999" y1="13.7566" x2="43.999" y2="170.241"
                        gradientUnits="userSpaceOnUse">
            <stop stop-color="#FFF0F0"/>
            <stop offset="1" stop-color="#E5EEFF"/>
        </linearGradient>
        <clipPath id="clip0_18_27017">
            <rect width="200" height="200" fill="white" transform="translate(-56 -8)"/>
        </clipPath>
    </defs>
</svg>
