<svg id="orchid" width="24" height="24" viewBox="0 0 24 24" fill="none" xmlns="http://www.w3.org/2000/svg">
<path d="M21.2571 14.3489C21.2571 12.4883 20.8098 10.655 19.9529 9.00347C19.0959 7.35197 17.8545 5.9307 16.3332 4.85948C14.8119 3.78826 13.0554 3.09849 11.2117 2.84831C9.368 2.59814 7.49117 2.7949 5.73944 3.422L8.03766 9.84178C8.76021 9.58311 9.53436 9.50195 10.2948 9.60514C11.0553 9.70834 11.7799 9.99285 12.4074 10.4347C13.0349 10.8766 13.5469 11.4628 13.9004 12.144C14.2539 12.8252 14.4384 13.5814 14.4384 14.3489H21.2571Z" fill="#E5E6EA"/>
<path d="M2.68739 14.3486C2.68739 10.5027 5.80509 7.38501 9.65097 7.38501C13.4968 7.38501 16.6146 10.5027 16.6146 14.3486V21.3122H9.65097C5.80509 21.3122 2.68739 18.1945 2.68739 14.3486Z" fill="#B2B4BF"/>
<path d="M7.3034 7.79063L8.03765 9.84167C8.7602 9.583 9.53435 9.50184 10.2948 9.60503C11.0553 9.70822 11.7799 9.99274 12.4074 10.4346C13.0348 10.8765 13.5469 11.4627 13.9004 12.1439C14.2539 12.8251 14.4384 13.5813 14.4384 14.3488H16.6145C16.6145 10.5029 13.4968 7.38501 9.65096 7.38501C8.8272 7.38501 8.03686 7.52804 7.3034 7.79063Z" fill="#CBCDD4"/>
</svg>
