<svg id="orchid" width="24" height="25" viewBox="0 0 24 25" fill="none" xmlns="http://www.w3.org/2000/svg">
<path d="M21.2571 14.8489C21.2571 12.9883 20.8098 11.155 19.9528 9.50347C19.0959 7.85197 17.8545 6.4307 16.3332 5.35948C14.8119 4.28826 13.0554 3.59849 11.2117 3.34831C9.36797 3.09814 7.49115 3.2949 5.73942 3.922L8.03763 10.3418C8.76019 10.0831 9.53434 10.002 10.2948 10.1051C11.0553 10.2083 11.7798 10.4929 12.4073 10.9347C13.0348 11.3766 13.5469 11.9628 13.9004 12.644C14.2538 13.3252 14.4384 14.0814 14.4384 14.8489H21.2571Z" fill="#356DFF"/>
<path d="M2.6875 14.8486C2.6875 11.0027 5.8052 7.88501 9.65108 7.88501C13.497 7.88501 16.6147 11.0027 16.6147 14.8486V21.8122H9.65109C5.80521 21.8122 2.6875 18.6945 2.6875 14.8486Z" fill="#35FFAA"/>
<path d="M7.30347 8.29063L8.03772 10.3417C8.76027 10.083 9.53442 10.0018 10.2949 10.105C11.0554 10.2082 11.7799 10.4927 12.4074 10.9346C13.0349 11.3765 13.547 11.9627 13.9005 12.6439C14.2539 13.3251 14.4384 14.0813 14.4384 14.8488H16.6146C16.6146 11.0029 13.4969 7.88501 9.65103 7.88501C8.82727 7.88501 8.03693 8.02804 7.30347 8.29063Z" fill="#01157D"/>
</svg>
