<svg id="orchid" width="25" height="24" viewBox="0 0 25 24" fill="none" xmlns="http://www.w3.org/2000/svg">
<path d="M21.7936 7.81634C20.7735 6.35937 19.4229 5.16453 17.8525 4.32952C16.2821 3.4945 14.5363 3.04301 12.7579 3.01197C10.9796 2.98093 9.21911 3.37121 7.62049 4.15091C6.02186 4.93061 4.63047 6.07759 3.56006 7.49807L12.5612 14.2809L21.7936 7.81634Z" fill="#E5E6EA"/>
<path d="M5.7746 20.9729L5.7746 14.6104C5.7746 10.8623 8.81308 7.82376 12.5612 7.82376C16.3094 7.82376 19.3479 10.8622 19.3479 14.6104L19.3479 20.9729L5.7746 20.9729Z" fill="#B2B4BF"/>
<path d="M17.9616 10.4995C16.7218 8.87323 14.7641 7.82373 12.5612 7.82373C10.4411 7.82373 8.54798 8.79594 7.30345 10.3189L12.5612 14.2809L17.9616 10.4995Z" fill="#CBCDD4"/>
</svg>
