<svg id="orchid" width="24" height="25" viewBox="0 0 24 25" fill="none" xmlns="http://www.w3.org/2000/svg">
<path d="M21.2936 8.31634C20.2734 6.85937 18.9229 5.66453 17.3525 4.82952C15.782 3.9945 14.0363 3.54301 12.2579 3.51197C10.4796 3.48093 8.7191 3.87121 7.12047 4.65091C5.52185 5.43061 4.13045 6.57759 3.06005 7.99807L12.0612 14.7809L21.2936 8.31634Z" fill="#356DFF"/>
<path d="M5.27441 21.4729L5.27441 15.1104C5.27441 11.3623 8.3129 8.32376 12.0611 8.32376C15.8092 8.32376 18.8477 11.3622 18.8477 15.1104L18.8477 21.4729L5.27441 21.4729Z" fill="#F3C352"/>
<path d="M17.4614 10.9995C16.2216 9.37323 14.2638 8.32373 12.061 8.32373C9.94085 8.32373 8.04775 9.29594 6.80322 10.8189L12.061 14.7809L17.4614 10.9995Z" fill="#0A0047"/>
</svg>
