<svg id="orchid" viewBox="0 0 24 24" fill="none" xmlns="http://www.w3.org/2000/svg">
<path d="M13.299 3.1477L21.933 18.1022C22.5103 19.1022 21.7887 20.3522 20.634 20.3522H3.36601C2.21131 20.3522 1.48962 19.1022 2.06697 18.1022L10.7009 3.14771C11.2783 2.14771 12.7217 2.1477 13.299 3.1477ZM12 15C11.4477 15 11 15.4477 11 16C11 16.5523 11.4477 17 12 17C12.5523 17 13 16.5523 13 16C13 15.4477 12.5523 15 12 15ZM12 8C11.4871 8 11.0645 8.38604 11.0067 8.88338L11 9V13C11 13.5523 11.4477 14 12 14C12.5128 14 12.9355 13.614 12.9933 13.1166L13 13V9C13 8.44772 12.5523 8 12 8Z" fill="currentColor"/>
</svg>
