<svg  id="orchid" viewBox="0 0 20 20" fill="none" xmlns="http://www.w3.org/2000/svg">
<path fill-rule="evenodd" clip-rule="evenodd" d="M4.16667 2.5C3.24619 2.5 2.5 3.24619 2.5 4.16667V15.8333C2.5 16.7538 3.24619 17.5 4.16667 17.5H7.5C8.4205 17.5 9.16667 16.7538 9.16667 15.8333V4.16667C9.16667 3.24619 8.4205 2.5 7.5 2.5H4.16667ZM4.16667 4.16667H7.5V15.8333H4.16667V4.16667ZM12.5 2.5C11.5795 2.5 10.8333 3.24619 10.8333 4.16667V12.5C10.8333 13.4205 11.5795 14.1667 12.5 14.1667H15.8333C16.7538 14.1667 17.5 13.4205 17.5 12.5V4.16667C17.5 3.24619 16.7538 2.5 15.8333 2.5H12.5ZM12.5 4.16667H15.8333V12.5H12.5V4.16667Z" fill="currentColor"/>
</svg>
