<svg id="orchid" xmlns="http://www.w3.org/2000/svg" width="20" height="20" viewBox="0 0 20 20" fill="none">
<path d="M7.25253 14.125C7.33001 14.0476 7.39147 13.9557 7.43341 13.8546C7.47535 13.7534 7.49693 13.645 7.49693 13.5354C7.49693 13.4259 7.47535 13.3175 7.43341 13.2163C7.39147 13.1152 7.33001 13.0232 7.25253 12.9459L5.13919 10.8334H12.5C12.721 10.8334 12.933 10.7456 13.0893 10.5893C13.2456 10.433 13.3334 10.221 13.3334 10C13.3334 9.77901 13.2456 9.56705 13.0893 9.41077C12.933 9.25449 12.721 9.16669 12.5 9.16669H5.13919L7.25253 7.05335C7.40878 6.89699 7.49652 6.68495 7.49645 6.46389C7.49637 6.24283 7.40848 6.03086 7.25211 5.8746C7.09574 5.71835 6.88371 5.63061 6.66265 5.63068C6.44159 5.63076 6.22962 5.71865 6.07336 5.87502L2.53836 9.41085C2.38214 9.56713 2.29437 9.77905 2.29437 10C2.29437 10.221 2.38214 10.4329 2.53836 10.5892L6.07336 14.1242C6.15076 14.2017 6.24266 14.2631 6.34383 14.3051C6.44499 14.347 6.55343 14.3686 6.66294 14.3686C6.77246 14.3686 6.8809 14.347 6.98206 14.3051C7.08323 14.2631 7.17513 14.2017 7.25253 14.1242V14.125ZM17.5 5.00002C17.5 4.77901 17.4122 4.56705 17.256 4.41076C17.0997 4.25448 16.8877 4.16669 16.6667 4.16669C16.4457 4.16669 16.2337 4.25448 16.0774 4.41076C15.9212 4.56705 15.8334 4.77901 15.8334 5.00002V15C15.8334 15.221 15.9212 15.433 16.0774 15.5893C16.2337 15.7456 16.4457 15.8334 16.6667 15.8334C16.8877 15.8334 17.0997 15.7456 17.256 15.5893C17.4122 15.433 17.5 15.221 17.5 15V5.00002Z" fill="currentColor"/>
</svg>