<svg id="orchid" viewBox="0 0 32 32" fill="none" xmlns="http://www.w3.org/2000/svg">
<path d="M11.2858 8.94283C10.7651 8.42213 10.7651 7.57791 11.2858 7.05722L14.9627 3.38026C15.5355 2.80749 16.4642 2.80749 17.0369 3.38026L20.7139 7.05722C21.2346 7.57791 21.2346 8.42213 20.7139 8.94283C20.1932 9.46353 19.349 9.46353 18.8283 8.94283L17.3332 7.44774V14.6667H24.552L23.057 13.1717C22.5363 12.651 22.5363 11.8068 23.057 11.2861C23.5777 10.7654 24.4219 10.7654 24.9427 11.2861L28.6196 14.963C29.1924 15.5358 29.1924 16.4644 28.6196 17.0372L24.9426 20.7141C24.4219 21.2348 23.5777 21.2348 23.057 20.7141C22.5363 20.1934 22.5363 19.3492 23.057 18.8285L24.5522 17.3334H17.3332V24.5523L18.8283 23.0572C19.349 22.5365 20.1932 22.5365 20.7139 23.0572C21.2346 23.5779 21.2346 24.4221 20.7139 24.9428L17.0369 28.6198C16.4642 29.1926 15.5355 29.1926 14.9627 28.6198L11.2858 24.9428C10.7651 24.4221 10.7651 23.5779 11.2858 23.0572C11.8065 22.5365 12.6507 22.5365 13.1714 23.0572L14.6665 24.5523V17.3334H7.44748L8.94265 18.8285C9.46335 19.3492 9.46335 20.1934 8.94265 20.7141C8.42195 21.2348 7.57773 21.2348 7.05703 20.7141L3.38008 17.0372C2.80731 16.4644 2.80731 15.5358 3.38008 14.963L7.05703 11.2861C7.57773 10.7654 8.42195 10.7654 8.94265 11.2861C9.46335 11.8068 9.46335 12.651 8.94265 13.1717L7.44763 14.6667H14.6665V7.44773L13.1714 8.94283C12.6507 9.46353 11.8065 9.46353 11.2858 8.94283Z" fill="currentColor"/>
</svg>
