<svg  id="orchid" viewBox="0 0 20 20" fill="none" xmlns="http://www.w3.org/2000/svg">
<g clip-path="url(#clip0_2042_71821)">
<path d="M15.8332 3.33398C17.2139 3.33398 18.3332 4.45328 18.3332 5.83398V14.1673C18.3332 15.5481 17.2139 16.6673 15.8332 16.6673H4.1665C2.7858 16.6673 1.6665 15.5481 1.6665 14.1673V5.83398C1.6665 4.45328 2.7858 3.33398 4.1665 3.33398H15.8332ZM16.6665 8.33398H3.33317V14.1673C3.33317 14.5947 3.65487 14.9469 4.06932 14.995L4.1665 15.0007H15.8332C16.2605 15.0007 16.6128 14.679 16.6609 14.2645L16.6665 14.1673V8.33398ZM14.1665 10.834C14.6268 10.834 14.9998 11.2071 14.9998 11.6673C14.9998 12.0947 14.6781 12.4469 14.2637 12.495L14.1665 12.5007H11.6665C11.2063 12.5007 10.8332 12.1276 10.8332 11.6673C10.8332 11.2399 11.1549 10.8877 11.5693 10.8396L11.6665 10.834H14.1665ZM15.8332 5.00065H4.1665C3.70627 5.00065 3.33317 5.37375 3.33317 5.83398V6.66732H16.6665V5.83398C16.6665 5.37375 16.2934 5.00065 15.8332 5.00065Z" fill="currentColor"/>
</g>
<defs>
<clipPath id="clip0_2042_71821">
<rect width="20" height="20" fill="white"/>
</clipPath>
</defs>
</svg>
