<svg id="orchid" width="20" height="20" viewBox="0 0 20 20" fill="none" xmlns="http://www.w3.org/2000/svg">
<g clip-path="url(#clip0_1748_89918)">
<path d="M2.5 4.66667C2.5 3.93029 3.09695 3.33333 3.83333 3.33333L16.1667 3.33333C16.903 3.33333 17.5 3.93029 17.5 4.66667C17.5 4.85076 17.3508 5 17.1667 5L2.83333 5C2.64924 5 2.5 4.85076 2.5 4.66667Z" fill="#61667C"/>
<path opacity="0.4" fill-rule="evenodd" clip-rule="evenodd" d="M4.16667 5.83333L4.16667 15L15.8333 15L15.8333 5.83333L17.5 5.83333L17.5 15C17.5 15.9205 16.7538 16.6667 15.8333 16.6667L4.16666 16.6667C3.24619 16.6667 2.5 15.9205 2.5 15L2.5 5.83333L4.16667 5.83333Z" fill="#61667C"/>
</g>
<defs>
<clipPath id="clip0_1748_89918">
<rect width="20" height="20" fill="white"/>
</clipPath>
</defs>
</svg>
