<svg xmlns="http://www.w3.org/2000/svg"  id="orchid"  fill="currentColor" viewBox="0 0 24 24">
  <g  clip-path="url(#a)">
    <g >
      <path fill="currentColor" d="M14.28 2a2 2 0 0 1 1.897 1.368L16.72 5H20a1 1 0 1 1 0 2l-.003.071-.867 12.143A3 3 0 0 1 16.138 22H7.862a3 3 0 0 1-2.992-2.786L4.003 7.07A1.01 1.01 0 0 1 4 7a1 1 0 0 1 0-2h3.28l.543-1.632A2 2 0 0 1 9.721 2h4.558Zm3.717 5H6.003l.862 12.071a1 1 0 0 0 .997.929h8.276a1 1 0 0 0 .997-.929L17.997 7ZM10 10a1 1 0 0 1 .993.883L11 11v5a1 1 0 0 1-1.993.117L9 16v-5a1 1 0 0 1 1-1Zm4 0a1 1 0 0 1 1 1v5a1 1 0 1 1-2 0v-5a1 1 0 0 1 1-1Zm.28-6H9.72l-.333 1h5.226l-.334-1Z" />
    </g>
  </g>
  <defs>
    <clipPath id="a" >
      <path fill="#fff" d="M0 0h24v24H0z"/>
    </clipPath>
  </defs>
</svg>
