<svg width="56" height="56" viewBox="0 0 56 56" fill="none" xmlns="http://www.w3.org/2000/svg" id="orchid">
<path d="M51.332 5.19337L48.582 17.8734C48.392 18.7633 47.292 19.1134 46.612 18.4934L45.482 15.6333C44.2151 17.1773 50.0713 10.0402 33.092 30.7333L21.2121 20.9633L20.672 21.4533C20.582 19.8933 20.982 18.5433 21.932 17.6333C20.562 18.4633 18.682 19.8933 17.522 20.9934C16.482 21.9833 16.162 23.5233 16.442 25.3034L7.02205 33.8633C6.61202 34.2434 6.00203 33.7033 6.32204 33.2434L19.472 14.0133C20.032 13.1934 21.182 13.0233 21.952 13.6533C35.2038 24.5481 30.6333 20.7905 31.622 21.6033C43.7912 6.78927 39.5941 11.8987 40.502 10.7933L37.0221 9.78333C36.342 9.16334 36.582 8.04334 37.452 7.76332L49.802 3.81336C50.682 3.52332 51.532 4.29334 51.332 5.19337Z" fill="#FF6B6C"/>
<path d="M36.1108 33.3997C33.45 35.1976 28.5495 33.6155 24.7483 29.6294C18.8461 23.4357 19.5477 16.2055 25.4264 16.5101C30.0879 16.7412 35.1812 21.413 37.056 25.8898C38.1529 28.5149 38.4367 31.8953 36.1108 33.3997Z" fill="#F7D01C"/>
<path d="M14.4111 47.9664C13.6006 49.1766 13.1786 50.3769 12.8632 51.6285C12.7019 52.2691 13.6711 52.5148 13.833 51.8727C14.129 50.6975 14.4958 49.648 15.2431 48.5211C15.6111 47.9703 14.7756 47.415 14.4111 47.9664ZM51.999 32.3512C51.5874 30.2103 49.717 29.0976 46.8408 31.1363L40.8818 35.3562C40.2856 33.7351 38.465 33.1742 36.7562 33.5246C38.963 31.6678 38.6248 28.3478 37.517 25.6959C34.6921 18.9514 25.8848 13.4392 21.6775 17.2012C21.5676 17.2777 19.1913 18.7249 17.1816 20.6266C16.0532 21.6998 15.625 23.3443 15.9433 25.3824C16.3148 27.7213 17.6327 30.317 19.5823 32.6153C14.2734 34.04 14.7616 37.4989 12.6606 39.441C12.5563 37.4963 10.1772 36.886 9.25874 38.0856C8.47355 39.1096 9.1281 40.9441 10.8178 41.1266C9.34549 42.2483 6.92915 42.0055 5.25386 43.2438C4.37788 43.8902 3.62886 45.1549 4.05464 46.4029C4.26796 47.0297 5.21512 46.7057 5.00093 46.0807C4.74947 45.3424 5.23628 44.4996 5.8481 44.0484C7.63657 42.7244 10.9556 43.3521 12.31 40.8746C14.1339 40.0587 14.9316 37.7769 15.7294 36.4068C17.2991 33.7074 22.1202 32.17 25.8046 34.2359C27.2922 35.0698 28.5941 36.3819 30.413 36.5758C33.0972 36.8648 34.8795 34.7766 37.2251 34.444C38.1567 34.3121 39.3271 34.565 39.831 35.4313C40.4194 36.44 39.7993 37.8102 38.8876 38.5006C37.4526 39.5875 35.8421 39.6307 26.1015 41.2516C25.8291 41.2965 25.645 41.5543 25.6904 41.8268C25.7353 42.1002 25.9931 42.2838 26.2656 42.2379C36.7381 40.4956 37.9243 40.4851 39.4912 39.2975C40.4032 38.6069 41.0587 37.4433 41.0502 36.2879C41.4376 36.3474 41.1762 36.3055 47.4189 31.9527C49.6683 30.3567 50.7427 31.1129 51.0166 32.5406C51.1669 33.3219 50.9585 34.1734 50.7597 34.8277C48.9282 40.8531 43.0312 45.3844 36.7382 45.6031C30.3759 45.8393 22.5502 41.5909 16.4467 45.9049C15.9019 46.2893 16.4923 47.0993 17.0239 46.7213C22.6761 42.7281 30.2203 46.822 36.7734 46.6031C43.4799 46.3697 49.7646 41.5397 51.7168 35.1188C51.9487 34.3531 52.1904 33.3473 51.999 32.3512ZM11.5717 40.0807C9.78495 40.5518 9.37755 38.298 10.7207 38.4791C11.4682 38.5901 11.8519 39.2591 11.5717 40.0807ZM36.5947 26.0816C37.7617 28.8756 37.6367 31.3287 36.2612 32.6451C32.0934 36.5207 21.5535 28.6601 21.1689 21.4225C21.082 19.9566 21.4658 18.7691 22.2763 17.9938C25.6325 14.8294 33.8647 19.5615 36.5947 26.0816ZM30.519 35.5816C27.6906 35.2796 26.3074 31.5984 20.7041 32.3835C18.6991 30.1502 17.2909 27.4933 16.9311 25.2272C16.746 24.0426 16.7592 22.4088 17.8701 21.3522C18.5402 20.7175 19.4779 19.9551 20.4118 19.268C18.5674 25.4791 27.1326 35.1635 33.9953 34.6017C33.1007 35.0019 31.8844 35.7172 30.519 35.5816Z" fill="black"/>
<path d="M25.8103 21.29C25.7434 21.3284 25.6874 21.3779 25.6454 21.4356C25.6034 21.4932 25.5764 21.558 25.5658 21.6261C25.5551 21.6942 25.5612 21.7643 25.5835 21.8325C25.6058 21.9006 25.644 21.9654 25.6959 22.0233L26.1136 22.5038C25.2827 23.2427 25.0149 24.3129 25.7753 25.1876C26.675 26.2226 28.4376 26.4219 29.6834 25.7313C30.4362 25.314 31.3541 25.4593 31.7865 25.9567C32.2189 26.4542 32.0669 27.1899 31.314 27.6072C30.5612 28.0245 29.6449 27.881 29.2124 27.3836C28.6998 26.7763 27.6479 27.3594 28.1811 27.9552C28.9423 28.8309 30.2913 29.0062 31.449 28.6414L31.8744 29.1309C32.3863 29.7373 33.4382 29.1542 32.9057 28.5592L32.5607 28.1623C33.412 27.4188 33.6123 26.2621 32.8193 25.3868C31.7889 24.2015 30.3448 24.0486 28.9113 24.8432C28.1585 25.2605 27.2406 25.1152 26.8082 24.6178C26.3819 24.1274 26.5293 23.4075 27.2556 22.9877C27.2763 22.9782 27.2962 22.9676 27.3152 22.956C28.0631 22.5612 28.956 22.7006 29.3822 23.1909C29.8956 23.7991 30.9476 23.216 30.4135 22.6193C29.6415 21.7312 28.2353 21.4636 27.0652 21.8405L26.7272 21.4516C26.6765 21.3914 26.6122 21.3392 26.5382 21.2983C26.4642 21.2574 26.382 21.2286 26.2965 21.2135C26.211 21.1984 26.1238 21.1974 26.0403 21.2105C25.9568 21.2237 25.8786 21.2507 25.8103 21.29Z" fill="#03102F"/>
<path d="M11.8432 16.3209L9.56877 15.9488C8.90427 15.8417 9.09178 14.8392 9.7299 14.9625L12.0043 15.3346C12.6568 15.4398 12.4955 16.4374 11.8432 16.3209Z" fill="#AFA1FD"/>
<path d="M13.621 13.4166L10.8774 10.9674C10.3833 10.5272 11.0499 9.7806 11.5434 10.2213L14.287 12.6705C14.781 13.1106 14.1147 13.8572 13.621 13.4166Z" fill="#AFA1FD"/>
<path d="M15.9321 12.0865L15.3911 9.53577C15.2539 8.88623 16.2339 8.68612 16.3696 9.32873L16.9106 11.8795C17.048 12.5279 16.0698 12.7313 15.9321 12.0865Z" fill="#AFA1FD"/>
</svg>
