<svg id="orchid" viewBox="0 0 20 20" fill="none" xmlns="http://www.w3.org/2000/svg">
    <g clip-path="url(#clip0_97_14688)">
        <path d="M15 1.66675C15.4421 1.66675 15.866 1.84234 16.1786 2.1549C16.4911 2.46746 16.6667 2.89139 16.6667 3.33341V14.1584C16.6667 14.2984 16.635 14.4267 16.5725 14.5517L16.1184 15.4601C16.0604 15.5759 16.0303 15.7035 16.0303 15.833C16.0303 15.9625 16.0604 16.0901 16.1184 16.2059L16.5709 17.1126C16.6376 17.2396 16.6704 17.3816 16.6661 17.525C16.6618 17.6684 16.6206 17.8082 16.5464 17.931C16.4722 18.0537 16.3676 18.1553 16.2427 18.2258C16.1178 18.2963 15.9768 18.3334 15.8334 18.3334H5.83337C5.17033 18.3334 4.53445 18.07 4.06561 17.6012C3.59677 17.1323 3.33337 16.4965 3.33337 15.8334V4.16675C3.33337 3.50371 3.59677 2.86782 4.06561 2.39898C4.53445 1.93014 5.17033 1.66675 5.83337 1.66675H15ZM14.5067 15.0001H5.83337C5.62097 15.0003 5.41668 15.0816 5.26223 15.2275C5.10779 15.3733 5.01485 15.5725 5.0024 15.7846C4.98995 15.9966 5.05894 16.2054 5.19526 16.3683C5.33159 16.5312 5.52496 16.6358 5.73587 16.6609L5.83337 16.6667H14.5067C14.3378 16.1889 14.318 15.6711 14.45 15.1817L14.5067 15.0001ZM15 3.33341H5.83337C5.62926 3.33344 5.43226 3.40838 5.27973 3.54401C5.1272 3.67964 5.02975 3.86654 5.00587 4.06925L5.00004 4.16675V13.4751C5.20837 13.4017 5.43004 13.3551 5.65921 13.3392L5.83337 13.3334H15V3.33341ZM11.6667 5.83342C11.8791 5.83365 12.0834 5.91498 12.2378 6.06079C12.3923 6.2066 12.4852 6.40588 12.4977 6.61791C12.5101 6.82995 12.4411 7.03873 12.3048 7.20161C12.1685 7.36449 11.9751 7.46916 11.7642 7.49425L11.6667 7.50008H8.33337C8.12097 7.49985 7.91668 7.41852 7.76223 7.27271C7.60779 7.1269 7.51484 6.92762 7.5024 6.71559C7.48995 6.50355 7.55894 6.29477 7.69526 6.13189C7.83159 5.96901 8.02496 5.86433 8.23587 5.83925L8.33337 5.83342H11.6667Z"
              fill="currentColor"/>
    </g>
    <defs>
        <clipPath id="clip0_97_14688">
            <rect width="20" height="20" fill="white"/>
        </clipPath>
    </defs>
</svg>
