<svg id="orchid" viewBox="0 0 17 16" fill="none" xmlns="http://www.w3.org/2000/svg">
    <g id="Inner">
        <path id="Vector"
              d="M14.1314 4.07038C14.4608 4.23504 14.5942 4.63549 14.4296 4.96481C14.194 5.43594 13.7621 5.84871 13.3281 6.13803C13.1339 6.26752 12.9145 6.38873 12.6839 6.48234C12.8769 6.956 13.0165 7.46587 13.0945 8H14.5C14.8682 8 15.1666 8.29847 15.1666 8.66667C15.1666 9.03487 14.8682 9.33333 14.5 9.33333H13.1585C13.1202 10.1145 12.9485 10.8685 12.6656 11.5515C13.0465 11.7714 13.3074 12.1243 13.4712 12.4519C13.734 12.9773 13.8333 13.5829 13.8333 14C13.8333 14.3682 13.5348 14.6667 13.1666 14.6667C12.8247 14.6667 12.543 14.4093 12.5045 14.0778L12.5 14C12.5 13.7504 12.4326 13.3561 12.2787 13.0481C12.192 12.8748 12.1056 12.7755 12.0217 12.722C11.1871 13.8962 9.95125 14.6667 8.49998 14.6667C7.04871 14.6667 5.81284 13.8962 4.97822 12.722C4.89428 12.7755 4.80795 12.8748 4.72127 13.0481C4.56731 13.3561 4.49998 13.7504 4.49998 14C4.49998 14.3682 4.2015 14.6667 3.83331 14.6667C3.46513 14.6667 3.16665 14.3682 3.16665 14C3.16665 13.5829 3.26598 12.9773 3.52869 12.4519C3.6925 12.1243 3.95346 11.7714 4.33435 11.5515C4.05143 10.8685 3.87971 10.1145 3.84147 9.33333H2.49998C2.13179 9.33333 1.83331 9.03487 1.83331 8.66667C1.83331 8.29847 2.13179 8 2.49998 8H3.90548C3.98347 7.46587 4.12304 6.956 4.31603 6.48234C4.08547 6.38873 3.86607 6.26752 3.67185 6.13803C3.23786 5.84871 2.80593 5.43594 2.57036 4.96481C2.4057 4.63549 2.53919 4.23504 2.86851 4.07038C3.1743 3.91748 3.54143 4.02166 3.72415 4.30099L3.76293 4.36853C3.8607 4.56406 4.09543 4.81796 4.41145 5.02863C4.73509 5.24439 5.02075 5.33333 5.16665 5.33333H11.8333C11.9792 5.33333 12.2648 5.24439 12.5885 5.02863C12.865 4.84429 13.0793 4.62686 13.1941 4.44439L13.237 4.36853C13.4017 4.03921 13.8021 3.90572 14.1314 4.07038ZM11.3055 6.66667H5.69442C5.36291 7.33567 5.16665 8.13467 5.16665 9C5.16665 11.2057 6.39119 12.8486 7.83331 13.2427V8.66667C7.83331 8.29847 8.13178 8 8.49998 8C8.86818 8 9.16665 8.29847 9.16665 8.66667V13.2427C10.6088 12.8486 11.8333 11.2057 11.8333 9C11.8333 8.13467 11.637 7.33567 11.3055 6.66667ZM8.49998 2C9.73465 2 10.8116 2.67159 11.387 3.66618L11.9657 4.66667H5.03427L5.61301 3.66618C6.18835 2.67159 7.26538 2 8.49998 2Z"
              fill="currentColor"/>
    </g>
</svg>
