<svg id="orchid" viewBox="0 0 25 24" fill="none" xmlns="http://www.w3.org/2000/svg">
    <g clip-path="url(#clip0_5137_560)">
        <path d="M17.5 2C18.5544 2 19.4182 2.81588 19.4945 3.85074L19.5 4V20C19.5 21.0544 18.6841 21.9182 17.6493 21.9945L17.5 22H7.5C6.44564 22 5.58183 21.1841 5.50549 20.1493L5.5 20V4C5.5 2.94564 6.31588 2.08183 7.35074 2.00549L7.5 2H17.5ZM17.5 4H7.5V20H17.5V4ZM13 16C13.2454 16 13.4496 16.1769 13.4919 16.4101L13.5 16.5V17.5C13.5 17.7454 13.3231 17.9496 13.0899 17.9919L13 18H12C11.7546 18 11.5504 17.8231 11.5081 17.5899L11.5 17.5V16.5C11.5 16.2546 11.6769 16.0504 11.9101 16.0081L12 16H13Z"
              fill="currentColor"/>
    </g>
    <defs>
        <clipPath id="clip0_5137_560">
            <rect width="24" height="24" fill="white" transform="translate(0.5)"/>
        </clipPath>
    </defs>
</svg>
