<svg id="orchid" viewBox="0 0 17 16" fill="none" xmlns="http://www.w3.org/2000/svg">
    <g clip-path="url(#clip0_2847_256)">
        <path fill-rule="evenodd" clip-rule="evenodd"
              d="M3.16665 8C3.16665 5.42267 5.25599 3.33333 7.83331 3.33333C9.79071 3.33333 11.4682 4.53868 12.161 6.25015C12.2992 6.59143 12.6878 6.75613 13.0291 6.61796C13.3704 6.47981 13.535 6.09115 13.3969 5.74985C12.5073 3.55221 10.3524 2 7.83331 2C4.51961 2 1.83331 4.68629 1.83331 8C1.83331 9.122 2.1419 10.1737 2.67903 11.073L2.15957 12.8391C2.00944 13.3496 2.48371 13.8239 2.99416 13.6737L4.76033 13.1543C5.45593 13.5698 6.24311 13.8487 7.08415 13.9536C7.44951 13.9992 7.78265 13.7399 7.82818 13.3745C7.87378 13.0092 7.61451 12.6761 7.24911 12.6305C6.54921 12.5433 5.89765 12.301 5.32923 11.9387C5.10457 11.7955 4.82091 11.7467 4.54862 11.8267L3.78073 12.0526L4.00657 11.2847C4.08666 11.0124 4.03775 10.7287 3.89459 10.5041C3.43374 9.78093 3.16665 8.92267 3.16665 8ZM13.8333 11C13.8333 9.71133 12.7886 8.66667 11.5 8.66667C10.2113 8.66667 9.16665 9.71133 9.16665 11C9.16665 12.2887 10.2113 13.3333 11.5 13.3333C11.9604 13.3333 12.3879 13.2006 12.7486 12.9716C12.9231 12.8607 13.1396 12.8139 13.3548 12.8548C13.3139 12.6396 13.3607 12.4231 13.4716 12.2486C13.7006 11.8879 13.8333 11.4605 13.8333 11ZM11.5 7.33333C13.525 7.33333 15.1666 8.97493 15.1666 11C15.1666 11.6391 15.0026 12.2415 14.7142 12.7656L14.9712 13.6393C15.1208 14.1481 14.6481 14.6208 14.1393 14.4712L13.2656 14.2142C12.7414 14.5027 12.139 14.6667 11.5 14.6667C9.47491 14.6667 7.83331 13.0251 7.83331 11C7.83331 8.97493 9.47491 7.33333 11.5 7.33333Z"
              fill="currentColor"/>
    </g>
    <defs>
        <clipPath id="clip0_2847_256">
            <rect width="16" height="16" fill="white" transform="translate(0.5)"/>
        </clipPath>
    </defs>
</svg>
