<svg xmlns="http://www.w3.org/2000/svg"  id="orchid"  fill="currentColor" viewBox="0 0 24 24">
  <g clip-path="url(#clip0_1053_2652)">
    <path d="M12.5 2C18.0228 2 22.5 6.47715 22.5 12C22.5 17.5228 18.0228 22 12.5 22C6.97715 22 2.5 17.5228 2.5 12C2.5 6.47715 6.97715 2 12.5 2ZM16.0354 8.38136L11.0856 13.3311L8.96431 11.2098C8.57379 10.8193 7.94063 10.8193 7.5501 11.2098C7.15958 11.6003 7.15958 12.2335 7.5501 12.624L10.3078 15.3817C10.7374 15.8113 11.4339 15.8113 11.8635 15.3817L17.4496 9.79557C17.8401 9.40505 17.8401 8.77188 17.4496 8.38136C17.0591 7.99083 16.4259 7.99083 16.0354 8.38136Z" fill="currentColor" />
  </g>
  <defs>
    <clipPath id="clip0_1053_2652">
      <rect width="24" height="24" fill="white" transform="translate(0.5)"/>
    </clipPath>
  </defs>
</svg>

