<svg id="orchid" width="22" height="22" viewBox="0 0 22 22" fill="none" xmlns="http://www.w3.org/2000/svg">
    <g id="Inner">
        <path id="Vector"
              d="M11 2.75C13.1209 2.75 15.0848 3.12429 16.5529 3.76656C17.2855 4.08709 17.936 4.49243 18.4161 4.98903C18.8601 5.44829 19.1908 6.02324 19.2428 6.69069L19.25 6.875V16.0417C19.25 16.7879 18.9005 17.4267 18.4161 17.9276C17.936 18.4243 17.2855 18.8296 16.5529 19.1501C15.0848 19.7924 13.1209 20.1667 11 20.1667C8.87911 20.1667 6.91516 19.7924 5.44714 19.1501C4.71448 18.8296 4.06402 18.4243 3.58392 17.9276C3.13992 17.4684 2.8092 16.8934 2.75716 16.226L2.75 16.0417V6.875C2.75 6.12873 3.09955 5.49005 3.58392 4.98903C4.06402 4.49243 4.71448 4.08709 5.44714 3.76656C6.91516 3.12429 8.87911 2.75 11 2.75ZM17.4167 14.1232C17.1471 14.286 16.857 14.4336 16.5529 14.5667C15.0848 15.2091 13.1209 15.5833 11 15.5833C8.87911 15.5833 6.91516 15.2091 5.44714 14.5667C5.14292 14.4336 4.85289 14.286 4.58333 14.1232V16.0417C4.58333 16.1814 4.64418 16.3867 4.90199 16.6534C5.16407 16.9244 5.58755 17.2104 6.18196 17.4705C7.36808 17.9894 9.07081 18.3333 11 18.3333C12.9292 18.3333 14.6319 17.9894 15.818 17.4705C16.4125 17.2104 16.836 16.9244 17.098 16.6534C17.3558 16.3867 17.4167 16.1814 17.4167 16.0417V14.1232ZM17.4167 9.53984C17.1471 9.70264 16.857 9.85032 16.5529 9.98342C15.0848 10.6257 13.1209 11 11 11C8.87911 11 6.91516 10.6257 5.44714 9.98342C5.14292 9.85032 4.85289 9.70264 4.58333 9.53984V11.4583C4.58333 11.598 4.64418 11.8034 4.90199 12.07C5.16407 12.3411 5.58755 12.6271 6.18196 12.8871C7.36808 13.4061 9.07081 13.75 11 13.75C12.9292 13.75 14.6319 13.4061 15.818 12.8871C16.4125 12.6271 16.836 12.3411 17.098 12.07C17.3558 11.8034 17.4167 11.598 17.4167 11.4583V9.53984ZM11 4.58333C9.07081 4.58333 7.36808 4.92725 6.18196 5.44617C5.58755 5.70623 5.16407 5.99223 4.90199 6.26331C4.64418 6.52998 4.58333 6.73532 4.58333 6.875C4.58333 7.01468 4.64418 7.22002 4.90199 7.48669C5.16407 7.75777 5.58755 8.04377 6.18196 8.30383C7.36808 8.82275 9.07081 9.16667 11 9.16667C12.9292 9.16667 14.6319 8.82275 15.818 8.30383C16.4125 8.04377 16.836 7.75777 17.098 7.48669C17.3558 7.22002 17.4167 7.01468 17.4167 6.875C17.4167 6.73532 17.3558 6.52998 17.098 6.26331C16.836 5.99223 16.4125 5.70623 15.818 5.44617C14.6319 4.92725 12.9292 4.58333 11 4.58333Z"
              fill="currentColor"/>
    </g>
</svg>
