<svg xmlns="http://www.w3.org/2000/svg" id="orchid" fill="currentColor" viewBox="0 0 24 24">
  <g  clip-path="url(#a)">
    <g >
      <path fill="currentColor" fill-rule="evenodd" d="M12 5c2.592 0 4.986.465 6.77 1.258.89.396 1.674.893 2.247 1.496C21.596 8.36 22 9.122 22 10v4c0 .878-.404 1.639-.983 2.246-.573.603-1.356 1.1-2.247 1.496C16.986 18.535 14.592 19 12 19c-2.592 0-4.986-.465-6.77-1.258-.89-.396-1.674-.893-2.247-1.496C2.404 15.64 2 14.878 2 14v-4c0-.878.404-1.639.983-2.246.573-.603 1.356-1.1 2.247-1.496C7.014 5.465 9.408 5 12 5Zm8 8.08c-.375.246-.79.466-1.23.662C16.986 14.535 14.592 15 12 15c-2.592 0-4.986-.465-6.77-1.258A8.689 8.689 0 0 1 4 13.08V14c0 .227.1.518.432.868.337.354.872.719 1.61 1.047C7.516 16.57 9.622 17 12 17c2.379 0 4.484-.43 5.958-1.085.738-.328 1.273-.693 1.61-1.047.333-.35.432-.641.432-.868v-.92ZM12 7c-2.379 0-4.484.43-5.958 1.085-.738.328-1.273.693-1.61 1.047C4.099 9.482 4 9.773 4 10c0 .227.1.518.432.868.337.354.872.719 1.61 1.047C7.516 12.57 9.622 13 12 13c2.379 0 4.484-.43 5.958-1.085.738-.328 1.273-.693 1.61-1.047.333-.35.432-.641.432-.868 0-.227-.1-.518-.432-.868-.337-.354-.872-.719-1.61-1.047C16.484 7.431 14.378 7 12 7Z"  clip-rule="evenodd"/>
    </g>
  </g>
  <defs>
    <clipPath id="a" >
      <path fill="#fff" d="M0 0h24v24H0z"/>
    </clipPath>
  </defs>
</svg>
