<svg  id="orchid" viewBox="0 0 20 20" fill="none" xmlns="http://www.w3.org/2000/svg">
<path fill-rule="evenodd" clip-rule="evenodd" d="M9.99984 1.6665C12.7613 1.6665 14.9998 3.90508 14.9998 6.6665C14.9998 7.31636 14.8755 7.93799 14.6494 8.50825C16.7723 9.08609 18.3331 11.0273 18.3331 13.3332C18.3331 16.0946 16.0945 18.3332 13.3331 18.3332C12.0523 18.3332 10.8838 17.851 9.99984 17.06C9.11525 17.8518 7.9471 18.3332 6.6665 18.3332C3.90508 18.3332 1.6665 16.0946 1.6665 13.3332C1.6665 11.0274 3.22728 9.08617 5.34999 8.50834C5.12403 7.93832 4.99984 7.31692 4.99984 6.6665C4.99984 3.90508 7.23841 1.6665 9.99984 1.6665ZM13.3331 9.99984C12.446 9.99984 11.6399 10.3458 11.042 10.9119C11.4398 11.6296 11.6665 12.4556 11.6665 13.3332C11.6665 14.2116 11.44 15.0372 11.0421 15.7546C11.6401 16.3207 12.4461 16.6665 13.3331 16.6665C15.174 16.6665 16.6664 15.1741 16.6664 13.3332C16.6664 11.4923 15.174 9.99984 13.3331 9.99984ZM6.29175 10.0207C4.62721 10.2069 3.33317 11.6189 3.33317 13.3332C3.33317 15.1741 4.82555 16.6665 6.6665 16.6665C8.50742 16.6665 9.99984 15.1741 9.99984 13.3332C9.99984 12.7165 9.83309 12.1405 9.542 11.6458C8.25601 11.5291 7.11064 10.9254 6.29175 10.0207ZM9.99984 3.33317C8.15889 3.33317 6.6665 4.82555 6.6665 6.6665C6.6665 8.38075 7.96052 9.79275 9.625 9.979C10.4431 9.07525 11.5888 8.47075 12.8753 8.35384C13.1664 7.8592 13.3332 7.28314 13.3332 6.6665C13.3332 4.82555 11.8408 3.33317 9.99984 3.33317Z" fill="#61667C"/>
</svg>
