<svg xmlns="http://www.w3.org/2000/svg" id="orchid" fill="currentColor" viewBox="0 0 24 24">
  <g  clip-path="url(#a)">
    <g >
      <path fill="currentColor" fill-rule="evenodd" d="M14.594 2.897a4 4 0 0 0-5.189 0l-.376.32a2 2 0 0 1-1.138.472l-.493.04a4 4 0 0 0-3.67 3.669l-.039.493a2 2 0 0 1-.471 1.138l-.321.376a4 4 0 0 0 0 5.19l.32.376a2 2 0 0 1 .472 1.138l.04.493a4 4 0 0 0 3.669 3.67l.493.039a2 2 0 0 1 1.138.471l.376.32a4 4 0 0 0 5.19 0l.376-.32a2 2 0 0 1 1.138-.471l.493-.04a4 4 0 0 0 3.67-3.669l.038-.493a2 2 0 0 1 .472-1.138l.32-.377a4 4 0 0 0 0-5.189l-.32-.376a2 2 0 0 1-.472-1.138l-.039-.493a4 4 0 0 0-3.669-3.67l-.493-.039a2 2 0 0 1-1.138-.471l-.377-.32ZM10.703 4.42a2 2 0 0 1 2.594 0l.377.321a4 4 0 0 0 2.276.943l.493.04a2 2 0 0 1 1.834 1.834l.04.493a4 4 0 0 0 .943 2.276l.32.377a2 2 0 0 1 0 2.594l-.32.377a4 4 0 0 0-.943 2.276l-.04.493a2 2 0 0 1-1.834 1.834l-.493.04a4 4 0 0 0-2.276.943l-.377.32a2 2 0 0 1-2.594 0l-.377-.32a4 4 0 0 0-2.276-.943l-.493-.04a2 2 0 0 1-1.835-1.834l-.04-.493a4 4 0 0 0-.942-2.276l-.32-.377a2 2 0 0 1 0-2.594l.32-.377a4 4 0 0 0 .943-2.276l.04-.493a2 2 0 0 1 1.834-1.835l.493-.039a4 4 0 0 0 2.276-.943l.377-.32Zm5.004 5.288a1 1 0 1 0-1.414-1.414l-6 6a1 1 0 1 0 1.414 1.414l6-6ZM11 9.5a1.5 1.5 0 1 1-3 0 1.5 1.5 0 0 1 3 0Zm3.5 6.5a1.5 1.5 0 1 0 0-3 1.5 1.5 0 0 0 0 3Z"  clip-rule="evenodd"/>
    </g>
  </g>
  <defs>
    <clipPath id="a" >
      <path fill="#fff" d="M0 0h24v24H0z"/>
    </clipPath>
  </defs>
</svg>
