<svg xmlns="http://www.w3.org/2000/svg" id="orchid" fill="currentColor" viewBox="0 0 24 24">
  <g  clip-path="url(#a)">
    <g >
      <path fill="currentColor" fill-rule="evenodd" d="M17 2a3 3 0 0 1 2.995 2.824L20 5v12a1 1 0 0 1 .458 1.89l-.107.046-8 3a1 1 0 0 1-.564.041l-.138-.04-8-3a1 1 0 0 1 .23-1.93L4 17V5a3 3 0 0 1 2.824-2.995L7 2h10Zm0 2H7a1 1 0 0 0-1 1v12.682l6 2.25 6-2.25V5a1 1 0 0 0-1-1Zm-5 1a1 1 0 0 1 1 1v1h2a1 1 0 1 1 0 2h-2v1h1a2.5 2.5 0 0 1 0 5h-1v1a1 1 0 1 1-2 0v-1H9a1 1 0 1 1 0-2h2v-1h-1a2.5 2.5 0 0 1 0-5h1V6a1 1 0 0 1 1-1Zm2 7h-1v1h1a.5.5 0 0 0 .09-.992L14 12Zm-3-3h-1a.5.5 0 0 0-.09.992L10 10h1V9Z"  clip-rule="evenodd"/>
    </g>
  </g>
  <defs>
    <clipPath id="a" >
      <path fill="#fff" d="M0 0h24v24H0z"/>
    </clipPath>
  </defs>
</svg>
