<svg id="orchid" xmlns="http://www.w3.org/2000/svg" width="16" height="16" viewBox="0 0 16 16" fill="none">
    <path fill-rule="evenodd" clip-rule="evenodd" d="M8.00004 1.33337C11.6819 1.33337 14.6667 4.31814 14.6667 8.00004C14.6667 11.6819 11.6819 14.6667 8.00004 14.6667C4.31814 14.6667 1.33337 11.6819 1.33337 8.00004C1.33337 4.31814 4.31814 1.33337 8.00004 1.33337ZM8.00004 2.66671C5.05452 2.66671 2.66671 5.05452 2.66671 8.00004C2.66671 10.9456 5.05452 13.3334 8.00004 13.3334C10.9456 13.3334 13.3334 10.9456 13.3334 8.00004C13.3334 5.05452 10.9456 2.66671 8.00004 2.66671ZM8.00004 4.00004C8.36824 4.00004 8.66671 4.29852 8.66671 4.66671V5.33337H10C10.3682 5.33337 10.6667 5.63185 10.6667 6.00004C10.6667 6.36823 10.3682 6.66671 10 6.66671H8.66671V7.33337H9.33337C10.2538 7.33337 11 8.07957 11 9.00004C11 9.92051 10.2538 10.6667 9.33337 10.6667H8.66671V11.3334C8.66671 11.7016 8.36824 12 8.00004 12C7.63184 12 7.33337 11.7016 7.33337 11.3334V10.6667H6.00004C5.63185 10.6667 5.33337 10.3682 5.33337 10C5.33337 9.63184 5.63185 9.33337 6.00004 9.33337H7.33337V8.66671H6.66671C5.74623 8.66671 5.00004 7.92051 5.00004 7.00004C5.00004 6.07957 5.74623 5.33337 6.66671 5.33337H7.33337V4.66671C7.33337 4.29851 7.63184 4.00004 8.00004 4.00004ZM9.33337 8.66671H8.66671V9.33337H9.33337C9.51744 9.33337 9.66671 9.18411 9.66671 9.00004C9.66671 8.81597 9.51744 8.66671 9.33337 8.66671ZM7.33337 6.66671H6.66671C6.48261 6.66671 6.33337 6.81597 6.33337 7.00004C6.33337 7.18411 6.48261 7.33337 6.66671 7.33337H7.33337V6.66671Z" fill="currentColor"/>
</svg>
