<svg xmlns="http://www.w3.org/2000/svg" id="orchid" fill="currentColor" viewBox="0 0 24 24">
  <g  clip-path="url(#a)">
    <g >
      <path fill="currentColor" fill-rule="evenodd" d="M11.5 4a4.502 4.502 0 0 1 4.344 3.32c.104.383.421.67.811.733A4.001 4.001 0 0 1 18 15.465a1 1 0 1 0 1.002 1.732 6.002 6.002 0 0 0-1.415-10.985A6.502 6.502 0 0 0 5 8.416a5 5 0 0 0 .124 9.22 1 1 0 0 0 .75-1.854 3.001 3.001 0 0 1 .394-5.692A1.01 1.01 0 0 0 7.027 9C6.74 6.38 8.851 4 11.5 4Zm.5 7a1 1 0 0 1 1 1v6.584l1.293-1.292a1 1 0 0 1 1.414 1.416l-2.824 2.819c-.253.252-.5.473-.883.473-.384 0-.63-.22-.883-.473l-2.824-2.82a1 1 0 0 1 1.414-1.415L11 18.584V12a1 1 0 0 1 1-1Z"  clip-rule="evenodd"/>
    </g>
  </g>
  <defs>
    <clipPath id="a" >
      <path fill="#fff" d="M0 0h24v24H0z"/>
    </clipPath>
  </defs>
</svg>
