<svg id="orchid" width="20" height="20" viewBox="0 0 20 20" fill="currentColor" xmlns="http://www.w3.org/2000/svg">
<g id="Inner">
<path id="Vector" d="M6.5 15C7.32843 15 8 15.6716 8 16.5C8 17.3284 7.32843 18 6.5 18C5.67157 18 5 17.3284 5 16.5C5 15.6716 5.67157 15 6.5 15ZM13 15C13.8284 15 14.5 15.6716 14.5 16.5C14.5 17.3284 13.8284 18 13 18C12.1716 18 11.5 17.3284 11.5 16.5C11.5 15.6716 12.1716 15 13 15ZM6.5 8.5C7.32843 8.5 8 9.1716 8 10C8 10.8284 7.32843 11.5 6.5 11.5C5.67157 11.5 5 10.8284 5 10C5 9.1716 5.67157 8.5 6.5 8.5ZM13 8.5C13.8284 8.5 14.5 9.1716 14.5 10C14.5 10.8284 13.8284 11.5 13 11.5C12.1716 11.5 11.5 10.8284 11.5 10C11.5 9.1716 12.1716 8.5 13 8.5ZM6.5 2C7.32843 2 8 2.67157 8 3.5C8 4.32843 7.32843 5 6.5 5C5.67157 5 5 4.32843 5 3.5C5 2.67157 5.67157 2 6.5 2ZM13 2C13.8284 2 14.5 2.67157 14.5 3.5C14.5 4.32843 13.8284 5 13 5C12.1716 5 11.5 4.32843 11.5 3.5C11.5 2.67157 12.1716 2 13 2Z" fill="currentColor"/>
</g>
</svg>
