<svg id="orchid" viewBox="0 0 22 22" fill="none" xmlns="http://www.w3.org/2000/svg">
    <g clip-path="url(#clip0_1491_5016)">
      <path fill-rule="evenodd" clip-rule="evenodd" d="M11 1.83333C16.0626 1.83333 20.1667 5.93738 20.1667 11C20.1667 16.0626 16.0626 20.1667 11 20.1667C5.9374 20.1667 1.83334 16.0626 1.83334 11C1.83334 5.93738 5.9374 1.83333 11 1.83333ZM12.3585 15.5281C11.9104 15.5646 11.4573 15.5832 11 15.5832C10.5427 15.5832 10.0896 15.5646 9.64151 15.5281C9.72694 15.8919 9.82191 16.2299 9.92494 16.5387C10.1559 17.2305 10.4107 17.724 10.649 18.0258C10.766 18.174 10.8612 18.2531 10.9246 18.2919L10.9718 18.3164L10.9999 18.3242L11.0282 18.3164L11.0755 18.2919C11.1388 18.2531 11.234 18.174 11.351 18.0258C11.5893 17.724 11.8441 17.2305 12.0751 16.5387C12.1781 16.2299 12.2731 15.8919 12.3585 15.5281ZM4.40601 14.2126C5.23272 15.9064 6.69274 17.2342 8.47776 17.888C8.37228 17.6438 8.27514 17.3863 8.18597 17.1192C7.99926 16.5599 7.83924 15.9333 7.70996 15.2551C6.56101 15.0225 5.45513 14.6705 4.40601 14.2126ZM17.5941 14.2126C16.5449 14.6705 15.439 15.0225 14.29 15.2551C14.1608 15.9333 14.0007 16.5599 13.8141 17.1192C13.7249 17.3863 13.6277 17.6438 13.5222 17.888C15.3072 17.2342 16.7673 15.9064 17.5941 14.2126ZM12.8111 9.96499C12.2184 10.0431 11.6138 10.0833 11 10.0833C10.3862 10.0833 9.78167 10.0431 9.18895 9.96499C9.17428 10.3027 9.16668 10.6481 9.16668 10.9998C9.16668 11.9384 9.22085 12.832 9.31838 13.6547C9.87013 13.7175 10.4312 13.7499 11 13.7499C11.5688 13.7499 12.1299 13.7175 12.6816 13.6547C12.7792 12.832 12.8333 11.9384 12.8333 10.9998C12.8333 10.6481 12.8257 10.3027 12.8111 9.96499ZM4.18777 8.27973C3.85159 9.12087 3.66668 10.0389 3.66668 11C3.66668 11.275 3.68182 11.5465 3.71131 11.8136C4.86444 12.4754 6.116 12.9849 7.43901 13.3149C7.36981 12.5743 7.33334 11.7978 7.33334 10.9998C7.33334 10.5242 7.34629 10.0564 7.37139 9.59924C6.24625 9.29215 5.17839 8.84575 4.18777 8.27973ZM17.8122 8.2797C16.8216 8.84572 15.7538 9.29215 14.6286 9.59924C14.6538 10.0564 14.6667 10.5242 14.6667 10.9998C14.6667 11.7978 14.6302 12.5743 14.561 13.3149C15.884 12.9849 17.1356 12.4754 18.2887 11.8136C18.3182 11.5465 18.3333 11.275 18.3333 11C18.3333 10.0389 18.1485 9.12086 17.8122 8.2797ZM11.0146 3.67849L11.0041 3.67598L10.9854 3.67849L10.9515 3.69271C10.9436 3.69671 10.9347 3.70168 10.9246 3.70786C10.8612 3.74668 10.766 3.82578 10.649 3.97396C10.4107 4.2757 10.1559 4.76919 9.92494 5.46101C9.67799 6.20088 9.47706 7.10993 9.34433 8.136C9.88534 8.21115 10.4381 8.24999 11 8.24999C11.5619 8.24999 12.1147 8.21115 12.6557 8.13599C12.5229 7.10992 12.322 6.20088 12.0751 5.46101C11.8441 4.76919 11.5893 4.2757 11.351 3.97396C11.234 3.82578 11.1388 3.74668 11.0755 3.70786L11.0146 3.67849ZM8.4776 4.112C7.10497 4.61481 5.92453 5.5162 5.07647 6.67601C5.8497 7.1199 6.6774 7.47953 7.54725 7.74237C7.69354 6.67544 7.91075 5.70486 8.18597 4.88046C8.27511 4.61347 8.37218 4.35614 8.4776 4.112ZM13.5224 4.112C13.6278 4.35614 13.7249 4.61347 13.8141 4.88046C14.0893 5.70486 14.3065 6.67543 14.4528 7.74235C15.3226 7.4795 16.1503 7.11987 16.9235 6.67599C16.0755 5.51619 14.895 4.6148 13.5224 4.112Z" fill="currentColor"/>
    </g>
    <defs>
      <clipPath id="clip0_1491_5016">
        <rect width="22" height="22" fill="white"/>
      </clipPath>
    </defs>
  </svg>