<svg id="orchid" width="20" height="20" viewBox="0 0 22 22" fill="none" xmlns="http://www.w3.org/2000/svg">
    <rect x="0.5" y="0.5" width="21" height="21" rx="10.5" fill="#9295A5"/>
    <path fill-rule="evenodd" clip-rule="evenodd"
          d="M11 1C5.4772 1 1 5.4772 1 11C1 16.5228 5.4772 21 11 21C16.5228 21 21 16.5228 21 11C21 5.4772 16.5228 1 11 1ZM9.5 7.75C9.5 6.92157 10.1716 6.25 11 6.25C11.8284 6.25 12.5 6.92157 12.5 7.75V10.6875C12.5 11.5159 11.8284 12.1875 11 12.1875C10.1716 12.1875 9.5 11.5159 9.5 10.6875V7.75ZM11 13.125C10.1716 13.125 9.5 13.7966 9.5 14.625C9.5 15.4534 10.1716 16.125 11 16.125C11.8284 16.125 12.5 15.4534 12.5 14.625C12.5 13.7966 11.8284 13.125 11 13.125Z"
          fill="white"/>
    <rect x="0.5" y="0.5" width="21" height="21" rx="10.5" stroke="#F2F2F4"/>
</svg>
