<svg xmlns="http://www.w3.org/2000/svg" id="orchid" fill="currentColor" viewBox="0 0 25 24">
  <g  clip-path="url(#a)">
    <g >
      <path fill="currentColor" fill-rule="evenodd" d="M4.76 12.001V12c.003-.016.017-.104.095-.277.085-.191.225-.431.424-.708.397-.553.992-1.192 1.744-1.798C8.537 7.996 10.572 7 12.76 7s4.223.996 5.736 2.216c.752.606 1.347 1.245 1.745 1.798.199.277.338.517.424.708.078.173.092.261.094.277V12a1.07 1.07 0 0 1-.094.277 4.251 4.251 0 0 1-.424.708c-.398.553-.993 1.192-1.745 1.798C16.983 16.004 14.948 17 12.76 17c-2.188 0-4.223-.996-5.737-2.216-.752-.606-1.347-1.245-1.744-1.798a4.226 4.226 0 0 1-.424-.708 1.115 1.115 0 0 1-.095-.277Zm8-7.001C9.977 5 7.512 6.254 5.768 7.659c-.876.706-1.6 1.474-2.113 2.187-.256.356-.47.713-.624 1.055-.148.328-.271.71-.271 1.099 0 .388.123.771.27 1.099.155.342.37.7.625 1.055.513.713 1.237 1.48 2.113 2.187C7.512 17.746 9.977 19 12.76 19c2.783 0 5.248-1.254 6.991-2.659.877-.706 1.6-1.474 2.113-2.187.256-.356.471-.713.625-1.055.147-.328.27-.71.27-1.099 0-.388-.123-.771-.27-1.099a6.197 6.197 0 0 0-.625-1.055c-.513-.713-1.236-1.48-2.113-2.187C18.007 6.254 15.543 5 12.76 5Zm-1 7a1 1 0 1 1 2 0 1 1 0 0 1-2 0Zm1-3a3 3 0 1 0 0 6 3 3 0 0 0 0-6Z"  clip-rule="evenodd"/>
    </g>
  </g>
  <defs>
    <clipPath id="a" >
      <path fill="#fff" d="M.76 0h24v24h-24z"/>
    </clipPath>
  </defs>
</svg>
