<svg id="orchid" viewBox="0 0 20 21" fill="none" xmlns="http://www.w3.org/2000/svg">
<path fill-rule="evenodd" clip-rule="evenodd" d="M3.33334 10.5013C3.33334 6.8194 6.31811 3.83464 10 3.83464C13.6819 3.83464 16.6667 6.8194 16.6667 10.5013C16.6667 13.901 14.1219 16.7063 10.8333 17.1164V12.168H12.5C12.9603 12.168 13.3333 11.7949 13.3333 11.3346C13.3333 10.8744 12.9603 10.5013 12.5 10.5013H10.8333V8.83464C10.8333 8.3744 11.2064 8.0013 11.6667 8.0013H12.0833C12.5436 8.0013 12.9167 7.6282 12.9167 7.16797C12.9167 6.70774 12.5436 6.33464 12.0833 6.33464H11.6667C10.2859 6.33464 9.16667 7.45393 9.16667 8.83464V10.5013H7.50001C7.03977 10.5013 6.66667 10.8744 6.66667 11.3346C6.66667 11.7949 7.03977 12.168 7.50001 12.168H9.16667V17.1164C5.87808 16.7063 3.33334 13.901 3.33334 10.5013ZM10 18.8346C14.6023 18.8346 18.3333 15.1036 18.3333 10.5013C18.3333 5.89893 14.6023 2.16797 10 2.16797C5.39763 2.16797 1.66667 5.89893 1.66667 10.5013C1.66667 15.1036 5.39763 18.8346 10 18.8346Z" fill="currentColor"/>
</svg>
