<svg id="orchid" viewBox="0 0 18 18" fill="none" xmlns="http://www.w3.org/2000/svg">
    <g id="Inner">
        <path id="Vector"
              d="M9 1.5C13.1421 1.5 16.5 4.85786 16.5 9C16.5 13.1421 13.1421 16.5 9 16.5C4.85786 16.5 1.5 13.1421 1.5 9C1.5 4.85786 4.85786 1.5 9 1.5ZM7.40906 6.34832C7.11616 6.05543 6.64129 6.05543 6.34839 6.34832C6.07803 6.61869 6.05723 7.04411 6.286 7.33833L6.34839 7.40898L7.93935 8.99992L6.34832 10.591C6.05543 10.8839 6.05543 11.3587 6.34832 11.6516C6.61869 11.922 7.04411 11.9428 7.33833 11.714L7.40898 11.6516L9 10.0606L10.5911 11.6516C10.8839 11.9445 11.3588 11.9445 11.6517 11.6516C11.922 11.3813 11.9428 10.9558 11.7141 10.6616L11.6517 10.591L10.0606 8.99992L11.6516 7.40897C11.9445 7.11608 11.9445 6.6412 11.6516 6.34831C11.3813 6.07794 10.9558 6.05714 10.6616 6.28591L10.591 6.34831L9 7.93927L7.40906 6.34832Z"
              fill="currentColor"/>
    </g>
</svg>
