<svg id="orchid" width="16" height="16" viewBox="0 0 16 16" fill="currentColor" xmlns="http://www.w3.org/2000/svg">
  <g clip-path="url(#a)">
    <path fill-rule="evenodd" clip-rule="evenodd"
      d="M10.3905 2C10.7441 2 11.0833 2.14047 11.3333 2.39053L12.9428 4C13.1929 4.25005 13.3333 4.58919 13.3333 4.94281V12.6667C13.3333 13.4031 12.7364 14 12 14H3.33333C2.59695 14 2 13.4031 2 12.6667V3.33333C2 2.59695 2.59695 2 3.33333 2H10.3905ZM5.33333 3.33333H3.33333V12.6667H4.66667V9.33333C4.66667 8.59693 5.26362 8 6 8H9.33333C10.0697 8 10.6667 8.59693 10.6667 9.33333V12.6667H12V4.94281L10.3905 3.33333H10V5C10 5.55229 9.55227 6 9 6H6.33333C5.78105 6 5.33333 5.55229 5.33333 5V3.33333ZM9.33333 9.33333H6V12.6667H9.33333V9.33333ZM8.66667 3.33333H6.66667V4.66667H8.66667V3.33333Z"
      fill="currentColor" />
  </g>
  <defs>
    <clipPath id="a">
      <rect width="16" height="16" fill="white" />
    </clipPath>
  </defs>
</svg>