<svg  id="orchid" viewBox="0 0 20 20" fill="none" xmlns="http://www.w3.org/2000/svg">
<path fill-rule="evenodd" clip-rule="evenodd" d="M17.5 10.0002C17.9603 10.0002 18.3334 10.3732 18.3334 10.8335V15.8335C18.3334 16.2937 17.9603 16.6668 17.5 16.6668C17.1622 16.6668 16.8714 16.4658 16.7405 16.1769C16.234 16.4877 15.6379 16.6668 15 16.6668C13.1591 16.6668 11.6667 15.1745 11.6667 13.3335C11.6667 11.4926 13.1591 10.0002 15 10.0002C15.6379 10.0002 16.234 10.1793 16.7405 10.4901C16.8714 10.2012 17.1622 10.0002 17.5 10.0002ZM6.66673 3.3335C7.27701 3.3335 7.8175 3.72749 8.00426 4.3085L11.6268 15.5785C11.7676 16.0167 11.5265 16.486 11.0884 16.6268C10.6502 16.7677 10.1809 16.5267 10.04 16.0885L8.88662 12.5002H4.44681L3.29341 16.0885C3.15258 16.5267 2.68321 16.7677 2.24506 16.6268C1.8069 16.486 1.56586 16.0167 1.70671 15.5785L5.3292 4.3085C5.51596 3.72749 6.05644 3.3335 6.66673 3.3335ZM15 11.6668C14.0795 11.6668 13.3334 12.4131 13.3334 13.3335C13.3334 14.254 14.0795 15.0002 15 15.0002C15.9205 15.0002 16.6667 14.254 16.6667 13.3335C16.6667 12.4131 15.9205 11.6668 15 11.6668ZM6.66673 5.59376L4.98252 10.8335H8.35096L6.66673 5.59376Z" fill="#61667C"/>
</svg>
