<svg  id="orchid" viewBox="0 0 20 20" fill="none" xmlns="http://www.w3.org/2000/svg">
<path d="M17.5 14.666C17.5 15.7706 16.6046 16.666 15.5 16.666L4.5 16.666C3.39543 16.666 2.5 15.7706 2.5 14.666L2.5 13.8327C2.5 13.5565 2.72386 13.3327 3 13.3327L17 13.3327C17.2761 13.3327 17.5 13.5565 17.5 13.8327L17.5 14.666Z" fill="#61667C"/>
<path opacity="0.4" fill-rule="evenodd" clip-rule="evenodd" d="M15.8333 12.5L15.8333 5L4.16667 5L4.16667 12.5L2.5 12.5L2.5 5C2.5 4.07952 3.24619 3.33333 4.16667 3.33333L15.8333 3.33333C16.7538 3.33333 17.5 4.07952 17.5 5L17.5 12.5L15.8333 12.5Z" fill="#61667C"/>
</svg>
