<svg xmlns="http://www.w3.org/2000/svg" id="orchid" fill="currentColor" viewBox="0 0 24 25">
  <g  clip-path="url(#a)">
    <g >
      <path fill="currentColor" fill-rule="evenodd" d="M9 2.5a3.99 3.99 0 0 1 3 1.354A3.99 3.99 0 0 1 15 2.5h.5A1.5 1.5 0 0 1 17 4v.5c0 .729-.195 1.412-.535 2H19a2 2 0 0 1 2 2v3a2 2 0 0 1-1 1.732V18.5a3 3 0 0 1-3 3H7a3 3 0 0 1-3-3v-5.268A2 2 0 0 1 3 11.5v-3a2 2 0 0 1 2-2h2.535A3.982 3.982 0 0 1 7 4.5V4a1.5 1.5 0 0 1 1.5-1.5H9Zm9 11h-5v6h4l.117-.007a1 1 0 0 0 .876-.876L18 18.5v-5Zm-7 0H6v5a1 1 0 0 0 .883.993L7 19.5h4v-6Zm8-5h-6v3h6v-3Zm-8 0H5v3h6v-3Zm-2-4a2 2 0 0 0 2 2 2 2 0 0 0-2-2Zm6 0a2 2 0 0 0-2 2 2 2 0 0 0 2-2Z"  clip-rule="evenodd"/>
    </g>
  </g>
  <defs>
    <clipPath id="a" >
      <path fill="#fff" d="M0 .5h24v24H0z"/>
    </clipPath>
  </defs>
</svg>
