<svg id="orchid" viewBox="0 0 24 24" fill="none" xmlns="http://www.w3.org/2000/svg">
    <path d="M20.625 12.0005C20.625 12.803 19.9744 13.4536 19.1719 13.4536H14.1562L12 9.09375L14.3274 5.06273C14.7286 4.36774 15.6173 4.12961 16.3123 4.53082L16.3126 4.53098C17.0076 4.93222 17.2458 5.82095 16.8445 6.51599L14.5172 10.5473H19.1719C19.9744 10.5473 20.625 11.1979 20.625 12.0005Z"
          fill="#1A73E8"/>
    <path d="M16.3125 19.4695L16.3122 19.4696C15.6172 19.8709 14.7285 19.6327 14.3273 18.9377L11.9999 14.9067L9.67253 18.9377C9.27127 19.6327 8.3826 19.8709 7.6876 19.4696L7.68732 19.4695C6.99227 19.0682 6.7541 18.1795 7.15535 17.4845L9.48271 13.4531L11.9999 13.3594L14.5171 13.4531L16.8444 17.4845C17.2457 18.1795 17.0075 19.0682 16.3125 19.4695Z"
          fill="#EA4335"/>
    <path d="M11.9999 9.09375L11.3437 10.8755L9.48271 10.5473L7.15535 6.51599C6.7541 5.82095 6.99227 4.93222 7.68732 4.53098L7.6876 4.53082C8.3826 4.12961 9.27127 4.36774 9.67253 5.06273L11.9999 9.09375Z"
          fill="#FBBC04"/>
    <path d="M11.625 10.5469L9.9375 13.4531H4.82812C4.02559 13.4531 3.375 12.8025 3.375 12C3.375 11.1975 4.02559 10.5469 4.82812 10.5469H11.625Z"
          fill="#34A853"/>
    <path d="M14.5173 13.4536H9.48291L12.0001 9.09375L14.5173 13.4536Z" fill="#185DB7"/>
</svg>
