<svg id="orchid" width="108" height="28" viewBox="0 0 108 28" fill="none" xmlns="http://www.w3.org/2000/svg">
    <path d="M13.9365 0.845243C14.2815 0.884666 14.6277 0.911473 14.9704 0.963511C16.0038 1.11726 17.0239 1.33882 17.9814 1.7634C18.7104 2.08627 19.4434 2.4186 20.1216 2.83294C21.4042 3.61721 22.5377 4.62295 23.4693 5.80344C24.3415 6.89455 25.0363 8.11657 25.528 9.42443C26.1271 11.021 26.387 12.678 26.339 14.3795C26.3006 15.9819 25.9618 17.5628 25.3401 19.04C24.8536 20.1939 24.2077 21.2737 23.4213 22.2479C22.6702 23.183 21.7931 24.0093 20.8152 24.7031C19.7834 25.4363 18.6527 26.019 17.4572 26.4338C14.6949 27.3894 11.6931 27.3959 8.92669 26.4523C8.05838 26.1566 7.22312 25.7713 6.43439 25.3027C5.60257 24.8036 4.80659 24.2446 4.12877 23.5437C3.61085 23.0079 3.09136 22.4663 2.63842 21.8769C2.22212 21.3344 1.87396 20.7356 1.5317 20.1423C1.05277 19.3101 0.718783 18.412 0.465141 17.4879C0.24507 16.7119 0.102453 15.9158 0.0393854 15.1116C0.0315083 15.0012 0.0129972 14.8916 0 14.782V13.2055C0.0102402 13.1412 0.0259942 13.0773 0.0303266 13.0127C0.11855 11.7287 0.409608 10.4916 0.866478 9.2892C1.69264 7.14536 3.06386 5.25468 4.8444 3.80432C6.70718 2.28316 8.94954 1.29995 11.3296 0.960749C11.6592 0.911865 11.9921 0.881906 12.3237 0.844849L13.9365 0.845243ZM13.163 1.78745C6.39658 1.78745 0.940522 7.26405 0.943279 14.0688C0.946036 20.7376 6.40367 26.1219 12.9928 26.2C19.9585 26.2824 25.3012 20.7478 25.3937 14.1094C25.489 7.26051 19.8486 1.78233 13.163 1.78745Z"
          fill="currentColor"/>
    <path d="M1.88542 13.7621C1.85431 12.4118 2.11622 11.099 2.62232 9.84067C2.97232 8.97817 3.43592 8.16636 4.00081 7.42682C4.66563 6.54848 5.43286 5.77541 6.27295 5.06895C6.57464 4.81546 6.90312 4.83241 7.0902 5.11507C7.20835 5.29523 7.1989 5.48131 7.04175 5.62757C6.6223 6.02179 6.18433 6.39867 5.77669 6.80551C4.69517 7.88452 3.87832 9.13146 3.37143 10.583C2.91653 11.884 2.76923 13.2192 2.85942 14.5895C2.92625 15.7034 3.15978 16.801 3.55221 17.8455C3.83193 18.5803 4.20128 19.2777 4.65185 19.9219C5.1424 20.6175 5.72212 21.2456 6.37614 21.7901C7.0058 22.3138 7.68899 22.7694 8.41433 23.1494C9.15281 23.5436 9.92161 23.8535 10.7361 24.0423C12.4332 24.4366 14.1303 24.4232 15.8168 23.9852C18.0457 23.3924 20.0146 22.075 21.4139 20.24C22.2204 19.1712 22.8137 17.957 23.1614 16.6636C23.3839 15.8455 23.432 15.0106 23.5013 14.1756C23.5072 14.1035 23.5119 14.0313 23.5249 13.9604C23.5808 13.6592 23.7648 13.5034 24.035 13.5267C24.2937 13.548 24.4599 13.7282 24.4501 14.0301C24.4363 14.4425 24.404 14.8549 24.3611 15.2656C24.2283 16.5786 23.8705 17.8589 23.3032 19.0502C22.9198 19.8481 22.4328 20.5919 21.855 21.2622C21.0113 22.2502 20.0078 23.0418 18.8944 23.6938C17.3391 24.6053 15.6601 25.1466 13.8578 25.2707C12.6112 25.3555 11.3852 25.2104 10.1788 24.8808C9.41669 24.6727 8.67546 24.405 7.98621 24.0277C7.39149 23.7025 6.82828 23.315 6.27059 22.9275C5.61088 22.469 5.052 21.8954 4.5329 21.2851C3.98074 20.6367 3.50828 19.9244 3.12567 19.1634C2.73614 18.3978 2.43817 17.5889 2.23792 16.7535C2.00712 15.7746 1.86455 14.7823 1.88542 13.7621Z"
          fill="currentColor"/>
    <path d="M4.71402 14.0456C4.68842 15.1889 4.95033 16.3246 5.43162 17.4095C5.90068 18.4663 6.58114 19.4157 7.431 20.199C8.28086 20.9824 9.2821 21.5831 10.3729 21.964C10.4783 22.0004 10.5787 22.0498 10.6718 22.1111C10.8491 22.2294 10.8999 22.4312 10.8243 22.6535C10.7616 22.8369 10.6049 22.9607 10.3985 22.9267C10.1665 22.889 9.93964 22.8241 9.72266 22.7336C8.76993 22.333 7.87785 21.8237 7.07557 21.1697C6.3811 20.6114 5.78013 19.9457 5.29535 19.1977C4.16066 17.4281 3.69433 15.4825 3.78413 13.3979C3.83533 12.2128 4.14214 11.0885 4.64313 10.0115C5.17896 8.85396 5.94889 7.82033 6.90424 6.97591C7.5465 6.40566 8.26415 5.92665 9.03696 5.55236C10.2102 4.98073 11.4454 4.689 12.7439 4.61291C13.7998 4.55062 14.8211 4.71896 15.8305 4.9961C17.1829 5.36465 18.4272 6.05249 19.4591 7.00192C20.3492 7.81896 21.0847 8.78998 21.6304 9.86836C21.8155 10.2295 21.6812 10.4554 21.4142 10.5941C21.1779 10.7163 20.9242 10.5906 20.7896 10.3134C20.263 9.23088 19.5241 8.3147 18.6119 7.53374C17.5402 6.60581 16.2422 5.97838 14.8498 5.71517C13.2992 5.41792 11.7664 5.51096 10.2768 6.05263C9.14485 6.45805 8.11342 7.10276 7.25267 7.94289C6.39192 8.78303 5.72206 9.79888 5.28865 10.9213C4.89466 11.9151 4.69942 12.9766 4.71402 14.0456Z"
          fill="currentColor"/>
    <path d="M16.8669 18.699H15.7523V14.875H11.4652V18.6967H10.358V10.205H11.4585V13.9656H15.7479V10.1944C16.1024 10.1944 16.4411 10.1916 16.7802 10.1987C16.8129 10.1987 16.859 10.2567 16.8724 10.2961C16.8823 10.3542 16.8842 10.4133 16.8779 10.4719C16.8779 13.1282 16.8779 15.7844 16.8779 18.4404C16.8775 18.5236 16.8708 18.6064 16.8669 18.699Z"
          fill="currentColor"/>
    <path d="M37.9967 15.1207V21.5218H34.992C34.9889 21.4492 34.9826 21.3798 34.9826 21.3105C34.9826 16.4762 34.9813 11.6416 34.9786 6.80684C34.9786 6.62076 35.0239 6.56045 35.2173 6.56281C36.0701 6.5728 36.9235 6.5728 37.7774 6.56281C37.9479 6.56281 37.9999 6.60499 37.9991 6.78161C37.9928 8.70347 37.9952 10.6257 37.9952 12.5476V12.8007C38.0873 12.805 38.1641 12.8113 38.2405 12.8113C40.2283 12.8113 42.2185 12.8113 44.2043 12.816C44.3953 12.816 44.4449 12.7624 44.4445 12.574C44.4378 10.6588 44.4402 8.74328 44.4406 6.82773C44.4406 6.56754 44.4406 6.56675 44.6974 6.56675C45.5501 6.56675 46.4032 6.57148 47.2574 6.56281C47.4335 6.56281 47.4764 6.61524 47.4764 6.78633C47.4722 11.634 47.471 16.4817 47.4729 21.3294V21.5178H44.4402V15.3888C44.4402 15.1207 44.4402 15.1207 44.1751 15.1207H37.9967Z"
          fill="currentColor"/>
    <path d="M89.7613 11.4414C89.7664 11.3334 89.7719 11.2711 89.7719 11.2088C89.7719 10.7432 89.775 10.2773 89.7719 9.81168C89.7719 9.69617 89.8034 9.64847 89.9271 9.64887C90.8327 9.65281 91.7385 9.65281 92.6447 9.64887C92.7628 9.64887 92.8164 9.68553 92.8061 9.80656C92.8014 9.8586 92.8061 9.91142 92.8061 9.96425V21.5218H89.7782V19.6567C89.4911 19.9792 89.2311 20.3052 88.9357 20.5954C88.1799 21.3381 87.2477 21.6748 86.2016 21.715C85.4326 21.7485 84.6652 21.618 83.9503 21.3322C83.0622 20.9774 82.3355 20.4002 81.7393 19.652C80.6656 18.3053 80.3584 16.7446 80.447 15.0734C80.484 14.3701 80.6046 13.6826 80.8669 13.0234C81.1334 12.3457 81.524 11.7238 82.0185 11.1895C82.6412 10.5142 83.3832 10.0238 84.2572 9.75728C85.3863 9.41312 86.5332 9.37094 87.6624 9.74782C88.5155 10.0325 89.1744 10.5958 89.6872 11.331L89.7613 11.4414ZM89.788 15.6202C89.7676 15.366 89.7546 15.1105 89.7254 14.857C89.5777 13.556 88.5411 12.4215 87.2595 12.1763C86.4277 12.0162 85.6392 12.1396 84.9299 12.6257C84.2044 13.1224 83.7412 13.7969 83.5908 14.6717C83.3513 16.072 83.5344 17.3485 84.6691 18.3479C85.1427 18.7702 85.7399 19.0279 86.3718 19.0827C87.0964 19.1517 87.7644 18.9672 88.3631 18.5553C88.7791 18.2768 89.122 17.9021 89.3627 17.4628C89.6726 16.8896 89.7884 16.2691 89.788 15.6206V15.6202Z"
          fill="currentColor"/>
    <path d="M70.6637 15.5839V21.5162H67.6014V21.3077C67.6014 16.4744 67.6003 11.6409 67.5979 6.80717C67.5979 6.62149 67.6428 6.56196 67.8342 6.56275C69.6066 6.56985 71.3761 6.55881 73.1473 6.57024C74.1367 6.57655 75.1083 6.70743 76.0224 7.12216C76.5226 7.35326 76.9745 7.67726 77.354 8.07698C77.783 8.5193 78.1323 9.01918 78.3229 9.60658C78.6774 10.6982 78.5986 11.7748 78.1548 12.8302C77.9184 13.3947 77.5919 13.9029 77.1398 14.3058C76.8264 14.5825 76.4767 14.8151 76.1004 14.9972C75.2316 15.4191 74.2922 15.5665 73.3336 15.5807C72.5203 15.5929 71.7066 15.5831 70.8917 15.5835L70.6637 15.5839ZM70.6637 13.2264C70.6967 13.2414 70.7086 13.2512 70.72 13.2512C71.683 13.2433 72.6499 13.2776 73.6077 13.2142C74.6337 13.146 75.308 12.4687 75.4435 11.4579C75.6219 10.1289 74.9177 8.97976 73.4683 8.92417C72.5589 8.88948 71.6471 8.91077 70.7361 8.90801C70.7107 8.91278 70.6862 8.9217 70.6637 8.93442V13.2264Z"
          fill="currentColor"/>
    <path d="M97.4183 27.1395C97.9776 25.8307 98.5294 24.5439 99.0773 23.2556C99.3333 22.6532 99.584 22.0487 99.8295 21.4421C99.8597 21.3583 99.8597 21.2666 99.8295 21.1827C99.4475 20.2149 99.056 19.251 98.67 18.2848C98.3908 17.5858 98.1186 16.8841 97.8382 16.1855C97.3809 15.0422 96.9174 13.9029 96.4597 12.7605C96.1903 12.0859 95.9308 11.4075 95.6633 10.7322C95.5267 10.386 95.3829 10.0427 95.2301 9.66775C95.3089 9.65986 95.364 9.64961 95.4184 9.64961C96.4286 9.64961 97.4388 9.64961 98.451 9.64685C98.5692 9.64685 98.6322 9.67208 98.6767 9.79981C98.9717 10.6466 99.2785 11.4895 99.5826 12.3327C99.9343 13.3053 100.292 14.2763 100.639 15.25C100.929 16.057 101.212 16.8663 101.5 17.6737C101.54 17.7892 101.593 17.9012 101.658 18.0561C101.758 17.8062 101.845 17.6 101.924 17.3907C102.205 16.6416 102.48 15.8926 102.763 15.1463C103.139 14.1548 103.52 13.1657 103.898 12.175C104.203 11.374 104.505 10.5713 104.814 9.77024C104.834 9.7186 104.908 9.65197 104.957 9.65197C105.948 9.64566 106.939 9.64804 107.929 9.64961C107.954 9.65513 107.978 9.66387 108 9.67563C107.971 9.75684 107.947 9.83647 107.915 9.91216C107.607 10.642 107.298 11.3713 106.988 12.1001C106.615 12.9722 106.236 13.8422 105.865 14.7154C105.288 16.0771 104.716 17.4411 104.139 18.8032C103.611 20.0508 103.081 21.2977 102.55 22.544C102.078 23.6518 101.605 24.759 101.132 25.8658C100.975 26.2391 100.817 26.6148 100.664 26.9897C100.625 27.0855 100.586 27.1557 100.458 27.1553C99.4735 27.1498 98.4888 27.1521 97.5042 27.1513C97.4754 27.1492 97.4467 27.1453 97.4183 27.1395Z"
          fill="currentColor"/>
    <path d="M64.3038 9.64922V9.90783C64.3038 10.5636 64.3038 11.2193 64.3038 11.875C64.3038 12.1344 64.3038 12.1348 64.0521 12.1348C63.3372 12.1348 62.6222 12.1348 61.9072 12.1348H61.6536C61.6492 12.2204 61.6426 12.2894 61.6426 12.3584C61.6426 14.2144 61.637 16.0704 61.6481 17.9264C61.6497 18.1533 61.6986 18.3774 61.7914 18.5844C61.9297 18.8852 62.2361 18.9601 62.5374 18.9739C63.0545 18.9975 63.5724 19.0054 64.09 19.0019C64.2802 19.0019 64.3361 19.0582 64.3334 19.2471C64.3235 19.9354 64.3298 20.6241 64.329 21.3128C64.329 21.3771 64.3227 21.441 64.3196 21.4965C64.2959 21.5115 64.2853 21.5241 64.2747 21.5241C63.2857 21.521 62.2932 21.5998 61.3093 21.4473C60.5323 21.3266 59.8367 21.0274 59.3098 20.4171C58.9616 20.0139 58.7753 19.5313 58.7048 19.0109C58.6429 18.5901 58.608 18.1657 58.6004 17.7403C58.5894 15.9632 58.5957 14.186 58.5957 12.4088V12.1329C58.2314 12.1329 57.8911 12.1234 57.552 12.1368C57.3712 12.1439 57.3196 12.0887 57.3224 11.9066C57.333 11.1658 57.3267 10.4251 57.3267 9.65947H58.5894V6.74219H61.6359V9.64883L64.3038 9.64922Z"
          fill="currentColor"/>
    <path d="M54.4244 21.5245H51.4312V9.6665H54.4244V21.5245Z" fill="currentColor"/>
    <path d="M52.9108 8.47241C51.856 8.47241 51.0991 7.68671 51.0904 6.61954C51.0825 5.60637 51.947 4.76666 52.949 4.79347C53.9659 4.81988 54.7544 5.61583 54.7607 6.64634C54.7686 7.65044 53.9246 8.52641 52.9108 8.47241Z"
          fill="currentColor"/>
</svg>
