<svg id="orchid" viewBox="0 0 20 20" fill="none" xmlns="http://www.w3.org/2000/svg">
    <g id="Inner">
        <path id="&#229;&#189;&#162;&#231;&#138;&#182;"
              d="M16.6666 2.5C17.5453 2.5 18.2651 3.1799 18.3287 4.04228L18.3333 4.16667V15.8333C18.3333 16.712 17.6534 17.4318 16.791 17.4954L16.6666 17.5H3.33329C2.45466 17.5 1.73482 16.8201 1.6712 15.9577L1.66663 15.8333V4.16667C1.66663 3.28803 2.34652 2.5682 3.20891 2.50457L3.33329 2.5H16.6666ZM8.23206 10.0419L3.51801 14.7559C3.46178 14.8122 3.39951 14.8587 3.33329 14.8955V15.8333H16.6666V14.8956C16.6003 14.8588 16.538 14.8122 16.4816 14.7559L14.1246 12.3989L13.5354 12.9882L13.708 13.1607C14.0334 13.4862 14.0334 14.0138 13.708 14.3392C13.3825 14.6647 12.8549 14.6647 12.5295 14.3392L8.23206 10.0419ZM16.6666 4.16667H3.33329V12.5836L7.49548 8.42142C7.87516 8.04174 8.47498 8.01643 8.88404 8.34548L8.96863 8.42142L12.3569 11.8097L13.388 10.7784C13.7678 10.3988 14.3676 10.3735 14.7766 10.7025L14.8612 10.7784L16.6666 12.5839V4.16667ZM12.9166 5.83333C13.607 5.83333 14.1666 6.39297 14.1666 7.08333C14.1666 7.77369 13.607 8.33333 12.9166 8.33333C12.2263 8.33333 11.6666 7.77369 11.6666 7.08333C11.6666 6.39297 12.2263 5.83333 12.9166 5.83333Z"
              fill="currentColor"/>
    </g>
</svg>
