<svg xmlns="http://www.w3.org/2000/svg" id="orchid" fill="currentColor" viewBox="0 0 25 24">
  <g  clip-path="url(#a)">
    <g >
      <path fill="currentColor" fill-rule="evenodd" d="M16.76 3a5 5 0 0 1 5 5v8a5 5 0 0 1-5 5h-8a5 5 0 0 1-5-5V8a5 5 0 0 1 5-5h8Zm0 2h-8a3 3 0 0 0-3 3v8a3 3 0 0 0 3 3h8a3 3 0 0 0 3-3V8a3 3 0 0 0-3-3Zm-4 3a4 4 0 1 1 0 8 4 4 0 0 1 0-8Zm0 2a2 2 0 1 0 0 4 2 2 0 0 0 0-4Zm4.5-3.5a1 1 0 1 1 0 2 1 1 0 0 1 0-2Z"  clip-rule="evenodd"/>
    </g>
  </g>
  <defs>
    <clipPath id="a" >
      <path fill="#fff" d="M.76 0h24v24h-24z"/>
    </clipPath>
  </defs>
</svg>
