<svg id="orchid" viewBox="0 0 22 22" fill="none" xmlns="http://www.w3.org/2000/svg">
    <g clip-path="url(#clip0_5137_8505)">
        <path fill-rule="evenodd" clip-rule="evenodd"
              d="M10.8643 5.30049C11.3947 4.77032 12.0596 4.39478 12.7875 4.21427C13.5154 4.03376 14.2788 4.0551 14.9955 4.27601C15.7122 4.49692 16.3551 4.90902 16.855 5.46801C17.355 6.027 17.6931 6.71171 17.833 7.4485C17.9729 8.18529 17.9093 8.94628 17.649 9.64962C17.3887 10.353 16.9416 10.972 16.3558 11.4403C15.77 11.9085 15.0676 12.2081 14.3242 12.307C13.5808 12.4059 12.8245 12.3002 12.1366 12.0013C11.8948 11.8949 11.6336 11.8394 11.3694 11.8382H10.12C9.48745 11.8382 8.97412 12.3515 8.97412 12.984V14.4305H7.52854C6.89604 14.4305 6.3827 14.9438 6.3827 15.5763V17.0228H4.32662V15.7267L9.23629 10.8179C9.73495 10.3192 9.85962 9.62991 9.74045 9.04782C9.60258 8.37899 9.63309 7.68638 9.82926 7.03227C10.0254 6.37816 10.3811 5.78306 10.8643 5.30049ZM17.9941 4.00432C17.0881 3.09818 15.9142 2.50824 14.6464 2.32204C13.3786 2.13584 12.0846 2.36329 10.9564 2.97065C9.82808 3.57801 8.92566 4.53292 8.38298 5.69369C7.8403 6.85447 7.68629 8.15926 7.94379 9.41449C7.95234 9.45033 7.95043 9.48787 7.93829 9.52266L2.89662 14.5643C2.76879 14.692 2.66738 14.8436 2.59817 15.0105C2.52897 15.1774 2.49332 15.3562 2.49329 15.5369V17.9303C2.49329 18.4418 2.90762 18.8562 3.41912 18.8562H7.0702C7.7027 18.8562 8.21604 18.3428 8.21604 17.7103V16.2638H9.66254C10.295 16.2638 10.8084 15.7505 10.8084 15.118V13.6715H11.3675C11.3694 13.6715 11.3822 13.6733 11.406 13.6834C12.6785 14.2351 14.1036 14.3257 15.4358 13.9397C16.7679 13.5536 17.9237 12.7151 18.7041 11.5685C19.4844 10.4219 19.8405 9.03903 19.7109 7.65814C19.5813 6.27725 18.9742 4.98571 17.9941 4.00432ZM13.4566 8.54182C13.5843 8.66954 13.736 8.77086 13.9028 8.83998C14.0697 8.9091 14.2486 8.94468 14.4292 8.94468C14.6098 8.94468 14.7887 8.9091 14.9556 8.83998C15.1224 8.77086 15.2741 8.66954 15.4018 8.54182C15.5295 8.4141 15.6308 8.26247 15.6999 8.0956C15.7691 7.92872 15.8046 7.74986 15.8046 7.56924C15.8046 7.38861 15.7691 7.20976 15.6999 7.04288C15.6308 6.876 15.5295 6.72438 15.4018 6.59666C15.144 6.33871 14.7942 6.19375 14.4295 6.19366C14.0648 6.19358 13.715 6.33837 13.4571 6.5962C13.1991 6.85402 13.0542 7.20375 13.0541 7.56846C13.054 7.93316 13.1988 8.28388 13.4566 8.54182Z"
              fill="currentColor"/>
    </g>
    <defs>
        <clipPath id="clip0_5137_8505">
            <rect width="22" height="22" fill="white"/>
        </clipPath>
    </defs>
</svg>
