<svg id="orchid" viewBox="0 0 20 21" fill="none" xmlns="http://www.w3.org/2000/svg">
<path fill-rule="evenodd" clip-rule="evenodd" d="M15.8288 3.70895C15.7652 2.84657 15.0454 2.16667 14.1667 2.16667H5.83341L5.70903 2.17124C4.84665 2.23487 4.16675 2.9547 4.16675 3.83334V17.1667L4.17132 17.2911C4.23494 18.1535 4.95478 18.8333 5.83341 18.8333H14.1667L14.2911 18.8288C15.1535 18.7651 15.8334 18.0453 15.8334 17.1667V3.83334L15.8288 3.70895ZM5.83341 3.83334H14.1667V17.1667H5.83341V3.83334ZM11.6667 7.16667C11.6667 8.08715 10.9206 8.83334 10.0001 8.83334C9.07961 8.83334 8.33341 8.08715 8.33341 7.16667C8.33341 6.2462 9.07961 5.50001 10.0001 5.50001C10.9206 5.50001 11.6667 6.2462 11.6667 7.16667ZM12.0767 10.4251C12.0414 10.2308 11.8713 10.0833 11.6667 10.0833H8.33341L8.25853 10.0901C8.06417 10.1253 7.91675 10.2955 7.91675 10.5V10.9167L7.92346 10.9916C7.95875 11.1859 8.1289 11.3333 8.33341 11.3333H11.6667L11.7416 11.3266C11.936 11.2913 12.0834 11.1212 12.0834 10.9167V10.5L12.0767 10.4251ZM12.07 12.9251C12.0347 12.7308 11.8646 12.5833 11.66 12.5833H8.3267L8.25181 12.5901C8.05746 12.6253 7.91003 12.7955 7.91003 13V13.4167L7.91675 13.4916C7.95203 13.6859 8.12218 13.8333 8.3267 13.8333H11.66L11.7349 13.8266C11.9293 13.7913 12.0767 13.6212 12.0767 13.4167V13L12.07 12.9251Z" fill="#61667C"/>
</svg>
