<svg id="orchid" viewBox="0 0 17 16" fill="none" xmlns="http://www.w3.org/2000/svg">
    <g clip-path="url(#clip0_2847_361)">
        <path d="M5.32511 11.3417C5.58546 11.0813 6.00757 11.0813 6.26792 11.3417C6.50824 11.582 6.52673 11.9601 6.32338 12.2217L6.26792 12.2845L4.73585 13.8165C4.43212 14.1203 3.95223 14.1406 3.62501 13.8773L3.55735 13.8165L2.73237 12.9916C2.47202 12.7312 2.47202 12.3091 2.73237 12.0487C2.97269 11.8084 3.35085 11.7899 3.61238 11.9933L3.67518 12.0487L4.1466 12.5202L5.32511 11.3417ZM13.8335 11.9999C14.2017 11.9999 14.5001 12.2985 14.5001 12.6666C14.5001 13.0348 14.2017 13.3333 13.8335 13.3333H7.83347C7.46527 13.3333 7.1668 13.0348 7.1668 12.6666C7.1668 12.2985 7.46527 11.9999 7.83347 11.9999H13.8335ZM6.26792 6.675C6.52827 6.93533 6.52827 7.35746 6.26792 7.6178L4.73585 9.14986C4.41042 9.47533 3.88278 9.47533 3.55735 9.14986L2.73237 8.32486C2.47202 8.06453 2.47202 7.64246 2.73237 7.38206C2.99272 7.12173 3.41483 7.12173 3.67518 7.38206L4.1466 7.85353L5.32511 6.675C5.58546 6.41464 6.00757 6.41464 6.26792 6.675ZM13.8335 7.33326C14.2017 7.33326 14.5001 7.6318 14.5001 7.99993C14.5001 8.34183 14.2428 8.6236 13.9112 8.66211L13.8335 8.6666H7.83347C7.46527 8.6666 7.1668 8.36813 7.1668 7.99993C7.1668 7.65809 7.42415 7.37627 7.75572 7.33775L7.83347 7.33326H13.8335ZM5.32511 2.00833C5.58546 1.74798 6.00757 1.74798 6.26792 2.00833C6.50824 2.24865 6.52673 2.62681 6.32338 2.88833L6.26792 2.95114L4.73585 4.4832C4.43212 4.78694 3.95223 4.80719 3.62501 4.54395L3.55735 4.4832L2.73237 3.65823C2.47202 3.39788 2.47202 2.97577 2.73237 2.71542C2.97269 2.4751 3.35085 2.45661 3.61238 2.65996L3.67518 2.71542L4.1466 3.18684L5.32511 2.00833ZM13.8335 2.66663C14.2017 2.66663 14.5001 2.9651 14.5001 3.3333C14.5001 3.67518 14.2428 3.95697 13.9112 3.99548L13.8335 3.99996H7.83347C7.46527 3.99996 7.1668 3.70148 7.1668 3.3333C7.1668 2.9914 7.42415 2.70962 7.75572 2.67111L7.83347 2.66663H13.8335Z"
              fill="currentColor"/>
    </g>
    <defs>
        <clipPath id="clip0_2847_361">
            <rect width="16" height="16" fill="white" transform="translate(0.5)"/>
        </clipPath>
    </defs>
</svg>
