<svg id="orchid" viewBox="0 0 24 24" fill="none" xmlns="http://www.w3.org/2000/svg">
<g clip-path="url(#clip0_102_3810)">
<path fill-rule="evenodd" clip-rule="evenodd" d="M12 2C16.9706 2 21 6.02944 21 11C21 14.0738 19.3241 16.5892 17.5584 18.3945C16.5897 19.3849 15.5597 20.1973 14.6817 20.8113L14.2564 21.1017C14.1879 21.1473 14.1208 21.1915 14.0551 21.2343L13.6789 21.474L13.3429 21.6791L12.9271 21.921C12.3479 22.2481 11.6521 22.2481 11.0729 21.921L10.6571 21.6791L10.1377 21.3584C10.0749 21.3184 10.0106 21.2771 9.94491 21.2343L9.53449 20.9607C8.61244 20.3315 7.49106 19.4674 6.44162 18.3945C4.6759 16.5892 3 14.0738 3 11C3 6.02944 7.02944 2 12 2ZM12 4C8.13401 4 5 7.13401 5 11C5 13.3224 6.27202 15.3608 7.87141 16.996C8.60687 17.7479 9.38754 18.3895 10.0929 18.9063L10.5507 19.2322C10.6987 19.3346 10.8416 19.4307 10.9782 19.5203L11.3676 19.7694L11.7108 19.9788L12 20.1475L12.4545 19.8792L12.8218 19.6498C13.0167 19.5252 13.2273 19.3858 13.4493 19.2322L13.9071 18.9063C14.6125 18.3895 15.3932 17.7479 16.1286 16.996C17.728 15.3608 19 13.3224 19 11C19 7.13401 15.866 4 12 4ZM12 7C14.2091 7 16 8.79086 16 11C16 13.2091 14.2091 15 12 15C9.79086 15 8 13.2091 8 11C8 8.79086 9.79086 7 12 7ZM12 9C10.8954 9 10 9.89543 10 11C10 12.1046 10.8954 13 12 13C13.1046 13 14 12.1046 14 11C14 9.89543 13.1046 9 12 9Z" fill="currentColor"/>
</g>
<defs>
<clipPath id="clip0_102_3810">
<rect width="24" height="24" fill="currentColor"/>
</clipPath>
</defs>
</svg>
