<svg id="orchid" width="20" height="12" viewBox="0 0 20 12" fill="none" xmlns="http://www.w3.org/2000/svg">
    <g id="Mastercard">
        <path id="Left" fill-rule="evenodd" clip-rule="evenodd"
              d="M10.2144 10.4202C9.19304 11.3016 7.86819 11.8337 6.42048 11.8337C3.1902 11.8337 0.571533 9.18463 0.571533 5.91684C0.571533 2.64906 3.1902 0 6.42048 0C7.86819 0 9.19304 0.532073 10.2144 1.41346C11.2357 0.532073 12.5606 0 14.0083 0C17.2386 0 19.8573 2.64906 19.8573 5.91684C19.8573 9.18463 17.2386 11.8337 14.0083 11.8337C12.5606 11.8337 11.2357 11.3016 10.2144 10.4202Z"
              fill="#ED0006"/>
        <path id="Right" fill-rule="evenodd" clip-rule="evenodd"
              d="M10.2144 10.4202C11.472 9.33497 12.2694 7.72012 12.2694 5.91684C12.2694 4.11357 11.472 2.49872 10.2144 1.41346C11.2357 0.532073 12.5606 0 14.0083 0C17.2386 0 19.8572 2.64906 19.8572 5.91684C19.8572 9.18463 17.2386 11.8337 14.0083 11.8337C12.5606 11.8337 11.2357 11.3016 10.2144 10.4202Z"
              fill="#F9A000"/>
        <path id="Middle" fill-rule="evenodd" clip-rule="evenodd"
              d="M10.2144 1.41345C11.472 2.49871 12.2694 4.11356 12.2694 5.91682C12.2694 7.72008 11.472 9.33493 10.2144 10.4202C8.95685 9.33493 8.15942 7.72008 8.15942 5.91682C8.15942 4.11356 8.95685 2.49871 10.2144 1.41345Z"
              fill="#FF5E00"/>
    </g>
</svg>
