<svg id="orchid" viewBox="0 0 17 16" fill="none" xmlns="http://www.w3.org/2000/svg">
    <g id="Inner">
        <path id="Vector"
              d="M11.1667 2C11.8696 2 12.4454 2.54392 12.4963 3.23383L12.5 3.33333V6.66667H13.5C14.0198 6.66667 14.447 7.06327 14.4954 7.57036L14.5 7.66667V12.6667C14.5 13.7318 13.6674 14.6024 12.6175 14.6633L12.5 14.6667H3.83333C3.13043 14.6667 2.55456 14.1228 2.50366 13.4328L2.5 13.3333V3.33333C2.5 2.63043 3.04392 2.05456 3.73383 2.00366L3.83333 2H11.1667ZM13.1667 8H12.5V13.3333C12.8682 13.3333 13.1667 13.0349 13.1667 12.6667V8ZM11.1667 3.33333H3.83333V13.3333H11.1667V3.33333ZM7.83333 8.66667C8.20153 8.66667 8.5 8.96513 8.5 9.33333C8.5 9.67523 8.24265 9.95701 7.91108 9.99552L7.83333 10H5.83333C5.46515 10 5.16667 9.70153 5.16667 9.33333C5.16667 8.99143 5.42403 8.70966 5.75559 8.67115L5.83333 8.66667H7.83333ZM9.16667 5.33333C9.53487 5.33333 9.83333 5.63181 9.83333 6C9.83333 6.36819 9.53487 6.66667 9.16667 6.66667H5.83333C5.46515 6.66667 5.16667 6.36819 5.16667 6C5.16667 5.63181 5.46515 5.33333 5.83333 5.33333H9.16667Z"
              fill="currentColor"/>
    </g>
</svg>
