<svg id="orchid" width="20" height="20" viewBox="0 0 20 20" fill="none" xmlns="http://www.w3.org/2000/svg">
<g clip-path="url(#clip0_1_23)">
<rect width="20" height="20" fill="white"/>
<path d="M16.6667 2.50004C17.5453 2.50004 18.2651 3.17994 18.3287 4.04232L18.3333 4.16671V15.8334C18.3333 16.712 17.6534 17.4318 16.791 17.4955L16.6667 17.5H3.33332C2.45469 17.5 1.73485 16.8202 1.67123 15.9578L1.66665 15.8334V4.16671C1.66665 3.28807 2.34655 2.56824 3.20894 2.50461L3.33332 2.50004H16.6667ZM8.23209 10.042L3.51804 14.756C3.4618 14.8122 3.39954 14.8587 3.33332 14.8955V15.8334H16.6667V14.8956C16.6003 14.8588 16.538 14.8123 16.4817 14.756L14.1247 12.399L13.5354 12.9882L13.708 13.1608C14.0334 13.4862 14.0334 14.0139 13.708 14.3393C13.3826 14.6647 12.8549 14.6647 12.5295 14.3393L8.23209 10.042ZM16.6667 4.16671H3.33332V12.5836L7.49551 8.42146C7.87519 8.04179 8.47501 8.01647 8.88407 8.34552L8.96865 8.42146L12.3569 11.8097L13.3881 10.7785C13.7678 10.3988 14.3676 10.3735 14.7767 10.7025L14.8612 10.7785L16.6667 12.584V4.16671ZM12.9167 5.83338C13.607 5.83338 14.1667 6.39302 14.1667 7.08337C14.1667 7.77373 13.607 8.33337 12.9167 8.33337C12.2263 8.33337 11.6667 7.77373 11.6667 7.08337C11.6667 6.39302 12.2263 5.83338 12.9167 5.83338Z" fill="#4C689C"/>
</g>
<defs>
<clipPath id="clip0_1_23">
<rect width="20" height="20" fill="white"/>
</clipPath>
</defs>
</svg>
