<svg  id="orchid" viewBox="0 0 16 16" fill="none" xmlns="http://www.w3.org/2000/svg">
<g clip-path="url(#clip0_2047_107949)">
<path d="M7.4645 1.83238L7.55674 1.881L12.7529 4.88101C13.3602 5.23166 13.5873 5.988 13.2895 6.61013L13.2409 6.70237L9.24087 13.6306C8.89021 14.2379 8.13392 14.465 7.51179 14.1673L7.41954 14.1186L2.22337 11.1186C1.61602 10.768 1.38891 10.0116 1.68672 9.38948L1.73534 9.29724L4.73531 4.10114L3.58059 3.43447C3.26173 3.25037 3.15248 2.84264 3.33658 2.52378C3.50752 2.2277 3.8713 2.11235 4.17769 2.24478L4.24726 2.27976L5.40197 2.94644L5.73534 2.36904C6.06754 1.79365 6.76386 1.55953 7.36523 1.7897L7.4645 1.83238ZM10.9522 7.99984H4.02401L2.89004 9.96391L8.08621 12.9639L10.9522 7.99984ZM13.5352 7.48617L13.6667 7.33317L13.7174 7.39108L13.8492 7.54782L13.9672 7.69462L14.0987 7.86644L14.2347 8.05574C14.4601 8.3816 14.6667 8.74878 14.6667 8.99984C14.6667 9.5521 14.2189 9.99984 13.6667 9.99984C13.1143 9.99984 12.6667 9.5521 12.6667 8.99984C12.6667 8.69857 12.9642 8.23009 13.2347 7.86644L13.3661 7.69462L13.5352 7.48617ZM6.89007 3.0357L6.55667 3.61311L7.13401 3.94643C7.45287 4.13053 7.56214 4.53826 7.37801 4.85712C7.19394 5.17598 6.78621 5.28523 6.46735 5.10114L5.89001 4.76781L4.79381 6.66649H11.722L12.0862 6.0357L6.89007 3.0357Z" fill="currentColor"/>
</g>
<defs>
<clipPath id="clip0_2047_107949">
<rect width="16" height="16" fill="white"/>
</clipPath>
</defs>
</svg>
