<svg id="orchid" viewBox="0 0 20 21" fill="none" xmlns="http://www.w3.org/2000/svg">
<path d="M8.33333 3C9.25383 3 10 3.74619 10 4.66667V5.19646L11.3632 3.83331C12.014 3.18243 13.0693 3.18243 13.7202 3.83331L16.6664 6.77959C17.3173 7.43046 17.3173 8.48573 16.6664 9.13658L15.3031 10.5H15.8333C16.7538 10.5 17.5 11.2462 17.5 12.1667V16.3333C17.5 17.2537 16.7538 18 15.8333 18H4.16667C3.24619 18 2.5 17.2538 2.5 16.3333V4.66667C2.5 3.74619 3.24619 3 4.16667 3H8.33333ZM8.33333 4.66667H4.16667V16.3333H8.33333V4.66667ZM15.8333 12.1667H13.6364L10 15.8031V16.3333H15.8333V12.1667ZM6.25 13C6.94036 13 7.5 13.5597 7.5 14.25C7.5 14.9403 6.94036 15.5 6.25 15.5C5.55964 15.5 5 14.9403 5 14.25C5 13.5597 5.55964 13 6.25 13ZM12.5417 5.01182L10 7.55348V13.446L15.4879 7.9581L12.5417 5.01182Z" fill="#61667C"/>
</svg>
