<svg id="phone" viewBox="0 0 25 24" fill="none" xmlns="http://www.w3.org/2000/svg">
<g clip-path="url(#clip0_114_626)">
<path fill-rule="evenodd" clip-rule="evenodd" d="M8.93131 15.8285C12.7772 19.6743 16.34 20.0954 17.3857 20.1339C18.6502 20.1804 19.94 19.1483 20.4974 18.0906C19.6078 17.0465 18.449 16.2367 17.1793 15.3587C16.431 16.107 15.5082 17.4973 14.2784 16.9999C13.5801 16.7175 11.8539 15.9226 10.3455 14.4143C8.83715 12.9059 8.04229 11.1797 7.75989 10.4815C7.26207 9.25061 8.65549 8.32612 9.40435 7.57726C8.5268 6.28657 7.73034 5.09818 6.68843 4.2532C5.61701 4.81369 4.57882 6.0937 4.62593 7.37412C4.66441 8.41978 5.08551 11.9827 8.93131 15.8285ZM17.3121 22.1325C15.8712 22.0795 11.7905 21.5161 7.5171 17.2427C3.24371 12.9693 2.68031 8.88862 2.62729 7.44767C2.54649 5.25221 4.22829 3.11902 6.1719 2.28605C6.62796 2.09059 7.18035 2.12636 7.61703 2.44489C9.22466 3.61756 10.3338 5.39531 11.2864 6.78731C11.6922 7.38037 11.6252 8.1849 11.11 8.70012L9.75353 10.0565C10.0683 10.7518 10.7106 11.9509 11.7598 13C12.8089 14.0492 14.008 14.6914 14.7033 15.0063L16.059 13.6505C16.5747 13.1349 17.3827 13.0669 17.9771 13.4787C19.3971 14.4625 21.0648 15.556 22.2808 17.1133C22.6223 17.5507 22.6731 18.1227 22.4694 18.5981C21.6326 20.5507 19.515 22.2136 17.3121 22.1325Z" fill="#09244B"/>
</g>
<defs>
<clipPath id="clip0_114_626">
<rect width="24" height="24" fill="white" transform="translate(0.759766)"/>
</clipPath>
</defs>
</svg>
