<svg  id="orchid" viewBox="0 0 20 20" fill="none" xmlns="http://www.w3.org/2000/svg">
<g clip-path="url(#clip0_2078_20872)">
<path d="M5.60012 13.8658C6.04195 13.7371 6.50457 13.9908 6.6334 14.4327C6.76222 14.8745 6.50847 15.3371 6.06663 15.4659C5.64932 15.5876 5.34942 15.7166 5.15726 15.8323C5.35617 15.9521 5.6688 16.0852 6.10418 16.2096C7.06636 16.4845 8.44404 16.6657 10 16.6657C11.556 16.6657 12.9337 16.4845 13.8959 16.2096C14.3313 16.0852 14.6439 15.9521 14.8428 15.8323C14.6506 15.7166 14.3508 15.5876 13.9335 15.4659C13.4916 15.3371 13.2379 14.8745 13.3667 14.4327C13.4955 13.9908 13.9581 13.7371 14.4 13.8658C14.9567 14.0282 15.4674 14.2366 15.8578 14.5042C16.2213 14.7533 16.6667 15.1876 16.6667 15.8323C16.6667 16.4853 16.2102 16.9225 15.8415 17.1716C15.4435 17.4404 14.9226 17.6496 14.3538 17.8121C13.2047 18.1404 11.6657 18.3323 10 18.3323C8.33437 18.3323 6.79539 18.1404 5.64632 17.8121C5.07745 17.6496 4.55651 17.4404 4.15865 17.1716C3.78988 16.9225 3.33337 16.4853 3.33337 15.8323C3.33337 15.1876 3.77882 14.7533 4.14227 14.5042C4.53269 14.2366 5.04339 14.0282 5.60012 13.8658ZM10 1.66602C13.4518 1.66602 16.25 4.46427 16.25 7.91602C16.25 10.0559 15.0838 11.7963 13.8752 13.0319C13.3628 13.5559 12.8256 14.0068 12.3309 14.3786C11.8361 14.7503 10.7046 15.4464 10.7046 15.4464C10.2647 15.6949 9.73537 15.6949 9.29546 15.4464C8.85554 15.1979 8.16392 14.7503 7.66917 14.3786C7.17443 14.0068 6.63731 13.5559 6.12486 13.0319C4.91632 11.7963 3.75004 10.0559 3.75004 7.91602C3.75004 4.46427 6.54826 1.66602 10 1.66602ZM10 3.33268C7.46873 3.33268 5.41671 5.38468 5.41671 7.91602C5.41671 9.42977 6.24642 10.7727 7.31634 11.8665C8.12133 12.6895 9.0088 13.3156 9.62292 13.7013C9.85028 13.8394 9.97599 13.9154 10 13.9293L10.3772 13.7013C10.9913 13.3156 11.8787 12.6895 12.6837 11.8665C13.7537 10.7727 14.5834 9.42977 14.5834 7.91602C14.5834 5.38468 12.5314 3.33268 10 3.33268ZM10 5.41602C11.3808 5.41602 12.5 6.53527 12.5 7.91602C12.5 9.29677 11.3808 10.416 10 10.416C8.61929 10.416 7.50004 9.29677 7.50004 7.91602C7.50004 6.53527 8.61929 5.41602 10 5.41602ZM10 7.08268C9.53979 7.08268 9.16671 7.45577 9.16671 7.91602C9.16671 8.37627 9.53979 8.74935 10 8.74935C10.4603 8.74935 10.8334 8.37627 10.8334 7.91602C10.8334 7.45577 10.4603 7.08268 10 7.08268Z" fill="currentColor"/>
</g>
<defs>
<clipPath id="clip0_2078_20872">
<rect width="20" height="20" fill="white"/>
</clipPath>
</defs>
</svg>
