<svg id="orchid" viewBox="0 0 20 20" fill="none" xmlns="http://www.w3.org/2000/svg">
    <g clip-path="url(#clip0_97_14857)">
        <path fill-rule="evenodd" clip-rule="evenodd"
              d="M9.99996 1.66675C14.6023 1.66675 18.3333 5.39771 18.3333 10.0001C18.3333 14.6024 14.6023 18.3334 9.99996 18.3334C5.39758 18.3334 1.66663 14.6024 1.66663 10.0001C1.66663 5.39771 5.39758 1.66675 9.99996 1.66675ZM9.99996 3.33341C6.31806 3.33341 3.33329 6.31818 3.33329 10.0001C3.33329 13.682 6.31806 16.6667 9.99996 16.6667C13.6819 16.6667 16.6666 13.682 16.6666 10.0001C16.6666 6.31818 13.6819 3.33341 9.99996 3.33341ZM7.47037 7.20865C7.55096 6.54924 8.23822 6.15408 8.84821 6.41422L9.11936 6.53304L9.48503 6.70186L9.77631 6.8425L10.1021 7.00583L10.4594 7.19203L10.8451 7.40128L11.2563 7.63377L11.4638 7.75486L11.8546 7.98989L12.2118 8.21312L12.6817 8.51997L13.0687 8.78511L13.4475 9.058C13.4723 9.07638 13.4953 9.09359 13.5166 9.10958C14.046 9.50708 14.0492 10.2997 13.5177 10.6997L13.2812 10.8739L12.9544 11.1047L12.5406 11.3836L12.2181 11.5922L11.8595 11.8161L11.4657 12.0528C11.3972 12.0932 11.3272 12.134 11.2559 12.1752L10.8405 12.4101L10.4525 12.6208L10.0945 12.8076L9.76915 12.9709L9.34808 13.1726L9.01526 13.3235L8.84679 13.3964C8.23555 13.6562 7.55081 13.2588 7.47045 12.6017L7.42546 12.1862L7.40074 11.9077L7.36559 11.4085L7.34588 11.0248L7.33109 10.6032L7.32289 10.146V9.66379L7.33108 9.20684L7.34586 8.78538L7.36555 8.4018L7.40067 7.9027L7.46019 7.29417C7.46374 7.26357 7.46714 7.23505 7.47037 7.20865ZM9.03963 8.3375L9.01706 8.72639L8.99965 9.16416L8.9898 9.64732V10.1624L8.99965 10.6456L9.01706 11.0835L9.03963 11.4724L9.38634 11.2978C9.44762 11.2662 9.51059 11.2335 9.57517 11.1995L9.98139 10.9807L10.4225 10.7318L10.8584 10.4744C10.9274 10.4327 10.9947 10.3916 11.0601 10.3512L11.4301 10.1178L11.7546 9.905L11.4286 9.69074L11.058 9.45672L10.6449 9.20683C10.5726 9.16408 10.4986 9.12083 10.423 9.07717C10.2716 8.98978 10.125 8.90729 9.98387 8.82964L9.57766 8.61118L9.20873 8.42156C9.1506 8.39235 9.0942 8.36433 9.03963 8.3375Z"
              fill="currentColor"/>
    </g>
    <defs>
        <clipPath id="clip0_97_14857">
            <rect width="20" height="20" fill="white"/>
        </clipPath>
    </defs>
</svg>
