<svg id="orchid" viewBox="0 0 20 20" fill="none" xmlns="http://www.w3.org/2000/svg">
<g clip-path="url(#clip0_2018_96418)">
<path d="M17.5 15.3327C17.5 16.0691 16.903 16.666 16.1667 16.666L3.83333 16.666C3.09695 16.666 2.5 16.0691 2.5 15.3327C2.5 15.1486 2.64924 14.9993 2.83333 14.9993L17.1667 14.9993C17.3508 14.9993 17.5 15.1486 17.5 15.3327Z" fill="#61667C"/>
<path opacity="0.4" fill-rule="evenodd" clip-rule="evenodd" d="M15.8333 14.166L15.8333 4.99935L4.16667 4.99935L4.16667 14.166L2.5 14.166L2.5 4.99935C2.5 4.07887 3.24619 3.33268 4.16667 3.33268L15.8333 3.33268C16.7538 3.33268 17.5 4.07887 17.5 4.99935L17.5 14.166L15.8333 14.166Z" fill="#61667C"/>
</g>
<defs>
<clipPath id="clip0_2018_96418">
<rect width="20" height="20" fill="white"/>
</clipPath>
</defs>
</svg>
