<svg id="orchid" viewBox="0 0 20 20" fill="none" xmlns="http://www.w3.org/2000/svg">
<path d="M14.9706 2.5C15.7769 2.5 16.4374 3.05823 16.4958 3.76629L16.5 3.86842V10.1316C16.5 10.853 15.8761 11.444 15.0847 11.4962L14.9706 11.5H5.02941C4.22313 11.5 3.56258 10.9418 3.50419 10.2337L3.5 10.1316V3.86842C3.5 3.14702 4.12391 2.55599 4.91527 2.50375L5.02941 2.5H14.9706Z" fill="#61667C"/>
<path fill-rule="evenodd" clip-rule="evenodd" d="M16.8824 0C17.9988 0 18.9134 0.815877 18.9942 1.85074L19 2V17C19 18.0544 18.1362 18.9182 17.0404 18.9945L16.8824 19H3.11765C2.00126 19 1.08665 18.1841 1.00581 17.1493L1 17V2C1 0.945638 1.86387 0.0818346 2.9596 0.00548553L3.11765 0H16.8824ZM16.8824 1.5C17.2704 1.5 17.4718 1.7619 17.4969 1.95049L17.5 2.02916V17C17.5 17.1861 17.331 17.4615 16.9557 17.4966L16.8563 17.5H3.11765C2.7296 17.5 2.52819 17.2381 2.50306 17.0495L2.5 16.9708V2C2.5 1.81394 2.66898 1.53846 3.04433 1.50345L3.14367 1.5H16.8824Z" fill="#61667C"/>
</svg>
