<svg id="orchid" width="33" height="33" viewBox="0 0 33 33" fill="none" xmlns="http://www.w3.org/2000/svg">
    <g clip-path="url(#clip0_2847_343)">
        <path d="M16.5 22.0444C17.2364 22.0444 17.8334 22.6414 17.8334 23.3778C17.8334 24.1142 17.2364 24.7111 16.5 24.7111C15.7636 24.7111 15.1667 24.1142 15.1667 23.3778C15.1667 22.6414 15.7636 22.0444 16.5 22.0444ZM16.5 9.37778C19.1694 9.37778 21.3334 11.5417 21.3334 14.2111C21.3334 16.2474 20.0747 17.9863 18.2979 18.6987C18.1128 18.7728 17.9703 18.8762 17.8904 18.9659C17.8315 19.0322 17.8227 19.1172 17.8251 19.2046L17.8334 19.3778C17.8334 20.1142 17.2364 20.7111 16.5 20.7111C15.8162 20.7111 15.2527 20.1964 15.1757 19.5333L15.1667 19.3778V19.0444C15.1667 17.5072 16.4058 16.5842 17.3056 16.2235C18.1056 15.9027 18.6667 15.1208 18.6667 14.2111C18.6667 13.0145 17.6967 12.0444 16.5 12.0444C15.3034 12.0444 14.3334 13.0145 14.3334 14.2111C14.3334 14.9475 13.7364 15.5444 13 15.5444C12.2636 15.5444 11.6667 14.9475 11.6667 14.2111C11.6667 11.5417 13.8306 9.37778 16.5 9.37778Z"
              fill="white"/>
    </g>
    <defs>
        <clipPath id="clip0_2847_343">
            <rect x="0.5" y="0.711121" width="32" height="32" rx="16" fill="white"/>
        </clipPath>
    </defs>
</svg>
