<svg xmlns="http://www.w3.org/2000/svg" id="orchid" fill="currentColor" viewBox="0 0 24 24">
  <g  clip-path="url(#a)">
    <g >
      <path fill="currentColor" fill-rule="evenodd" d="M4 5a3 3 0 0 1 3-3h10a3 3 0 0 1 3 3v16a1 1 0 0 1-1.625.78l-1.875-1.5-1.875 1.5a1 1 0 0 1-1.332-.073L12 20.414l-1.293 1.293a1 1 0 0 1-1.332.074L7.5 20.28l-1.875 1.5A1 1 0 0 1 4 21V5Zm3-1a1 1 0 0 0-1 1v13.92l.875-.7a1 1 0 0 1 1.25 0l1.8 1.44 1.368-1.367a1 1 0 0 1 1.414 0l1.367 1.367 1.801-1.44a1 1 0 0 1 1.25 0l.875.7V5a1 1 0 0 0-1-1H7Zm1 5a1 1 0 0 1 1-1h6a1 1 0 1 1 0 2H9a1 1 0 0 1-1-1Zm1 3a1 1 0 1 0 0 2h3a1 1 0 1 0 0-2H9Z"  clip-rule="evenodd"/>
    </g>
  </g>
  <defs>
    <clipPath id="a" >
      <path fill="#fff" d="M0 0h24v24H0z"/>
    </clipPath>
  </defs>
</svg>
