<svg id="orchid" viewBox="0 0 16 17" fill="none" xmlns="http://www.w3.org/2000/svg">
<g clip-path="url(#clip0_1854_103798)">
<path d="M1.33327 8.55459C1.32911 7.97908 1.94012 7.64969 2.41175 7.90411L2.47512 7.94245L4.26036 9.14532C4.90882 9.58225 4.51216 10.5741 3.77127 10.4831L3.69342 10.4698L2.98452 10.3143C3.5583 11.8985 4.8714 13.1852 6.62093 13.654C9.17496 14.3383 11.7942 13.0475 12.8539 10.7175C13.0064 10.3823 13.4016 10.2342 13.7368 10.3866C14.072 10.5391 14.22 10.9343 14.0676 11.2695C12.7424 14.1831 9.46983 15.7977 6.27584 14.9419C3.60662 14.2267 1.75328 11.9896 1.39607 9.41679C1.35667 9.13299 1.33544 8.84505 1.33327 8.55459ZM1.93514 5.73525C3.26031 2.8217 6.53296 1.20701 9.7269 2.06283C12.3962 2.77805 14.2495 5.01512 14.6067 7.58792C14.6461 7.87172 14.6673 8.15965 14.6695 8.45012C14.6736 9.02563 14.0626 9.35502 13.591 9.1006L13.5276 9.06225L11.7423 7.85939C11.0939 7.42245 11.4905 6.43067 12.2313 6.52156L12.3092 6.53489L13.0182 6.69037C12.4444 5.10613 11.1313 3.81951 9.38183 3.35074C6.82783 2.66639 4.20858 3.95729 3.14883 6.28728C2.9964 6.62243 2.60112 6.77055 2.26598 6.61811C1.93082 6.46568 1.7827 6.07041 1.93514 5.73525Z" fill="#61667C"/>
</g>
<defs>
<clipPath id="clip0_1854_103798">
<rect width="16" height="16" fill="white" transform="translate(0 0.5)"/>
</clipPath>
</defs>
</svg>
