<svg xmlns="http://www.w3.org/2000/svg" id="orchid" fill="currentColor" viewBox="0 0 24 24">
  <g  clip-path="url(#a)">
    <g >
      <path fill="currentColor" d="M20 9a1 1 0 0 1 .993.883L21 10v5a4 4 0 0 1-3.8 3.995L17 19H8.107l-.02.415-.034.519c-.027.346-.352.557-.631.41l-.306-.164-.36-.203a17.92 17.92 0 0 1-.198-.117l-.43-.263a20.664 20.664 0 0 1-.229-.147l-.463-.31a19.63 19.63 0 0 1-.21-.147l-.377-.273-.315-.24a15.065 15.065 0 0 1-.133-.104c-.236-.188-.225-.566.023-.762l.28-.217.34-.252.4-.282.456-.305.462-.291.416-.249.365-.205.307-.165c.275-.143.571.036.598.36l.025.347.024.415.01.23H17a2 2 0 0 0 1.994-1.85L19 15v-5a1 1 0 0 1 1-1Zm-3.422-5.345.306.165.36.203.198.117.43.263.229.147.463.31.21.147.377.273.315.24.133.104c.236.188.225.566-.023.762l-.28.217-.34.252-.4.282-.456.305-.462.291-.416.249-.365.205-.307.165c-.275.143-.572-.036-.598-.36l-.025-.347-.024-.415a24.808 24.808 0 0 1-.01-.23H7a2 2 0 0 0-2 2v5a1 1 0 1 1-2 0V9a4 4 0 0 1 4-4h8.893l.02-.415.022-.36.012-.159c.027-.346.352-.557.631-.41Z" />
    </g>
  </g>
  <defs>
    <clipPath id="a" >
      <path fill="#fff" d="M0 0h24v24H0z"/>
    </clipPath>
  </defs>
</svg>
