<svg id="orchid" viewBox="0 0 22 22" fill="none" xmlns="http://www.w3.org/2000/svg">
    <g clip-path="url(#clip0_5137_5409)">
        <path d="M11.6437 2.01224L18.0604 4.41849C18.776 4.68681 19.25 5.37088 19.25 6.13509V11.0509C19.25 14.1758 17.4845 17.0325 14.6895 18.43L11.6149 19.9672C11.2278 20.1608 10.7722 20.1608 10.3851 19.9672L7.31049 18.43C4.51552 17.0325 2.75 14.1758 2.75 11.0509V6.13509C2.75 5.37088 3.22405 4.68681 3.9396 4.41849L10.3563 2.01224C10.7713 1.8566 11.2287 1.8566 11.6437 2.01224ZM11 3.72884L4.58333 6.13509V11.0509C4.58333 13.4813 5.95652 15.7032 8.13038 16.7901L11 18.225L13.8696 16.7901C16.0435 15.7032 17.4167 13.4813 17.4167 11.0509V6.13509L11 3.72884ZM11 7.33317C12.0126 7.33317 12.8333 8.15399 12.8333 9.1665C12.8333 9.7929 12.5192 10.3459 12.0399 10.6766L11.9167 10.7546V13.7498C11.9167 14.2561 11.5063 14.6665 11 14.6665C10.5299 14.6665 10.1424 14.3126 10.0895 13.8567L10.0833 13.7498V10.7546C9.53535 10.4375 9.16667 9.8451 9.16667 9.1665C9.16667 8.15399 9.98745 7.33317 11 7.33317Z"
              fill="currentColor"/>
    </g>
    <defs>
        <clipPath id="clip0_5137_5409">
            <rect width="22" height="22" fill="white"/>
        </clipPath>
    </defs>
</svg>
