<svg width="56" height="56" viewBox="0 0 56 56" fill="none" xmlns="http://www.w3.org/2000/svg" id="orchid">
<path d="M24.2405 28.2028C18.3226 27.2061 14.2861 21.6316 15.2905 15.6628C16.2804 9.73273 21.9005 5.72278 27.8305 6.71277C32.6905 7.53278 36.2605 11.4628 36.8305 16.1127C37.7443 23.2825 31.4619 29.4057 24.2405 28.2028Z" fill="#F7D01C"/>
<path d="M49.1203 18.7672L49.2707 13.7408C49.2946 12.1893 47.7667 11.1383 46.3215 11.6998L37.2209 15.4135C36.3729 10.7522 32.6337 7.01606 27.9123 6.21931C18.0378 4.57344 11.0301 15.5995 16.5981 23.8232L8.0656 27.2984C6.06973 28.0946 6.38206 31.019 8.51775 31.3863L18.6288 33.0744L26.1176 42.5128C23.1795 42.4231 21.3294 44.4492 21.3742 46.4986C20.0401 48.3108 19.4654 50.7621 20.9714 52.3424C21.4204 52.8159 22.1534 52.1348 21.695 51.6529C20.7403 50.6496 21.0181 49.1098 21.6921 47.8668C22.8584 50.3562 26.5472 50.013 26.8473 47.3287C27.0946 45.1297 24.6363 44.0088 22.6789 45.2388C23.3316 44.0283 24.8979 43.2027 26.9264 43.6011C26.9472 43.6047 26.9668 43.5988 26.9874 43.5999C27.2034 43.8276 27.5653 43.7825 27.735 43.5669C27.7386 43.5624 27.7443 43.5609 27.7477 43.5562L33.6604 35.5928L46.1393 37.6763C47.402 37.8903 48.5812 36.9291 48.6203 35.6275L49.0007 22.7672C49.0205 22.0645 48.0194 22.1479 48.0007 22.7379L47.6203 35.5982C47.5995 36.3117 46.9552 36.7986 46.3029 36.69C28.7999 33.7627 29.9175 33.9496 29.8152 33.9325L47.9938 12.9544C48.1695 13.1672 48.2753 13.4346 48.2707 13.7183L48.1203 18.7379C48.1014 19.4022 49.0999 19.4331 49.1203 18.7672ZM25.8537 47.2174C25.6416 49.0995 22.7608 49.0451 22.4054 46.8043C23.9785 44.9539 26.0202 45.7285 25.8537 47.2174ZM37.3613 16.4362L45.0984 13.2785L37.3312 18.8276C37.4263 18.0355 37.4361 17.2347 37.3613 16.4362ZM15.7834 15.7447C16.732 10.0651 22.1292 6.26294 27.7472 7.20564C32.2492 7.9654 35.78 11.6529 36.3342 16.1763C37.2143 23.0567 31.1447 28.8612 24.3234 27.7095C18.5984 26.7458 14.8405 21.3552 15.7834 15.7447ZM8.43913 28.2261L17.2118 24.6525C18.8554 26.6686 21.1196 28.0479 23.6723 28.5905L18.7782 32.0855L8.68523 30.4C7.55264 30.206 7.37061 28.6528 8.43913 28.2261ZM28.1871 41.2874L29.2612 34.8583L32.5526 35.4079L28.1871 41.2874ZM28.4672 33.9665C28.4141 34.0319 28.3711 34.1061 28.3561 34.1949L27.039 42.0653L19.6193 32.7144L25.0895 28.8072C30.6321 29.2777 35.7439 25.5856 37.0729 20.2408L45.6926 14.0836C45.6058 14.1836 28.3859 34.0666 28.4672 33.9665ZM10.8093 10.6812C10.1623 10.7808 10.2993 11.7695 10.9616 11.6695L13.7043 11.2476C14.3611 11.1466 14.2023 10.1536 13.5519 10.2593L10.8093 10.6812ZM14.8532 8.7613C15.3978 9.13263 15.9628 8.30455 15.4128 7.93318L10.8849 4.87947C10.3367 4.51163 9.77763 5.3375 10.3263 5.70954L14.8532 8.7613ZM16.0705 6.15095C16.2464 6.79002 17.2106 6.52697 17.0343 5.88532L16.4777 3.86482C16.404 3.59822 16.1266 3.44294 15.863 3.51521C15.5968 3.58845 15.4406 3.86384 15.5138 4.13044L16.0705 6.15095Z" fill="#03102F"/>
<path d="M25.6767 11.5C25.5864 11.5015 25.4973 11.5207 25.4144 11.5565C25.3315 11.5924 25.2565 11.6443 25.1937 11.7091C25.1309 11.774 25.0815 11.8506 25.0483 11.9346C25.015 12.0186 24.9987 12.1082 25.0002 12.1985V12.941C23.6747 13.2312 22.5967 14.1923 22.5967 15.5439C22.5967 17.143 24.0267 18.3695 25.6877 18.3695C26.6914 18.3695 27.4037 19.0515 27.4037 19.8202C27.4037 20.5888 26.6914 21.268 25.6877 21.268C24.6839 21.268 23.9717 20.5888 23.9717 19.8202C23.9854 18.8907 22.5829 18.8907 22.5967 19.8202C22.5967 21.1732 23.6733 22.1357 25.0002 22.4244V23.1807C24.9864 24.1088 26.3889 24.1088 26.3752 23.1807V22.5674C27.7227 22.2842 28.8075 21.1938 28.7787 19.8229C28.7787 17.9914 27.5989 16.9973 25.6877 16.9973C24.6839 16.9973 23.9717 16.3153 23.9717 15.5467C23.9717 14.789 24.6674 14.1235 25.6492 14.1057C25.6752 14.1076 25.7014 14.1081 25.7275 14.107C26.7093 14.1277 27.4037 14.789 27.4037 15.5467C27.3899 16.4775 28.7924 16.4775 28.7787 15.5467C28.7787 14.1744 27.7227 13.0827 26.3752 12.7994V12.1985C26.3766 12.1064 26.3596 12.0149 26.325 11.9295C26.2904 11.8441 26.239 11.7665 26.1739 11.7013C26.1087 11.6361 26.0311 11.5847 25.9457 11.5502C25.8603 11.5156 25.7688 11.4985 25.6767 11.5Z" fill="#03102F"/>
</svg>
