<svg id="orchid" viewBox="0 0 24 24" fill="none" xmlns="http://www.w3.org/2000/svg">
<g clip-path="url(#clip0_102_3823)">
<path fill-rule="evenodd" clip-rule="evenodd" d="M14.4095 2.29252C15.3922 2.53569 16.3173 2.92399 17.1607 3.43303C17.5111 3.64448 17.6972 4.04803 17.6307 4.45178C17.5172 5.14078 17.6885 5.66772 18.0105 5.98974C18.3325 6.31176 18.8595 6.48308 19.5484 6.36954C19.9522 6.30301 20.3558 6.48917 20.5672 6.83951C21.0762 7.68291 21.4645 8.60804 21.7077 9.59069C21.806 9.98806 21.6522 10.4052 21.3195 10.6437C20.7517 11.0507 20.5001 11.5446 20.5001 12.0001C20.5001 12.4556 20.7517 12.9495 21.3195 13.3565C21.6522 13.5949 21.806 14.0121 21.7077 14.4095C21.4645 15.3922 21.0762 16.3173 20.5671 17.1608C20.3557 17.5111 19.9522 17.6973 19.5484 17.6307C18.8594 17.5172 18.3325 17.6885 18.0105 18.0105C17.6885 18.3325 17.5172 18.8595 17.6307 19.5484C17.6972 19.9522 17.5111 20.3557 17.1607 20.5672C16.3173 21.0762 15.3922 21.4645 14.4095 21.7077C14.0121 21.806 13.595 21.6522 13.3565 21.3195C12.9495 20.7517 12.4556 20.5001 12.0001 20.5001C11.5446 20.5001 11.0507 20.7517 10.6437 21.3195C10.4052 21.6522 9.98807 21.806 9.5907 21.7077C8.60802 21.4645 7.68287 21.0762 6.83946 20.5672C6.48913 20.3557 6.30296 19.9522 6.36949 19.5484C6.48302 18.8595 6.3117 18.3325 5.98969 18.0105C5.66767 17.6885 5.14075 17.5172 4.45178 17.6307C4.04803 17.6973 3.64449 17.5111 3.43305 17.1608C2.924 16.3173 2.53569 15.3922 2.29252 14.4095C2.19418 14.0121 2.34796 13.5949 2.68069 13.3565C3.24849 12.9495 3.5001 12.4556 3.5001 12.0001C3.5001 11.5446 3.24849 11.0507 2.68068 10.6437C2.34796 10.4052 2.19418 9.98806 2.29252 9.5907C2.53568 8.60804 2.92397 7.68291 3.43299 6.83952C3.64443 6.48918 4.04799 6.30301 4.45175 6.36955C5.14073 6.48309 5.66767 6.31177 5.98969 5.98975C6.31172 5.66772 6.48304 5.14078 6.36949 4.45179C6.30295 4.04803 6.48912 3.64447 6.83945 3.43303C7.68287 2.92399 8.60802 2.53569 9.5907 2.29252C9.98806 2.19418 10.4052 2.34797 10.6437 2.68069C11.0507 3.24849 11.5446 3.50009 12.0001 3.50009C12.4556 3.50009 12.9495 3.24849 13.3565 2.68069C13.595 2.34797 14.0121 2.19418 14.4095 2.29252ZM14.5119 4.40209C13.8552 5.06102 12.9921 5.50009 12.0001 5.50009C11.0081 5.50009 10.1449 5.06102 9.48825 4.40209C9.11378 4.52581 8.75148 4.6765 8.40364 4.85189C8.40512 5.78202 8.10521 6.70266 7.40391 7.40396C6.70261 8.10525 5.78198 8.40517 4.85187 8.4037C4.67649 8.75152 4.52581 9.1138 4.40209 9.48825C5.06102 10.1449 5.5001 11.0081 5.5001 12.0001C5.5001 12.9921 5.06102 13.8552 4.40209 14.5119C4.52582 14.8864 4.67651 15.2487 4.85191 15.5966C5.78201 15.5951 6.70262 15.895 7.4039 16.5963C8.10518 17.2976 8.40509 18.2182 8.40364 19.1483C8.75148 19.3237 9.11378 19.4744 9.48826 19.5981C10.1449 18.9392 11.0081 18.5001 12.0001 18.5001C12.9921 18.5001 13.8552 18.9392 14.5119 19.5981C14.8864 19.4744 15.2487 19.3237 15.5966 19.1483C15.5951 18.2182 15.895 17.2976 16.5963 16.5963C17.2976 15.895 18.2182 15.5951 19.1483 15.5966C19.3237 15.2487 19.4744 14.8864 19.5981 14.5119C18.9392 13.8552 18.5001 12.9921 18.5001 12.0001C18.5001 11.0081 18.9392 10.1449 19.5981 9.48825C19.4744 9.11379 19.3237 8.75152 19.1483 8.40369C18.2182 8.40516 17.2976 8.10525 16.5963 7.40395C15.895 6.70265 15.5951 5.78201 15.5966 4.8519C15.2487 4.6765 14.8864 4.52581 14.5119 4.40209ZM12.0001 8.00009C14.2092 8.00009 16.0001 9.79095 16.0001 12.0001C16.0001 14.2092 14.2092 16.0001 12.0001 16.0001C9.79096 16.0001 8.0001 14.2092 8.0001 12.0001C8.0001 9.79095 9.79096 8.00009 12.0001 8.00009ZM12.0001 10.0001C10.8955 10.0001 10.0001 10.8955 10.0001 12.0001C10.0001 13.1047 10.8955 14.0001 12.0001 14.0001C13.1047 14.0001 14.0001 13.1047 14.0001 12.0001C14.0001 10.8955 13.1047 10.0001 12.0001 10.0001Z" fill="currentColor"/>
</g>
<defs>
<clipPath id="clip0_102_3823">
<rect width="24" height="24" fill="currentColor"/>
</clipPath>
</defs>
</svg>
