<svg id="orchid" viewBox="0 0 20 20" fill="none" xmlns="http://www.w3.org/2000/svg">
    <g clip-path="url(#clip0_97_14756)">
        <path d="M7.49999 16.6665C7.721 16.6665 7.93296 16.7543 8.08924 16.9106C8.24552 17.0669 8.33332 17.2788 8.33332 17.4998C8.33332 17.7208 8.24552 17.9328 8.08924 18.0891C7.93296 18.2454 7.721 18.3332 7.49999 18.3332C7.27897 18.3332 7.06701 18.2454 6.91073 18.0891C6.75445 17.9328 6.66665 17.7208 6.66665 17.4998C6.66665 17.2788 6.75445 17.0669 6.91073 16.9106C7.06701 16.7543 7.27897 16.6665 7.49999 16.6665ZM13.3333 16.6665C13.5543 16.6665 13.7663 16.7543 13.9226 16.9106C14.0789 17.0669 14.1667 17.2788 14.1667 17.4998C14.1667 17.7208 14.0789 17.9328 13.9226 18.0891C13.7663 18.2454 13.5543 18.3332 13.3333 18.3332C13.1123 18.3332 12.9003 18.2454 12.7441 18.0891C12.5878 17.9328 12.5 17.7208 12.5 17.4998C12.5 17.2788 12.5878 17.0669 12.7441 16.9106C12.9003 16.7543 13.1123 16.6665 13.3333 16.6665ZM2.91249 2.19233L2.99999 2.25066L4.42332 3.31733C4.66554 3.49908 4.85366 3.74338 4.96749 4.024L5.01749 4.1665H15.7225C15.9484 4.16644 16.172 4.21232 16.3796 4.30134C16.5873 4.39036 16.7747 4.52067 16.9304 4.68434C17.0861 4.84802 17.2069 5.04165 17.2855 5.25346C17.3641 5.46528 17.3988 5.69086 17.3875 5.9165L17.3767 6.03983L16.9958 9.08566C16.8815 10.0023 16.4659 10.8549 15.8142 11.5096C15.1626 12.1642 14.3119 12.5838 13.3958 12.7023L13.2075 12.7215L7.11332 13.2298L7.32999 14.1665H14.5833C14.7957 14.1667 15 14.2481 15.1545 14.3939C15.3089 14.5397 15.4018 14.739 15.4143 14.951C15.4267 15.163 15.3578 15.3718 15.2214 15.5347C15.0851 15.6976 14.8917 15.8022 14.6808 15.8273L14.5833 15.8332H7.32999C6.97632 15.8332 6.63181 15.7208 6.34627 15.5121C6.06074 15.3034 5.84899 15.0093 5.74165 14.6723L5.70582 14.5415L3.42249 4.64983L1.99999 3.58316C1.8374 3.46131 1.72494 3.28424 1.68375 3.08528C1.64256 2.88631 1.67548 2.67915 1.77632 2.50276C1.87716 2.32636 2.03897 2.19289 2.23133 2.12743C2.42368 2.06198 2.63332 2.06905 2.82082 2.14733L2.91249 2.19233ZM15.7225 5.83316H5.40582L6.73499 11.5882L13.0683 11.0607C13.6399 11.0131 14.1778 10.7704 14.5917 10.3734C15.0056 9.97629 15.2704 9.44897 15.3417 8.87983L15.7225 5.83316Z"
              fill="currentColor"/>
    </g>
    <defs>
        <clipPath id="clip0_97_14756">
            <rect width="20" height="20" fill="white"/>
        </clipPath>
    </defs>
</svg>
