<svg id="orchid" xmlns="http://www.w3.org/2000/svg" width="16" height="16" viewBox="0 0 16 16" fill="none">
    <path d="M4.20067 4C4.63633 3.99992 5.06538 4.10658 5.4503 4.31066C5.83521 4.51473 6.16426 4.81001 6.40867 5.17066L6.48733 5.29466L9.32267 10.0193C9.43167 10.2011 9.58246 10.3543 9.76251 10.4662C9.94257 10.5781 10.1467 10.6455 10.358 10.6627L10.4667 10.6667H11.2627L11.276 10.39L11.2907 10.15L11.2987 10.044C11.3167 9.81333 11.5333 9.67266 11.7193 9.77066L11.9233 9.88L12.1633 10.0153L12.2953 10.0933L12.582 10.2687L12.7347 10.3667L13.0433 10.5733L13.1833 10.6713L13.4347 10.8533L13.6447 11.0133L13.7333 11.0827C13.8907 11.208 13.8833 11.46 13.718 11.5907L13.5313 11.7353L13.3047 11.9033L13.038 12.0913L12.734 12.2947L12.426 12.4887L12.1487 12.6547L11.9053 12.7913L11.7007 12.9013C11.5173 12.9967 11.3193 12.8773 11.302 12.6613L11.2853 12.43L11.2693 12.1533L11.2627 12H10.4667C10.031 12.0001 9.60195 11.8934 9.21704 11.6893C8.83213 11.4853 8.50308 11.19 8.25867 10.8293L8.18 10.7053L5.34467 5.98066C5.23566 5.79885 5.08488 5.64564 4.90482 5.53376C4.72476 5.42188 4.52062 5.35454 4.30933 5.33733L4.2 5.33333H2.66667C2.49675 5.33314 2.33331 5.26808 2.20975 5.15143C2.0862 5.03478 2.01184 4.87536 2.00189 4.70573C1.99193 4.53611 2.04712 4.36908 2.15618 4.23877C2.26524 4.10847 2.41994 4.02473 2.58867 4.00466L2.66667 4H4.20067ZM6.67667 9.09533C6.82799 9.1864 6.93699 9.3338 6.97974 9.50517C7.02248 9.67653 6.99548 9.85785 6.90467 10.0093L6.48733 10.7053C6.25041 11.1002 5.91526 11.427 5.51454 11.6539C5.11381 11.8808 4.66116 12 4.20067 12H2.66667C2.48986 12 2.32029 11.9298 2.19526 11.8047C2.07024 11.6797 2 11.5101 2 11.3333C2 11.1565 2.07024 10.9869 2.19526 10.8619C2.32029 10.7369 2.48986 10.6667 2.66667 10.6667H4.20067C4.43092 10.6667 4.65724 10.607 4.8576 10.4936C5.05797 10.3802 5.22554 10.2168 5.344 10.0193L5.762 9.324C5.85285 9.17245 6.00016 9.06317 6.17154 9.02017C6.34292 8.97717 6.52436 9.00396 6.676 9.09466L6.67667 9.09533ZM11.7187 3.10333L11.9227 3.21333L12.1627 3.34866L12.2947 3.42666L12.5813 3.602L12.734 3.7L13.0427 3.90666L13.1827 4.00466L13.434 4.18666L13.644 4.34666L13.7327 4.416C13.89 4.54133 13.8827 4.79333 13.7173 4.924L13.5307 5.06866L13.304 5.23666C13.2213 5.29666 13.1327 5.35933 13.0373 5.42466L12.7333 5.628L12.4253 5.822L12.148 5.988L11.9047 6.12533L11.7 6.23466C11.5167 6.33 11.3187 6.21066 11.3013 5.99466L11.2847 5.76333L11.2687 5.48666L11.262 5.33333H10.4667C10.2546 5.33326 10.0455 5.38379 9.85688 5.48073C9.66824 5.57766 9.50544 5.71819 9.382 5.89066L9.32333 5.98066L8.906 6.676C8.81898 6.82277 8.679 6.93059 8.51488 6.97726C8.35076 7.02393 8.17499 7.00589 8.02376 6.92686C7.87254 6.84784 7.75737 6.71383 7.70198 6.55244C7.64659 6.39105 7.65518 6.21457 7.726 6.05933L7.76267 5.99L8.18 5.29466C8.40408 4.92118 8.71622 4.60827 9.08916 4.38328C9.46209 4.15828 9.88445 4.02806 10.3193 4.004L10.466 4H11.2627L11.276 3.72333L11.2907 3.48333L11.2987 3.37733C11.3167 3.14666 11.5333 3.006 11.7193 3.104L11.7187 3.10333Z" fill="currentColor"/>
</svg>
