<svg id="orchid" width="18" height="18" viewBox="0 0 18 18" fill="none" xmlns="http://www.w3.org/2000/svg">
    <g id="Inner">
        <path id="Vector"
              d="M13.5 3C13.9142 3 14.25 3.33579 14.25 3.75V13.0605L15.091 12.2195C15.3839 11.9267 15.8588 11.9267 16.1516 12.2195C16.4446 12.5124 16.4446 12.9873 16.1516 13.2802L14.0303 15.4016C13.7375 15.6944 13.2626 15.6944 12.9697 15.4016L10.8484 13.2802C10.5554 12.9873 10.5554 12.5124 10.8484 12.2195C11.1413 11.9267 11.6162 11.9267 11.909 12.2195L12.75 13.0605V3.75C12.75 3.33579 13.0858 3 13.5 3ZM8.25 13.5C8.66423 13.5 9 13.8358 9 14.25C9 14.6346 8.71048 14.9516 8.33747 14.995L8.25 15H3C2.58579 15 2.25 14.6642 2.25 14.25C2.25 13.8654 2.53953 13.5484 2.91253 13.505L3 13.5H8.25ZM9.75 8.25C10.1642 8.25 10.5 8.58577 10.5 9C10.5 9.38464 10.2105 9.70163 9.83747 9.74495L9.75 9.75H3C2.58579 9.75 2.25 9.41423 2.25 9C2.25 8.61536 2.53953 8.29837 2.91253 8.25505L3 8.25H9.75ZM9.75 3C10.1642 3 10.5 3.33579 10.5 3.75C10.5 4.16421 10.1642 4.5 9.75 4.5H3C2.58579 4.5 2.25 4.16421 2.25 3.75C2.25 3.33579 2.58579 3 3 3H9.75Z"
              fill="currentColor"/>
    </g>
</svg>
