<svg width="16" height="16" viewBox="0 0 16 16" fill="none" xmlns="http://www.w3.org/2000/svg">
  <g clip-path="url(#clip0_3589_9287)">
    <path d="M9.33343 4.16016C9.55677 4.16016 9.72543 4.25416 9.85143 4.38816C10.0548 4.60416 10.1408 4.92216 10.2674 5.1855C10.9168 6.53761 11.9419 7.67403 13.2201 8.45883L13.5094 8.63016C13.7714 8.7895 13.9994 8.9755 14.0001 9.33216C14.0008 9.82016 13.5761 9.9895 13.2201 10.2075C11.9419 10.9923 10.9168 12.1287 10.2674 13.4808C10.1408 13.7448 10.0541 14.0628 9.85143 14.2788C9.7261 14.4128 9.55677 14.5068 9.33343 14.5068C9.1101 14.5068 8.94077 14.4128 8.81543 14.2788C8.6981 14.1542 8.62077 13.9975 8.5521 13.8375L8.4521 13.5975C8.43539 13.5584 8.41783 13.5198 8.39943 13.4815C7.75011 12.1294 6.72501 10.993 5.44677 10.2082L5.23277 10.0808C4.9441 9.9075 4.6661 9.71016 4.66677 9.33216C4.6681 8.8455 5.09143 8.6775 5.44677 8.4595C6.72501 7.6747 7.75011 6.53827 8.39943 5.18616C8.5261 4.92216 8.61277 4.60416 8.81543 4.38816C8.94077 4.25483 9.1101 4.16016 9.33343 4.16016ZM4.4981 3.8835C4.59743 4.0055 4.65677 4.1435 4.72477 4.28416C4.90743 4.66416 5.18343 4.99083 5.52543 5.23216L5.65743 5.31883C6.2281 5.66883 6.24943 6.25883 5.73743 6.62816L5.65743 6.6815C5.25335 6.92952 4.92931 7.28874 4.7241 7.71616L4.6481 7.8775C4.58343 8.01083 4.5081 8.13816 4.37743 8.22283C4.16743 8.3575 3.83277 8.3575 3.62277 8.22283C3.4461 8.1095 3.36277 7.8975 3.2761 7.71616C3.07086 7.28876 2.74683 6.92955 2.34277 6.6815C2.2241 6.60816 2.11077 6.5395 2.01277 6.43683C1.91695 6.31114 1.86511 6.15743 1.86523 5.99938C1.86536 5.84133 1.91743 5.68771 2.01343 5.56216C2.11343 5.45816 2.2201 5.39416 2.34343 5.31883C2.74727 5.07071 3.07107 4.71149 3.2761 4.28416C3.34543 4.14016 3.40077 4.00816 3.50277 3.88416C3.63604 3.75462 3.81457 3.68214 4.00043 3.68214C4.18629 3.68214 4.36483 3.75462 4.4981 3.88416V3.8835ZM6.66677 1.3335C6.84358 1.3335 7.01315 1.40373 7.13817 1.52876C7.2632 1.65378 7.33343 1.82335 7.33343 2.00016C7.51025 2.00016 7.67981 2.0704 7.80484 2.19542C7.92986 2.32045 8.0001 2.49002 8.0001 2.66683C8.0001 2.84364 7.92986 3.01321 7.80484 3.13823C7.67981 3.26326 7.51025 3.3335 7.33343 3.3335C7.33343 3.51031 7.2632 3.67988 7.13817 3.8049C7.01315 3.92992 6.84358 4.00016 6.66677 4.00016C6.48996 4.00016 6.32039 3.92992 6.19536 3.8049C6.07034 3.67988 6.0001 3.51031 6.0001 3.3335C5.82329 3.3335 5.65372 3.26326 5.5287 3.13823C5.40367 3.01321 5.33343 2.84364 5.33343 2.66683C5.33343 2.49002 5.40367 2.32045 5.5287 2.19542C5.65372 2.0704 5.82329 2.00016 6.0001 2.00016C6.0001 1.82335 6.07034 1.65378 6.19536 1.52876C6.32039 1.40373 6.48996 1.3335 6.66677 1.3335Z" fill="currentColor"/>
  </g>
  <defs>
    <clipPath id="clip0_3589_9287">
      <rect width="16" height="16" fill="white"/>
    </clipPath>
  </defs>
</svg>
