<svg width="16" height="17" viewBox="0 0 16 17" fill="none" xmlns="http://www.w3.org/2000/svg">
<g clip-path="url(#clip0_2997_20670)">
<path d="M9.3332 4.65987C9.5564 4.65987 9.72566 4.75405 9.8514 4.8879C10.0545 5.10416 10.1406 5.42208 10.2673 5.68564C10.9183 7.03979 11.9437 8.17651 13.2198 8.95917L13.5094 9.12979C13.7712 9.28935 13.9993 9.47515 14 9.83204C14.0009 10.3201 13.5763 10.4894 13.2202 10.7074C11.9437 11.4904 10.9183 12.6271 10.2673 13.9812C10.1406 14.2448 10.0545 14.5627 9.8514 14.779C9.72566 14.9128 9.5564 15.007 9.3332 15.007C9.11006 15.007 8.94086 14.9127 8.8152 14.7788C8.69786 14.6539 8.62037 14.4977 8.55177 14.3374L8.45169 14.0972C8.43483 14.0578 8.41756 14.019 8.3994 13.9812C7.7484 12.627 6.723 11.4904 5.44671 10.7076L5.23261 10.5805C4.94408 10.4078 4.66574 10.2098 4.66667 9.83171C4.66788 9.34531 5.09128 9.17711 5.44649 8.95944C6.723 8.17651 7.7484 7.0398 8.39926 5.68579C8.52593 5.42223 8.61213 5.10425 8.8152 4.88801C8.94086 4.75417 9.11 4.65987 9.3332 4.65987ZM9.33266 6.77721C8.63866 7.98557 7.70926 9.05577 6.54534 9.83317C7.70733 10.6182 8.63246 11.681 9.33333 12.8885C10.0352 11.6794 10.9663 10.6303 12.12 9.83317C10.9616 9.04244 10.0341 7.98564 9.33266 6.77721ZM4.49787 4.38352C4.59736 4.50564 4.6567 4.64397 4.7241 4.78414C4.90703 5.16466 5.18337 5.49074 5.52564 5.73214L5.65703 5.81864C6.22785 6.16864 6.24952 6.75814 5.73784 7.12771L5.65709 7.18144C5.25394 7.42871 4.9299 7.78791 4.72417 8.21584L4.64818 8.37744C4.58327 8.51127 4.50828 8.63825 4.37742 8.72244C4.16724 8.85764 3.8329 8.85764 3.62272 8.72244C3.4461 8.60884 3.36305 8.39711 3.27604 8.21597C3.07023 7.78791 2.7462 7.42871 2.3431 7.18144C2.22412 7.1085 2.11071 7.03905 2.01278 6.93699C1.81591 6.67099 1.81598 6.32804 2.01341 6.06236C2.11354 5.95824 2.22051 5.89381 2.34304 5.81868C2.74622 5.57141 3.07024 5.21222 3.27601 4.78419C3.34514 4.64035 3.40097 4.50789 3.50217 4.38363C3.77562 4.11401 4.22436 4.114 4.49787 4.38352ZM4.00017 6.11404C3.92314 6.2126 3.83716 6.30514 3.7491 6.39387L3.63817 6.50004L3.74911 6.60625C3.83742 6.69524 3.91996 6.78909 4.00017 6.88537C4.07914 6.78827 4.16288 6.69507 4.25104 6.60622L4.36084 6.50004L4.25102 6.39387C4.16319 6.30536 4.07594 6.21324 4.00017 6.11404ZM6.66667 1.83337C7.03486 1.83337 7.33334 2.13185 7.33334 2.50004C7.70153 2.50004 8 2.79852 8 3.16671C8 3.53489 7.70153 3.83337 7.33334 3.83337C7.33334 4.20156 7.03486 4.50004 6.66667 4.50004C6.29848 4.50004 6 4.20156 6 3.83337C5.63181 3.83337 5.33334 3.53489 5.33334 3.16671C5.33334 2.79852 5.63181 2.50004 6 2.50004C6 2.13185 6.29848 1.83337 6.66667 1.83337Z" fill="#B14AED"/>
</g>
<defs>
<clipPath id="clip0_2997_20670">
<rect width="16" height="16" fill="white" transform="translate(0 0.5)"/>
</clipPath>
</defs>
</svg>
