<svg xmlns="http://www.w3.org/2000/svg" id="orchid" fill="currentColor" viewBox="0 0 24 24">
  <g  clip-path="url(#a)">
    <g >
      <path fill="currentColor" d="M14 6.24c.335 0 .588.141.777.342.305.324.434.801.624 1.196a11.71 11.71 0 0 0 4.429 4.91l.434.257c.393.239.735.518.736 1.053.001.732-.636.986-1.17 1.313a11.711 11.711 0 0 0-4.429 4.91c-.19.396-.32.873-.624 1.197-.188.201-.442.342-.777.342s-.589-.141-.777-.342c-.176-.187-.292-.421-.395-.662l-.15-.36a4.467 4.467 0 0 0-.079-.174 11.71 11.71 0 0 0-4.429-4.91l-.321-.191c-.433-.26-.85-.556-.849-1.123.002-.73.637-.982 1.17-1.309a11.71 11.71 0 0 0 4.429-4.91c.19-.396.32-.873.624-1.197.188-.2.442-.342.777-.342Zm-.001 3.176c-1.041 1.812-2.435 3.418-4.181 4.584 1.743 1.177 3.13 2.771 4.182 4.583 1.053-1.814 2.45-3.388 4.18-4.583-1.738-1.186-3.129-2.772-4.181-4.584Zm-7.252-3.59c.149.182.238.39.34.6.274.57.688 1.06 1.201 1.422l.198.13c.856.525.888 1.41.12 1.964l-.12.08a3.7 3.7 0 0 0-1.4 1.552l-.114.242c-.097.2-.21.391-.406.518-.315.202-.817.202-1.132 0-.265-.17-.39-.488-.52-.76a3.701 3.701 0 0 0-1.4-1.552c-.178-.11-.348-.213-.495-.367a1.081 1.081 0 0 1 .001-1.312c.15-.156.31-.252.495-.365a3.7 3.7 0 0 0 1.399-1.552c.104-.216.187-.414.34-.6a1.071 1.071 0 0 1 1.493 0ZM6 8.42a4.789 4.789 0 0 1-.376.42L5.457 9l.167.16c.132.133.256.274.376.418.119-.146.244-.285.377-.419L6.54 9l-.164-.16A4.386 4.386 0 0 1 6 8.422ZM10 2a1 1 0 0 1 1 1 1 1 0 1 1 0 2 1 1 0 1 1-2 0 1 1 0 1 1 0-2 1 1 0 0 1 1-1Z" />
    </g>
  </g>
  <defs>
    <clipPath id="a" >
      <path fill="#fff" d="M0 0h24v24H0z"/>
    </clipPath>
  </defs>
</svg>
