<svg width="57" height="56" viewBox="0 0 57 56" fill="none" xmlns="http://www.w3.org/2000/svg" id="orchid">
<path d="M29.8278 36.8846L29.5478 39.2245C29.0082 43.0021 14.4 41.5884 11.4978 37.6846C11.1678 37.2546 11.0378 36.8246 11.0978 36.4045C11.2243 35.431 11.6886 34.1729 11.7578 34.0345L12.6878 34.3746V34.4045C12.5478 35.3746 15.5178 37.1346 20.4478 37.8346C25.4078 38.5345 28.6778 37.6646 28.8378 36.7346L29.8278 36.8846Z" fill="#FF6B6C"/>
<path d="M28.2122 48.8699C28.4652 46.5975 24.1909 44.2566 18.6652 43.6414C13.1395 43.0262 8.45489 44.3696 8.20188 46.642C7.94888 48.9144 12.2232 51.2553 17.749 51.8705C23.2747 52.4858 27.9592 51.1423 28.2122 48.8699Z" fill="#F7D01C"/>
<path d="M49.2982 17.1565C49.2415 16.886 48.9739 16.7043 48.7069 16.7688C47.3637 17.0475 45.9719 16.8816 45.14 16.5481C46.5311 15.7292 46.4009 14.0079 45.3445 13.4377C44.1294 12.7794 42.4124 14.0421 43.0413 15.8176C38.3619 14.7106 34.4275 6.17742 27.7034 4.06077C23.0172 2.58565 18.2372 4.36194 13.9134 6.02464C13.2845 6.26682 12.5023 6.56858 11.9632 7.19065C10.9292 8.38274 11.0838 10.6015 12.9139 11.7955C11.2282 13.2969 11.2426 15.7167 12.7357 17.2214C11.4232 18.2534 11.1763 20.3631 12.2401 21.8244C12.7305 22.5 13.4141 22.9375 14.1387 23.2407C13.1839 24.7235 13.7885 27.2623 17.5281 28.0989C17.9758 28.1992 18.4324 28.2707 18.8918 28.3246C18.6428 29.6922 18.0654 31.0075 17.22 32.1095C8.70827 32.2834 10.1255 37.3941 20.3079 38.8205C21.5179 38.9914 22.7464 39.0823 23.9012 39.0823C29.6034 39.0823 29.7113 37.0995 29.8416 37.008C29.7671 36.8852 30.5637 35.1297 25.8867 33.47C25.2184 31.7187 23.936 30.3251 24.0391 28.5952C27.1524 30.2569 30.8006 30.9589 34.4075 30.4914C36.1802 30.2588 37.9617 29.7372 39.6751 29.5119C40.3325 29.4252 40.1982 28.4295 39.5443 28.5198C37.7765 28.7534 36.004 29.274 34.2777 29.4992C30.9576 29.9314 27.5175 29.3017 24.5585 27.7353C26.6163 26.9224 28.2576 24.9782 27.6466 22.9951C29.4513 21.893 29.6856 19.4569 28.0993 18.0596C28.419 17.6174 28.6332 17.1273 28.7069 16.6164C28.8422 15.6797 28.2372 14.1545 27.1646 13.589C27.5943 12.3144 26.7195 11.1285 25.514 10.4485C25.3699 10.3673 25.2172 10.3202 25.0681 10.2579C26.2117 10.1572 27.2592 10.2469 28.1854 10.5373C28.4481 10.6203 28.7288 10.4739 28.8123 10.2112C28.8953 9.94749 28.7488 9.66721 28.4852 9.58421C23.8961 8.13939 18.9917 11.3278 16.0399 11.5451C13.0367 11.7676 11.4527 9.30482 12.7186 7.84593C13.0945 7.41233 13.7205 7.17112 14.2728 6.95823C18.4848 5.33778 23.0219 3.63729 27.4031 5.01389C34.2446 7.16897 38.409 16.9542 43.8006 16.9065C45.024 17.9461 47.3229 18.0771 48.91 17.7473C49.1805 17.6916 49.3543 17.427 49.2982 17.1565ZM28.8514 36.6662L28.8387 36.7375C28.6761 37.6672 25.4041 38.5315 20.4471 37.8303C15.5111 37.1379 12.5462 35.3694 12.6917 34.3801C12.8808 33.8364 14.2143 33.297 16.4002 33.1437C15.9248 33.7788 15.6212 34.5161 15.8387 35.2785C15.9017 35.4983 16.1019 35.6408 16.3192 35.6408C16.6531 35.6408 16.8913 35.3214 16.8006 35.0032C16.6079 34.333 17.2751 33.6268 17.7261 33.0996C20.0371 33.1074 22.8622 33.5217 25.1052 34.2487C25.2819 34.8639 25.3857 35.6689 25.0526 36.3655C24.9334 36.6145 25.0389 36.9133 25.2879 37.0324C25.5397 37.1522 25.8369 37.0438 25.9549 36.7971C26.2497 36.1798 26.3138 35.4385 26.1946 34.6468C27.9256 35.3526 28.8463 36.1386 28.8514 36.6662ZM24.6231 33.0721C22.6867 32.5258 20.5492 32.1909 18.4367 32.1203C19.1712 30.9941 19.671 29.7134 19.8953 28.3912C21.1169 28.4447 21.7456 28.4304 23.0821 28.1587C22.7686 30.0118 23.8696 31.5722 24.6231 33.0721ZM25.7293 25.8713C23.9342 27.5788 20.1783 27.6693 17.7464 27.1223C14.755 26.4552 14.2027 24.5116 15.1479 23.5816C18.9121 24.5875 24.079 24.3031 26.7204 23.41C26.976 24.5138 26.1361 25.4837 25.7293 25.8713ZM27.5013 21.8616C25.8544 23.3979 19.4525 23.4309 16.2117 22.8C15.1131 22.5871 13.7601 22.216 13.0486 21.2366C12.2902 20.1939 12.4215 18.5866 13.5732 17.8678C14.2681 18.2778 15.0466 18.5135 15.7547 18.7248C19.225 19.7648 24.4924 21.2113 27.4099 18.7772C28.3988 19.6145 28.3802 21.0422 27.5013 21.8616ZM22.1729 10.8314C23.1063 10.7995 24.1649 10.8356 25.0228 11.3196C25.6702 11.6848 26.3377 12.3283 26.2698 13.0412C26.1056 14.7536 23.6395 14.3195 22.4505 14.1262C20.6703 13.8554 18.8166 13.4422 17.4127 12.3285C18.7874 12.0079 20.1841 11.3889 22.1729 10.8314ZM16.2728 12.5216C16.2903 12.6273 16.3336 12.7295 16.4183 12.8078C18.2182 14.4737 20.5517 14.7941 22.701 15.1789C24.1456 15.4137 25.5363 15.5577 26.6315 14.4361C27.2947 14.7201 27.805 15.8667 27.7176 16.4739C27.4796 18.1138 25.6526 18.857 24.0057 19.0403C21.2957 19.3391 18.5042 18.5061 16.0413 17.7668C15.2069 17.5178 14.2615 17.2356 13.6009 16.6701C12.2418 15.5063 12.2736 13.3698 13.9329 12.2947C14.6334 12.5249 15.3807 12.6075 16.2728 12.5216ZM44.1844 15.8625C43.9349 15.5198 43.8411 15.0979 43.9573 14.7668C44.0783 14.4198 44.5515 14.1491 44.869 14.3166C45.1258 14.4563 45.2357 14.885 45.0945 15.1994C44.9539 15.5149 44.6024 15.7688 44.1844 15.8625ZM41.764 28.4143C41.146 28.3343 41.0164 29.3778 41.7122 29.4123C43.2918 29.4944 44.6033 29.9748 45.5057 30.8039C45.9898 31.2463 46.6698 30.5151 46.1824 30.0676C45.1063 29.0793 43.5784 28.508 41.764 28.4143ZM19.222 43.2043C13.3797 42.4367 8.34015 43.8078 7.74982 46.3274C7.59259 46.9983 7.75421 47.7063 8.2171 48.3752C9.48664 50.2121 13.0101 51.7551 17.1927 52.3069C20.7983 52.7808 27.8833 52.5257 28.6644 49.1848C28.8216 48.5139 28.66 47.8059 28.1971 47.1369C26.928 45.3 23.4046 43.7571 19.222 43.2043ZM27.6907 48.9563C27.2825 50.7024 23.0174 52.0705 17.3236 51.3147C13.4681 50.8069 10.139 49.3977 9.03937 47.8069C8.73761 47.3703 8.63117 46.9494 8.72345 46.5559C9.31996 44.0093 15.5995 43.7364 19.0911 44.1965C22.9466 44.7053 26.2757 46.1155 27.3748 47.7053C27.6766 48.1418 27.783 48.5627 27.6907 48.9563Z" fill="#03102F"/>
<path d="M12.3233 45.2658C12.2563 45.3031 12.2041 45.3463 12.1696 45.3929C12.1351 45.4396 12.1189 45.4887 12.1221 45.5374C12.1253 45.5862 12.1478 45.6337 12.1882 45.6772C12.2286 45.7207 12.2862 45.7594 12.3577 45.791L12.9367 46.056C12.1631 46.7003 12.0995 47.4831 13.1534 47.9655C14.4003 48.5362 16.4353 48.3905 17.6882 47.7128C18.4453 47.3033 19.5143 47.2561 20.1137 47.5304C20.713 47.8047 20.7054 48.3377 19.9483 48.7472C19.1912 49.1567 18.1243 49.2049 17.525 48.9306C16.8106 48.5933 15.7527 49.1655 16.4878 49.4916C17.5428 49.9744 19.1054 49.8787 20.3314 49.4404L20.9211 49.7103C21.6345 50.0471 22.6924 49.4749 21.9583 49.1493L21.4801 48.9305C22.2756 48.2796 22.2437 47.4479 21.153 46.9705C19.7248 46.3169 18.0598 46.4434 16.6182 47.2231C15.861 47.6326 14.792 47.6798 14.1927 47.4055C13.6019 47.1351 13.6078 46.6138 14.3344 46.2069C14.3555 46.1969 14.3756 46.1864 14.3945 46.1754C15.1511 45.7822 16.1906 45.735 16.7814 46.0053C17.4969 46.3432 18.5547 45.771 17.8185 45.4444C16.7485 44.9547 15.1007 44.9959 13.8634 45.4445L13.3949 45.2301C13.3241 45.1966 13.2399 45.1709 13.1472 45.1545C13.0546 45.1381 12.9553 45.1314 12.8553 45.1348C12.7554 45.1381 12.6568 45.1514 12.5654 45.1739C12.474 45.1964 12.3917 45.2277 12.3233 45.2658Z" fill="#03102F"/>
</svg>
