<svg id="orchid" viewBox="0 0 24 24" fill="none" xmlns="http://www.w3.org/2000/svg">
<g clip-path="url(#clip0_605_130)">
<path d="M4 4C3.44772 4 3 4.44772 3 5C3 5.55228 3.44772 6 4 6H12C12.5523 6 13 5.55228 13 5C13 4.44772 12.5523 4 12 4H4ZM20.8371 5.60607C20.9687 5.34859 20.7746 5.05006 20.4579 5.02272L19.892 4.9806L19.4281 4.95515L18.901 4.93526L18.3156 4.92388L17.7069 4.92366L17.1514 4.9338L16.6474 4.95174L15.9974 4.98786L15.4872 5.0276C15.1905 5.054 15.0257 5.32614 15.1547 5.57959L15.3054 5.86858L15.4945 6.2146L15.7226 6.61269C15.7639 6.6831 15.8069 6.75548 15.8515 6.82971L16.1397 7.29663L16.4617 7.79251L16.7727 8.24811C16.8227 8.31965 16.8717 8.38897 16.9197 8.45602L17.1935 8.83086L17.4362 9.14949L17.6424 9.41003C17.8245 9.63585 18.1715 9.6453 18.3456 9.43055L18.6724 9.01531L18.9353 8.66445L19.2274 8.25728C19.3798 8.04002 19.5408 7.80258 19.7073 7.54636L19.8627 7.30404L20.1448 6.84708L20.389 6.43131C20.4266 6.36574 20.4626 6.3021 20.4971 6.2405L20.6854 5.89622L20.8371 5.60607ZM3 12C3 11.4477 3.44772 11 4 11H12C12.5523 11 13 11.4477 13 12C13 12.5523 12.5523 13 12 13H4C3.44772 13 3 12.5523 3 12ZM4 18C3.44772 18 3 18.4477 3 19C3 19.5523 3.44772 20 4 20H12C12.5523 20 13 19.5523 13 19C13 18.4477 12.5523 18 12 18H4Z" fill="currentColor"/>
</g>
<defs>
<clipPath id="clip0_605_130">
<rect width="24" height="24" fill="white"/>
</clipPath>
</defs>
</svg>
