<svg id="orchid" viewBox="0 0 20 20" fill="none" xmlns="http://www.w3.org/2000/svg">
<path fill-rule="evenodd" clip-rule="evenodd" d="M8.78121 1.80325C9.46321 1.74124 10.1382 1.96185 10.6507 2.4088L10.7753 2.52521L17.2944 9.04432C18.2317 9.98152 18.2691 11.4778 17.4068 12.4598L17.2944 12.5798L12.5803 17.2939C11.6431 18.2311 10.1468 18.2686 9.16479 17.4064L9.04479 17.2939L2.5257 10.7748C2.04142 10.2905 1.7788 9.63075 1.79409 8.95094L1.80373 8.78066L2.19658 4.45948C2.30128 3.30768 3.1802 2.38514 4.31108 2.21409L4.45997 2.19609L8.78121 1.80325ZM9.03725 3.46018L8.93204 3.46307L4.61086 3.85591C4.24362 3.8893 3.9463 4.1588 3.87124 4.51206L3.8564 4.61037L3.46356 8.93157C3.44437 9.14272 3.5064 9.35178 3.63465 9.51735L3.70422 9.59632L10.2233 16.1154C10.5237 16.4158 10.9964 16.4389 11.3233 16.1847L11.4018 16.1154L16.1159 11.4013C16.4163 11.1009 16.4394 10.6282 16.1852 10.3013L16.1159 10.2228L9.59679 3.70373C9.44686 3.55383 9.24655 3.46764 9.03725 3.46018ZM6.09768 6.098C7.07398 5.12169 8.65688 5.12169 9.63321 6.098C10.6095 7.07431 10.6095 8.65724 9.63321 9.63349C8.65688 10.6098 7.07398 10.6098 6.09768 9.63349C5.12137 8.65724 5.12137 7.07431 6.09768 6.098ZM8.45471 7.27651C8.12926 6.95107 7.60163 6.95107 7.27618 7.27651C6.95075 7.60195 6.95075 8.12958 7.27618 8.45499C7.60163 8.78049 8.12926 8.78049 8.45471 8.45499C8.78013 8.12958 8.78013 7.60195 8.45471 7.27651Z" fill="#61667C"/>
</svg>
