<svg id="orchid" viewBox="0 0 24 24" fill="none" xmlns="http://www.w3.org/2000/svg">
<path fill-rule="evenodd" clip-rule="evenodd" d="M21.8394 6.05639C22.0315 4.8917 20.8652 3.97177 19.7773 4.42984L2.67703 11.63C1.48461 12.132 1.42351 13.8558 2.67788 14.3758C3.60596 14.7605 5.02633 15.3246 6.45085 15.7943C7.61932 16.1795 8.8931 16.5371 9.91353 16.6383C10.1929 16.9725 10.5445 17.2935 10.9017 17.5872C11.4487 18.0371 12.1074 18.5012 12.7873 18.9455C14.1489 19.8352 15.6597 20.6865 16.678 21.2396C17.8949 21.9006 19.3517 21.1395 19.5705 19.8131L21.8394 6.05639ZM4.59485 12.9925L19.7186 6.62459L17.6009 19.4649C16.6024 18.9219 15.163 18.1087 13.8813 17.2713C13.2329 16.8475 12.6407 16.4279 12.172 16.0425C12.0051 15.9052 11.8638 15.7802 11.7461 15.6683L15.7072 11.7071C16.0977 11.3166 16.0977 10.6834 15.7072 10.2929C15.3167 9.90237 14.6835 9.90237 14.293 10.2929L9.95476 14.6311C9.22132 14.5373 8.19888 14.2647 7.07709 13.8949C6.21377 13.6102 5.34574 13.2869 4.59485 12.9925Z" fill="#09244B"/>
</svg>
