<svg  id="orchid" viewBox="0 0 20 21" fill="none" xmlns="http://www.w3.org/2000/svg">
<g clip-path="url(#clip0_2018_93789)">
<path fill-rule="evenodd" clip-rule="evenodd" d="M11.6667 3C12.1269 3 12.5 3.3731 12.5 3.83333C12.5 5.44371 13.6453 6.79082 15.166 7.0999C15.617 7.19157 15.9083 7.6315 15.8167 8.08252C15.725 8.53353 15.285 8.82484 14.834 8.73318C13.9488 8.55326 13.1483 8.13952 12.5 7.55919V14.6667C12.5 16.9678 10.6345 18.8333 8.33334 18.8333C6.03216 18.8333 4.16667 16.9678 4.16667 14.6667C4.16667 12.3655 6.03216 10.5 8.33334 10.5C8.79359 10.5 9.16667 10.8731 9.16667 11.3333C9.16667 11.7936 8.79359 12.1667 8.33334 12.1667C6.95263 12.1667 5.83334 13.2859 5.83334 14.6667C5.83334 16.0474 6.95263 17.1667 8.33334 17.1667C9.71409 17.1667 10.8333 16.0474 10.8333 14.6667V3.83333C10.8333 3.3731 11.2064 3 11.6667 3Z" fill="#09244B"/>
</g>
<defs>
<clipPath id="clip0_2018_93789">
<rect width="20" height="20" fill="white" transform="translate(0 0.5)"/>
</clipPath>
</defs>
</svg>
