<svg id="orchid" viewBox="0 0 18 19" fill="none" xmlns="http://www.w3.org/2000/svg">
    <g clip-path="url(#clip0_1493_7837)">
        <path d="M9 2C13.1421 2 16.5 5.35786 16.5 9.5C16.5 13.6421 13.1421 17 9 17C4.85786 17 1.5 13.6421 1.5 9.5C1.5 5.35786 4.85786 2 9 2ZM9 5C8.58577 5 8.25 5.33579 8.25 5.75V9.5C8.25 9.6989 8.32905 9.8897 8.46968 10.0303L10.7197 12.2803C11.0126 12.5732 11.4874 12.5732 11.7803 12.2803C12.0732 11.9874 12.0732 11.5126 11.7803 11.2197L9.75 9.18935V5.75C9.75 5.33579 9.41423 5 9 5Z"
              fill="currentColor"/>
    </g>
    <defs>
        <clipPath id="clip0_1493_7837">
            <rect width="18" height="18" fill="white" transform="translate(0 0.5)"/>
        </clipPath>
    </defs>
</svg>
