<svg id="orchid" xmlns="http://www.w3.org/2000/svg" width="24" height="25" viewBox="0 0 24 25" fill="none">
    <path fill-rule="evenodd" clip-rule="evenodd" d="M0.666992 7.99992C0.666992 5.42259 2.75633 3.33325 5.33366 3.33325H10.667C13.2443 3.33325 15.3337 5.42259 15.3337 7.99992C15.3337 10.5773 13.2443 12.6666 10.667 12.6666H5.33366C2.75633 12.6666 0.666992 10.5773 0.666992 7.99992ZM2.66699 7.99992C2.66699 6.52716 3.8609 5.33325 5.33366 5.33325C6.80639 5.33325 8.00033 6.52716 8.00033 7.99992C8.00033 9.47265 6.80639 10.6666 5.33366 10.6666C3.8609 10.6666 2.66699 9.47265 2.66699 7.99992ZM5.33366 6.66659C4.59728 6.66659 4.00033 7.26352 4.00033 7.99992C4.00033 8.73632 4.59728 9.33325 5.33366 9.33325C6.07004 9.33325 6.66699 8.73632 6.66699 7.99992C6.66699 7.26352 6.07004 6.66659 5.33366 6.66659Z" fill="currentColor"/>
</svg>
