<svg id="orchid" viewBox="0 0 22 22" fill="none" xmlns="http://www.w3.org/2000/svg">
    <g clip-path="url(#clip0_1491_5020)">
        <path d="M13.75 3.66667C14.7626 3.66667 15.5833 4.48748 15.5833 5.50001V6.41667H16.9761C17.533 6.41667 18.0598 6.66984 18.4077 7.10473L19.7649 8.80129C20.025 9.12634 20.1667 9.53022 20.1667 9.94657V13.75C20.1667 14.7626 19.3459 15.5833 18.3333 15.5833C18.3333 17.1022 17.1022 18.3333 15.5833 18.3333C14.0645 18.3333 12.8333 17.1022 12.8333 15.5833H9.16668C9.16668 17.1022 7.93546 18.3333 6.41668 18.3333C4.8979 18.3333 3.66668 17.1022 3.66668 15.5833C2.65415 15.5833 1.83334 14.7626 1.83334 13.75V5.50001C1.83334 4.48748 2.65415 3.66667 3.66668 3.66667H13.75ZM6.41668 14.6667C5.91042 14.6667 5.50001 15.0771 5.50001 15.5833C5.50001 16.0896 5.91042 16.5 6.41668 16.5C6.92293 16.5 7.33334 16.0896 7.33334 15.5833C7.33334 15.0771 6.92293 14.6667 6.41668 14.6667ZM15.5833 14.6667C15.0771 14.6667 14.6667 15.0771 14.6667 15.5833C14.6667 16.0896 15.0771 16.5 15.5833 16.5C16.0896 16.5 16.5 16.0896 16.5 15.5833C16.5 15.0771 16.0896 14.6667 15.5833 14.6667ZM13.75 5.50001H3.66668V13.75H4.36691C4.87045 13.1874 5.60222 12.8333 6.41668 12.8333C7.16848 12.8333 7.84983 13.1351 8.34626 13.624L8.46644 13.75H13.5336L13.6388 13.6388L13.75 13.5336V5.50001ZM16.9761 8.25001H15.5833V12.8333C16.3352 12.8333 17.0165 13.1351 17.5129 13.624L17.6331 13.75H18.3333V9.94657L16.9761 8.25001Z" fill="currentColor"/>
    </g>
    <defs>
        <clipPath id="clip0_1491_5020">
        <rect width="22" height="22" fill="white"/>
        </clipPath>
    </defs>
</svg>