<svg xmlns="http://www.w3.org/2000/svg" id="orchid" fill="currentColor" viewBox="0 0 25 24">
    <g clip-path="url(#a)">
        <g>
            <path fill="currentColor" fill-rule="evenodd"
                  d="M18.577 6.989c-.353-.508-1.297-1.222-2.826-.914-.892.179-1.425.62-1.764 1.202-.361.62-.536 1.463-.536 2.444a1 1 0 0 1-1 1c-2.366 0-4.618-.703-6.513-2.604a10.52 10.52 0 0 0-.168 2.34c.052 1.086.312 2.175.927 3.108.604.917 1.6 1.757 3.263 2.285a1 1 0 0 1 .41 1.655 8.52 8.52 0 0 1-1.796 1.405c1.061.11 2.083.118 3.03.032 1.92-.174 3.45-.723 4.406-1.5 2.012-1.632 3.09-4.066 2.89-8.144-.034-.67.612-1.393.925-1.942-.471.088-.943.072-1.248-.367ZM5.354 4.984a1 1 0 0 1 .94.429C7.77 7.572 9.543 8.47 11.51 8.674c.096-.841.323-1.672.75-2.404.626-1.074 1.644-1.864 3.098-2.156 2.01-.404 3.54.324 4.427 1.215l1.792-.335a1 1 0 0 1 1.053 1.478l-1.72 3.022c.157 4.361-1.055 7.405-3.639 9.502-1.37 1.112-3.332 1.743-5.485 1.938-2.17.196-4.623-.041-7.061-.753a1 1 0 0 1 .006-1.922c1.227-.349 2.16-.65 3.004-1.177-1.199-.636-2.082-1.468-2.707-2.416-.869-1.318-1.19-2.788-1.255-4.113-.064-1.325.128-2.553.33-3.438a10.92 10.92 0 0 1 .433-1.495 1 1 0 0 1 .819-.636Z"
                  clip-rule="evenodd"/>
        </g>
    </g>
    <defs>
        <clipPath id="a">
            <path fill="#fff" d="M.76 0h24v24h-24z"/>
        </clipPath>
    </defs>
</svg>
