<svg xmlns="http://www.w3.org/2000/svg" id="orchid" fill="currentColor" viewBox="0 0 24 25">
  <g  clip-path="url(#a)">
    <g >
      <path fill="currentColor" fill-rule="evenodd" d="M16 14.644a5 5 0 0 1 4.995 4.783l.005.217v1a2 2 0 0 1-1.85 1.994l-.15.006H5a2 2 0 0 1-1.995-1.85L3 20.643v-1a5 5 0 0 1 4.783-4.996L8 14.644h8Zm0 2H8a3 3 0 0 0-2.995 2.824L5 19.643v1h14v-1a3 3 0 0 0-2.824-2.995L16 16.644Zm-4-14a5 5 0 1 1 0 10 5 5 0 0 1 0-10Zm0 2a3 3 0 1 0 0 6 3 3 0 0 0 0-6Z"  clip-rule="evenodd"/>
    </g>
  </g>
  <defs>
    <clipPath id="a" >
      <path fill="#fff" d="M0 .644h24v24H0z"/>
    </clipPath>
  </defs>
</svg>
