<svg xmlns="http://www.w3.org/2000/svg" id="orchid" fill="currentColor" viewBox="0 0 25 25">
  <g  clip-path="url(#a)">
    <g >
      <path fill="currentColor" d="M12.76 2.5c5.523 0 10 4.477 10 10s-4.477 10-10 10a9.958 9.958 0 0 1-4.863-1.26l-.306-.178-3.031.892a1.01 1.01 0 0 1-1.28-1.145l.026-.109.891-3.032A9.958 9.958 0 0 1 2.76 12.5c0-5.523 4.477-10 10-10Zm0 2A8 8 0 0 0 6 16.782c.2.312.284.696.216 1.077l-.038.163-.442 1.501 1.502-.441c.433-.128.883-.05 1.24.177A8 8 0 1 0 12.76 4.5Zm-2.9 3.184a.695.695 0 0 1 .684.075c.505.368.905.862 1.25 1.344l.326.474.153.225a.712.712 0 0 1-.046.864l-.075.076-.924.686a.227.227 0 0 0-.067.291c.209.38.581.947 1.007 1.373.426.426 1.02.822 1.426 1.055.087.05.194.034.266-.031l.038-.045.601-.915a.711.711 0 0 1 .973-.158l.543.379c.54.385 1.059.799 1.47 1.324a.696.696 0 0 1 .089.703c-.396.924-1.399 1.711-2.441 1.673l-.159-.01-.192-.018a5.246 5.246 0 0 1-.107-.014l-.238-.04c-.924-.174-2.406-.698-3.94-2.232-1.534-1.535-2.058-3.016-2.232-3.94l-.04-.238-.025-.208-.014-.175a3.65 3.65 0 0 1-.003-.075c-.039-1.044.753-2.047 1.677-2.443Z" />
    </g>
  </g>
  <defs>
    <clipPath id="a" >
      <path fill="#fff" d="M.76.5h24v24h-24z"/>
    </clipPath>
  </defs>
</svg>
