<svg id="orchid" width="17" height="16" viewBox="0 0 17 16" fill="none" xmlns="http://www.w3.org/2000/svg">
    <g id="Whatsapp-Colored">
        <path id="VectorWA"
              d="M1.68402 14.6954L2.63727 11.2217C2.04836 10.2026 1.73903 9.04663 1.74045 7.87022C1.74201 4.1739 4.7558 1.16679 8.45929 1.16679C10.2565 1.16771 11.9434 1.86575 13.212 3.13289C14.4807 4.40002 15.1787 6.08431 15.178 7.8756C15.1764 11.5716 12.1622 14.5793 8.4592 14.5793H8.45628C7.33191 14.5788 6.22708 14.2973 5.24571 13.7632L1.68402 14.6954Z"
              fill="#E5E6EA"/>
        <path id="VectorWA_2"
              d="M8.46128 2.29921C5.38093 2.29921 2.87586 4.79857 2.87476 7.87066C2.87324 8.9197 3.16922 9.94774 3.72847 10.8359L3.86134 11.0467L3.2971 13.1027L5.41069 12.5496L5.61479 12.6702C6.47197 13.178 7.4548 13.4465 8.45708 13.447H8.45918C11.5372 13.447 14.0422 10.9474 14.0434 7.87513C14.0457 7.14287 13.9025 6.41741 13.622 5.74077C13.3415 5.06413 12.9293 4.44975 12.4093 3.93319C11.8922 3.4138 11.277 3.00195 10.5993 2.72147C9.92161 2.441 9.19492 2.29748 8.46128 2.29921Z"
              fill="#23B33A"/>
        <path id="VectorWA_3" fill-rule="evenodd" clip-rule="evenodd"
              d="M6.77999 5.06772C6.65415 4.78874 6.52174 4.78309 6.40221 4.77826L6.08041 4.77434C5.96846 4.77434 5.78656 4.81626 5.63278 4.98396C5.47901 5.15166 5.04517 5.55697 5.04517 6.38134C5.04517 7.20571 5.64675 8.00228 5.73058 8.1142C5.81441 8.22612 6.89194 9.97175 8.59836 10.6434C10.0164 11.2015 10.305 11.0905 10.6129 11.0626C10.9208 11.0347 11.6061 10.6573 11.7459 10.266C11.8857 9.87478 11.8858 9.53956 11.8439 9.46947C11.802 9.39938 11.69 9.35773 11.522 9.27388C11.354 9.19003 10.5288 8.78473 10.3749 8.72877C10.221 8.67281 10.1092 8.64501 9.99713 8.81271C9.88509 8.98041 9.56375 9.35764 9.46577 9.46947C9.36778 9.5813 9.26999 9.59534 9.10196 9.51158C8.93394 9.42782 8.39335 9.25082 7.75195 8.68001C7.25291 8.23588 6.91605 7.68739 6.81797 7.51978C6.7199 7.35217 6.80756 7.2614 6.89176 7.17791C6.96709 7.10281 7.05959 6.98223 7.1437 6.88444C7.2278 6.78664 7.25547 6.71674 7.31135 6.60509C7.36724 6.49344 7.33939 6.39537 7.29738 6.31161C7.25538 6.22786 6.9292 5.39911 6.77999 5.06772Z"
              fill="white"/>
    </g>
</svg>
