<svg width="56" height="56" viewBox="0 0 56 56" fill="none" xmlns="http://www.w3.org/2000/svg" id="orchid">
<path d="M39.176 25.2532V34.766C39.176 35.1517 39.0961 35.4738 38.9911 35.6809C38.9159 35.8293 38.8587 35.8686 38.8426 35.8775H16.8249C16.8094 35.8695 16.7508 35.8316 16.6737 35.6801C16.5684 35.4734 16.4885 35.1517 16.4885 34.766V25.2532C16.4885 24.8675 16.5684 24.5458 16.6737 24.3391C16.7508 24.1876 16.8094 24.1498 16.8249 24.1418H38.8426C38.8587 24.1506 38.9159 24.19 38.9911 24.3383C39.0961 24.5455 39.176 24.8676 39.176 25.2532Z" fill="#F7D01C" stroke="#03102F"/>
<path d="M45.5366 36.2071C43.5926 41.5702 39.3879 45.6798 34.2427 47.6382C36.7913 44.8594 38.4084 41.653 39.1577 37.8682C39.2859 37.2227 38.3055 37.0206 38.1772 37.6749C37.3672 41.7618 35.5942 45.0128 32.5962 47.9034C32.5062 47.9905 32.4614 48.1038 32.4509 48.2194C31.0122 48.611 29.5178 48.8373 27.9893 48.8823V37.9678C27.9893 37.3058 26.9893 37.3065 26.9893 37.9678V48.8871C26.1378 48.8675 25.294 48.8027 24.4664 48.673C24.4281 48.6155 24.3793 48.5642 24.3169 48.5255C20.5903 46.2003 17.6138 42.2989 16.7339 38.584C16.5803 37.9342 15.6089 38.1748 15.7612 38.8145C16.5544 42.1649 18.9425 45.6377 22.0432 48.1182C16.2532 46.4197 11.4415 42.0591 9.32031 36.2071C9.09474 35.5853 8.15483 35.9257 8.37988 36.5469C11.2764 44.5362 18.9312 49.9044 27.4282 49.9044C35.9258 49.9044 43.5806 44.5362 46.4771 36.5469C46.7028 35.9238 45.7598 35.5865 45.5366 36.2071ZM9.0874 23.793C11.1689 17.2488 16.4695 12.4617 22.9308 10.9262C19.5975 13.0254 17.1796 15.9222 16.0889 21.4981C15.9615 22.1453 16.9427 22.3407 17.0703 21.6895C18.2988 15.4102 21.1753 12.8174 25.4185 10.671C25.5012 10.629 25.5598 10.5635 25.6064 10.4907C26.0633 10.448 26.5248 10.4254 26.9893 10.415V22.2481C26.9893 22.9101 27.9893 22.9094 27.9893 22.2481V10.4199C28.1114 10.4234 28.2331 10.4288 28.3547 10.4345C28.3787 10.4507 28.3975 10.4722 28.4248 10.4844C33.8979 12.9376 37.041 16.5049 38.3164 21.713C38.4741 22.3546 39.4448 22.118 39.2881 21.4747C38.1442 16.8047 35.4608 13.288 31.1422 10.7684C37.9533 12.0925 43.6065 16.9877 45.7803 23.794C45.9803 24.4211 46.9351 24.122 46.7324 23.4893C44.0405 15.0606 36.2827 9.39752 27.4282 9.39752C18.5693 9.39752 10.8154 15.0606 8.13428 23.4903C7.93442 24.1191 8.88611 24.4244 9.0874 23.793ZM52.3765 18.3087C52.1948 18.1006 51.8779 18.0801 51.6709 18.2608L50.9197 18.9177C51.7637 16.2669 50.7733 13.5565 48.6958 12.0264C48.6606 7.29684 42.8922 4.28823 38.7896 7.31061C38.5669 7.47467 38.5195 7.78717 38.6836 8.00983C38.8472 8.23248 39.1611 8.28033 39.3823 8.1153C42.5707 5.76846 47.026 7.72763 47.6406 11.4151C45.4995 10.5078 43.7791 11.8588 43.8442 13.3419C43.8916 14.4141 44.9243 15.2852 46.0718 15.2628C47.0904 15.2173 48.1544 14.442 48.5347 13.1876C50.2579 14.7727 50.6886 17.2205 49.6957 19.28L48.5322 17.7061C48.3687 17.4854 48.0552 17.4385 47.833 17.6016C47.6108 17.7667 47.564 18.0792 47.7285 18.3018L49.2319 20.335C49.6271 20.8709 50.1279 20.9366 50.6729 20.463L52.3291 19.0147C52.5371 18.8331 52.5581 18.5167 52.3765 18.3087ZM46.0278 14.2628C45.4565 14.3057 44.8667 13.8194 44.8433 13.2979C44.8045 12.4187 46.0209 11.5978 47.6592 12.5411C47.4898 13.6132 46.7266 14.2328 46.0278 14.2628ZM51.5889 28.7403H43.8726C43.5962 28.7403 43.3726 28.9639 43.3726 29.2403C43.3726 29.5167 43.5962 29.7403 43.8726 29.7403H51.5889C51.8652 29.7403 52.0889 29.5167 52.0889 29.2403C52.0889 28.9639 51.8652 28.7403 51.5889 28.7403ZM12.2163 29.2403C12.2163 28.9639 11.9927 28.7403 11.7163 28.7403H4C3.72363 28.7403 3.5 28.9639 3.5 29.2403C3.5 29.5167 3.72363 29.7403 4 29.7403H11.7163C11.9927 29.7403 12.2163 29.5167 12.2163 29.2403Z" fill="#03102F"/>
<path d="M44.5 31.952C45.8884 31.952 47.014 30.8265 47.014 29.438C47.014 28.0496 45.8884 26.924 44.5 26.924C43.1115 26.924 41.986 28.0496 41.986 29.438C41.986 30.8265 43.1115 31.952 44.5 31.952Z" fill="#FF6B6C"/>
<path d="M11.716 31.952C13.1045 31.952 14.23 30.8265 14.23 29.438C14.23 28.0496 13.1045 26.924 11.716 26.924C10.3276 26.924 9.20203 28.0496 9.20203 29.438C9.20203 30.8265 10.3276 31.952 11.716 31.952Z" fill="#FF6B6C"/>
<circle cx="27.5" cy="30" r="3" fill="#EAA00C"/>
</svg>
