<svg id="orchid" viewBox="0 0 20 21" fill="none" xmlns="http://www.w3.org/2000/svg">
    <g clip-path="url(#clip0_3926_3220)">
        <path d="M10 2.16667C14.6024 2.16667 18.3334 5.89763 18.3334 10.5C18.3334 15.1023 14.6024 18.8333 10 18.8333C5.39765 18.8333 1.66669 15.1023 1.66669 10.5C1.66669 5.89763 5.39765 2.16667 10 2.16667ZM8.2323 7.55369C7.90686 7.22826 7.37923 7.22826 7.05379 7.55369C6.75339 7.8541 6.73028 8.32679 6.98446 8.6537L7.05379 8.7322L8.82152 10.4999L7.05371 12.2678C6.72828 12.5932 6.72828 13.1208 7.05371 13.4463C7.35412 13.7466 7.82681 13.7697 8.15372 13.5156L8.23222 13.4463L10 11.6784L11.7679 13.4463C12.0933 13.7717 12.6209 13.7717 12.9464 13.4463C13.2467 13.1459 13.2698 12.6732 13.0157 12.3463L12.9464 12.2678L11.1785 10.4999L12.9463 8.73218C13.2717 8.40675 13.2717 7.87911 12.9463 7.55368C12.6459 7.25327 12.1732 7.23016 11.8463 7.48435L11.7678 7.55368L10 9.32142L8.2323 7.55369Z"
              fill="currentColor"/>
    </g>
    <defs>
        <clipPath id="clip0_3926_3220">
            <rect width="20" height="20" fill="white" transform="translate(0 0.5)"/>
        </clipPath>
    </defs>
</svg>
